<svg width="99" height="99" viewBox="0 0 99 99" fill="none" xmlns="http://www.w3.org/2000/svg">
<path d="M78.8225 84.3462C78.8225 84.3462 74.019 78.8067 72.2049 73.2851C70.3907 67.7634 71.2533 68.3886 71.2533 68.3886C71.2533 68.3886 73.7005 73.7619 75.5602 76.3555C77.4199 78.9492 80.7277 82.7595 80.7277 82.7595L78.8225 84.3462Z" fill="#455A64"/>
<path d="M79.7802 69.2433C79.7487 69.1854 79.6978 69.1406 79.6365 69.1168C79.5751 69.0929 79.5073 69.0915 79.445 69.1128C79.3827 69.1341 79.3299 69.1768 79.2961 69.2332C79.2622 69.2897 79.2494 69.3563 79.2599 69.4213C79.5527 71.3641 80.1858 75.9223 80.1621 78.8799C80.1284 82.72 80.1621 84.2038 80.1621 84.2038H82.1622C82.1622 84.2038 81.8081 76.2645 81.355 73.843C81.0385 72.1535 80.3658 70.27 79.7802 69.2433Z" fill="#455A64"/>
<path d="M80.8721 83.5667C81.71 81.6677 82.2646 79.656 82.5181 77.596C82.6823 76.1814 82.3875 74.2703 81.9503 71.7221C81.7841 70.789 81.7026 69.8428 81.7069 68.895C81.7084 68.7899 81.7446 68.6882 81.81 68.6057C81.8753 68.5233 81.966 68.4647 82.0681 68.4392C82.1701 68.4137 82.2777 68.4227 82.3741 68.4647C82.4705 68.5067 82.5504 68.5794 82.6012 68.6715C82.8425 69.1008 83.5429 70.5727 83.719 71.4946C84.2037 74.0131 84.7517 75.2714 84.3323 77.6612C83.9128 80.0511 82.3539 83.7289 82.3539 83.7289L80.8721 83.5667Z" fill="#455A64"/>
<path d="M82.6724 83.7289C82.6724 83.7289 87.9487 72.3909 88.3147 70.7092C88.6807 69.0276 89.9231 65.15 90.0695 65.3676C90.2159 65.5852 90.4355 67.6348 89.476 69.9753C88.5165 72.3157 84.4766 84.0811 84.4766 84.0811H82.6743" fill="#455A64"/>
<path d="M80.2944 83.2205C80.2417 83.192 80.1919 83.1582 80.1461 83.1196C80.0511 83.0484 79.9106 82.9495 79.7365 82.807C79.2435 82.4145 78.7707 81.9972 78.32 81.5567C76.8333 80.0941 75.5461 78.4418 74.4919 76.6424C73.4391 74.8456 72.5639 72.9506 71.8784 70.9842C71.6133 70.2305 71.4194 69.6152 71.2948 69.1859C71.2295 68.9722 71.186 68.804 71.1543 68.6913C71.1363 68.6343 71.1224 68.5761 71.1128 68.5172C71.139 68.5712 71.1601 68.6275 71.1761 68.6853L71.3363 69.174C71.4748 69.5974 71.6786 70.2087 71.9536 70.9545C72.6578 72.9074 73.5385 74.792 74.5848 76.585C75.6365 78.3791 76.9101 80.0335 78.3754 81.5092C78.9393 82.0711 79.422 82.4984 79.7603 82.7833C79.9284 82.9297 80.0669 83.0345 80.156 83.1117C80.2042 83.1453 80.2504 83.1816 80.2944 83.2205Z" fill="#263238"/>
<path d="M80.8703 77.7819C80.8451 77.6727 80.8293 77.5615 80.8228 77.4496C80.7991 77.2141 80.7654 76.9095 80.7259 76.5395C80.6428 75.7739 80.5122 74.7154 80.3302 73.5541C80.1482 72.3928 79.9345 71.3463 79.7743 70.5866C79.6951 70.2245 79.6318 69.9238 79.5764 69.6943C79.5478 69.586 79.5286 69.4755 79.519 69.3639C79.5604 69.4675 79.5941 69.574 79.6199 69.6824C79.6793 69.8922 79.7564 70.1948 79.8475 70.5707C80.0295 71.3205 80.2431 72.3671 80.441 73.5383C80.6388 74.7095 80.7456 75.764 80.8089 76.5355C80.8406 76.9193 80.8624 77.2319 80.8703 77.4476C80.8801 77.5588 80.8801 77.6707 80.8703 77.7819Z" fill="#263238"/>
<path d="M82.1025 68.5825C82.1287 68.628 82.1493 68.6765 82.1639 68.7269C82.2054 68.8337 82.2568 68.9722 82.3221 69.1483C82.3874 69.3243 82.4725 69.5558 82.5496 69.8229C82.6268 70.09 82.7297 70.3887 82.8048 70.731C82.8484 70.9011 82.8919 71.0792 82.9354 71.2632C82.9789 71.4471 83.0126 71.645 83.0521 71.8567C83.1392 72.2523 83.1926 72.6955 83.25 73.1545C83.4931 75.1466 83.4236 77.1644 83.0442 79.1351C82.9493 79.5882 82.8642 80.0195 82.7495 80.4151C82.6941 80.613 82.6486 80.8108 82.5912 80.9889C82.5338 81.1669 82.4764 81.345 82.423 81.5112C82.3221 81.8455 82.1995 82.1383 82.1025 82.3975C82.0056 82.6566 81.9047 82.8782 81.8275 83.0543C81.7504 83.2304 81.6871 83.3609 81.6396 83.4638C81.6208 83.5123 81.5969 83.5588 81.5684 83.6023C81.5807 83.5513 81.598 83.5016 81.6198 83.4539C81.6613 83.3491 81.7187 83.2106 81.788 83.0385C81.8572 82.8664 81.9541 82.6428 82.0432 82.3757C82.1322 82.1086 82.2529 81.8218 82.3478 81.4874L82.5081 80.9651C82.5635 80.7831 82.607 80.5892 82.6584 80.3914C82.7692 79.9957 82.8563 79.5664 82.9433 79.1153C83.3122 77.1502 83.3842 75.1409 83.157 73.1545C83.0957 72.6975 83.0462 72.2642 82.9592 71.8626C82.9196 71.6648 82.8919 71.4669 82.8504 71.279L82.7257 70.7468C82.6545 70.4065 82.5595 70.1058 82.4863 69.8387C82.4131 69.5716 82.3419 69.3441 82.2786 69.1601L82.1421 68.7328C82.1235 68.6843 82.1102 68.6339 82.1025 68.5825Z" fill="#263238"/>
<path d="M90.0161 65.5971C90.0184 65.6142 90.0184 65.6315 90.0161 65.6485C90.0161 65.6881 90.0082 65.7376 89.9924 65.7969C89.9706 65.9255 89.9409 66.1174 89.8895 66.3608C89.7866 66.8474 89.6165 67.5478 89.3534 68.4005C89.0902 69.2531 88.7302 70.2522 88.3028 71.3483C87.8755 72.4443 87.3829 73.6432 86.918 74.9093C86.4531 76.1755 86.0752 77.4219 85.731 78.5456C85.3867 79.6693 85.0662 80.6842 84.7536 81.5132C84.5125 82.1745 84.2345 82.8218 83.9207 83.452C83.8139 83.6755 83.7229 83.8476 83.6537 83.9584L83.5805 84.089C83.5633 84.118 83.5534 84.1319 83.5508 84.1306C83.5543 84.1139 83.5603 84.0979 83.5686 84.0831L83.6339 83.9485C83.6893 83.8298 83.7803 83.6597 83.8812 83.4322C84.0948 82.9831 84.3797 82.3223 84.6725 81.4855C84.9653 80.6486 85.2898 79.6377 85.6241 78.5179C85.9585 77.3981 86.3284 76.1438 86.8111 74.8717C87.2939 73.5996 87.7786 72.4008 88.2079 71.3107C88.6372 70.2206 88.9992 69.2235 89.2802 68.3767C89.5611 67.53 89.7332 66.8356 89.848 66.3509C89.9053 66.1095 89.9429 65.9196 89.9726 65.791C89.9864 65.7336 89.9983 65.6861 90.0062 65.6466C90.0083 65.6299 90.0116 65.6133 90.0161 65.5971Z" fill="#263238"/>
<path d="M73.7403 63.0945C73.6679 63.0237 73.5739 62.9793 73.4733 62.9682C73.3728 62.9571 73.2713 62.9801 73.1853 63.0333C73.0992 63.0866 73.0335 63.1671 72.9986 63.2621C72.9636 63.3571 72.9615 63.4611 72.9925 63.5574C73.1743 64.1397 73.3957 64.7088 73.6553 65.2608C74.3813 66.8019 76.512 72.3335 77.5091 75.3703C78.5062 78.4071 79.9109 84.0752 79.9109 84.0752L82.0416 83.7309C82.0416 83.7309 80.0929 74.4207 78.1897 71.0693C76.6584 68.3688 75.1292 64.4734 73.7403 63.0945Z" fill="#455A64"/>
<path d="M78.0923 77.2695C78.1363 77.3511 78.1728 77.4365 78.2011 77.5247C78.2644 77.6929 78.3495 77.9362 78.4464 78.2409C78.6442 78.8483 78.8836 79.697 79.125 80.6387C79.3664 81.5804 79.5662 82.439 79.7066 83.0622C79.77 83.355 79.8234 83.6023 79.8669 83.8002C79.8915 83.8893 79.9061 83.9808 79.9104 84.0732C79.8721 83.9888 79.8429 83.9006 79.8234 83.81L79.6255 83.08C79.4633 82.439 79.2477 81.5982 79.0122 80.6664C78.7768 79.7346 78.5434 78.876 78.3673 78.2627C78.2822 77.9738 78.211 77.7325 78.1556 77.5386C78.1241 77.4517 78.1028 77.3614 78.0923 77.2695Z" fill="#263238"/>
<path d="M80.9809 83.9011C80.9746 83.8825 80.9706 83.8632 80.9691 83.8437L80.9453 83.6755C80.9216 83.5291 80.9018 83.3115 80.8583 83.0326C80.7791 82.4727 80.6407 81.6655 80.4112 80.6822C80.1408 79.5315 79.8106 78.3957 79.422 77.2794C78.9847 76.0192 78.4328 74.6561 77.8175 73.2435C76.5632 70.4303 75.305 67.9257 74.482 66.0778C74.0665 65.1559 73.744 64.4022 73.5323 63.8779C73.4235 63.6167 73.3464 63.411 73.293 63.2725L73.2336 63.1142C73.2264 63.0964 73.2211 63.0778 73.2178 63.0588C73.2178 63.0588 73.2277 63.0747 73.2435 63.1083L73.3147 63.2646C73.376 63.409 73.4631 63.6069 73.5719 63.8581C73.7974 64.3784 74.1298 65.1243 74.5611 66.0343C75.3999 67.8722 76.6621 70.367 77.9243 73.1881C78.5455 74.6027 79.0916 75.9697 79.5248 77.2359C79.9132 78.3565 80.2388 79.4978 80.5002 80.6545C80.6774 81.4345 80.8154 82.2229 80.9137 83.0167C80.9513 83.2957 80.9651 83.5153 80.979 83.6637C80.979 83.7329 80.9888 83.7883 80.9928 83.8338C80.9925 83.8567 80.9885 83.8794 80.9809 83.9011Z" fill="#263238"/>
<path d="M82.0415 83.7289C82.0074 83.6118 81.9829 83.492 81.9683 83.3709C81.9267 83.1196 81.8714 82.7912 81.8041 82.3817C81.6557 81.5567 81.4322 80.4191 81.1097 79.1826C80.7872 77.9461 80.4331 76.8442 80.1561 76.0528L79.8218 75.1171C79.7762 75.0044 79.7385 74.8887 79.709 74.7708C79.7697 74.8764 79.8213 74.9869 79.8633 75.1012C79.9543 75.3169 80.0829 75.6314 80.2313 76.0251C80.6153 77.0505 80.9455 78.0951 81.2205 79.1549C81.4945 80.2141 81.715 81.2864 81.8812 82.3678C81.9426 82.7833 81.9901 83.1216 82.0118 83.357C82.0316 83.48 82.0416 83.6044 82.0415 83.7289Z" fill="#263238"/>
<path d="M86.4118 83.4223H78.0986V93.5496H86.4118V83.4223Z" fill="#0572E6"/>
<g opacity="0.3">
<path d="M86.4118 83.4223H78.0986V93.5496H86.4118V83.4223Z" fill="black"/>
</g>
<path d="M83.7602 83.4223H76.3848V93.5496H83.7602V83.4223Z" fill="#0572E6"/>
<path d="M30.9556 50.8274C30.9556 50.8274 30.9581 50.8174 30.9556 50.8274V50.8274Z" fill="#0572E6"/>
<path d="M69.9751 78.4091C69.9098 76.9866 67.7771 57.8656 67.4546 55.4104C66.9403 51.4893 63.7867 50.506 63.7867 50.506L53.0659 46.8065H42.4578L30.9615 50.8226V51.0204C30.9615 50.9136 30.9615 50.8483 30.9615 50.8226C30.8467 50.8859 28.0176 51.6911 27.3391 54.4786C26.9691 56.002 22.6503 77.6118 22.5909 78.2468C22.5316 78.8819 23.0994 82.7556 26.152 83.264C27.2936 83.4618 29.7645 83.2779 32.4057 82.9851L30.3264 93.5773H63.6502L62.4632 86.006C65.1122 84.9733 67.8859 83.8298 68.3489 83.3392C69.2629 82.4054 70.0344 79.8295 69.9751 78.4091Z" fill="#0572E6"/>
<g opacity="0.3">
<path d="M40.9901 76.1676C40.9397 75.4851 40.7738 74.8161 40.4995 74.1892C40.1988 73.5779 39.6785 73.0417 39.0177 72.8716C38.3569 72.7015 37.5656 72.9765 37.2728 73.5937C36.0699 76.9569 37.164 78.8681 39.449 80.6901C39.813 80.981 40.2621 81.2065 40.7072 81.074C41.1524 80.9414 41.2335 80.6209 41.2552 80.1639C41.3225 78.8087 41.1504 77.505 40.9901 76.1676Z" fill="black"/>
</g>
<path d="M36.2932 72.3295C36.222 72.3489 36.1491 72.3608 36.0755 72.3651L35.482 72.4284C34.9676 72.4779 34.2495 72.5432 33.4285 72.6124H33.4522C33.2643 72.743 33.0704 72.8795 32.8745 73.022C32.1797 73.5026 31.5454 74.0652 30.9852 74.6976C30.821 74.8932 30.6709 75.1001 30.5361 75.3169C30.4939 75.4016 30.4443 75.4824 30.3877 75.5582C30.4158 75.4674 30.4536 75.3799 30.5005 75.2971C30.624 75.0702 30.767 74.8544 30.9278 74.6521C31.4774 73.9992 32.1122 73.4229 32.8152 72.9389C33.013 72.7944 33.2108 72.6599 33.3948 72.5293H33.4067H33.4186C34.2416 72.466 34.9617 72.4126 35.4781 72.381L36.0834 72.3473C36.1526 72.3343 36.2228 72.3283 36.2932 72.3295Z" fill="#263238"/>
<path d="M41.4787 76.0331C41.4868 76.052 41.4921 76.072 41.4945 76.0924L41.5321 76.2705C41.5618 76.4267 41.6034 76.6661 41.637 76.9569C41.7316 77.8057 41.7778 78.6591 41.7755 79.513C41.7755 79.7821 41.7755 80.065 41.7755 80.3598C41.7907 80.6792 41.6839 80.9925 41.4767 81.2362C41.2484 81.4902 40.9325 81.6485 40.5924 81.6793L39.5656 81.8574C38.161 82.1047 36.6198 82.4014 34.9916 82.6646C33.3634 82.9277 31.8045 83.1137 30.382 83.2383C28.9595 83.3629 27.6716 83.4619 26.5894 83.3847C26.332 83.3677 26.0761 83.332 25.8238 83.2779C25.5968 83.2252 25.3797 83.1363 25.1808 83.0147C24.8693 82.8179 24.5806 82.587 24.3202 82.3263C24.1026 82.1146 23.9444 81.9425 23.8355 81.8257L23.7149 81.6932C23.7001 81.678 23.6869 81.6614 23.6753 81.6437L23.7228 81.6853L23.8514 81.8119C23.9622 81.9247 24.1283 82.0908 24.3479 82.2966C24.6107 82.5497 24.8999 82.7739 25.2105 82.9653C25.4048 83.0815 25.6166 83.1656 25.8377 83.2146C26.0877 83.2645 26.3409 83.2969 26.5954 83.3115C27.6696 83.3807 28.9536 83.2818 30.3721 83.1433C31.7906 83.0049 33.3515 82.8268 34.9758 82.5617C36.6 82.2966 38.1412 82.0058 39.5478 81.7703L40.5766 81.5943C40.8977 81.5701 41.1973 81.4235 41.4134 81.1847C41.6095 80.9575 41.7101 80.6634 41.6944 80.3637C41.7043 80.0709 41.7082 79.788 41.7082 79.519C41.7175 78.6677 41.6825 77.8165 41.6034 76.9688C41.5757 76.6681 41.54 76.4366 41.5183 76.2784C41.5064 76.2052 41.4985 76.1458 41.4906 76.1003C41.4834 76.0786 41.4794 76.0559 41.4787 76.0331Z" fill="#263238"/>
<path d="M34.6471 60.0042C34.6767 60.0042 34.4235 62.8215 34.0812 66.2876C33.739 69.7537 33.4422 72.565 33.4126 72.561C33.3829 72.5571 33.6322 69.7458 33.9803 66.2757C34.3285 62.8056 34.6213 60.0023 34.6471 60.0042Z" fill="#263238"/>
<path d="M61.9808 57.555C61.9825 57.5714 61.9825 57.588 61.9808 57.6045C61.9808 57.642 61.9808 57.6875 61.9808 57.7449C61.9808 57.8755 61.971 58.0555 61.963 58.283C61.9472 58.7519 61.9156 59.4285 61.872 60.2614C61.783 61.9351 61.6247 64.2459 61.4269 66.7901C61.2291 69.3343 61.0589 71.647 60.9521 73.3187C60.9006 74.1496 60.8571 74.8223 60.8274 75.2971C60.8136 75.5246 60.7997 75.7046 60.7918 75.8352C60.7918 75.8926 60.7918 75.9381 60.78 75.9757C60.782 75.9914 60.782 76.0074 60.78 76.0231C60.7778 76.0074 60.7778 75.9914 60.78 75.9757V75.8352C60.78 75.7027 60.78 75.5226 60.7958 75.2951C60.8116 74.8262 60.8433 74.1496 60.8868 73.3167C60.9758 71.643 61.1361 69.3343 61.3319 66.7881C61.5278 64.2419 61.6999 61.9312 61.8067 60.2594C61.8602 59.4305 61.9017 58.7559 61.9314 58.2811C61.9472 58.0535 61.9591 57.8854 61.967 57.7429C61.967 57.6875 61.9769 57.6401 61.9789 57.6025C61.9774 57.5866 61.9781 57.5707 61.9808 57.555Z" fill="#263238"/>
<path d="M68.9843 78.0708C68.7982 77.7664 68.5926 77.4743 68.369 77.1963C67.8107 76.5435 67.088 76.0517 66.2759 75.7719C65.8238 75.6267 65.3607 75.5188 64.891 75.4494C64.2491 75.3498 63.5922 75.4572 63.0155 75.7561C62.9332 75.8056 62.8473 75.8486 62.7583 75.8847C62.7583 75.8847 62.7761 75.8649 62.8157 75.8372C62.8742 75.7951 62.935 75.7561 62.9977 75.7205C63.2262 75.587 63.4718 75.4851 63.7277 75.4178C64.1121 75.3241 64.5108 75.3033 64.9029 75.3565C65.3784 75.4205 65.8471 75.5271 66.3036 75.675C67.1359 75.9595 67.871 76.4731 68.4244 77.1568C68.5913 77.3617 68.739 77.5815 68.8656 77.8136C68.9138 77.8951 68.9536 77.9812 68.9843 78.0708Z" fill="#263238"/>
<path d="M63.3992 85.6499C63.3636 85.6745 63.3251 85.6944 63.2845 85.7093L62.9442 85.8616C62.6494 85.9922 62.2221 86.1821 61.6879 86.4057C61.068 86.6837 60.4261 86.91 59.7689 87.0823C59.3722 87.179 58.9596 87.1905 58.5581 87.1159C58.129 87.0153 57.7368 86.7959 57.4265 86.4828C57.1208 86.1698 56.8825 85.7975 56.7262 85.3888C56.5698 85.0181 56.4447 84.6349 56.3523 84.2433C56.191 83.5838 56.0694 82.9152 55.9882 82.2412C55.919 81.6655 55.8794 81.2006 55.8517 80.8781C55.8399 80.7258 55.8319 80.6011 55.824 80.5062C55.8197 80.4627 55.8197 80.419 55.824 80.3756C55.8366 80.4175 55.8445 80.4606 55.8478 80.5042C55.8596 80.5991 55.8755 80.7218 55.8933 80.8741C55.9328 81.1946 55.9843 81.6655 56.0634 82.2313C56.1501 82.9008 56.2756 83.5647 56.4393 84.2196C56.5331 84.6056 56.6581 84.9834 56.8132 85.3492C56.9656 85.7443 57.1964 86.1043 57.4918 86.4077C57.7887 86.7076 58.1635 86.9187 58.574 87.017C58.9613 87.0903 59.3598 87.0808 59.7432 86.9893C60.3962 86.8223 61.0351 86.6047 61.6543 86.3384L62.9225 85.824L63.2706 85.6895C63.3117 85.671 63.3549 85.6577 63.3992 85.6499Z" fill="#263238"/>
<g opacity="0.3">
<path d="M41.5004 81.1432C41.2037 81.5567 40.5765 81.6398 40.076 81.7248C37.4309 82.1739 35.041 82.6032 32.3603 82.8941L32.02 84.6429C34.7264 84.2097 37.512 83.6379 40.0661 82.6468C40.4193 82.5285 40.7494 82.3498 41.0414 82.1185C41.1875 82.0019 41.3048 81.8534 41.3844 81.6843C41.464 81.5152 41.5037 81.3301 41.5004 81.1432Z" fill="black"/>
</g>
<g opacity="0.3">
<path d="M56.8286 80.9533C56.9301 82.4042 57.3474 83.8153 58.0512 85.0881C58.2155 85.371 58.4647 85.6816 58.7912 85.646C59.0444 85.6183 59.2205 85.3908 59.353 85.1751C59.8654 84.3482 60.3303 83.5608 60.4886 82.6032L57.9662 81.5963L56.8286 80.9533Z" fill="black"/>
</g>
<path d="M51.3209 80.6565C51.3387 80.6803 49.4157 82.1878 47.0298 84.0198C44.6439 85.8517 42.6932 87.3296 42.6773 87.3078C42.6615 87.2861 44.5825 85.7766 46.9684 83.9446C49.3544 82.1126 51.3031 80.6348 51.3209 80.6565Z" fill="#263238"/>
<path d="M61.8382 77.1568C61.8552 77.2661 61.8644 77.3765 61.8659 77.4872C61.8729 77.619 61.8729 77.751 61.8659 77.8828C61.8659 78.0332 61.8461 78.2053 61.8243 78.3933C61.6936 79.3771 61.4534 80.3433 61.1082 81.2738C60.7756 82.2074 60.3556 83.1076 59.8539 83.9624C59.7002 84.2207 59.5325 84.4704 59.3514 84.7102C59.2878 84.8002 59.2163 84.8843 59.1377 84.9615C59.1904 84.8648 59.2513 84.7728 59.3197 84.6865C59.4364 84.5124 59.6046 84.2552 59.7906 83.9248C60.2721 83.0651 60.6805 82.1664 61.0112 81.2382C61.3534 80.3146 61.6013 79.3588 61.7511 78.3853C61.7769 78.1974 61.8006 78.0292 61.8085 77.8789C61.8164 77.7285 61.8322 77.5999 61.8283 77.4951C61.8215 77.3822 61.8248 77.269 61.8382 77.1568Z" fill="#263238"/>
<path d="M47.0572 70.6044C47.0572 70.6044 44.1193 65.9117 41.8145 66.8336C41.8145 66.8336 40.6433 65.8741 39.8955 66.4893C39.1477 67.1046 39.4148 68.351 39.4148 68.351C39.4148 68.351 37.9943 67.1996 37.3592 67.7951C36.7242 68.3906 37.1871 69.4075 37.3592 69.908C37.4942 70.4175 37.5842 70.9378 37.6283 71.463C37.6283 71.463 36.7637 71.0218 36.3601 71.7321C35.9566 72.4423 37.4938 74.8243 37.7252 75.1507C37.9567 75.4771 39.4345 76.9312 40.4514 76.5534C41.4683 76.1755 42.1805 75.1507 42.1805 75.1507L47.0572 70.6044Z" fill="#FFBE9D"/>
<path d="M39.4134 68.531C39.5066 68.5784 39.5953 68.634 39.6785 68.6972L40.3828 69.1799L41.4155 69.908C41.5195 69.9801 41.6145 70.0645 41.6984 70.1592C41.7901 70.2634 41.845 70.3948 41.8547 70.5332C41.8533 70.6785 41.8104 70.8205 41.7313 70.9424C41.6521 71.0643 41.5398 71.1612 41.4076 71.2216C41.152 71.3387 40.8651 71.3692 40.5906 71.3087C40.3427 71.2525 40.1038 71.1627 39.8803 71.0416C39.4569 70.822 39.089 70.6064 38.7784 70.4164C38.4678 70.2265 38.2304 70.0623 38.0661 69.9436C37.9774 69.8859 37.8946 69.8196 37.8188 69.7458C37.9132 69.7921 38.0038 69.8457 38.0899 69.906C38.26 70.0128 38.5053 70.1672 38.8159 70.3492C39.1266 70.5312 39.5005 70.7448 39.9238 70.9427C40.1403 71.0571 40.3712 71.1416 40.6103 71.1939C40.862 71.2504 41.1252 71.2233 41.3601 71.1168C41.4755 71.0655 41.574 70.9825 41.644 70.8774C41.7141 70.7723 41.7528 70.6495 41.7558 70.5233C41.735 70.4077 41.6886 70.2982 41.6202 70.2027C41.5518 70.1072 41.4629 70.0282 41.3601 69.9713L40.3393 69.2433L39.6568 68.7348C39.5699 68.6741 39.4885 68.6059 39.4134 68.531Z" fill="#EB996E"/>
<path d="M39.4525 68.3886C39.4525 68.3886 39.4842 68.4064 39.5396 68.446L39.779 68.628C39.9867 68.7843 40.2854 69.0138 40.6653 69.2808C41.1013 69.6027 41.5783 69.8649 42.0838 70.0603C42.3826 70.1684 42.6948 70.235 43.0116 70.2582C43.3473 70.2984 43.6876 70.2527 44.0008 70.1256C44.1502 70.0528 44.2738 69.9362 44.355 69.7913C44.3916 69.7215 44.4139 69.6452 44.4207 69.5667C44.4275 69.4883 44.4186 69.4092 44.3945 69.3342C44.2733 69.0435 44.0935 68.7809 43.8663 68.5627C43.4886 68.1719 43.0826 67.8095 42.6516 67.4785C42.2856 67.1936 41.9789 66.976 41.7653 66.8257L41.5199 66.6535C41.4646 66.614 41.4349 66.5922 41.4369 66.5883C41.47 66.6009 41.5018 66.6168 41.5318 66.6357C41.5912 66.6694 41.6762 66.7228 41.787 66.792C42.0086 66.9325 42.3212 67.1422 42.6951 67.4212C43.1369 67.746 43.5517 68.1059 43.9356 68.4974C44.0404 68.6121 44.1472 68.7308 44.2462 68.8614C44.3535 68.9942 44.4366 69.1449 44.4915 69.3066C44.5195 69.3943 44.5297 69.4867 44.5215 69.5784C44.5134 69.6701 44.487 69.7593 44.444 69.8407C44.3551 70.0047 44.2166 70.1363 44.0483 70.2166C43.7189 70.3534 43.3597 70.4025 43.0057 70.3591C42.68 70.3308 42.3597 70.2575 42.0541 70.1414C41.5425 69.9397 41.0617 69.6674 40.6257 69.3323C40.2479 69.0573 39.9551 68.8179 39.7552 68.6497L39.5277 68.4519C39.4743 68.4163 39.4486 68.3906 39.4525 68.3886Z" fill="#EB996E"/>
<path d="M37.496 71.4551L39.5615 72.4443C39.7949 72.557 40.0679 72.7272 40.058 72.9863C40.0454 73.1065 39.9924 73.2187 39.9077 73.3049C39.731 73.4857 39.5158 73.6244 39.278 73.7103C39.0403 73.7963 38.7862 73.8275 38.5347 73.8014C38.0328 73.7435 37.5426 73.6101 37.0806 73.4058" fill="#FFBE9D"/>
<path d="M37.0806 73.4137C37.0806 73.3919 37.4248 73.5363 37.9847 73.6788C38.3108 73.7629 38.6503 73.7817 38.9838 73.7342C39.178 73.7013 39.3649 73.6343 39.5357 73.5363C39.7185 73.4392 39.87 73.2924 39.973 73.1129C39.9939 73.0701 40.0048 73.0231 40.0048 72.9754C40.0048 72.9278 39.9939 72.8808 39.973 72.838C39.926 72.7507 39.858 72.6765 39.7751 72.6223C39.6058 72.5176 39.4293 72.4251 39.2469 72.3453L38.3289 71.8903L37.7117 71.5777C37.6345 71.542 37.561 71.4989 37.4921 71.4491C37.5739 71.472 37.6534 71.5025 37.7295 71.5401L38.3586 71.825L39.2884 72.2583C39.4762 72.3397 39.658 72.4342 39.8325 72.5412C39.9303 72.6033 40.0101 72.6899 40.064 72.7924C40.0913 72.8489 40.1055 72.9108 40.1055 72.9735C40.1055 73.0362 40.0913 73.0981 40.064 73.1545C39.9483 73.3391 39.7922 73.4951 39.6075 73.6106C39.4228 73.7261 39.2142 73.7981 38.9976 73.8212C38.6516 73.8676 38.2998 73.8406 37.9649 73.7421C37.7418 73.681 37.523 73.605 37.3101 73.5146C37.2302 73.4893 37.1532 73.4555 37.0806 73.4137Z" fill="#EB996E"/>
<path d="M40.7149 76.4347L37.6029 78.783C37.6029 78.783 36.0934 76.68 37.0965 74.1318H37.8463L37.6761 74.9667L39.0927 75.2635L40.7149 76.4347Z" fill="#FFBE9D"/>
<path d="M37.0312 74.0745L38.1827 75.5741C38.3075 75.754 38.4566 75.9158 38.6258 76.0548C38.711 76.1236 38.8093 76.1743 38.9148 76.2039C39.0202 76.2335 39.1306 76.2413 39.2391 76.2269" fill="#FFBE9D"/>
<path d="M39.2313 76.217C39.155 76.2454 39.0733 76.2564 38.9922 76.2492C38.9111 76.242 38.8326 76.2168 38.7624 76.1755C38.6053 76.0987 38.4654 75.9911 38.3509 75.859C38.2203 75.7145 38.0957 75.5444 37.9552 75.3723C37.6862 75.0221 37.4488 74.7016 37.2806 74.4682C37.1806 74.3465 37.095 74.2137 37.0254 74.0725C37.1418 74.177 37.2466 74.2937 37.338 74.4207C37.522 74.6442 37.7693 74.9568 38.0363 75.307C38.1729 75.4811 38.2935 75.6512 38.4162 75.7937C38.5195 75.9207 38.6457 76.0274 38.7881 76.1082C38.9256 76.1779 39.0772 76.2151 39.2313 76.217Z" fill="#EB996E"/>
<path d="M37.9257 74.4088L41.744 70.7646C41.9283 70.5887 42.1454 70.4507 42.3831 70.3587C42.6207 70.2667 42.8741 70.2225 43.1289 70.2285L62.6792 70.8003C62.7645 70.8028 62.8469 70.8319 62.9148 70.8836C62.9827 70.9352 63.0328 71.0068 63.0581 71.0883C63.0834 71.1698 63.0826 71.2571 63.0558 71.3382C63.029 71.4192 62.9776 71.4898 62.9087 71.5402L57.4167 75.5741C57.3211 75.6438 57.2045 75.6787 57.0863 75.673L38.0939 74.85C38.0433 74.8487 37.9942 74.8324 37.9529 74.8032C37.9117 74.7739 37.88 74.7331 37.862 74.6858C37.8439 74.6385 37.8404 74.5869 37.8517 74.5376C37.8631 74.4883 37.8888 74.4435 37.9257 74.4088Z" fill="#E0E0E0"/>
<path d="M63.0668 71.2909C63.0438 71.2939 63.0205 71.2939 62.9975 71.2909H62.7997L62.0261 71.279L59.1793 71.2216L49.7958 70.9704L44.6303 70.826L43.4709 70.7904C43.2885 70.7785 43.1054 70.7785 42.9229 70.7904C42.7497 70.812 42.582 70.8657 42.4283 70.9486C42.2828 71.0351 42.1497 71.1409 42.0327 71.2632L41.6647 71.6015L40.9722 72.2405L38.8752 74.1635L38.3014 74.6838L38.1511 74.8164L38.0977 74.8599C38.0977 74.8599 38.1115 74.8401 38.1432 74.8084L38.2876 74.668L38.8475 74.1338L40.9228 72.1871L41.6113 71.5441L41.9773 71.2019C42.1004 71.0743 42.2401 70.9638 42.3927 70.8734C42.5553 70.7845 42.7331 70.7268 42.917 70.7033C43.104 70.6905 43.2918 70.6905 43.4788 70.7033L44.6382 70.735L49.8057 70.8774L59.1872 71.1583L62.0301 71.2553L62.8036 71.2869L63.0015 71.2988C63.0229 71.2939 63.0448 71.2912 63.0668 71.2909Z" fill="#263238"/>
<path d="M66.9405 61.0112C66.9662 61.0231 65.9929 62.9045 64.7643 65.2113C63.5357 67.5181 62.5228 69.3778 62.4971 69.3659C62.4714 69.354 63.4467 67.4726 64.6733 65.1658C65.8999 62.859 66.9168 60.9974 66.9405 61.0112Z" fill="white"/>
<path d="M59.7808 60.6234C59.8085 60.6234 59.4188 62.311 58.9083 64.3824C58.3979 66.4537 57.9627 68.1195 57.935 68.1116C57.9073 68.1037 58.299 66.424 58.8094 64.3527C59.3198 62.2813 59.7472 60.6155 59.7808 60.6234Z" fill="white"/>
<path d="M29.873 63.7038C29.8947 63.686 31.0917 65.0194 32.5438 66.6812C33.9959 68.3431 35.1612 69.7082 35.1394 69.726C35.1177 69.7438 33.9207 68.4123 32.4666 66.7584C31.0125 65.1045 29.8473 63.7157 29.873 63.7038Z" fill="white"/>
<path d="M34.5918 57.0802C34.6175 57.0802 35.2427 59.1377 35.9865 61.6937C36.7304 64.2498 37.312 66.3251 37.2843 66.333C37.2566 66.341 36.6315 64.2775 35.8876 61.7214C35.1437 59.1654 34.5641 57.0901 34.5918 57.0802Z" fill="white"/>
<path d="M53.9283 54.8189C53.9358 54.8647 53.9391 54.911 53.9382 54.9574C53.9382 55.0603 53.9382 55.1928 53.9382 55.3531V56.8309C53.9382 58.0892 53.9184 59.7985 53.9045 61.7056C53.8907 63.6128 53.857 65.3241 53.8412 66.5804C53.8274 67.1956 53.8175 67.6982 53.8096 68.0582C53.8096 68.2244 53.8096 68.3589 53.7957 68.4539C53.7969 68.501 53.7929 68.5481 53.7838 68.5944C53.7791 68.5477 53.7791 68.5006 53.7838 68.4539C53.7838 68.353 53.7838 68.2185 53.7838 68.0582C53.7838 67.6982 53.7838 67.1956 53.7838 66.5804C53.7838 65.3221 53.8036 63.6128 53.8175 61.7056C53.8313 59.7985 53.8649 58.0892 53.8828 56.8309C53.8946 56.2156 53.9045 55.7151 53.9124 55.3531C53.9124 55.1869 53.9223 55.0543 53.9263 54.9574C53.9217 54.9113 53.9224 54.8648 53.9283 54.8189Z" fill="white"/>
<path d="M60.6052 30.653C59.8673 29.8616 58.9731 29.1158 58.7159 28.0653C58.4785 27.0979 58.8188 25.9919 58.3083 25.1393C57.6792 24.0887 56.1104 24.0017 55.3546 23.0402C54.9866 22.5733 54.86 21.956 54.498 21.4872C53.8807 20.6958 52.7333 20.498 51.7283 20.6464C50.7232 20.7947 49.7716 21.1785 48.7607 21.2814C47.3758 21.4239 45.9415 21.0183 44.6279 21.4595C43.1797 21.9442 42.327 23.2677 41.415 24.5517L40.2279 26.0473C39.9828 26.305 39.7131 26.5383 39.4227 26.7437C38.9103 27.0998 38.3208 27.3511 37.8855 27.7962C36.9557 28.7498 37.0942 30.5185 38.1605 31.3138C37.637 31.5134 37.1914 31.8758 36.8894 32.3478C36.5873 32.8197 36.4448 33.3761 36.4829 33.9351C36.5383 34.5484 36.8113 35.1222 37.0151 35.6939C37.2188 36.2657 37.3494 36.9245 37.1219 37.4942C36.8944 38.064 36.1881 38.4834 35.644 38.1926C35.7555 38.5865 35.9532 38.9506 36.2228 39.2586C36.4925 39.5666 36.8273 39.8107 37.203 39.9731C36.9202 40.2817 36.5303 40.4706 36.1129 40.5014C37.3217 43.095 40.4139 44.377 43.2747 44.2959C46.1354 44.2148 48.8359 43.0396 51.4513 41.8823L59.0839 39.621C59.7545 39.4449 60.0078 38.612 59.9761 37.9196C59.9445 37.2272 59.7427 36.511 59.9761 35.8542C60.2847 34.954 61.3016 34.4495 61.6281 33.5553C61.998 32.5404 61.3452 31.4424 60.6052 30.653Z" fill="#263238"/>
<path d="M42.6284 38.2915C42.0111 36.5703 41.4018 34.8353 41.0912 33.035C40.7806 31.2346 40.7786 29.3453 41.3642 27.6142C41.4532 27.3511 42.2228 25.5864 42.4998 25.6042C42.6976 25.618 42.2386 27.2581 42.3435 27.4263C43.3426 29.0307 43.6591 30.9873 43.5641 32.8747C43.4545 34.7095 43.1406 36.5263 42.6284 38.2915Z" fill="#263238"/>
<path d="M49.3862 22.6208H48.9628C44.3809 22.7791 41.9554 26.7596 42.2363 31.3355L42.3669 47.1151C42.3788 48.4898 42.9181 49.8074 43.8735 50.7959C44.8289 51.7843 46.1273 52.3683 47.5008 52.427C48.2119 52.4583 48.9221 52.3478 49.5901 52.1019C50.2581 51.8561 50.8705 51.4799 51.3918 50.9951C51.913 50.5103 52.3326 49.9268 52.6261 49.2783C52.9196 48.6298 53.0813 47.9295 53.1016 47.218C53.1253 46.389 53.1451 45.8094 53.1471 45.8094C53.149 45.8094 57.5628 45.2297 57.7211 40.8337C57.7982 38.709 57.6004 34.3229 57.3749 30.3483C57.2576 28.2922 56.3706 26.3555 54.8904 24.9237C53.4101 23.4918 51.4451 22.6696 49.3862 22.6208Z" fill="#FFBE9D"/>
<path d="M53.1468 45.8034C53.1468 45.8034 50.3771 45.8984 47.4609 43.9734C47.4609 43.9734 48.7113 47.2457 53.1092 46.9549L53.1468 45.8034Z" fill="#EB996E"/>
<path d="M55.4384 34.4099C55.4353 34.5736 55.3688 34.7296 55.2529 34.8451C55.137 34.9607 54.9808 35.0266 54.8172 35.0292C54.7369 35.0346 54.6565 35.0236 54.5806 34.9969C54.5048 34.9702 54.4352 34.9284 54.376 34.8741C54.3168 34.8197 54.2692 34.7538 54.2362 34.6805C54.2033 34.6072 54.1855 34.5279 54.1841 34.4475C54.1871 34.2848 54.2531 34.1295 54.3682 34.0144C54.4833 33.8993 54.6386 33.8333 54.8013 33.8303C54.8817 33.8244 54.9624 33.8349 55.0386 33.8611C55.1148 33.8874 55.1848 33.929 55.2444 33.9832C55.304 34.0374 55.352 34.1033 55.3853 34.1766C55.4187 34.25 55.4367 34.3294 55.4384 34.4099Z" fill="#263238"/>
<path d="M56.3838 32.1526C56.3046 32.2318 55.8377 31.8697 55.1611 31.8539C54.4845 31.8381 53.9741 32.1665 53.9108 32.0814C53.8752 32.0438 53.9583 31.8994 54.1779 31.7471C54.4787 31.546 54.8351 31.4443 55.1967 31.4562C55.5484 31.4639 55.8886 31.583 56.1681 31.7965C56.364 31.9667 56.4312 32.117 56.3838 32.1526Z" fill="#263238"/>
<path d="M49.3212 34.4099C49.3181 34.5736 49.2516 34.7296 49.1357 34.8451C49.0198 34.9606 48.8636 35.0266 48.7 35.0292C48.6198 35.0345 48.5393 35.0236 48.4634 34.9969C48.3876 34.9702 48.318 34.9284 48.2588 34.874C48.1996 34.8197 48.152 34.7538 48.119 34.6805C48.0861 34.6072 48.0683 34.5279 48.0669 34.4475C48.0689 34.2838 48.1348 34.1272 48.2504 34.0112C48.366 33.8952 48.5224 33.8289 48.6861 33.8263C48.7667 33.8207 48.8475 33.8315 48.9237 33.8582C48.9999 33.8848 49.0699 33.9267 49.1293 33.9814C49.1888 34.036 49.2365 34.1022 49.2694 34.1759C49.3024 34.2496 49.32 34.3292 49.3212 34.4099Z" fill="#263238"/>
<path d="M49.7664 32.2674C49.6873 32.3485 49.2184 31.9845 48.5438 31.9706C47.8692 31.9568 47.3568 32.2832 47.2915 32.1981C47.2579 32.1605 47.339 32.0141 47.5606 31.8618C47.8578 31.6665 48.2081 31.5677 48.5636 31.5789C48.9154 31.5857 49.2558 31.705 49.535 31.9192C49.7388 32.0834 49.806 32.2318 49.7664 32.2674Z" fill="#263238"/>
<path d="M52.0667 37.52C52.0667 37.4804 52.4861 37.4171 53.1686 37.3478C53.3408 37.334 53.505 37.3023 53.5386 37.1856C53.5564 37.0077 53.5206 36.8286 53.4357 36.6712L52.955 35.3457C52.2922 33.4583 51.8154 31.9073 51.8906 31.8816C51.9658 31.8559 52.5672 33.3634 53.232 35.2448C53.3922 35.7117 53.5445 36.1549 53.689 36.5783C53.7936 36.7892 53.8195 37.0305 53.7622 37.2588C53.7359 37.319 53.6962 37.3724 53.6461 37.4149C53.5961 37.4574 53.537 37.4879 53.4733 37.5041C53.377 37.5286 53.2779 37.5399 53.1785 37.5378C52.494 37.5635 52.0687 37.5575 52.0667 37.52Z" fill="#263238"/>
<path d="M50.0669 37.9394C50.1777 37.9394 50.1599 38.6694 50.7771 39.2055C51.3944 39.7417 52.1738 39.6783 52.1778 39.7812C52.1877 39.8267 51.9997 39.9197 51.6694 39.9197C51.2394 39.9158 50.8247 39.7602 50.4982 39.4805C50.1861 39.2105 49.9898 38.8308 49.9501 38.4201C49.9304 38.1134 50.0174 37.9334 50.0669 37.9394Z" fill="#263238"/>
<path d="M49.7935 29.5253C49.7222 29.7073 49.0496 29.6045 48.2543 29.6796C47.459 29.7548 46.814 29.9586 46.7112 29.7904C46.6676 29.7113 46.7824 29.5412 47.0455 29.369C47.3962 29.1598 47.7899 29.0332 48.1968 28.9989C48.6037 28.9646 49.0131 29.0235 49.3938 29.1712C49.6807 29.2899 49.8251 29.4383 49.7935 29.5253Z" fill="#263238"/>
<path d="M56.1663 29.8992C56.0436 30.0496 55.5826 29.8794 55.0228 29.8577C54.4629 29.8359 53.9861 29.9368 53.8812 29.7746C53.8357 29.6955 53.9129 29.5431 54.1246 29.4027C54.4071 29.2352 54.7329 29.1553 55.0608 29.1733C55.3888 29.1913 55.704 29.3062 55.9665 29.5036C56.1603 29.6757 56.2217 29.826 56.1663 29.8992Z" fill="#263238"/>
<path d="M42.521 34.59C42.4478 34.5563 39.5218 33.6245 39.5535 36.6336C39.5851 39.6427 42.5942 39.0077 42.5982 38.9107C42.6022 38.8138 42.521 34.59 42.521 34.59Z" fill="#FFBE9D"/>
<path d="M41.6627 37.787C41.6488 37.7771 41.6112 37.8226 41.5222 37.8642C41.3971 37.9203 41.2548 37.9246 41.1265 37.8761C40.808 37.7613 40.533 37.2588 40.5172 36.7167C40.5077 36.4588 40.5557 36.202 40.6577 35.9649C40.6855 35.8702 40.7361 35.7837 40.8051 35.713C40.8741 35.6423 40.9593 35.5896 41.0533 35.5594C41.1133 35.5432 41.1771 35.5486 41.2335 35.5746C41.2899 35.6007 41.3354 35.6457 41.362 35.7018C41.4035 35.7849 41.3857 35.8462 41.4015 35.8502C41.4174 35.8542 41.4648 35.7988 41.4411 35.6761C41.4234 35.6015 41.3809 35.5352 41.3204 35.4882C41.2371 35.4258 41.1326 35.3988 41.0296 35.413C40.9063 35.4385 40.7915 35.4952 40.6963 35.5776C40.6011 35.66 40.5285 35.7654 40.4855 35.8838C40.3598 36.1457 40.3 36.4344 40.3114 36.7246C40.3352 37.33 40.6497 37.8958 41.087 38.0185C41.168 38.0414 41.2532 38.0456 41.3361 38.0309C41.419 38.0161 41.4975 37.9828 41.5657 37.9334C41.6567 37.8503 41.6726 37.787 41.6627 37.787Z" fill="#EB996E"/>
<path d="M55.3453 25.3984C55.8281 25.1214 54.3403 23.5704 53.1335 23.0461C51.3114 22.2548 48.5417 21.7978 46.8818 22.3003C44.8837 22.8938 43.2337 23.9305 42.2564 25.7743C41.2791 27.6182 40.9368 29.7548 41.0298 31.838C41.0595 32.4751 41.1366 33.1378 41.4848 33.67C41.9161 34.3268 42.7292 34.7324 42.7094 35.6484C42.6935 35.9845 42.8116 36.3133 43.0379 36.5624C43.5997 37.1381 44.2625 36.5763 44.5632 36.0203C45.2042 34.8333 45.2536 33.4227 45.2892 32.0636C45.315 31.1041 45.3367 30.1228 45.0499 29.2048C44.8956 28.7063 44.6542 28.2374 44.5236 27.729C44.393 27.2205 44.401 26.6448 44.7096 26.2234C44.7828 26.133 44.8635 26.0489 44.9509 25.9722C45.3644 25.5993 45.8696 25.343 46.4147 25.2297C46.9598 25.1163 47.5252 25.15 48.053 25.3272C49.7584 25.899 52.6666 26.7437 53.4125 26.1561C54.4848 25.3114 54.736 24.7713 54.736 24.7713L55.3453 25.3984Z" fill="#263238"/>
<path d="M47.032 21.8888C48.676 21.3071 50.5574 21.2953 52.1184 22.0866C52.9473 22.5001 53.7011 23.1688 53.9662 24.065C54.2313 24.9612 53.8712 26.0533 53.0205 26.4173L52.9612 26.4549C51.6851 26.9079 50.8483 26.7516 49.5603 26.3302C48.4782 25.9761 47.5088 25.3272 46.4226 24.977C45.2605 24.607 44.0145 24.5918 42.8438 24.9335C43.9714 23.5902 45.3879 22.4704 47.032 21.8888Z" fill="#263238"/>
<path d="M40.0129 34.8195C39.9583 34.7661 39.9086 34.7078 39.8645 34.6454C39.7326 34.4674 39.6255 34.2724 39.546 34.0657C39.3946 33.6843 39.3394 33.2714 39.3853 32.8636C39.4312 32.4558 39.5768 32.0655 39.8091 31.7273C39.9604 31.5007 40.1475 31.3003 40.3631 31.1338C40.5967 30.9545 40.8571 30.8129 41.1346 30.7143C41.6965 30.4967 42.3494 30.384 42.8835 29.9804C43.157 29.7806 43.3533 29.4928 43.4395 29.1653C43.5146 28.8171 43.534 28.4591 43.4968 28.1049C43.4474 27.3748 43.4177 26.5894 43.661 25.8297C43.9165 25.0968 44.4095 24.4701 45.0617 24.0492C45.6539 23.6459 46.3225 23.3685 47.0263 23.2341C47.6618 23.1093 48.3156 23.1093 48.9512 23.2341C49.5045 23.3461 50.0294 23.5689 50.4943 23.8889C51.1721 24.348 51.6954 25.001 51.9959 25.7625C52.0762 25.9679 52.1365 26.1806 52.176 26.3975L52.1997 26.5677C52.2019 26.5874 52.2019 26.6073 52.1997 26.627C52.146 26.337 52.0645 26.0528 51.9564 25.7783C51.6916 25.152 51.2771 24.6003 50.7494 24.1715C50.2216 23.7427 49.5967 23.4501 48.9295 23.3192C48.3056 23.1965 47.6639 23.1965 47.0401 23.3192C46.3503 23.4536 45.6952 23.7276 45.1151 24.1244C44.4822 24.5351 44.004 25.1448 43.756 25.8574C43.5186 26.5934 43.5443 27.365 43.5938 28.095C43.6314 28.46 43.61 28.8288 43.5305 29.187C43.4382 29.535 43.2286 29.8405 42.9369 30.0516C42.3751 30.471 41.7123 30.5798 41.1564 30.7915C40.6316 30.9682 40.1774 31.3087 39.8606 31.7629C39.6015 32.1401 39.4522 32.5819 39.4293 33.0389C39.4115 33.3836 39.464 33.7282 39.5836 34.0519C39.6885 34.3273 39.8332 34.5859 40.0129 34.8195Z" fill="#455A64"/>
<path d="M39.6881 35.502C39.6077 35.463 39.5303 35.4181 39.4566 35.3675C39.243 35.2252 39.0482 35.0563 38.877 34.865C38.6062 34.5604 38.3954 34.2073 38.2558 33.8243C38.0738 33.3132 38.0315 32.7627 38.1331 32.2298C38.2489 31.5791 38.5683 30.982 39.0451 30.5244C39.5516 30.0259 40.2223 29.6698 40.8474 29.2068C41.1719 28.9763 41.4572 28.6951 41.6922 28.3739C41.9268 28.0315 42.1076 27.6552 42.2284 27.2581C42.4974 26.4549 42.624 25.5646 43.0019 24.7258C43.3856 23.9164 43.9888 23.2309 44.7429 22.7474C45.4434 22.2887 46.2499 22.0175 47.0853 21.96C47.8359 21.9111 48.5883 22.0217 49.2931 22.2845C49.9058 22.5113 50.4727 22.8464 50.9669 23.2737C51.6779 23.8993 52.2276 24.6872 52.5693 25.5706C52.7004 25.8885 52.7947 26.2204 52.8503 26.5597C52.8414 26.5394 52.8348 26.5182 52.8305 26.4964C52.8166 26.447 52.8008 26.3837 52.779 26.2986C52.7112 26.0531 52.6286 25.812 52.5317 25.5765C52.1799 24.708 51.6273 23.9351 50.9194 23.3211C50.4301 22.9017 49.8691 22.574 49.2635 22.3537C48.5681 22.0975 47.8266 21.991 47.0873 22.0411C46.2722 22.0989 45.4851 22.363 44.8002 22.8087C44.0625 23.284 43.4724 23.9563 43.0969 24.7495C42.721 25.5666 42.5983 26.4549 42.3273 27.27C42.2022 27.6766 42.0153 28.0616 41.7733 28.4115C41.532 28.7397 41.2394 29.027 40.9068 29.2622C40.2698 29.7291 39.605 30.0813 39.1084 30.566C38.6412 31.0094 38.3255 31.5888 38.2063 32.2219C38.1033 32.7438 38.1402 33.2837 38.3131 33.7868C38.529 34.409 38.9336 34.9484 39.4705 35.3299C39.611 35.4526 39.6921 35.4961 39.6881 35.502Z" fill="#455A64"/>
<path d="M57.474 74.6759C57.474 74.6759 49.3014 72.7747 48.053 72.6817C46.8818 72.5946 46.5771 73.3286 46.5771 73.3286C46.5771 73.3286 44.8243 73.109 44.4385 74.1318C44.4385 74.1318 44.1299 74.7253 44.848 75.03C45.5662 75.3347 49.4636 76.1913 50.2648 76.9372C51.0661 77.683 57.7827 81.4973 57.7827 81.4973L60.4911 82.6032C60.4911 82.6032 61.7078 79.424 61.7632 78.512C61.8155 78.0252 61.7189 77.5341 61.4862 77.1033C61.4862 77.1033 63.1718 75.3901 63.3656 74.6996C63.5595 74.0092 64.7762 71.6312 64.7762 71.6312C64.7762 71.6312 63.6347 70.4679 62.505 71.829C61.3754 73.1901 60.7423 73.8074 60.4357 74.0547C59.5494 74.7629 57.9943 74.8401 57.474 74.6759Z" fill="#FFBE9D"/>
<path d="M54.7538 77.0598C54.7538 77.0598 54.7222 77.0598 54.6668 77.0262L54.4274 76.9115L53.547 76.4901C52.8012 76.1419 51.7665 75.6809 50.5795 75.2496C49.9859 75.034 49.4221 74.8421 48.9018 74.6798C48.3815 74.5176 47.9126 74.3989 47.5169 74.2308C47.206 74.1139 46.9325 73.9149 46.7256 73.655C46.6733 73.5814 46.6301 73.5017 46.597 73.4176C46.5839 73.3896 46.5759 73.3595 46.5732 73.3286C46.6271 73.4338 46.6886 73.535 46.7572 73.6313C46.9713 73.8732 47.2437 74.0564 47.5486 74.1635C47.9265 74.3178 48.4072 74.4266 48.9334 74.5888C49.4597 74.7511 50.0275 74.9351 50.619 75.1527C51.6301 75.5238 52.6206 75.9485 53.5866 76.4248C53.9565 76.6088 54.2513 76.7651 54.4531 76.8758L54.6846 77.0084C54.7093 77.0232 54.7325 77.0405 54.7538 77.0598Z" fill="#EB996E"/>
<path d="M60.0636 74.3257C59.873 74.5873 59.6191 74.7963 59.3257 74.9331C59.0483 75.0992 58.7328 75.1911 58.4097 75.2002C58.4097 75.1705 58.8212 75.0874 59.2782 74.8421C59.7352 74.5968 60.0418 74.302 60.0636 74.3257Z" fill="#EB996E"/>
<path d="M88.8293 93.6011C88.8293 93.6307 71.202 93.6525 49.4596 93.6525C27.7172 93.6525 10.0898 93.6307 10.0898 93.6011C10.0898 93.5714 27.7132 93.5496 49.4596 93.5496C71.2059 93.5496 88.8293 93.5773 88.8293 93.6011Z" fill="#263238"/>
<path d="M32.6136 28.8744H6.57422V39.5873H29.9923L31.5888 41.1839V39.5873H32.6136V28.8744Z" fill="white"/>
<path d="M32.6137 28.8843C32.6137 28.8843 32.6137 28.9437 32.6137 29.0663C32.6137 29.189 32.6137 29.373 32.6137 29.6104C32.6137 30.0951 32.6137 30.7974 32.6137 31.7233C32.6137 33.5711 32.6256 36.2538 32.6335 39.5973V39.6329H31.5731L31.6107 39.5953C31.6107 40.0879 31.6107 40.6339 31.6107 41.1918V41.2868L31.5434 41.2195L29.9469 39.6249L29.9746 39.6368L7.71584 39.6388H6.52881V39.5874C6.52881 35.8284 6.52881 32.2139 6.52881 28.8744V28.825H6.57827L25.2997 28.8487L30.6927 28.8606H32.127H32.495H32.6177H32.4891H32.1152H30.671L25.266 28.8744L6.57827 28.8962L6.62773 28.8487C6.62773 32.1882 6.62773 35.8027 6.62773 39.5616L6.57629 39.5102H7.71584H30.0023H30.0201L30.0319 39.5221L31.6265 41.1206L31.5593 41.1483C31.5593 40.5904 31.5593 40.0444 31.5593 39.5518V39.5161H32.6216L32.586 39.5518C32.586 36.2162 32.6019 33.5434 32.6058 31.6996C32.6058 30.7776 32.6058 30.0654 32.6058 29.5787C32.6058 29.3374 32.6058 29.1534 32.6058 29.0288C32.6058 28.9041 32.6137 28.8843 32.6137 28.8843Z" fill="#263238"/>
<path d="M29.8238 31.9389H17.8863C17.6514 31.9389 17.4609 32.1294 17.4609 32.3643V32.4098C17.4609 32.6447 17.6514 32.8351 17.8863 32.8351H29.8238C30.0587 32.8351 30.2492 32.6447 30.2492 32.4098V32.3643C30.2492 32.1294 30.0587 31.9389 29.8238 31.9389Z" fill="#E0E0E0"/>
<path d="M29.8238 33.9371H17.8863C17.6514 33.9371 17.4609 34.1275 17.4609 34.3625V34.408C17.4609 34.6429 17.6514 34.8333 17.8863 34.8333H29.8238C30.0587 34.8333 30.2492 34.6429 30.2492 34.408V34.3625C30.2492 34.1275 30.0587 33.9371 29.8238 33.9371Z" fill="#E0E0E0"/>
<path d="M29.8238 35.9353H17.8863C17.6514 35.9353 17.4609 36.1257 17.4609 36.3606V36.4061C17.4609 36.641 17.6514 36.8315 17.8863 36.8315H29.8238C30.0587 36.8315 30.2492 36.641 30.2492 36.4061V36.3606C30.2492 36.1257 30.0587 35.9353 29.8238 35.9353Z" fill="#E0E0E0"/>
<path d="M14.4322 31.0902H9.61285C9.12445 31.0902 8.72852 31.4861 8.72852 31.9745V36.7939C8.72852 37.2823 9.12445 37.6782 9.61285 37.6782H14.4322C14.9206 37.6782 15.3165 37.2823 15.3165 36.7939V31.9745C15.3165 31.4861 14.9206 31.0902 14.4322 31.0902Z" fill="#455A64"/>
<path d="M9.37987 36.3389L9.22754 36.2122L10.561 34.6295C10.6345 34.5277 10.7449 34.4585 10.8687 34.4367C10.9924 34.4149 11.1198 34.4422 11.2237 34.5128L12.0151 35.0371L12.939 33.8679C12.983 33.8129 13.0384 33.7681 13.1013 33.7364C13.1642 33.7047 13.2332 33.687 13.3036 33.6843C13.374 33.6817 13.4441 33.6943 13.5092 33.7212C13.5743 33.748 13.6329 33.7886 13.6809 33.8402L14.8204 35.0727L14.674 35.2053L13.5345 33.9747C13.5066 33.9434 13.472 33.9188 13.4333 33.9027C13.3946 33.8866 13.3528 33.8794 13.3109 33.8817C13.269 33.8832 13.2278 33.8937 13.1903 33.9124C13.1527 33.9312 13.1196 33.9579 13.0933 33.9905L12.0566 35.3022L11.1189 34.677C11.0565 34.6349 10.9801 34.6189 10.906 34.6326C10.832 34.6463 10.7664 34.6885 10.7232 34.7502L9.37987 36.3389Z" fill="white"/>
<path d="M11.4328 33.3911C11.7584 33.3911 12.0224 33.1271 12.0224 32.8015C12.0224 32.4759 11.7584 32.212 11.4328 32.212C11.1072 32.212 10.8433 32.4759 10.8433 32.8015C10.8433 33.1271 11.1072 33.3911 11.4328 33.3911Z" fill="white"/>
<path d="M79.5009 48.2942H55.8296V58.38H58.2709L58.5301 60.6017L60.3522 58.38H79.5009V48.2942Z" fill="white"/>
<path d="M79.5007 48.2942C79.5007 48.2942 79.5007 48.3516 79.5007 48.4663C79.5007 48.5811 79.5007 48.7552 79.5007 48.9807C79.5007 49.4357 79.5007 50.1064 79.5106 50.9709C79.5106 52.7119 79.5205 55.2363 79.5284 58.38V58.4156H79.4928L60.344 58.4314L60.3836 58.4116C59.8059 59.1159 59.1867 59.8697 58.5615 60.6353L58.4844 60.7283L58.4705 60.6076C58.3874 59.9033 58.3004 59.1476 58.2113 58.3859L58.2628 58.4314H55.77V58.38C55.77 54.8387 55.77 51.4378 55.77 48.2902V48.2408H55.8195L72.8513 48.2625L77.7458 48.2764H79.0456H79.38H79.4908H79.3741H79.0357H77.7241L72.8177 48.2902L55.8195 48.314L55.867 48.2645C55.867 51.4082 55.867 54.809 55.867 58.3543L55.8155 58.3028H58.3023V58.3483C58.3914 59.11 58.4784 59.8657 58.5595 60.57L58.4705 60.5443C59.0957 59.7807 59.7149 59.0249 60.2926 58.3226L60.3084 58.3028H60.3322L79.4809 58.3186L79.4453 58.3543C79.4453 55.2185 79.4611 52.702 79.4651 50.967C79.4651 50.0985 79.4651 49.4258 79.4651 48.9688C79.4651 48.7413 79.4651 48.5732 79.4651 48.4485C79.4651 48.3239 79.5007 48.2942 79.5007 48.2942Z" fill="#263238"/>
<path d="M76.6817 51.4774H67.2805C67.1547 51.4769 67.0342 51.4267 66.9453 51.3378C66.8564 51.2488 66.8062 51.1284 66.8057 51.0026C66.8057 50.8767 66.8557 50.7559 66.9447 50.6669C67.0338 50.5778 67.1545 50.5278 67.2805 50.5278H76.6817C76.8077 50.5278 76.9284 50.5778 77.0175 50.6669C77.1065 50.7559 77.1565 50.8767 77.1565 51.0026C77.156 51.1284 77.1058 51.2488 77.0169 51.3378C76.928 51.4267 76.8075 51.4769 76.6817 51.4774Z" fill="#E0E0E0"/>
<path d="M76.6817 53.5943H67.2805C67.1545 53.5943 67.0338 53.5442 66.9447 53.4552C66.8557 53.3662 66.8057 53.2454 66.8057 53.1195C66.8062 52.9937 66.8564 52.8732 66.9453 52.7843C67.0342 52.6954 67.1547 52.6452 67.2805 52.6447H76.6817C76.8075 52.6452 76.928 52.6954 77.0169 52.7843C77.1058 52.8732 77.156 52.9937 77.1565 53.1195C77.1565 53.2454 77.1065 53.3662 77.0175 53.4552C76.9284 53.5442 76.8077 53.5943 76.6817 53.5943Z" fill="#E0E0E0"/>
<path d="M76.6817 55.7131H67.2805C67.1547 55.7126 67.0342 55.6624 66.9453 55.5735C66.8564 55.4845 66.8062 55.3641 66.8057 55.2383C66.8057 55.1124 66.8557 54.9916 66.9447 54.9026C67.0338 54.8135 67.1545 54.7635 67.2805 54.7635H76.6817C76.8077 54.7635 76.9284 54.8135 77.0175 54.9026C77.1065 54.9916 77.1565 55.1124 77.1565 55.2383C77.156 55.3641 77.1058 55.4845 77.0169 55.5735C76.928 55.6624 76.8075 55.7126 76.6817 55.7131Z" fill="#E0E0E0"/>
<path d="M63.6482 49.6276H58.4332C57.9448 49.6276 57.5488 50.0236 57.5488 50.512V55.727C57.5488 56.2154 57.9448 56.6113 58.4332 56.6113H63.6482C64.1366 56.6113 64.5325 56.2154 64.5325 55.727V50.512C64.5325 50.0236 64.1366 49.6276 63.6482 49.6276Z" fill="#EBEBEB"/>
<path d="M58.2353 55.1968L58.083 55.0682L59.4956 53.3905C59.5734 53.2841 59.6893 53.2119 59.8191 53.189C59.9489 53.1662 60.0825 53.1944 60.192 53.2678L61.0288 53.8257L62.018 52.5833C62.0633 52.5249 62.1207 52.477 62.1863 52.4428C62.2518 52.4087 62.324 52.3891 62.3979 52.3855C62.4717 52.3833 62.5451 52.3968 62.6133 52.4251C62.6815 52.4534 62.7429 52.4959 62.7935 52.5497L64.0023 53.8554L63.8559 53.9899L62.6491 52.6842C62.6183 52.651 62.5807 52.6248 62.5389 52.6074C62.497 52.5901 62.4519 52.582 62.4066 52.5837C62.3613 52.5853 62.317 52.5968 62.2765 52.6172C62.2361 52.6377 62.2005 52.6666 62.1723 52.702L61.0763 54.0869L60.0871 53.4281C60.0196 53.3825 59.937 53.365 59.8568 53.3794C59.7766 53.3938 59.7052 53.439 59.6578 53.5052L58.2353 55.1968Z" fill="white"/>
<path d="M61.0409 51.4379C61.0409 51.5616 61.0041 51.6825 60.9354 51.7854C60.8666 51.8882 60.7688 51.9684 60.6545 52.0156C60.5401 52.0629 60.4143 52.0751 60.293 52.0509C60.1717 52.0266 60.0603 51.9668 59.9729 51.8792C59.8856 51.7916 59.8262 51.68 59.8023 51.5586C59.7784 51.4372 59.7911 51.3114 59.8387 51.1972C59.8863 51.083 59.9667 50.9855 60.0698 50.9171C60.1729 50.8486 60.2939 50.8123 60.4177 50.8127C60.4997 50.8127 60.5809 50.8289 60.6566 50.8603C60.7324 50.8918 60.8011 50.9378 60.859 50.9959C60.9169 51.054 60.9628 51.1229 60.994 51.1988C61.0252 51.2746 61.0411 51.3558 61.0409 51.4379Z" fill="white"/>
<path d="M30.8018 46.1397H11.9558C11.6268 46.1397 11.3113 46.2704 11.0786 46.5031C10.846 46.7357 10.7153 47.0512 10.7153 47.3802V58.3444C10.7153 58.6329 10.83 58.9097 11.034 59.1138C11.2381 59.3178 11.5149 59.4325 11.8034 59.4325H27.1616L29.5772 61.8481V59.4325H30.4675C30.8153 59.4325 31.149 59.2943 31.3949 59.0483C31.6409 58.8023 31.7791 58.4687 31.7791 58.1208V47.123C31.7776 46.8637 31.6743 46.6154 31.4915 46.4315C31.3088 46.2476 31.0611 46.1428 30.8018 46.1397Z" fill="white"/>
<path d="M12.0369 46.1397H30.8315C31.086 46.1397 31.33 46.2408 31.51 46.4208C31.6899 46.6007 31.791 46.8448 31.791 47.0993V48.6107C31.791 48.6401 31.7793 48.6683 31.7585 48.6891C31.7378 48.7098 31.7096 48.7215 31.6802 48.7215H10.8261C10.7967 48.7215 10.7686 48.7098 10.7478 48.6891C10.727 48.6683 10.7153 48.6401 10.7153 48.6107V47.4613C10.7153 47.1113 10.8544 46.7757 11.1018 46.5282C11.3493 46.2807 11.6849 46.1417 12.0349 46.1417L12.0369 46.1397Z" fill="#E0E0E0"/>
<path d="M18.2885 50.8404H13.7501C13.2617 50.8404 12.8657 51.2363 12.8657 51.7247V56.2631C12.8657 56.7515 13.2617 57.1474 13.7501 57.1474H18.2885C18.7769 57.1474 19.1728 56.7515 19.1728 56.2631V51.7247C19.1728 51.2363 18.7769 50.8404 18.2885 50.8404Z" fill="#0572E6"/>
<g opacity="0.3">
<path d="M18.6226 54.716C18.5467 54.6567 18.4765 54.5905 18.4129 54.5182L17.8688 53.9543L17.4969 53.5587C17.4652 53.5262 17.4271 53.5007 17.3851 53.4836C17.343 53.4666 17.2979 53.4585 17.2525 53.4598C17.2071 53.4611 17.1626 53.4718 17.1215 53.4912C17.0805 53.5106 17.044 53.5383 17.0142 53.5725L16.1358 54.6863L16.0665 54.7734L16.0369 54.811L15.9973 54.7833L15.3167 54.3283L15.1585 54.2214C15.1106 54.1947 15.057 54.1798 15.0022 54.1779C14.9491 54.1763 14.8965 54.1877 14.8489 54.2112C14.8013 54.2346 14.7602 54.2694 14.7291 54.3124L13.7914 55.3946L13.5204 55.6953C13.457 55.7646 13.4214 55.8002 13.4175 55.7962C13.4393 55.7533 13.4666 55.7134 13.4986 55.6775C13.5659 55.5905 13.649 55.4797 13.7498 55.361C13.9833 55.0761 14.2919 54.6962 14.6579 54.2511C14.6969 54.1956 14.7488 54.1505 14.8091 54.1195C14.8694 54.0885 14.9363 54.0725 15.0041 54.073C15.0736 54.0753 15.1415 54.0943 15.202 54.1284C15.2633 54.166 15.3128 54.1997 15.3682 54.2373L16.0507 54.6903L15.9815 54.7022L16.0507 54.6151L16.939 53.5013C16.9786 53.4566 17.0274 53.4209 17.082 53.3967C17.1366 53.3725 17.1958 53.3602 17.2555 53.3608C17.3121 53.361 17.368 53.3728 17.4198 53.3956C17.4715 53.4184 17.518 53.4517 17.5562 53.4934L17.9183 53.8891L18.4386 54.4826C18.5076 54.554 18.5692 54.6323 18.6226 54.716Z" fill="black"/>
</g>
<g opacity="0.3">
<path d="M16.0246 52.4785C16.0246 52.59 15.9916 52.699 15.9296 52.7917C15.8677 52.8844 15.7796 52.9567 15.6766 52.9994C15.5736 53.042 15.4602 53.0532 15.3508 53.0315C15.2414 53.0097 15.141 52.956 15.0621 52.8771C14.9833 52.7983 14.9296 52.6978 14.9078 52.5884C14.8861 52.4791 14.8972 52.3657 14.9399 52.2627C14.9826 52.1596 15.0548 52.0716 15.1476 52.0096C15.2403 51.9477 15.3493 51.9146 15.4608 51.9146C15.5349 51.9146 15.6082 51.9292 15.6766 51.9575C15.745 51.9859 15.8071 52.0274 15.8595 52.0798C15.9119 52.1321 15.9534 52.1943 15.9817 52.2627C16.0101 52.3311 16.0246 52.4044 16.0246 52.4785Z" fill="black"/>
</g>
<path d="M30.8019 46.1397C30.8961 46.1355 30.9904 46.1469 31.0809 46.1734C31.2137 46.2114 31.337 46.2768 31.443 46.3654C31.5489 46.454 31.6352 46.5638 31.6961 46.6878C31.7821 46.8731 31.8182 47.0777 31.801 47.2813C31.801 47.5029 31.801 47.7442 31.801 48.0034C31.801 48.5257 31.801 49.1271 31.801 49.7997C31.801 51.147 31.801 52.7851 31.8109 54.6725C31.8109 55.6168 31.8109 56.6205 31.8109 57.6836C31.8318 57.9566 31.8043 58.2312 31.7298 58.4947C31.6367 58.7644 31.466 59.0004 31.2391 59.1733C31.0079 59.3534 30.7267 59.4577 30.4339 59.472C30.1431 59.472 29.8562 59.472 29.5634 59.472L29.607 59.4285C29.607 60.1843 29.607 61.0112 29.607 61.8441V61.9529L29.5298 61.8758L27.1122 59.4621L27.1459 59.476H13.3764H12.037C11.8843 59.4843 11.7312 59.477 11.58 59.4542C11.3513 59.4075 11.1426 59.2915 10.9823 59.1219C10.8219 58.9524 10.7177 58.7375 10.6838 58.5066C10.6704 58.3573 10.6658 58.2073 10.6699 58.0575C10.6699 56.8784 10.6699 55.7184 10.6699 54.5775C10.6699 52.2945 10.6699 50.0925 10.6699 47.9955V47.5998C10.6668 47.4677 10.6714 47.3356 10.6838 47.2041C10.7181 46.9372 10.8358 46.688 11.0201 46.4919C11.2025 46.2997 11.4393 46.1679 11.6987 46.114C11.8261 46.0928 11.9553 46.0842 12.0845 46.0883H12.4643H15.3547H20.542L28.0599 46.1041H30.1016H30.6338C30.7525 46.1041 30.8138 46.1041 30.8138 46.1041H30.6338H30.1016H28.0599L20.542 46.1219H15.3547H12.4643C12.2174 46.1135 11.9702 46.1221 11.7244 46.1477C11.482 46.1981 11.2611 46.3223 11.0921 46.5034C10.9231 46.6844 10.8144 46.9133 10.7807 47.1586C10.7687 47.2855 10.7647 47.413 10.7689 47.5404V47.9361C10.7689 50.0332 10.7689 52.2351 10.7689 54.5182V57.9981C10.7648 58.1433 10.7687 58.2886 10.7807 58.4334C10.8013 58.5735 10.8497 58.708 10.9232 58.8291C10.998 58.9501 11.0968 59.0545 11.2135 59.1358C11.3302 59.2171 11.4623 59.2737 11.6018 59.3019C11.7465 59.3226 11.8929 59.3292 12.039 59.3217H13.3942H27.1637H27.1835L27.1973 59.3355L29.6109 61.7531L29.5338 61.7848V59.3692V59.3276H29.5753C29.8661 59.3276 30.1589 59.3276 30.4399 59.3276C30.7161 59.3138 30.9817 59.2166 31.2015 59.0487C31.4156 58.8848 31.5772 58.662 31.6665 58.4077C31.7395 58.1507 31.7657 57.8826 31.7436 57.6163C31.7436 56.5533 31.7436 55.5496 31.7436 54.6052C31.7436 52.7179 31.7436 51.0798 31.7436 49.7325C31.7436 49.0598 31.7436 48.4584 31.7436 47.9361C31.7436 47.6769 31.7436 47.4356 31.7436 47.214C31.7628 47.0158 31.7301 46.8161 31.6487 46.6343C31.5905 46.5126 31.5077 46.4042 31.4055 46.316C31.3034 46.2278 31.1841 46.1617 31.0551 46.1219C30.9704 46.12 30.8856 46.1259 30.8019 46.1397Z" fill="#263238"/>
<path d="M12.5328 47.3861C12.5332 47.4743 12.5074 47.5607 12.4587 47.6342C12.4099 47.7077 12.3404 47.765 12.259 47.799C12.1776 47.8329 12.0879 47.8419 12.0014 47.8248C11.9148 47.8077 11.8353 47.7652 11.773 47.7029C11.7106 47.6405 11.6681 47.561 11.651 47.4745C11.6339 47.3879 11.6429 47.2983 11.6768 47.2168C11.7108 47.1354 11.7681 47.0659 11.8416 47.0172C11.9151 46.9684 12.0015 46.9426 12.0897 46.943C12.2071 46.9435 12.3195 46.9903 12.4025 47.0733C12.4855 47.1563 12.5323 47.2688 12.5328 47.3861Z" fill="white"/>
<path d="M13.8683 47.3861C13.8687 47.4742 13.8429 47.5605 13.7942 47.634C13.7456 47.7074 13.6762 47.7648 13.5949 47.7988C13.5136 47.8328 13.424 47.8419 13.3375 47.8249C13.2511 47.808 13.1716 47.7657 13.1091 47.7036C13.0467 47.6414 13.0041 47.5621 12.9867 47.4757C12.9694 47.3893 12.9781 47.2997 13.0117 47.2182C13.0454 47.1368 13.1024 47.0671 13.1756 47.0181C13.2489 46.9691 13.335 46.943 13.4232 46.943C13.5409 46.943 13.6538 46.9896 13.7372 47.0726C13.8206 47.1557 13.8678 47.2684 13.8683 47.3861Z" fill="white"/>
<path d="M15.2018 47.3861C15.2022 47.4743 15.1764 47.5607 15.1276 47.6342C15.0788 47.7077 15.0093 47.765 14.9279 47.799C14.8465 47.8329 14.7568 47.8419 14.6703 47.8248C14.5838 47.8077 14.5043 47.7652 14.4419 47.7029C14.3795 47.6405 14.3371 47.561 14.32 47.4745C14.3029 47.3879 14.3119 47.2983 14.3458 47.2168C14.3797 47.1354 14.4371 47.0659 14.5106 47.0172C14.5841 46.9684 14.6704 46.9426 14.7586 46.943C14.8168 46.943 14.8745 46.9544 14.9282 46.9767C14.982 46.999 15.0308 47.0316 15.072 47.0728C15.1131 47.1139 15.1458 47.1628 15.1681 47.2165C15.1903 47.2703 15.2018 47.3279 15.2018 47.3861Z" fill="white"/>
<path d="M28.9678 52.0749C28.9678 52.1026 27.2447 52.1263 25.1199 52.1263C22.9951 52.1263 21.2739 52.1026 21.2739 52.0749C21.2739 52.0472 22.9971 52.0313 25.1258 52.0313C27.2546 52.0313 28.9678 52.0452 28.9678 52.0749Z" fill="#263238"/>
<path d="M28.9678 53.531C28.9678 53.5606 27.2447 53.5824 25.1199 53.5824C22.9951 53.5824 21.2739 53.5606 21.2739 53.531C21.2739 53.5013 22.9971 53.4795 25.1199 53.4795C27.2427 53.4795 28.9678 53.5033 28.9678 53.531Z" fill="#263238"/>
<path d="M28.9678 54.9989C28.9678 55.0286 27.2447 55.0504 25.1199 55.0504C22.9951 55.0504 21.2739 55.0286 21.2739 54.9989C21.2739 54.9692 22.9971 54.9475 25.1199 54.9475C27.2427 54.9475 28.9678 54.9613 28.9678 54.9989Z" fill="#263238"/>
<path d="M63.8325 33.6601H84.0199V43.8606H67.3798L65.526 45.7144V43.8606H63.8325V33.6601Z" fill="white"/>
<path d="M63.8326 33.6601C63.8326 33.6601 63.8326 33.7234 63.8326 33.8421C63.8326 33.9609 63.8326 34.1409 63.8326 34.3724C63.8326 34.8393 63.8326 35.5218 63.8326 36.4022C63.8326 38.1629 63.8445 40.7071 63.8544 43.8607L63.8168 43.8231H65.5498V43.8646C65.5498 44.4403 65.5498 45.0694 65.5498 45.7184L65.4786 45.6867L67.3304 43.833L67.3422 43.8191H67.362H82.6905H84.0022L83.9507 43.8706C83.9507 40.2719 83.9507 36.8335 83.9507 33.67L83.9982 33.7175L69.4828 33.6938L65.3104 33.6799H64.1986H63.8029H63.8959H64.1788H65.2828L69.4373 33.6661L83.9844 33.6423H84.0318V33.6918C84.0318 36.8572 84.0318 40.2936 84.0318 43.8923V43.92H82.6687H67.3403L67.3719 43.9062L65.5162 45.7579L65.443 45.8291V45.7282C65.443 45.0793 65.443 44.4502 65.443 43.8745L65.4826 43.9141H63.7495V43.8765C63.7495 40.7111 63.7634 38.161 63.7693 36.3943C63.7693 35.5178 63.7693 34.8373 63.7792 34.3724C63.7792 34.1448 63.7792 33.9767 63.7792 33.8501C63.7792 33.7234 63.8326 33.6601 63.8326 33.6601Z" fill="#263238"/>
<path d="M80.6203 36.7702C80.6203 36.7998 77.6013 36.8216 73.88 36.8216C70.1587 36.8216 67.1396 36.7998 67.1396 36.7702C67.1396 36.7405 70.1567 36.7187 73.88 36.7187C77.6033 36.7187 80.6203 36.7425 80.6203 36.7702Z" fill="#263238"/>
<path d="M80.6203 38.2282C80.6203 38.2579 77.6013 38.2797 73.88 38.2797C70.1587 38.2797 67.1396 38.2579 67.1396 38.2282C67.1396 38.1985 70.1567 38.1768 73.88 38.1768C77.6033 38.1768 80.6203 38.2005 80.6203 38.2282Z" fill="#263238"/>
<path d="M80.6203 39.6863C80.6203 39.714 77.6013 39.7377 73.88 39.7377C70.1587 39.7377 67.1396 39.714 67.1396 39.6863C67.1396 39.6586 70.1567 39.6348 73.88 39.6348C77.6033 39.6348 80.6203 39.6586 80.6203 39.6863Z" fill="#263238"/>
<path d="M33.5552 14.4263H19.2456V24.6268H30.008L31.8617 26.4806V24.6268H33.5552V14.4263Z" fill="white"/>
<path d="M33.5554 14.4263C33.5554 14.4263 33.5554 14.4857 33.5554 14.6044C33.5554 14.7231 33.5554 14.9051 33.5554 15.1366C33.5554 15.6074 33.5554 16.2959 33.5653 17.1783C33.5653 18.9588 33.5772 21.5089 33.5871 24.6269V24.6684H31.8521L31.8956 24.6269C31.8956 25.2065 31.8956 25.8337 31.8956 26.4786V26.5894L31.8164 26.5123L29.9627 24.6605L29.9963 24.6743H20.5456H19.1904V24.6209C19.1904 20.9471 19.1904 17.4829 19.1904 14.4204V14.3749H19.2379L29.5987 14.3986L32.5188 14.4105H33.2864H33.5475H33.4783H33.2804H32.5029L29.5769 14.4422L19.2458 14.4659L19.2913 14.4184C19.2913 17.481 19.2913 20.9471 19.2913 24.619L19.2399 24.5695H20.5516H30.0023H30.0221L30.0359 24.5833L31.8877 26.4391L31.8105 26.4707C31.8105 25.8258 31.8105 25.1986 31.8105 24.619V24.5754H33.5475L33.506 24.615C33.506 21.507 33.5238 18.9628 33.5277 17.1901C33.5277 16.3058 33.5277 15.6074 33.5376 15.1405C33.5376 14.9071 33.5376 14.7271 33.5376 14.6024C33.5376 14.4778 33.5554 14.4263 33.5554 14.4263Z" fill="#263238"/>
<path d="M22.5537 17.5383C22.5537 17.5106 24.2769 17.4869 26.3997 17.4869C28.5225 17.4869 30.2456 17.5106 30.2456 17.5383C30.2456 17.566 28.5245 17.5898 26.3997 17.5898C24.2749 17.5898 22.5537 17.566 22.5537 17.5383Z" fill="#263238"/>
<path d="M22.5537 18.9924C22.5537 18.9648 24.2769 18.941 26.3997 18.941C28.5225 18.941 30.2456 18.9648 30.2456 18.9924C30.2456 19.0201 28.5245 19.0439 26.3997 19.0439C24.2749 19.0439 22.5537 19.0241 22.5537 18.9924Z" fill="#263238"/>
<path d="M22.5537 20.4545C22.5537 20.4248 24.2769 20.403 26.3997 20.403C28.5225 20.403 30.2456 20.4248 30.2456 20.4545C30.2456 20.4841 28.5245 20.5059 26.3997 20.5059C24.2749 20.5059 22.5537 20.4822 22.5537 20.4545Z" fill="#263238"/>
<path d="M49.7307 6.495H39.8447V16.381H40.7904V17.8548L42.2623 16.381H49.7307V6.495Z" fill="white"/>
<path d="M49.7304 6.49502C49.7304 6.49502 49.7304 6.55437 49.7304 6.67109C49.7304 6.78782 49.7304 6.96785 49.7304 7.19338C49.7304 7.6583 49.7304 8.33293 49.7403 9.19155C49.7403 10.9266 49.7541 13.4015 49.764 16.381V16.4205H49.7205H42.2521L42.2877 16.4047L40.8158 17.8786L40.7288 17.9657V16.381L40.7802 16.4324H39.791V16.381C39.791 12.7506 39.791 9.37158 39.791 6.48908V6.44556H39.8345L47.022 6.4693L49.0202 6.47919H49.5444H49.7205H49.5345H49.0023L46.9943 6.49106L39.8345 6.5148L39.8781 6.4693C39.8781 9.34586 39.8781 12.7249 39.8781 16.3612L39.8266 16.3098H40.8158V17.8351L40.7268 17.7975L42.2007 16.3256L42.2145 16.3117H42.2363H49.7047L49.6592 16.3553C49.6691 13.3877 49.677 10.9226 49.6829 9.19352C49.6829 8.33095 49.6829 7.65237 49.6948 7.18547C49.6948 6.95796 49.6948 6.7799 49.6948 6.65526C49.6948 6.53063 49.7304 6.49502 49.7304 6.49502Z" fill="#263238"/>
<path d="M45.3149 11.439C45.5827 11.3207 45.81 11.1264 45.9685 10.8803C46.1271 10.6341 46.2101 10.3469 46.2071 10.0541C46.2182 9.86374 46.1903 9.6731 46.1252 9.49383C46.0602 9.31456 45.9593 9.15042 45.8287 9.0114C45.6982 8.87239 45.5407 8.76142 45.3658 8.68525C45.191 8.60908 45.0025 8.56932 44.8118 8.56838C44.6211 8.56744 44.4322 8.60534 44.2566 8.67977C44.081 8.75421 43.9224 8.86362 43.7905 9.00134C43.6586 9.13906 43.5561 9.3022 43.4892 9.48082C43.4224 9.65944 43.3927 9.84979 43.4018 10.0403C43.3962 10.3354 43.4781 10.6256 43.6373 10.8742C43.7964 11.1228 44.0256 11.3186 44.296 11.437C42.1376 11.7615 42.2365 14.1078 42.2365 14.1078L47.3368 14.1296C47.3368 14.1296 47.4535 11.7615 45.3149 11.439Z" fill="#455A64"/>
<path d="M71.0356 19.6591H80.9216V29.5451H79.9759V31.017L78.504 29.5451H71.0356V19.6591Z" fill="white"/>
<path d="M71.0358 19.6592C71.0358 19.6592 71.0358 19.7244 71.0358 19.8451C71.0358 19.9658 71.0358 20.1458 71.0358 20.3753C71.0358 20.8422 71.0358 21.5208 71.0477 22.3834C71.0477 24.1105 71.0615 26.5756 71.0694 29.5451L71.0259 29.5016H78.4943H78.516L78.5299 29.5174L80.0038 30.9893L79.9148 31.0249V29.5016H80.9039L80.8525 29.553C80.8525 25.9227 80.8525 22.5436 80.8525 19.6611L80.896 19.7047L73.7363 19.6829L71.7282 19.671H71.196C71.0754 19.671 71.0101 19.671 71.0101 19.671H71.1861H71.7104L73.7086 19.6592L80.9158 19.6156H80.9593V19.6592C80.9593 22.5357 80.9593 25.9148 80.9593 29.551V29.6025H79.9701L80.0216 29.551V31.1476L79.9345 31.0586L78.4626 29.5867L78.4982 29.6005H71.0299H70.9863V29.557C70.9962 26.5756 71.0041 24.1006 71.0101 22.3676C71.0101 21.5089 71.0101 20.8343 71.02 20.3694C71.02 20.1439 71.02 19.9698 71.02 19.8471C71.0338 19.7165 71.0358 19.6592 71.0358 19.6592Z" fill="#263238"/>
<path d="M78.3831 24.0037C78.3834 23.6342 78.2984 23.2697 78.1349 22.9383C77.9714 22.607 77.7337 22.3179 77.4403 22.0933C77.1469 21.8688 76.8057 21.7149 76.4432 21.6436C76.0806 21.5723 75.7066 21.5856 75.35 21.6823C74.9934 21.7791 74.6639 21.9567 74.3872 22.2014C74.1104 22.4462 73.8937 22.7514 73.7541 23.0935C73.6144 23.4355 73.5554 23.8052 73.5818 24.1737C73.6082 24.5422 73.7191 24.8997 73.9061 25.2184C73.9991 25.3727 74.1039 25.4855 74.2305 25.6477L75.6332 27.4995C75.6738 27.5528 75.7262 27.596 75.7862 27.6257C75.8463 27.6555 75.9124 27.6709 75.9794 27.6709C76.0464 27.6709 76.1125 27.6555 76.1726 27.6257C76.2326 27.596 76.285 27.5528 76.3256 27.4995L77.6986 25.6813C77.8229 25.5334 77.9391 25.3788 78.0468 25.2184C78.2663 24.8512 78.3825 24.4315 78.3831 24.0037ZM75.9794 25.0522C75.7701 25.0522 75.5654 24.9901 75.3914 24.8738C75.2173 24.7575 75.0817 24.5922 75.0015 24.3988C74.9214 24.2054 74.9005 23.9926 74.9413 23.7873C74.9822 23.582 75.083 23.3934 75.231 23.2454C75.379 23.0973 75.5676 22.9965 75.7729 22.9557C75.9782 22.9148 76.1911 22.9358 76.3845 23.0159C76.5779 23.096 76.7432 23.2317 76.8595 23.4057C76.9758 23.5798 77.0378 23.7844 77.0378 23.9938C77.0378 24.2745 76.9263 24.5437 76.7278 24.7422C76.5293 24.9407 76.2601 25.0522 75.9794 25.0522Z" fill="#0572E6"/>
<path d="M66.0237 19.9003C69.5567 18.2678 71.0974 14.0803 69.4649 10.5473C67.8324 7.01428 63.645 5.4736 60.1119 7.10608C56.5789 8.73856 55.0382 12.926 56.6707 16.459C58.3032 19.9921 62.4907 21.5328 66.0237 19.9003Z" fill="white"/>
<path d="M70.1138 13.5004C70.1138 13.5004 70.1138 13.4609 70.1019 13.3857C70.09 13.3105 70.09 13.1879 70.0801 13.0513C70.0801 12.9781 70.0702 12.8951 70.0663 12.804C70.0623 12.713 70.0366 12.6161 70.0208 12.5112C69.9896 12.2654 69.9407 12.022 69.8744 11.7832C69.7096 11.1248 69.4461 10.4952 69.0929 9.91561C68.6313 9.14846 68.0268 8.47689 67.3124 7.93723C66.4458 7.27513 65.4351 6.82706 64.3626 6.62953C64.0706 6.57496 63.7751 6.54059 63.4783 6.52665C63.326 6.52665 63.1736 6.50687 63.0213 6.50885L62.5583 6.53259C62.4792 6.53259 62.4021 6.53259 62.3229 6.54841L62.0895 6.58402C61.9352 6.60974 61.7749 6.62755 61.6186 6.66118C61.3006 6.7281 60.9873 6.816 60.6809 6.92431C60.3685 7.03605 60.0638 7.16822 59.7688 7.31998C59.6204 7.40109 59.48 7.49408 59.3336 7.58113C59.1854 7.66731 59.0438 7.76452 58.9102 7.87195C58.6324 8.07981 58.3681 8.30514 58.1189 8.54658C57.8728 8.80137 57.6441 9.07235 57.4343 9.35771C56.9985 9.94157 56.6604 10.5924 56.4333 11.2847C56.2037 11.9986 56.0817 12.7427 56.0712 13.4925C56.0807 14.2425 56.2027 14.9867 56.4333 15.7004L56.6311 16.2187L56.8685 16.7133C56.905 16.7961 56.9487 16.8756 56.9991 16.9507L57.1396 17.1822L57.28 17.4137L57.4403 17.6293C57.6514 17.9142 57.8807 18.1852 58.1268 18.4404C58.3756 18.6824 58.6399 18.9077 58.9181 19.1151C59.0518 19.2225 59.1933 19.3197 59.3415 19.4059C59.4879 19.4929 59.6284 19.5859 59.7767 19.667C60.0717 19.8188 60.3764 19.951 60.6888 20.0627C60.9937 20.1742 61.3056 20.2654 61.6226 20.3357C61.7808 20.3694 61.9391 20.3872 62.0934 20.4129L62.3269 20.4485C62.406 20.4485 62.4832 20.4485 62.5623 20.4643L63.0252 20.4881C63.1776 20.4881 63.3299 20.4762 63.4822 20.4703C63.779 20.4563 64.0745 20.422 64.3666 20.3674C65.4391 20.1699 66.4498 19.7218 67.3163 19.0597C68.0318 18.5171 68.6362 17.8421 69.0969 17.0714C69.4501 16.4919 69.7136 15.8622 69.8783 15.2038C69.9446 14.965 69.9936 14.7217 70.0247 14.4758C70.0406 14.3709 70.0604 14.2779 70.0702 14.183C70.0801 14.088 70.0702 14.0109 70.0841 13.9357C70.0841 13.7913 70.1019 13.6805 70.1059 13.6013C70.1098 13.5222 70.1177 13.4886 70.1177 13.4886C70.1177 13.4886 70.1177 13.5262 70.1177 13.6013C70.1177 13.6765 70.1177 13.7992 70.1059 13.9377C70.1059 14.0109 70.1059 14.0939 70.1059 14.185C70.1059 14.276 70.0801 14.3729 70.0643 14.4817C70.0369 14.7289 69.9906 14.9736 69.9258 15.2137C69.7671 15.8784 69.5075 16.5149 69.1562 17.1011C68.6447 17.966 67.955 18.7121 67.133 19.2899C66.3109 19.8677 65.3753 20.264 64.3883 20.4525C64.0922 20.5074 63.7929 20.5431 63.4921 20.5593C63.3398 20.5593 63.1855 20.5791 63.0312 20.5771L62.5603 20.5534C62.4832 20.5534 62.4021 20.5534 62.3249 20.5395L62.0875 20.5039C61.9292 20.4782 61.769 20.4604 61.6107 20.4267C61.2889 20.357 60.9722 20.2651 60.6631 20.1517C60.3459 20.0408 60.0366 19.9086 59.7372 19.7561C59.5868 19.675 59.4424 19.58 59.294 19.4929C59.1452 19.4043 59.0024 19.3058 58.8667 19.1982C58.5832 18.9883 58.3136 18.7603 58.0595 18.5156C57.8101 18.2564 57.5775 17.9815 57.3631 17.6926L57.2009 17.475L57.0565 17.2415L56.9002 17.014C56.8498 16.9364 56.8055 16.8551 56.7676 16.7707C56.6885 16.6045 56.6074 16.4383 56.5263 16.2702C56.4452 16.102 56.3977 15.92 56.3284 15.7439C56.0931 15.0203 55.9691 14.2652 55.9604 13.5044C55.9709 12.7437 56.0949 11.9889 56.3284 11.2649C56.5606 10.5587 56.9053 9.89462 57.3493 9.29836C57.5637 9.00955 57.7963 8.73466 58.0457 8.47535C58.2997 8.23069 58.5694 8.0027 58.8528 7.79281C58.9886 7.68518 59.1314 7.58671 59.2802 7.49804C59.4286 7.41099 59.573 7.31602 59.7233 7.23491C60.3155 6.92745 60.9454 6.69866 61.5969 6.55435C61.7551 6.52072 61.9154 6.50291 62.0736 6.47719L62.3091 6.44158C62.3882 6.43169 62.4673 6.43169 62.5465 6.42773L63.0153 6.40399C63.1716 6.40399 63.326 6.41784 63.4783 6.42378C63.7791 6.43837 64.0785 6.4734 64.3745 6.52863C65.3625 6.71843 66.2987 7.11654 67.1209 7.69646C67.943 8.27638 68.6321 9.0248 69.1424 9.89187C69.4937 10.4781 69.7532 11.1145 69.912 11.7792C69.977 12.02 70.0233 12.2654 70.0505 12.5132C70.0663 12.6201 70.0841 12.7111 70.092 12.808C70.0999 12.9049 70.092 12.9821 70.092 13.0553C70.092 13.1997 70.092 13.3125 70.1039 13.3916C70.1158 13.4708 70.1138 13.5004 70.1138 13.5004Z" fill="#263238"/>
<path d="M61.7783 16.2227C62.0025 16.2253 62.223 16.1657 62.4154 16.0506C62.5024 15.9675 62.5459 15.742 62.5459 15.374V13.1265C62.553 12.9841 62.539 12.8415 62.5044 12.7032C62.4851 12.6411 62.4451 12.5876 62.3911 12.5516C62.3371 12.5156 62.2723 12.4992 62.2076 12.5053C62.1737 12.5045 62.1398 12.5078 62.1067 12.5152C62.0731 12.5152 61.9781 12.5449 61.8199 12.5904V12.444L62.0177 12.3767C62.5677 12.1987 62.9508 12.0668 63.1671 11.9811C63.2209 11.9545 63.2782 11.9359 63.3373 11.9257C63.3438 11.9489 63.3471 11.9728 63.3472 11.9969V15.376C63.3472 15.734 63.3907 15.9695 63.4777 16.0506C63.6511 16.1721 63.8597 16.2333 64.0713 16.2247V16.3572H61.7783V16.2227ZM62.5281 9.91761C62.5849 9.85996 62.655 9.81724 62.7323 9.79326C62.8096 9.76928 62.8916 9.76478 62.971 9.78016C63.0504 9.79554 63.1248 9.83032 63.1876 9.88141C63.2503 9.9325 63.2994 9.99832 63.3306 10.073C63.3617 10.1477 63.3739 10.2289 63.3661 10.3094C63.3582 10.3899 63.3306 10.4673 63.2856 10.5345C63.2407 10.6018 63.1798 10.6569 63.1083 10.6949C63.0369 10.7329 62.9572 10.7527 62.8763 10.7525C62.8121 10.753 62.7484 10.7408 62.6889 10.7166C62.6294 10.6924 62.5752 10.6566 62.5296 10.6113C62.484 10.5661 62.4478 10.5123 62.4231 10.453C62.3984 10.3937 62.3857 10.33 62.3857 10.2658C62.3851 10.2015 62.3974 10.1377 62.4218 10.0783C62.4463 10.0188 62.4824 9.96483 62.5281 9.91959V9.91761Z" fill="#263238"/>
<path d="M58.3223 21.2933C58.3227 21.5129 58.2579 21.7277 58.1362 21.9104C58.0145 22.0932 57.8413 22.2358 57.6385 22.3201C57.4357 22.4044 57.2125 22.4267 56.9971 22.3841C56.7817 22.3414 56.5837 22.2359 56.4283 22.0808C56.2729 21.9256 56.167 21.7279 56.124 21.5125C56.081 21.2972 56.1029 21.0739 56.1868 20.871C56.2708 20.6681 56.413 20.4946 56.5956 20.3726C56.7782 20.2505 56.9928 20.1854 57.2124 20.1854C57.5064 20.1854 57.7884 20.3021 57.9965 20.5098C58.2046 20.7175 58.3218 20.9993 58.3223 21.2933Z" fill="white"/>
<path d="M58.3225 21.2933C58.3106 21.2933 58.3225 21.1944 58.2671 21.0282C58.2043 20.7921 58.0652 20.5834 57.8714 20.4347C57.7132 20.3165 57.5252 20.2446 57.3285 20.2272C57.1317 20.2097 56.934 20.2473 56.7575 20.3358C56.5809 20.4243 56.4324 20.5602 56.3287 20.7282C56.2249 20.8963 56.17 21.0899 56.17 21.2874C56.17 21.4848 56.2249 21.6785 56.3287 21.8465C56.4324 22.0146 56.5809 22.1504 56.7575 22.2389C56.934 22.3274 57.1317 22.365 57.3285 22.3476C57.5252 22.3301 57.7132 22.2582 57.8714 22.14C58.0652 21.9913 58.2043 21.7826 58.2671 21.5465C58.3145 21.3803 58.3106 21.2814 58.3225 21.2814C58.3343 21.2814 58.3225 21.3052 58.3225 21.3526C58.3236 21.4192 58.3162 21.4857 58.3007 21.5505C58.2463 21.8016 58.1064 22.026 57.905 22.1855C57.753 22.3039 57.5736 22.382 57.3835 22.4128C57.1933 22.4436 56.9985 22.426 56.8169 22.3616C56.6018 22.2869 56.4143 22.149 56.2788 21.9659C56.1311 21.7683 56.0513 21.5282 56.0513 21.2814C56.0513 21.0347 56.1311 20.7945 56.2788 20.5969C56.4143 20.4139 56.6018 20.276 56.8169 20.2012C56.9985 20.1369 57.1933 20.1193 57.3835 20.15C57.5736 20.1808 57.753 20.259 57.905 20.3773C58.1068 20.5365 58.2467 20.7611 58.3007 21.0124C58.3162 21.0771 58.3236 21.1436 58.3225 21.2102C58.3264 21.2656 58.3264 21.2933 58.3225 21.2933Z" fill="#263238"/>
<path d="M50.2233 53.5943H39.9358C39.6876 53.5943 39.4496 53.6929 39.2741 53.8684C39.0986 54.0439 39 54.2819 39 54.5301V64.0164C39 64.1393 39.0242 64.261 39.0712 64.3745C39.1183 64.488 39.1872 64.5912 39.2741 64.6781C39.361 64.765 39.4641 64.8339 39.5777 64.8809C39.6912 64.928 39.8129 64.9522 39.9358 64.9522H48.3815L50.073 66.6457V64.9522H50.2233C50.3462 64.9522 50.4679 64.928 50.5814 64.8809C50.695 64.8339 50.7981 64.765 50.885 64.6781C50.9719 64.5912 51.0409 64.488 51.0879 64.3745C51.1349 64.261 51.1591 64.1393 51.1591 64.0164V54.5301C51.1591 54.2819 51.0605 54.0439 50.885 53.8684C50.7095 53.6929 50.4715 53.5943 50.2233 53.5943Z" fill="white"/>
<path d="M50.2232 53.5943C50.299 53.5896 50.375 53.5962 50.4488 53.6141C50.6728 53.667 50.8694 53.8009 51.0008 53.9899C51.0966 54.1281 51.1539 54.2892 51.1669 54.4569C51.1669 54.6408 51.1669 54.8367 51.1669 55.0504C51.1669 55.4777 51.1669 55.9703 51.1669 56.5203C51.1669 57.6242 51.1669 58.9596 51.1669 60.4909C51.1669 61.2565 51.1669 62.0736 51.1669 62.9302C51.1669 63.1439 51.1669 63.3615 51.1669 63.5811V63.9135C51.1719 64.0291 51.1613 64.1449 51.1353 64.2577C51.0765 64.4892 50.9359 64.6916 50.7396 64.8275C50.6382 64.8957 50.5247 64.9441 50.4053 64.9699C50.287 64.9899 50.167 64.9972 50.0472 64.9917L50.0927 64.9462C50.0927 65.4764 50.0927 66.0521 50.0927 66.6397V66.7525L50.0116 66.6733L48.3181 64.9818L48.3537 64.9957H39.902C39.687 64.9876 39.4805 64.9097 39.3138 64.7736C39.147 64.6376 39.0292 64.4509 38.9781 64.2419C38.9549 64.1401 38.9449 64.0357 38.9485 63.9313V61.8659C38.9485 60.3089 38.9485 58.8073 38.9485 57.3769C38.9485 56.6608 38.9485 55.9637 38.9485 55.2858V54.532C38.9498 54.4459 38.9611 54.3603 38.9821 54.2768C39.0263 54.1124 39.1128 53.9623 39.2328 53.8416C39.3529 53.7208 39.5024 53.6335 39.6666 53.5883C39.8244 53.5543 39.9862 53.5423 40.1474 53.5527H41.5144H43.2139L48.3359 53.5686L49.7207 53.5784H50.0828C50.1639 53.5784 50.2054 53.5784 50.2054 53.5784H50.0828H49.7207H48.3359L43.2139 53.5963H40.1612C40.0073 53.587 39.8529 53.5989 39.7022 53.6319C39.5531 53.6734 39.4174 53.753 39.3084 53.863C39.1995 53.973 39.1211 54.1095 39.081 54.259C39.0499 54.4179 39.04 54.5802 39.0513 54.7417V55.2462C39.0513 55.9255 39.0513 56.6225 39.0513 57.3374C39.0513 58.7677 39.0513 60.2693 39.0513 61.8263V63.6069C39.0413 63.8051 39.0499 64.0038 39.0771 64.2004C39.122 64.3884 39.2275 64.5564 39.3773 64.6787C39.527 64.8009 39.7128 64.8706 39.906 64.877H41.1346H48.3814H48.4012L48.415 64.8908L50.1065 66.5843L50.0254 66.6179C50.0254 66.0244 50.0254 65.4547 50.0254 64.9245V64.8809H50.0709C50.1848 64.8858 50.2989 64.8785 50.4112 64.8592C50.5195 64.8374 50.6224 64.7944 50.7139 64.7325C50.8969 64.6113 51.0286 64.4267 51.0838 64.2142C51.1088 64.1086 51.1188 64.0001 51.1135 63.8917V62.9025C51.1135 62.0439 51.1135 61.2288 51.1135 60.4632C51.1135 58.9319 51.1135 57.5965 51.1254 56.4926C51.1254 55.9426 51.1254 55.45 51.1254 55.0227C51.1254 54.809 51.1254 54.6092 51.1254 54.4292C51.1116 54.2362 51.0378 54.0523 50.9144 53.9033C50.7909 53.7543 50.624 53.6477 50.4369 53.5982C50.3658 53.5928 50.2945 53.5914 50.2232 53.5943Z" fill="#263238"/>
<path d="M47.7821 55.8714H42.5374C41.6994 55.8714 41.02 56.5508 41.02 57.3888V61.3218C41.02 62.1599 41.6994 62.8392 42.5374 62.8392H47.7821C48.6202 62.8392 49.2995 62.1599 49.2995 61.3218V57.3888C49.2995 56.5508 48.6202 55.8714 47.7821 55.8714Z" fill="#455A64"/>
<path d="M44.6146 60.8866C44.5656 60.9151 44.5099 60.9302 44.4532 60.9304C44.3964 60.9305 44.3407 60.9157 44.2915 60.8874C44.2423 60.8591 44.2015 60.8183 44.1731 60.7692C44.1448 60.7201 44.1298 60.6644 44.1299 60.6076V58.103C44.1298 58.0463 44.1448 57.9905 44.1731 57.9414C44.2015 57.8923 44.2423 57.8516 44.2915 57.8233C44.3407 57.795 44.3964 57.7801 44.4532 57.7803C44.5099 57.7804 44.5656 57.7955 44.6146 57.8241L45.6987 58.4492L46.7829 59.0764C46.8323 59.1043 46.8733 59.1448 46.9019 59.1939C46.9305 59.2429 46.9456 59.2986 46.9456 59.3553C46.9456 59.4121 46.9305 59.4678 46.9019 59.5168C46.8733 59.5658 46.8323 59.6063 46.7829 59.6343L45.7007 60.2614L44.6146 60.8866Z" fill="white"/>
</svg>
