<svg width="260" height="260" viewBox="0 0 260 260" fill="none" xmlns="http://www.w3.org/2000/svg">
<path d="M80.8496 176.212C80.0124 177.403 78.3848 177.008 77.6308 176.28C76.8768 175.552 76.5596 174.496 76.2684 173.488C75.608 171.184 74.9372 168.771 75.4312 166.426C75.5493 165.713 75.8625 165.048 76.336 164.502C76.5743 164.234 76.8789 164.033 77.2194 163.92C77.5599 163.807 77.9242 163.785 78.2756 163.857C79.0972 164.076 79.6068 164.897 79.976 165.641C81.0591 167.895 81.6275 170.362 81.64 172.864C81.7153 174.034 81.4401 175.2 80.8496 176.212" fill="#0572E6"/>
<g opacity="0.2">
<path d="M80.8496 176.212C80.0124 177.403 78.3848 177.008 77.6308 176.28C76.8768 175.552 76.5596 174.496 76.2684 173.488C75.608 171.184 74.9372 168.771 75.4312 166.426C75.5493 165.713 75.8625 165.048 76.336 164.502C76.5743 164.234 76.8789 164.033 77.2194 163.92C77.5599 163.807 77.9242 163.785 78.2756 163.857C79.0972 164.076 79.6068 164.897 79.976 165.641C81.0591 167.895 81.6275 170.362 81.64 172.864C81.7153 174.034 81.4401 175.2 80.8496 176.212" fill="black"/>
</g>
<path d="M77.714 182.26C76.3115 181.602 74.7351 181.411 73.216 181.714C72.3857 181.788 71.6041 182.138 70.9956 182.707C70.4392 183.321 70.3352 184.397 70.9956 184.922C71.4059 185.201 71.9006 185.328 72.3944 185.281C73.5852 185.281 74.9008 185.058 75.8524 185.77C76.3724 186.181 76.752 186.857 77.4124 187.06C77.7369 187.13 78.0753 187.094 78.3783 186.959C78.6813 186.823 78.9331 186.594 79.0972 186.306C79.4076 185.711 79.4766 185.02 79.2896 184.376C79.209 183.926 79.0247 183.5 78.7512 183.133C78.4778 182.765 78.1227 182.467 77.714 182.26Z" fill="#0572E6"/>
<path d="M83.1428 177.923C82.7148 177.361 82.4296 176.704 82.3119 176.007C82.1941 175.311 82.2473 174.596 82.4668 173.924C82.9277 172.583 83.7479 171.394 84.838 170.487C86.0761 169.385 87.5175 168.536 89.0812 167.986C89.6861 167.74 90.3375 167.63 90.9896 167.664C91.3152 167.682 91.6315 167.779 91.9107 167.948C92.1899 168.117 92.4235 168.351 92.5912 168.631C93.0332 169.484 92.5912 170.513 92.144 171.356C91.3291 172.842 90.3971 174.261 89.3568 175.599C88.5248 176.675 87.568 177.741 86.294 178.225C85.02 178.708 83.694 178.656 83.0232 177.772" fill="#0572E6"/>
<path d="M80.9068 194.23C80.8636 194.06 80.8375 193.886 80.8288 193.71C80.7924 193.315 80.7404 192.816 80.6832 192.228C80.6097 191.499 80.4986 190.773 80.3504 190.055C80.1572 189.18 79.8928 188.323 79.56 187.491C79.2371 186.659 78.7957 185.878 78.2496 185.172C77.8101 184.593 77.2446 184.122 76.596 183.794C76.1574 183.576 75.687 183.428 75.2024 183.357C75.0269 183.349 74.8527 183.322 74.6824 183.279C74.8656 183.26 75.0503 183.26 75.2336 183.279C75.736 183.314 76.2277 183.441 76.6844 183.654C77.3666 183.975 77.9648 184.45 78.4316 185.042C79.0008 185.76 79.4584 186.559 79.7888 187.413C80.1249 188.256 80.3876 189.126 80.574 190.013C80.7149 190.74 80.8121 191.474 80.8652 192.213C80.912 192.842 80.9276 193.352 80.938 193.705C80.9409 193.881 80.9305 194.056 80.9068 194.23Z" fill="#263238"/>
<path d="M80.8028 193.092C80.7893 193.007 80.7893 192.921 80.8028 192.837V192.119C80.8028 191.495 80.8028 190.59 80.7716 189.472C80.7196 187.236 80.5272 184.153 80.1528 180.762C79.7784 177.372 79.2844 174.325 78.832 172.136C78.7228 171.616 78.6188 171.096 78.5148 170.664C78.4108 170.232 78.338 169.853 78.2548 169.551C78.1716 169.25 78.1352 169.031 78.0884 168.854C78.0618 168.774 78.0477 168.69 78.0468 168.605C78.0825 168.68 78.1103 168.758 78.13 168.839C78.1872 169.021 78.2548 169.25 78.3432 169.53C78.4316 169.811 78.5304 170.201 78.6396 170.633C78.7488 171.064 78.8684 171.553 78.988 172.104C79.6056 174.956 80.0691 177.84 80.3764 180.742C80.7508 184.137 80.8964 187.231 80.9328 189.467C80.9328 190.59 80.9328 191.495 80.8912 192.119C80.8912 192.416 80.86 192.639 80.8496 192.842C80.8403 192.926 80.8246 193.01 80.8028 193.092V193.092Z" fill="#263238"/>
<path d="M80.7872 187.127C80.7691 186.876 80.7691 186.624 80.7872 186.373C80.7872 185.89 80.8808 185.193 81.016 184.335C81.1824 183.333 81.4046 182.342 81.6816 181.366C82.0107 180.165 82.426 178.991 82.9244 177.85C83.7839 175.753 85.0173 173.829 86.5644 172.172C86.8326 171.888 87.1192 171.622 87.4224 171.376C87.5524 171.262 87.672 171.153 87.7916 171.064L88.1244 170.836C88.3229 170.684 88.5333 170.548 88.7536 170.43C88.0228 171.004 87.3281 171.622 86.6736 172.281C85.1754 173.951 83.9726 175.865 83.1168 177.939C82.6263 179.072 82.2094 180.236 81.8688 181.423C81.5412 182.515 81.3488 183.503 81.1616 184.361C80.9744 185.219 80.9172 185.921 80.8652 186.378C80.8579 186.63 80.8318 186.88 80.7872 187.127Z" fill="#263238"/>
<path d="M230.807 209.394C230.325 209.401 229.849 209.505 229.409 209.701C228.968 209.897 228.572 210.179 228.244 210.532C227.59 211.243 227.108 212.093 226.834 213.018C226.257 214.786 226.439 216.923 226.834 218.738C228.816 218.15 230.126 216.138 230.729 215.098C231.676 213.424 232.378 209.82 230.792 209.409" fill="#0572E6"/>
<path d="M223.74 220.875C224.085 220.462 224.314 219.965 224.406 219.434C224.497 218.904 224.447 218.359 224.26 217.854C224.065 217.352 223.771 216.894 223.397 216.507C223.023 216.12 222.576 215.81 222.082 215.597C221.866 215.474 221.625 215.399 221.377 215.38C221.129 215.36 220.879 215.395 220.646 215.483C220.445 215.599 220.278 215.767 220.163 215.969C220.048 216.171 219.989 216.4 219.991 216.632C220.006 217.1 220.145 217.555 220.392 217.953C221.166 219.341 222.17 220.553 223.73 220.875" fill="#0572E6"/>
<path d="M223.34 226.689C223.399 226.573 223.439 226.448 223.46 226.32C223.522 226.075 223.605 225.722 223.699 225.28C223.958 224.132 224.063 222.955 224.011 221.78C223.948 220.593 223.565 219.445 222.903 218.457C222.697 218.164 222.456 217.897 222.186 217.662C222.094 217.565 221.984 217.488 221.863 217.433C222.197 217.777 222.504 218.147 222.778 218.54C223.394 219.521 223.751 220.64 223.818 221.796C223.867 222.954 223.784 224.114 223.569 225.254C223.463 225.727 223.387 226.206 223.34 226.689V226.689Z" fill="#263238"/>
<path d="M229.96 212.077C229.834 212.251 229.726 212.438 229.637 212.633C229.44 213.002 229.164 213.533 228.831 214.193C228.166 215.514 227.271 217.36 226.346 219.419C225.42 221.478 224.619 223.366 224.068 224.744C223.787 225.43 223.548 225.987 223.428 226.377C223.342 226.573 223.272 226.777 223.22 226.985C223.333 226.803 223.427 226.609 223.501 226.408L224.203 224.801C224.791 223.439 225.607 221.567 226.538 219.508C227.469 217.448 228.337 215.597 228.966 214.256L229.71 212.664C229.807 212.475 229.891 212.278 229.96 212.077Z" fill="#263238"/>
<path d="M225.94 222.971C226.557 222.016 227.392 221.222 228.377 220.655C229.362 220.088 230.468 219.764 231.603 219.71C232.175 219.71 232.866 219.809 233.106 220.329C233.345 220.849 232.981 221.458 232.586 221.889C231.723 222.733 230.631 223.302 229.445 223.526C228.26 223.75 227.035 223.618 225.924 223.148" fill="#0572E6"/>
<path d="M230.745 221.229C230.621 221.211 230.495 221.211 230.37 221.229C230.222 221.228 230.075 221.238 229.928 221.26C229.735 221.276 229.542 221.302 229.351 221.338C228.854 221.431 228.368 221.576 227.9 221.77C227.325 222.007 226.777 222.307 226.268 222.664C225.765 223.03 225.303 223.448 224.89 223.912C224.555 224.294 224.261 224.708 224.011 225.15C223.911 225.317 223.823 225.491 223.746 225.67C223.679 225.8 223.623 225.936 223.579 226.075C223.528 226.19 223.491 226.31 223.47 226.434C223.512 226.434 223.688 225.945 224.136 225.228C224.398 224.805 224.699 224.408 225.035 224.042C225.855 223.147 226.856 222.437 227.973 221.962C228.428 221.765 228.899 221.61 229.382 221.499C230.209 221.276 230.745 221.27 230.745 221.229Z" fill="#263238"/>
<path d="M185.926 232.554C185.826 232.563 185.725 232.563 185.624 232.554L184.756 232.58L181.527 232.622L170.607 232.664L170.711 232.617L168.797 234.946L160.529 244.951L157.997 247.962L157.3 248.773C157.223 248.873 157.136 248.963 157.04 249.044C157.104 248.936 157.177 248.833 157.258 248.737L157.919 247.894L160.378 244.832L168.589 234.775C169.244 233.979 169.889 233.215 170.503 232.445L170.544 232.398H170.607L181.527 232.445L184.756 232.487H185.624C185.727 232.498 185.828 232.521 185.926 232.554V232.554Z" fill="#263238"/>
<path d="M130.796 209.56L98.4776 208.499L89.5232 220.095L75.3376 226.408L67.6364 242.752L76.6012 232.346L93.8548 229.455L106.142 216.648L130.796 209.56Z" fill="#F5F5F5"/>
<path d="M9.60959 256.292C9.60959 256.292 9.76039 256.079 10.0724 255.668L11.4556 253.848L16.8168 246.828C21.4968 240.718 28.3036 231.842 36.8004 220.766V220.735H36.8368L50.6948 218.696L50.622 218.743C52.624 215.103 54.782 211.24 56.9972 207.204H57.0284L80.9484 193.991L111.8 167.097H111.826H111.862L127.494 164.07L127.416 164.117L135.382 154.201L142.922 144.841L142.974 144.778H143.057L160.077 148.564H160.118L160.144 148.595L208.926 200.075C214.334 210.205 219.144 219.201 223.278 226.938L243.558 246.178L248.945 251.3L250.328 252.626C250.64 252.923 250.791 253.079 250.791 253.079L250.312 252.642L248.914 251.337L243.495 246.241L223.132 227.053L208.738 200.205L159.926 148.777L159.994 148.819L143 145.012L143.135 144.966L135.595 154.326L127.608 164.252L127.577 164.294H127.53L111.894 167.315L111.956 167.284L81.146 194.137L57.1896 207.324L57.2364 207.282L50.8404 218.816V218.858H50.7884L36.9252 220.88L36.9824 220.844C28.4648 231.904 21.6372 240.76 16.9364 246.844L11.4972 253.88L10.0932 255.684C9.77599 256.09 9.60959 256.292 9.60959 256.292Z" fill="#263238"/>
<path d="M133.697 209.16L133.567 209.206L133.172 209.326L131.648 209.763L125.928 211.359L106.168 216.772L106.231 216.741C103.797 219.274 101.166 222.019 98.4308 224.858L93.9328 229.538L93.9016 229.57H93.86L76.622 232.44L76.6844 232.404L69.1236 241.103L67.0436 243.49L66.4872 244.109C66.3624 244.244 66.2896 244.312 66.2896 244.312C66.2896 244.312 66.3468 244.234 66.4664 244.088C66.586 243.942 66.768 243.719 66.9864 243.448C67.4648 242.876 68.1564 242.065 69.0352 241.025L76.5284 232.263L76.5544 232.232H76.5908L93.834 229.32L93.7612 229.356C95.2224 227.833 96.7252 226.268 98.254 224.676L106.054 216.564H106.08H106.111L125.871 211.24L131.591 209.721L133.151 209.326L133.546 209.227L133.697 209.16Z" fill="#263238"/>
<path d="M172.734 198.12C172.734 198.193 165.703 198.255 157.03 198.255C148.356 198.255 141.32 198.193 141.32 198.12C141.32 198.047 148.351 197.985 157.03 197.985C165.708 197.985 172.734 198.063 172.734 198.12Z" fill="#263238"/>
<path d="M175.354 114.4C175.354 114.4 175.318 111.441 175.193 111.42L169.114 112.772C169.052 113.157 168.288 118.009 168.418 118.492L175.24 120.38C175.24 120.38 175.354 114.572 175.354 114.4Z" fill="#FFBE9D"/>
<path d="M175.36 119.928C175.36 119.928 175.36 119.876 175.391 119.798C175.464 119.132 175.391 116.241 175.068 116.121C174.746 116.002 173.685 116.204 173.612 116.589C173.54 116.974 173.779 120.229 173.779 120.229C173.779 120.229 173.846 120.749 174.71 120.864C175.24 120.936 175.36 119.928 175.36 119.928Z" fill="#FFBE9D"/>
<path d="M173.628 120.968C173.628 120.968 173.628 120.916 173.659 120.838C173.727 120.172 173.685 117.281 173.332 117.161C172.978 117.042 171.948 117.244 171.881 117.629C171.813 118.014 172.042 121.269 172.042 121.269C172.042 121.269 172.115 121.789 172.978 121.904C173.508 121.976 173.628 120.968 173.628 120.968Z" fill="#FFBE9D"/>
<path d="M171.933 121.488C171.933 121.488 171.933 121.436 171.959 121.352C172.032 120.692 171.99 117.801 171.636 117.676C171.283 117.551 170.253 117.764 170.186 118.144C170.118 118.524 170.347 121.784 170.347 121.784C170.347 121.784 170.42 122.304 171.278 122.424C171.813 122.496 171.933 121.488 171.933 121.488Z" fill="#FFBE9D"/>
<path d="M170.243 121.976C170.243 121.976 170.243 121.924 170.274 121.841C170.342 121.181 170.3 118.29 169.946 118.165C169.593 118.04 168.563 118.253 168.496 118.633C168.428 119.012 168.662 122.273 168.662 122.273C168.662 122.273 168.73 122.793 169.593 122.912C170.123 122.98 170.243 121.976 170.243 121.976Z" fill="#FFBE9D"/>
<path d="M173.602 117.432C173.703 117.894 173.748 118.367 173.737 118.841C173.784 119.305 173.768 119.774 173.69 120.234C173.589 119.772 173.544 119.299 173.555 118.825C173.508 118.361 173.523 117.892 173.602 117.432V117.432Z" fill="#EB996E"/>
<path d="M171.896 117.421C172.064 118.751 172.111 120.093 172.037 121.43C171.927 120.769 171.873 120.099 171.876 119.428C171.823 118.76 171.83 118.088 171.896 117.421V117.421Z" fill="#EB996E"/>
<g opacity="0.78">
<path d="M170.165 117.567C170.333 118.896 170.38 120.238 170.305 121.576C170.195 120.914 170.141 120.245 170.144 119.574C170.091 118.906 170.098 118.234 170.165 117.567V117.567Z" fill="#EB996E"/>
</g>
<path d="M169.078 112.934C169.078 112.934 166.67 118.399 167.024 118.737C167.478 119.075 167.966 119.364 168.48 119.6L169.078 112.934Z" fill="#FFBE9D"/>
<path d="M155.771 39.6136L154.008 60.0548L143.77 59.2384C143.707 58.0424 143.77 53.4197 143.77 53.4197C143.77 53.4197 139.511 52.754 139.459 48.4952C139.433 46.4152 139.729 42.1512 140.041 38.298C140.206 36.2437 141.17 34.3358 142.725 32.9836C144.28 31.6314 146.304 30.9426 148.361 31.0648V31.0648C149.415 31.1236 150.446 31.3933 151.393 31.8581C152.34 32.323 153.185 32.9733 153.876 33.7707C154.567 34.568 155.091 35.4961 155.416 36.4998C155.742 37.5035 155.863 38.5624 155.771 39.6136V39.6136Z" fill="#FFBE9D"/>
<path d="M143.785 53.3572C145.75 53.4012 147.684 52.8581 149.339 51.7972C149.339 51.7972 148.028 54.8652 143.775 54.4804L143.785 53.3572Z" fill="#EB996E"/>
<path d="M141.71 41.2828C141.71 41.4416 141.771 41.5945 141.88 41.7097C141.99 41.8248 142.139 41.8936 142.298 41.9016C142.454 41.9116 142.608 41.8592 142.726 41.7559C142.844 41.6526 142.917 41.5068 142.927 41.3504C142.929 41.1917 142.868 41.0387 142.758 40.924C142.648 40.8094 142.498 40.7422 142.34 40.7368C142.262 40.7304 142.184 40.7395 142.111 40.7637C142.037 40.7878 141.969 40.8265 141.91 40.8773C141.851 40.9282 141.804 40.9903 141.769 41.0599C141.735 41.1295 141.715 41.2053 141.71 41.2828V41.2828Z" fill="#263238"/>
<path d="M140.972 40.4455C141.045 40.5287 141.492 40.1855 142.163 40.1855C142.834 40.1855 143.296 40.5183 143.369 40.4351C143.442 40.3519 143.328 40.2583 143.114 40.1075C142.836 39.9096 142.502 39.8033 142.16 39.8033C141.818 39.8033 141.485 39.9096 141.206 40.1075C141.003 40.2687 140.92 40.4091 140.972 40.4455Z" fill="#263238"/>
<path d="M147.997 41.2879C147.997 41.4463 148.058 41.5985 148.168 41.7129C148.277 41.8272 148.427 41.8948 148.585 41.9015C148.662 41.9072 148.74 41.8973 148.813 41.8725C148.887 41.8477 148.955 41.8085 149.013 41.7572C149.071 41.7058 149.118 41.6434 149.152 41.5735C149.185 41.5037 149.205 41.4278 149.209 41.3503C149.212 41.1921 149.152 41.0391 149.043 40.9243C148.934 40.8096 148.785 40.7422 148.626 40.7367C148.549 40.7304 148.47 40.7397 148.396 40.7642C148.322 40.7886 148.254 40.8277 148.195 40.8791C148.136 40.9305 148.089 40.9932 148.055 41.0635C148.021 41.1337 148.001 41.21 147.997 41.2879V41.2879Z" fill="#263238"/>
<path d="M147.404 40.56C147.482 40.638 147.924 40.2948 148.595 40.3C149.266 40.3052 149.729 40.6276 149.802 40.5496C149.874 40.4716 149.76 40.3676 149.552 40.2168C149.267 40.0218 148.93 39.9184 148.585 39.9204C148.244 39.9166 147.912 40.0244 147.638 40.2272C147.436 40.3884 147.368 40.56 147.404 40.56Z" fill="#263238"/>
<path d="M145.028 45.422C144.69 45.3174 144.341 45.2529 143.988 45.2296C143.822 45.2296 143.66 45.1828 143.634 45.0684C143.614 44.8879 143.652 44.7056 143.744 44.5484C143.905 44.1428 144.066 43.7164 144.264 43.2744C144.721 42.1965 145.092 41.0836 145.371 39.9464C144.825 40.9836 144.364 42.0636 143.993 43.1756C143.832 43.6228 143.671 44.0492 143.52 44.4548C143.415 44.6564 143.386 44.8887 143.437 45.11C143.46 45.1698 143.497 45.2233 143.545 45.2658C143.593 45.3083 143.65 45.3387 143.712 45.3544C143.803 45.382 143.898 45.396 143.993 45.396C144.336 45.4477 144.683 45.4565 145.028 45.422V45.422Z" fill="#263238"/>
<path d="M146.957 45.8744C146.848 45.8744 146.848 46.5816 146.24 47.086C145.631 47.5904 144.877 47.5124 144.872 47.606C144.867 47.6996 145.038 47.7412 145.361 47.7516C145.777 47.7575 146.183 47.6157 146.505 47.3512C146.814 47.1005 147.012 46.7381 147.056 46.3424C147.082 46.046 147.004 45.8744 146.957 45.8744Z" fill="#263238"/>
<path d="M147.238 38.0016C147.3 38.1836 147.956 38.0952 148.725 38.1888C149.495 38.2824 150.114 38.4904 150.212 38.3344C150.311 38.1784 150.15 38.09 149.9 37.9184C149.569 37.7035 149.191 37.5699 148.798 37.5284C148.404 37.4842 148.006 37.5304 147.633 37.6636C147.352 37.778 147.207 37.9184 147.238 38.0016Z" fill="#263238"/>
<path d="M141.211 38.5528C141.326 38.7036 141.778 38.5528 142.319 38.5528C142.86 38.5528 143.322 38.6516 143.426 38.4956C143.53 38.3396 143.4 38.272 143.203 38.1316C142.933 37.9633 142.619 37.8784 142.301 37.8876C141.982 37.8969 141.674 37.9999 141.414 38.1836C141.227 38.3292 141.159 38.48 141.211 38.5528Z" fill="#263238"/>
<path d="M158.782 34.1588C158.808 33.761 158.686 33.3676 158.439 33.0545C158.193 32.7414 157.839 32.5309 157.446 32.4636C157.614 32.0815 157.656 31.6558 157.566 31.2483C157.476 30.8407 157.258 30.4723 156.945 30.1966C156.631 29.9209 156.238 29.7521 155.823 29.7146C155.407 29.6772 154.99 29.7731 154.632 29.9884C154.512 29.5254 154.264 29.1056 153.917 28.7768C153.569 28.4479 153.137 28.2233 152.668 28.1284C152.199 28.0335 151.713 28.0723 151.265 28.2403C150.817 28.4082 150.425 28.6986 150.134 29.0784C149.834 28.7227 149.448 28.4505 149.012 28.288C148.575 28.1256 148.105 28.0784 147.645 28.1511C147.186 28.2238 146.752 28.4138 146.388 28.7029C146.023 28.992 145.739 29.3703 145.564 29.8012C145.244 29.531 144.871 29.3315 144.468 29.2158C144.066 29.1 143.644 29.0707 143.229 29.1296C142.815 29.1885 142.418 29.3344 142.064 29.5577C141.709 29.781 141.407 30.0766 141.175 30.4252C140.708 30.2575 140.214 30.1781 139.719 30.1912C139.399 30.1994 139.088 30.2941 138.817 30.4654C138.547 30.6366 138.329 30.8779 138.185 31.1636C138.092 31.4082 138.085 31.6768 138.164 31.9261C138.243 32.1753 138.405 32.3904 138.622 32.5364C138.435 32.4764 138.239 32.4557 138.044 32.4756C137.85 32.4954 137.661 32.5555 137.491 32.6518C137.321 32.7482 137.173 32.8788 137.055 33.0354C136.938 33.192 136.855 33.3713 136.81 33.5618C136.766 33.7523 136.762 33.9499 136.798 34.1422C136.833 34.3345 136.909 34.5172 137.019 34.6789C137.129 34.8405 137.271 34.9776 137.437 35.0814C137.603 35.1852 137.788 35.2535 137.982 35.282C137.846 35.3516 137.732 35.4584 137.654 35.59C137.575 35.7216 137.536 35.8726 137.54 36.0256C137.598 36.2796 137.72 36.5144 137.895 36.7074C138.07 36.9005 138.291 37.0453 138.538 37.128C139.797 37.5831 141.179 37.5609 142.423 37.0656C143.681 36.6444 144.846 35.984 146.094 35.5056C147.342 35.0272 149.427 34.2316 150.68 34.6736C150.864 34.7395 151.039 34.8287 151.2 34.9388C151.874 35.4756 152.317 36.2494 152.438 37.102C152.441 37.1297 152.441 37.1575 152.438 37.1852C152.604 38.402 152.578 39.6344 152.755 40.8252C152.871 42.0553 153.396 43.2108 154.248 44.1064C154.617 44.4496 155.288 44.6888 155.574 44.2832C155.679 44.1172 155.732 43.9232 155.724 43.7268C155.891 41.6104 156.348 39.6656 156.593 37.596C156.906 37.0732 157.295 36.6 157.747 36.192C158.323 35.6587 158.69 34.938 158.782 34.1588V34.1588Z" fill="#263238"/>
<path d="M146.084 32.0164C146.01 31.8371 145.99 31.64 146.026 31.4496C146.072 30.915 146.315 30.4164 146.708 30.0508C147.006 29.7819 147.371 29.5988 147.765 29.521C148.158 29.4431 148.566 29.4735 148.944 29.6088C149.173 29.6841 149.384 29.8069 149.563 29.969C149.743 30.1311 149.886 30.329 149.984 30.55C150.082 30.8007 150.093 31.0774 150.015 31.3352C149.977 31.4731 149.907 31.6003 149.811 31.7068C149.716 31.8132 149.597 31.8961 149.464 31.9488C149.329 32.0022 149.183 32.0217 149.038 32.0053C148.894 31.989 148.756 31.9374 148.637 31.8552C148.525 31.7664 148.439 31.6502 148.386 31.518C148.333 31.3859 148.316 31.2422 148.335 31.1012C148.36 30.8407 148.483 30.5993 148.678 30.4252C148.858 30.2657 149.071 30.1484 149.302 30.082C149.683 29.9658 150.086 29.9386 150.479 30.0026C150.872 30.0666 151.245 30.2201 151.57 30.4512C151.822 30.6334 152.014 30.887 152.121 31.1792C152.196 31.4002 152.209 31.6378 152.157 31.8656C152.058 32.24 151.845 32.3544 151.845 32.344C151.948 32.186 152.019 32.0093 152.053 31.824C152.083 31.6166 152.058 31.405 151.98 31.2104C151.869 30.9576 151.689 30.7413 151.46 30.5864C151.157 30.387 150.813 30.2574 150.453 30.207C150.093 30.1567 149.727 30.1868 149.38 30.2952C149.186 30.3413 149.009 30.4423 148.871 30.5862C148.733 30.73 148.639 30.9106 148.6 31.1064C148.585 31.2032 148.596 31.3023 148.632 31.3936C148.667 31.485 148.727 31.5652 148.803 31.6264C148.886 31.6819 148.98 31.7161 149.079 31.7261C149.178 31.7361 149.278 31.7215 149.37 31.6836C149.554 31.5915 149.696 31.4322 149.765 31.2385C149.835 31.0449 149.828 30.8318 149.744 30.6436C149.659 30.4555 149.536 30.2869 149.383 30.1483C149.23 30.0097 149.051 29.9039 148.855 29.8376C148.516 29.7148 148.151 29.6823 147.795 29.7434C147.439 29.8045 147.106 29.957 146.827 30.186C146.454 30.518 146.204 30.9673 146.12 31.46C146.073 31.8136 146.12 32.0164 146.084 32.0164Z" fill="#455A64"/>
<path d="M151.258 29.2968C151.38 29.2499 151.511 29.2252 151.642 29.224C151.999 29.1896 152.359 29.2001 152.714 29.2552C153.259 29.332 153.764 29.5881 154.149 29.9832C154.393 30.2354 154.547 30.5611 154.588 30.9099C154.628 31.2586 154.552 31.611 154.372 31.9124C154.309 32.0111 154.232 32.1003 154.144 32.1776L154.003 31.9488C154.171 31.889 154.35 31.8701 154.527 31.8936C154.703 31.9171 154.871 31.9824 155.017 32.084C155.292 32.2579 155.488 32.5322 155.563 32.8484C155.616 33.1041 155.613 33.368 155.556 33.6226C155.498 33.8772 155.387 34.1167 155.23 34.3252C155.03 34.594 154.784 34.8247 154.502 35.0064C154.305 35.1364 154.19 35.1884 154.18 35.1728C154.17 35.1572 154.268 35.0792 154.44 34.9284C154.685 34.7236 154.9 34.4856 155.08 34.2212C155.207 34.0306 155.294 33.8162 155.336 33.591C155.378 33.3658 155.374 33.1344 155.324 32.9108C155.26 32.6575 155.099 32.4392 154.877 32.3024C154.765 32.2261 154.636 32.1769 154.502 32.1589C154.367 32.1408 154.23 32.1544 154.102 32.1984L153.405 32.4792L153.967 31.9592C154.036 31.8983 154.098 31.8283 154.149 31.7512C154.305 31.4944 154.366 31.1905 154.32 30.8932C154.279 30.6116 154.154 30.3489 153.962 30.1392C153.618 29.7751 153.169 29.5278 152.677 29.432C151.84 29.276 151.258 29.354 151.258 29.2968Z" fill="#455A64"/>
<path d="M157.425 33.8C157.456 33.8 157.534 33.9456 157.534 34.2056C157.529 34.5562 157.397 34.8932 157.163 35.1542C156.929 35.4152 156.608 35.5825 156.26 35.6252C156 35.6252 155.844 35.594 155.849 35.5576C156.262 35.4573 156.644 35.2573 156.962 34.9752C157.212 34.6283 157.371 34.2242 157.425 33.8V33.8Z" fill="#455A64"/>
<path d="M139.23 31.5848C139.337 31.4472 139.474 31.3353 139.63 31.2572C140.153 30.9677 140.754 30.8539 141.346 30.9326C141.938 31.0112 142.488 31.2782 142.917 31.694C143.079 31.8441 143.209 32.0258 143.298 32.2279C143.388 32.43 143.435 32.6482 143.437 32.8692C143.422 33.1267 143.307 33.3682 143.117 33.5421C142.926 33.716 142.675 33.8086 142.418 33.8C142.284 33.7846 142.157 33.7335 142.05 33.6521C141.943 33.5706 141.86 33.4619 141.809 33.3372C141.71 33.1127 141.693 32.8603 141.762 32.6248C141.829 32.4096 141.948 32.2144 142.109 32.0565C142.269 31.8986 142.467 31.783 142.683 31.72C143.055 31.5896 143.46 31.5896 143.832 31.72C144.145 31.835 144.431 32.0118 144.674 32.24C145.016 32.5646 145.301 32.9442 145.517 33.3632C145.608 33.5077 145.677 33.6656 145.72 33.8312C145.608 33.7019 145.509 33.5627 145.423 33.4152C145.185 33.0272 144.891 32.6767 144.55 32.3752C144.315 32.1544 144.028 31.9977 143.716 31.9203C143.403 31.8429 143.076 31.8473 142.766 31.9332C142.592 31.986 142.433 32.0796 142.303 32.2063C142.173 32.3329 142.075 32.4889 142.017 32.6612C141.918 33.0044 142.08 33.4724 142.444 33.4984C142.625 33.495 142.799 33.4237 142.931 33.2986C143.063 33.1735 143.143 33.0037 143.156 32.8224C143.154 32.6388 143.117 32.4574 143.044 32.2886C142.972 32.1199 142.867 31.9673 142.735 31.8396C142.269 31.3715 141.642 31.0982 140.982 31.0752C140.534 31.0542 140.086 31.1397 139.677 31.3248C139.533 31.4202 139.384 31.507 139.23 31.5848V31.5848Z" fill="#455A64"/>
<path d="M154.336 41.5376C154.409 41.5064 157.264 40.6744 157.17 43.5864C157.076 46.4984 154.175 45.8016 154.17 45.7184C154.164 45.6352 154.336 41.5376 154.336 41.5376Z" fill="#FFBE9D"/>
<path d="M155.095 44.6472C155.095 44.6472 155.147 44.6836 155.23 44.7252C155.352 44.773 155.488 44.773 155.61 44.7252C155.801 44.6113 155.958 44.4488 156.066 44.2542C156.174 44.0596 156.228 43.84 156.224 43.6176C156.238 43.3678 156.199 43.1179 156.109 42.8844C156.084 42.7932 156.037 42.7093 155.973 42.6397C155.909 42.5701 155.829 42.5167 155.74 42.484C155.682 42.4652 155.619 42.468 155.562 42.4919C155.506 42.5158 155.46 42.5591 155.433 42.614C155.392 42.692 155.407 42.7492 155.392 42.7544C155.376 42.7596 155.334 42.7076 155.36 42.588C155.379 42.5158 155.421 42.4518 155.48 42.406C155.562 42.3502 155.663 42.3279 155.761 42.3436C155.88 42.3708 155.991 42.428 156.082 42.5099C156.173 42.5919 156.241 42.6957 156.281 42.8116C156.395 43.068 156.444 43.3481 156.426 43.628C156.433 43.8876 156.363 44.1433 156.224 44.3628C156.085 44.5822 155.884 44.7554 155.646 44.8604C155.568 44.88 155.487 44.8822 155.408 44.867C155.329 44.8517 155.254 44.8193 155.189 44.772C155.1 44.72 155.085 44.6524 155.095 44.6472Z" fill="#EB996E"/>
<path d="M136.276 183.082L138.169 191.797C138.169 191.797 129.948 196.643 130.14 198.286L147.16 195.229L144.768 181.532L136.276 183.082Z" fill="#263238"/>
<path d="M147.16 195.229L146.864 193.856L130.65 197.304C130.65 197.304 129.953 197.772 130.13 198.286L147.16 195.229Z" fill="#455A64"/>
<path d="M155.641 184.038L155.922 192.951C155.922 192.951 146.957 196.232 146.848 197.881L164.148 197.959L164.278 184.054L155.641 184.038Z" fill="#263238"/>
<g opacity="0.6">
<path d="M164.148 197.959L164.107 196.555L147.534 197.007C147.534 197.007 146.765 197.34 146.848 197.881L164.148 197.959Z" fill="#455A64"/>
</g>
<path d="M135.34 190.554C135.34 190.554 126.5 147.056 126.469 146.182L142.308 137.8L148.444 188.848L135.34 190.554Z" fill="#263238"/>
<path d="M155.293 192.015L143.042 116.615V100.36L159.775 101.92C159.988 102.554 165.464 192.124 165.464 192.124L163.738 192.026H155.293" fill="#263238"/>
<path d="M133.411 99.2056L126.469 146.182L141.991 142.418L148.32 100.734L133.411 99.2056Z" fill="#263238"/>
<path d="M147.774 103.189C147.774 103.189 147.774 103.267 147.774 103.418L147.846 104.094C147.914 104.692 148.013 105.565 148.143 106.694C148.408 108.94 148.808 112.19 149.328 116.204C150.368 124.228 151.928 135.294 153.624 147.524C154.466 153.644 155.241 159.484 155.901 164.783C156.073 166.109 156.208 167.409 156.421 168.662C156.634 169.915 156.801 171.132 156.978 172.302C157.336 174.652 157.669 176.847 157.971 178.844C158.574 182.848 159.047 186.087 159.359 188.328C159.515 189.446 159.63 190.315 159.697 190.928C159.734 191.225 159.754 191.448 159.765 191.604C159.77 191.662 159.77 191.719 159.765 191.776C159.765 191.823 159.739 191.776 159.739 191.776C159.739 191.776 159.775 191.776 159.77 191.776C159.776 191.717 159.776 191.658 159.77 191.599C159.77 191.448 159.77 191.22 159.723 190.923C159.671 190.33 159.567 189.457 159.427 188.323C159.141 186.082 158.688 182.837 158.106 178.833C157.81 176.831 157.487 174.637 157.139 172.286C156.962 171.111 156.778 169.898 156.588 168.646C156.406 167.393 156.276 166.093 156.104 164.767C155.459 159.458 154.69 153.624 153.847 147.508C152.157 135.278 150.561 124.212 149.49 116.194C148.97 112.19 148.533 108.945 148.236 106.694L147.898 104.094C147.862 103.802 147.831 103.574 147.81 103.423C147.789 103.272 147.774 103.189 147.774 103.189Z" fill="#455A64"/>
<path d="M138.434 190.154C138.434 190.154 138.434 190.076 138.408 189.93L138.32 189.28C138.221 188.703 138.081 187.86 137.894 186.779C137.514 184.6 136.963 181.459 136.282 177.585L130.884 147.259C130.724 146.537 130.681 145.795 130.754 145.059C130.848 144.331 130.967 143.598 131.076 142.875C131.302 141.43 131.522 140.005 131.737 138.601C132.179 135.798 132.61 133.099 133.042 130.53C133.895 125.388 134.722 120.77 135.46 116.896C136.198 113.022 136.843 109.902 137.337 107.754C137.571 106.678 137.784 105.846 137.914 105.284C137.977 105.009 138.024 104.764 138.06 104.64C138.096 104.515 138.107 104.421 138.107 104.421C138.107 104.421 138.081 104.489 138.039 104.634C137.998 104.78 137.946 104.998 137.873 105.274C137.727 105.836 137.504 106.662 137.259 107.734C136.739 109.881 136.068 113.001 135.309 116.87C134.55 120.739 133.713 125.356 132.85 130.494C132.413 133.068 131.976 135.767 131.529 138.57C131.31 139.968 131.092 141.398 130.863 142.844C130.759 143.572 130.64 144.29 130.541 145.038C130.469 145.795 130.514 146.558 130.676 147.3C132.808 159.13 134.737 169.848 136.136 177.611C136.843 181.48 137.415 184.616 137.81 186.794L138.278 189.29C138.336 189.566 138.377 189.784 138.408 189.935C138.44 190.086 138.434 190.154 138.434 190.154Z" fill="#455A64"/>
<path d="M143.042 116.085C142.984 116.085 143.707 120.968 144.659 126.963C145.61 132.959 146.427 137.8 146.484 137.8C146.541 137.8 145.818 132.917 144.867 126.922C143.915 120.926 143.099 116.074 143.042 116.085Z" fill="#455A64"/>
<path d="M155.142 191.88C155.273 191.916 155.407 191.939 155.542 191.948C155.802 191.979 156.182 192.015 156.645 192.052C157.576 192.124 158.865 192.192 160.285 192.218C161.704 192.244 162.999 192.218 163.925 192.171C164.393 192.171 164.772 192.13 165.032 192.104C165.168 192.105 165.303 192.086 165.433 192.046C164.931 192.004 164.427 191.996 163.925 192.02C162.989 192.02 161.704 192.02 160.285 192.02C158.865 192.02 157.576 191.948 156.645 191.916C156.145 191.87 155.643 191.858 155.142 191.88V191.88Z" fill="#455A64"/>
<path d="M135.34 190.554C135.514 190.565 135.689 190.556 135.86 190.528L137.27 190.382C138.46 190.242 140.098 190.044 141.908 189.805C143.718 189.566 145.35 189.348 146.531 189.176L147.935 188.963C148.111 188.948 148.286 188.913 148.455 188.859C148.282 188.841 148.108 188.841 147.935 188.859L146.526 189.004C145.335 189.14 143.697 189.342 141.887 189.576C140.078 189.81 138.445 190.034 137.259 190.211L135.86 190.424C135.683 190.449 135.509 190.492 135.34 190.554Z" fill="#455A64"/>
<path d="M56.68 26.2184C56.68 26.2184 63.5544 23.5352 68.25 24.8768C72.9456 26.2184 74.36 29.12 77.8804 28.886C80.678 28.6884 82.6592 27.4768 83.668 24.5024C84.6768 21.528 84.6768 17.8152 94.2292 18.1688C101.54 18.4392 102.279 19.5104 102.279 19.5104L103.064 38.9636C98.904 38.3084 94.692 37.8352 90.1524 38.4748C89.0438 38.7146 88.0376 39.2944 87.2742 40.1334C86.5108 40.9723 86.0281 42.0285 85.8936 43.1548C85.3736 47.3148 81.094 48.9268 78.5356 48.9268C74.8956 48.9268 73.0236 46.4516 69.9192 45.734C65.0468 44.6056 56.68 48.0168 56.68 48.0168V26.2184Z" fill="#0572E6"/>
<path d="M106.038 66.8876L101.837 66.5912L101.946 73.1848L106.454 76.4764L106.912 76.31L107.172 68.8116L106.038 66.8876Z" fill="#EB996E"/>
<path d="M82.9452 41.21C82.8724 41.21 82.7476 37.986 82.6696 34.008C82.5916 30.03 82.5916 26.8008 82.6696 26.8008C82.7476 26.8008 82.8672 30.0196 82.9452 34.0028C83.0232 37.986 83.018 41.2048 82.9452 41.21Z" fill="#263238"/>
<path d="M75.2492 32.76C75.3272 32.76 75.3844 36.0932 75.3844 40.196C75.3844 44.2988 75.3272 47.6372 75.2492 47.6372C75.1712 47.6372 75.114 44.304 75.114 40.196C75.114 36.088 75.1764 32.76 75.2492 32.76Z" fill="#263238"/>
<g opacity="0.2">
<path d="M75.2492 44.356C75.1972 45.8484 75.2492 47.8296 75.2492 47.8296C76.3412 48.5576 78.5928 48.9996 79.846 48.6096H79.8824C80.711 48.3443 81.4573 47.87 82.0493 47.2324C82.6413 46.5948 83.0591 45.8155 83.2624 44.9696C83.4163 44.4059 83.483 43.8219 83.46 43.238C83.044 38.2928 82.5084 32.1308 82.6644 27.17C81.6287 28.0456 80.3936 28.653 79.0678 28.9386C77.742 29.2243 76.3664 29.1794 75.062 28.808L75.2492 44.356Z" fill="black"/>
</g>
<g opacity="0.6">
<path d="M74.5628 29.4945C74.3381 29.3946 74.1238 29.2727 73.9232 29.1305L72.2228 28.0905C70.3876 26.8942 68.3537 26.0349 66.2168 25.5529C64.0628 25.1569 61.845 25.289 59.7532 25.9377C58.8954 26.2413 58.0537 26.5884 57.2312 26.9777C57.4271 26.8277 57.6359 26.6954 57.8552 26.5825C58.4452 26.2613 59.0609 25.99 59.696 25.7713C61.8107 25.0547 64.074 24.8936 66.2688 25.3033C68.4379 25.7873 70.4943 26.6822 72.3268 27.9397C73.0392 28.3973 73.5956 28.7925 73.9804 29.0681C74.1877 29.1913 74.3827 29.334 74.5628 29.4945V29.4945Z" fill="white"/>
</g>
<g opacity="0.6">
<path d="M91.4576 19.5624C91.4576 19.6092 90.9376 19.5624 90.1264 19.6456C89.0695 19.7696 88.0596 20.1525 87.1861 20.7602C86.3126 21.3679 85.6025 22.1818 85.1188 23.1296C84.7444 23.8576 84.63 24.362 84.5988 24.3464C84.6284 23.8924 84.7523 23.4497 84.9628 23.0464C85.4172 22.0358 86.1376 21.1678 87.0471 20.5349C87.9566 19.902 89.0209 19.5281 90.1264 19.4532C90.5729 19.3985 91.0259 19.4357 91.4576 19.5624V19.5624Z" fill="white"/>
</g>
<path d="M102.648 17.5135L108.196 171.662L107.24 171.891L101.54 17.5863L102.648 17.5135Z" fill="#263238"/>
<path d="M112.908 75.6132L110.828 68.1304L103.433 62.9304C103.433 62.9304 102.57 63.4504 103.891 65.4004L105.55 67.6884C105.55 67.6884 105.498 70.668 106.917 72.4152L106.46 76.4504L112.908 75.6132Z" fill="#FFBE9D"/>
<path d="M101.821 67.9536C102.626 68.4761 103.33 69.1383 103.901 69.9088C104.012 70.1276 104.066 70.3709 104.057 70.616C104.063 70.7213 104.039 70.8262 103.987 70.9183C103.936 71.0103 103.859 71.0858 103.766 71.136C103.688 71.1672 103.604 71.1793 103.521 71.1712C103.438 71.163 103.358 71.1349 103.288 71.0892C103.143 71.0023 103.014 70.8935 102.903 70.7668L101.478 69.2952C101.237 69.0793 101.065 68.7971 100.984 68.484C100.982 68.3868 101.005 68.2907 101.051 68.2051C101.097 68.1194 101.164 68.047 101.246 67.9947C101.328 67.9425 101.422 67.9123 101.519 67.9069C101.616 67.9015 101.713 67.9212 101.8 67.964" fill="#FFBE9D"/>
<path d="M101.811 69.8621C102.613 70.3875 103.317 71.0492 103.891 71.8172C104 72.0365 104.054 72.2794 104.047 72.5244C104.053 72.6298 104.028 72.7347 103.977 72.8267C103.925 72.9188 103.848 72.9943 103.756 73.0444C103.676 73.0726 103.592 73.083 103.509 73.0749C103.425 73.0669 103.344 73.0405 103.272 72.9977C103.129 72.9106 103.001 72.8018 102.892 72.6752L101.483 71.24C101.245 71.0225 101.076 70.7408 100.994 70.4288C100.994 70.3322 101.018 70.237 101.064 70.1521C101.111 70.0672 101.178 69.9955 101.259 69.9436C101.341 69.8916 101.434 69.8612 101.53 69.8551C101.627 69.8491 101.723 69.8675 101.811 69.9088" fill="#FFBE9D"/>
<path d="M102.118 71.942C102.922 72.4645 103.626 73.1267 104.198 73.8972C104.311 74.1151 104.364 74.359 104.354 74.6044C104.359 74.7091 104.335 74.8133 104.285 74.9052C104.234 74.9971 104.159 75.0731 104.068 75.1244C103.989 75.154 103.904 75.1652 103.82 75.1571C103.736 75.149 103.656 75.1218 103.584 75.0776C103.441 74.9893 103.311 74.8807 103.199 74.7552L101.774 73.2836C101.537 73.0649 101.366 72.7838 101.28 72.4724C101.278 72.3752 101.302 72.2791 101.347 72.1935C101.393 72.1078 101.461 72.0354 101.543 71.9831C101.624 71.9309 101.719 71.9007 101.816 71.8953C101.913 71.8899 102.009 71.9096 102.097 71.9524" fill="#FFBE9D"/>
<path d="M102.159 66.6379C102.485 66.7852 102.778 66.9955 103.022 67.2567C103.147 67.3957 103.23 67.5671 103.261 67.7512C103.292 67.9352 103.271 68.1244 103.199 68.2967C103.17 68.3637 103.123 68.4221 103.065 68.4667C103.007 68.5112 102.939 68.5404 102.866 68.5515C102.764 68.5564 102.663 68.5311 102.575 68.4787C102.373 68.3858 102.183 68.2689 102.008 68.1303C101.837 67.9704 101.678 67.7965 101.535 67.6103C101.437 67.534 101.369 67.4248 101.344 67.3027C101.319 67.1805 101.339 67.0535 101.4 66.9447C101.509 66.6951 101.618 66.5495 102.159 66.6119" fill="#FFBE9D"/>
<path d="M112.476 71.8745L123.703 81.9572L120.052 90.0068L107.172 76.2633L112.476 71.8745Z" fill="#FFBE9D"/>
<path d="M112.029 71.4376L122.018 79.04C122.018 79.04 131.31 63.1904 132.132 62.2076C132.954 61.2248 135.039 60.1692 135.039 60.1692L133.884 80.4856C133.884 80.4856 128.861 93.314 121.961 92.6172C116.678 92.0972 107.552 78.1508 107.552 78.1508L112.029 71.4376Z" fill="#0572E6"/>
<g opacity="0.2">
<path d="M121.831 78.7904C121.146 79.8587 120.701 81.0628 120.527 82.3197C120.353 83.5765 120.454 84.8562 120.822 86.0704C120.874 86.3278 121.018 86.5572 121.228 86.7152C121.406 86.7932 121.606 86.8023 121.791 86.7408C121.975 86.6793 122.13 86.5516 122.226 86.3824C122.405 86.0354 122.494 85.6494 122.486 85.2592C122.651 85.6349 122.902 85.9664 123.219 86.2264C123.384 86.3493 123.585 86.4123 123.791 86.4047C123.996 86.3971 124.193 86.3195 124.348 86.1848C124.68 85.8208 124.493 85.2436 124.296 84.7912C123.443 82.8637 122.592 80.9363 121.742 79.0088" fill="black"/>
</g>
<path d="M114.54 73.71C113.856 75.0326 113.092 76.3124 112.252 77.5424C111.489 78.8203 110.651 80.0514 109.741 81.2292C110.423 79.9053 111.187 78.6253 112.029 77.3968C112.791 76.1186 113.63 74.8874 114.54 73.71V73.71Z" fill="#263238"/>
<path d="M111.998 73.4344C111.998 73.4084 112.102 73.2784 112.33 73.3616C112.397 73.3875 112.456 73.4297 112.502 73.4841C112.549 73.5386 112.581 73.6037 112.596 73.6736C112.608 73.7662 112.591 73.8605 112.548 73.9435C112.505 74.0265 112.438 74.0944 112.355 74.138C112.273 74.1817 112.179 74.1989 112.086 74.1874C111.993 74.176 111.906 74.1364 111.836 74.074C111.788 74.0218 111.753 73.9584 111.735 73.8894C111.717 73.8205 111.716 73.7481 111.732 73.6788C111.79 73.4396 111.972 73.4084 111.977 73.4448C111.982 73.4812 111.914 73.554 111.925 73.6996C111.935 73.8452 112.05 73.9908 112.226 73.8972C112.26 73.8804 112.289 73.8545 112.309 73.8224C112.329 73.7902 112.34 73.7531 112.34 73.7152C112.34 73.6773 112.329 73.6401 112.309 73.608C112.289 73.5758 112.26 73.5499 112.226 73.5332C112.128 73.4448 112.018 73.4656 111.998 73.4344Z" fill="#263238"/>
<path d="M122.028 83.8448C121.45 82.2997 121.424 80.602 121.956 79.04C122.034 79.04 121.82 80.1216 121.846 81.4476C121.872 82.7736 122.106 83.824 122.028 83.8448Z" fill="#263238"/>
<path d="M123.963 83.7772C122.944 82.3751 122.249 80.7642 121.93 79.0608C122.304 79.8319 122.639 80.6216 122.933 81.4268C123.49 82.7216 124.03 83.72 123.963 83.7772Z" fill="#263238"/>
<path d="M155.938 58.24L154.44 55.2396H143.52L141.804 58.63L135.044 60.1588L132.137 103.672C132.123 104.218 132.256 104.757 132.522 105.232V105.232L159.042 106.272L160.118 106.714C161.07 106.127 160.477 103.704 160.488 102.554L160.831 81.0056L166.078 63.7832L155.938 58.24Z" fill="#0572E6"/>
<g opacity="0.2">
<path d="M144.617 59.7324L146.546 57.8032L148.72 63.0344C151.216 61.5678 153.591 59.9056 155.823 58.0632L148.476 60.4188C147.852 58.7756 147.231 57.1289 146.614 55.4788C146.175 56.9758 145.553 58.4131 144.763 59.7584" fill="black"/>
</g>
<path d="M175.401 112.788L168.251 113.157V92.6379L160.857 81.0107L166.104 63.7883C167.185 64.2147 175.334 84.6715 177.408 90.2303C177.709 91.03 177.84 91.8836 177.793 92.7367L175.401 112.788Z" fill="#0572E6"/>
<path d="M135.039 69.16C135.117 69.16 134.758 73.3772 134.248 78.5564C133.739 83.7356 133.26 87.9164 133.208 87.9164C133.156 87.9164 133.489 83.6992 133.999 78.5148C134.508 73.3304 134.966 69.1288 135.039 69.16Z" fill="#263238"/>
<path d="M146.604 55.4891C146.254 56.6851 145.82 57.8546 145.304 58.9887L145.158 59.3423C145.109 59.4798 145.027 59.603 144.919 59.7011C144.852 59.7532 144.771 59.7841 144.687 59.7897C144.603 59.7952 144.518 59.7753 144.446 59.7323C144.321 59.6699 144.232 59.6023 144.139 59.5451L143.156 58.8795C142.841 58.6927 142.551 58.4673 142.293 58.2087C142.634 58.3435 142.959 58.518 143.26 58.7287L144.274 59.3423C144.466 59.4671 144.664 59.6075 144.752 59.5035C144.885 59.3186 144.987 59.1131 145.054 58.8951C145.486 57.7231 146.004 56.5846 146.604 55.4891V55.4891Z" fill="#263238"/>
<path d="M155.288 58.1568C154.75 58.4243 154.192 58.6486 153.618 58.8276C152.578 59.2124 151.133 59.722 149.531 60.268L148.658 60.5644L148.538 60.606L148.491 60.4916C147.93 59.1292 147.451 57.9228 147.103 57.0492C146.898 56.5927 146.733 56.1195 146.609 55.6348C146.863 56.0662 147.084 56.5164 147.269 56.9816C147.649 57.8344 148.164 59.0304 148.741 60.3876L148.569 60.3148L149.443 60.0132C151.044 59.4932 152.5 58.9732 153.556 58.6456C154.12 58.44 154.699 58.2766 155.288 58.1568Z" fill="#263238"/>
<path d="M164.965 64.4072C164.965 64.4852 163.452 64.9272 161.668 65.6968C159.884 66.4664 158.548 67.3504 158.496 67.2568C158.739 67.0042 159.02 66.7903 159.328 66.6224C160.754 65.7164 162.307 65.026 163.935 64.5736C164.268 64.4652 164.615 64.4091 164.965 64.4072V64.4072Z" fill="#263238"/>
<path d="M146.604 55.4891C146.61 55.5322 146.61 55.576 146.604 55.6191C146.604 55.7231 146.604 55.8479 146.604 56.0039C146.604 56.3419 146.635 56.8359 146.64 57.4755C146.64 58.7495 146.64 60.5955 146.557 62.8783C146.396 67.4439 145.824 73.7359 144.914 80.6363C144.472 84.0943 143.983 87.3963 143.655 90.3707C143.342 93.0213 143.196 95.689 143.218 98.3579C143.24 100.156 143.383 101.951 143.645 103.73C143.723 104.364 143.822 104.848 143.874 105.18C143.874 105.331 143.915 105.456 143.931 105.56C143.937 105.603 143.937 105.647 143.931 105.69C143.914 105.65 143.901 105.608 143.894 105.565C143.868 105.461 143.842 105.342 143.806 105.191C143.744 104.863 143.624 104.38 143.53 103.745C143.224 101.965 143.05 100.164 143.01 98.3579C142.956 95.6815 143.082 93.0045 143.385 90.3447C143.702 87.3391 144.18 84.0579 144.622 80.6051C145.532 73.7047 146.13 67.4283 146.344 62.8731C146.458 60.5955 146.494 58.7495 146.515 57.4755C146.515 56.8515 146.515 56.3627 146.515 56.0039C146.515 55.8479 146.515 55.7231 146.515 55.6243C146.537 55.5745 146.567 55.5287 146.604 55.4891V55.4891Z" fill="#263238"/>
<path d="M175.791 109.647C174.528 109.719 173.261 109.702 172 109.595C170.736 109.579 169.474 109.473 168.225 109.278C169.487 109.203 170.752 109.218 172.011 109.325C173.277 109.344 174.54 109.452 175.791 109.647Z" fill="#263238"/>
<path d="M169.447 110.448C169.447 110.448 169.447 110.547 169.447 110.64C169.447 110.734 169.562 110.791 169.655 110.713C169.749 110.635 169.718 110.557 169.629 110.495C169.541 110.432 169.468 110.458 169.442 110.432C169.416 110.406 169.489 110.282 169.686 110.313C169.743 110.322 169.797 110.345 169.843 110.38C169.888 110.416 169.924 110.462 169.946 110.516C169.971 110.588 169.973 110.666 169.951 110.74C169.93 110.813 169.887 110.879 169.827 110.927C169.768 110.975 169.695 111.004 169.619 111.009C169.542 111.015 169.466 110.997 169.4 110.958C169.354 110.923 169.316 110.877 169.291 110.825C169.266 110.772 169.253 110.714 169.255 110.656C169.291 110.458 169.432 110.412 169.447 110.448Z" fill="#263238"/>
<g opacity="0.2">
<path d="M160.945 80.9536C160.165 79.5496 159.389 78.1456 158.616 76.7416C157.695 84.1724 158.225 91.7112 160.176 98.9404C160.418 92.9742 160.659 87.0098 160.898 81.0472" fill="black"/>
</g>
<g opacity="0.2">
<path d="M128.398 68.2448C129.101 69.246 130.114 69.9882 131.28 70.3566C132.446 70.725 133.701 70.6992 134.852 70.2832C135.021 70.5435 135.252 70.7583 135.524 70.9088C135.796 71.0592 136.101 71.1408 136.412 71.1464C137.027 71.1551 137.638 71.0365 138.206 70.798C140.384 69.9686 142.321 68.6081 143.84 66.84C145.36 65.0719 146.413 62.9522 146.905 60.6736C143.541 61.854 141.274 65.1144 137.972 66.4664C136.673 67.0088 135.259 67.2173 133.86 67.0729C132.46 66.9285 131.119 66.4357 129.958 65.6396L128.398 68.2448Z" fill="black"/>
</g>
<path d="M149.11 73.2212C149.249 73.1963 149.39 73.1858 149.531 73.19L150.774 73.1588C151.856 73.1588 153.41 73.112 155.288 73.1016H155.412V73.2264C155.288 74.8696 155.152 76.7728 155.002 78.8008V78.8736L154.934 78.91L154.658 79.0556L151.637 80.6468L151.559 80.6832L151.492 80.6312L148.689 78.338L148.647 78.3016V78.2444C148.782 76.7364 148.892 75.4832 148.97 74.5524C149.011 74.152 149.042 73.8192 149.074 73.554C149.077 73.4417 149.092 73.3301 149.12 73.2212C149.13 73.3476 149.13 73.4745 149.12 73.6008C149.12 73.8712 149.089 74.2144 149.074 74.6408C149.022 75.556 148.954 76.7936 148.871 78.2808L148.829 78.1872L151.658 80.4492H151.518L154.528 78.8528L154.809 78.7072L154.736 78.8164L155.178 73.2472L155.298 73.372C153.473 73.372 151.944 73.3356 150.857 73.3148L149.588 73.2836C149.428 73.2734 149.268 73.2526 149.11 73.2212V73.2212Z" fill="#263238"/>
<path d="M155.121 75.7172C153.061 75.8594 150.992 75.8211 148.938 75.6028C149.965 75.4853 151.001 75.4592 152.032 75.5248C153.066 75.4996 154.099 75.5639 155.121 75.7172V75.7172Z" fill="#FAFAFA"/>
<path d="M155.074 76.7884C154.039 76.9075 152.995 76.9337 151.954 76.8664C150.919 76.8943 149.884 76.8299 148.86 76.674C149.896 76.5585 150.94 76.5324 151.98 76.596C153.015 76.5711 154.051 76.6355 155.074 76.7884V76.7884Z" fill="#FAFAFA"/>
<path d="M135.99 105.466C135.99 105.539 135.434 105.466 135.075 104.9C134.716 104.333 134.826 103.813 134.898 103.86C134.971 103.906 134.992 104.328 135.299 104.77C135.606 105.212 136.016 105.394 135.99 105.466Z" fill="#263238"/>
<path d="M136.682 105.175C136.28 104.881 136.011 104.44 135.933 103.948C135.85 103.715 135.814 103.467 135.827 103.22C135.84 102.973 135.903 102.73 136.011 102.508C136.089 102.508 136.011 103.147 136.198 103.88C136.386 104.614 136.76 105.128 136.682 105.175Z" fill="#263238"/>
<path d="M156.707 102.185C156.758 102.938 156.617 103.692 156.296 104.376C155.974 105.059 155.484 105.649 154.872 106.09C155.309 105.51 155.704 104.898 156.052 104.26C156.321 103.585 156.54 102.892 156.707 102.185V102.185Z" fill="#263238"/>
<path d="M145.803 57.7096H147.238L147.852 58.7756L147.248 60.4396L145.818 60.2784L145.257 59.0772L145.803 57.7096Z" fill="#455A64"/>
<path d="M145.818 60.2784C145.818 60.2784 137.186 65.8372 132.777 63.6168C128.367 61.3964 122.897 58.6768 117.972 59.3268C115.092 59.6783 112.301 60.5598 109.741 61.9268L108.181 65.676L112.169 67.1112C112.169 67.1112 117.983 64.3032 122.21 65.0572C125.164 65.5772 130.837 68.5932 134.659 68.3072C138.481 68.0212 143.759 65.3016 147.233 60.4188L145.818 60.2784Z" fill="#455A64"/>
<path d="M146.864 60.8972C146.663 60.8452 146.473 60.759 146.302 60.6424C146.11 60.5543 145.934 60.4348 145.782 60.2888C145.985 60.3408 146.177 60.4289 146.349 60.5488C146.539 60.6337 146.714 60.7517 146.864 60.8972V60.8972Z" fill="#263238"/>
<path d="M147.716 58.5884C147.423 58.9047 147.103 59.1952 146.76 59.4568C146.436 59.7475 146.088 60.0102 145.72 60.242C146.013 59.9257 146.333 59.6352 146.676 59.3736C147 59.0829 147.348 58.8202 147.716 58.5884V58.5884Z" fill="#263238"/>
<path d="M147.108 59.1344C146.541 58.7731 146.072 58.2785 145.74 57.694C145.766 57.694 146.037 58.0268 146.411 58.422C146.786 58.8172 147.124 59.1084 147.108 59.1344Z" fill="#263238"/>
<path d="M139.979 66.6536C139.896 66.5131 139.832 66.3628 139.786 66.2064C139.677 65.9256 139.537 65.5356 139.391 65.104C139.246 64.6724 139.116 64.2772 139.027 63.9912C138.974 63.8371 138.934 63.6788 138.908 63.518C138.989 63.6592 139.053 63.8093 139.1 63.9652C139.209 64.246 139.35 64.636 139.495 65.0676C139.641 65.4992 139.771 65.8944 139.854 66.1804C139.91 66.334 139.952 66.4924 139.979 66.6536V66.6536Z" fill="#FAFAFA"/>
<path d="M142.137 65.3588C141.843 64.9831 141.578 64.5849 141.346 64.168C141.084 63.7694 140.851 63.3523 140.65 62.92C141.207 63.6936 141.704 64.509 142.137 65.3588V65.3588Z" fill="#FAFAFA"/>
<path d="M144.092 63.8404C143.772 63.6046 143.476 63.3381 143.208 63.0448C142.913 62.7783 142.645 62.484 142.407 62.166C143.016 62.6744 143.58 63.2346 144.092 63.8404V63.8404Z" fill="#FAFAFA"/>
<path d="M145.709 62.2492C145.469 62.1132 145.245 61.9491 145.044 61.7604C144.822 61.5948 144.621 61.4027 144.446 61.1884C144.69 61.3184 144.914 61.483 145.111 61.6772C145.337 61.8377 145.539 62.0304 145.709 62.2492V62.2492Z" fill="#FAFAFA"/>
<path d="M136.906 67.99C136.821 67.3658 136.77 66.7373 136.755 66.1076C136.701 65.4799 136.686 64.8495 136.708 64.22C136.796 64.8439 136.848 65.4724 136.864 66.1024C136.914 66.7302 136.928 67.3605 136.906 67.99V67.99Z" fill="#FAFAFA"/>
<path d="M133.947 68.4528C133.947 68.4528 134.025 67.4856 134.186 66.3C134.347 65.1144 134.503 64.1524 134.529 64.1576C134.489 64.8788 134.411 65.5974 134.295 66.3104C134.217 67.0302 134.101 67.7453 133.947 68.4528V68.4528Z" fill="#FAFAFA"/>
<path d="M132.2 63.2788C132.226 63.2788 131.95 64.3188 131.576 65.598C131.201 66.8772 130.884 67.8912 130.853 67.886C130.822 67.8808 131.102 66.846 131.472 65.5668C131.841 64.2876 132.168 63.2736 132.2 63.2788Z" fill="#FAFAFA"/>
<path d="M130.187 62.3324C130.218 62.3324 129.886 63.4088 129.454 64.7088C129.022 66.0088 128.643 67.0644 128.612 67.054C128.58 67.0436 128.913 65.9828 129.35 64.6776C129.787 63.3724 130.161 62.322 130.187 62.3324Z" fill="#FAFAFA"/>
<path d="M127.28 60.97C127.28 60.97 127.015 62.1348 126.63 63.57C126.246 65.0052 125.908 66.1284 125.882 66.1232C125.856 66.118 126.142 64.9584 126.526 63.5232C126.911 62.088 127.249 60.9648 127.28 60.97Z" fill="#FAFAFA"/>
<path d="M124.166 60.1224C124.197 60.1224 123.968 61.2716 123.646 62.6756C123.323 64.0796 123.063 65.2132 123.032 65.2028C123.001 65.1924 123.23 64.0536 123.552 62.6548C123.874 61.256 124.14 60.1172 124.166 60.1224Z" fill="#FAFAFA"/>
<path d="M121.025 59.5816C121.056 59.5816 121.092 60.7932 121.103 62.2908C121.113 63.7884 121.103 65.0104 121.072 65.0104C121.04 65.0104 121.009 63.7936 120.999 62.296C120.988 60.7984 120.999 59.5816 121.025 59.5816Z" fill="#FAFAFA"/>
<path d="M118.503 65.1144C118.477 65.0432 118.456 64.9702 118.44 64.896C118.399 64.6932 118.357 64.4904 118.31 64.2824C118.206 63.7624 118.082 63.05 117.967 62.2544C117.853 61.4588 117.764 60.736 117.718 60.2108C117.718 60.0028 117.681 59.8 117.666 59.592C117.652 59.5163 117.652 59.4389 117.666 59.3632C117.687 59.4362 117.701 59.5111 117.707 59.5868C117.707 59.7896 117.764 59.9976 117.79 60.2056C117.884 60.8556 117.972 61.516 118.071 62.2388C118.17 62.9616 118.284 63.622 118.388 64.272L118.482 64.8856C118.5 64.9604 118.507 65.0375 118.503 65.1144V65.1144Z" fill="#FAFAFA"/>
<path d="M115.71 65.6916C115.684 65.6916 115.258 64.4903 114.759 62.9979C114.26 61.5056 113.885 60.2784 113.911 60.268C113.937 60.2576 114.369 61.464 114.863 62.9616C115.357 64.4592 115.742 65.6812 115.71 65.6916Z" fill="#FAFAFA"/>
<path d="M113.178 66.586C113.152 66.586 112.596 65.4836 111.935 64.09C111.275 62.6964 110.76 61.5628 110.786 61.5472C110.812 61.5316 111.374 62.6548 112.034 64.0432C112.694 65.4316 113.204 66.56 113.178 66.586Z" fill="#FAFAFA"/>
<path d="M109.892 66.2948C109.636 66.0077 109.429 65.6811 109.278 65.3276C109.092 64.9919 108.967 64.6256 108.909 64.246C108.94 64.246 109.101 64.7192 109.372 65.286C109.642 65.8528 109.918 66.274 109.892 66.2948Z" fill="#FAFAFA"/>
</svg>
