<svg width="149" height="29" viewBox="0 0 149 29" fill="none" xmlns="http://www.w3.org/2000/svg">
<g clip-path="url(#clip0_316_799)">
<path d="M17.9644 24V7.21024H23.8916C25.0034 7.21024 25.9799 7.42058 26.8213 7.84127C27.6627 8.26195 28.3162 8.86293 28.782 9.64419C29.2628 10.4255 29.5032 11.342 29.5032 12.3937C29.5032 13.4454 29.2628 14.3619 28.782 15.1431C28.3162 15.9094 27.6627 16.5103 26.8213 16.946C25.995 17.3667 25.0184 17.5771 23.8916 17.5771H20.173V24H17.9644ZM20.173 15.5488H23.9592C24.6353 15.5488 25.2212 15.4211 25.717 15.1657C26.2128 14.9102 26.5959 14.5421 26.8664 14.0614C27.1368 13.5806 27.272 13.0247 27.272 12.3937C27.272 11.7476 27.1368 11.1917 26.8664 10.726C26.5959 10.2452 26.2128 9.87707 25.717 9.62166C25.2212 9.36624 24.6353 9.23854 23.9592 9.23854H20.173V15.5488ZM37.5713 24.2704C36.3994 24.2704 35.3401 24 34.3936 23.4591C33.4471 22.9032 32.6958 22.1445 32.1399 21.1829C31.584 20.2214 31.3061 19.1321 31.3061 17.9151C31.3061 16.6981 31.5765 15.6164 32.1174 14.6699C32.6733 13.7233 33.4245 12.9721 34.3711 12.4162C35.3176 11.8603 36.3843 11.5823 37.5713 11.5823C38.7432 11.5823 39.8024 11.8603 40.7489 12.4162C41.6955 12.9571 42.4392 13.7008 42.98 14.6473C43.5359 15.5939 43.8139 16.6831 43.8139 17.9151C43.8139 19.1471 43.5284 20.2439 42.9575 21.2055C42.3866 22.152 41.6278 22.9032 40.6813 23.4591C39.7498 24 38.7131 24.2704 37.5713 24.2704ZM37.5713 22.2421C38.3225 22.2421 38.9986 22.0543 39.5996 21.6787C40.2156 21.3031 40.6963 20.7848 41.0419 20.1237C41.4025 19.4626 41.5828 18.7264 41.5828 17.9151C41.5828 17.0888 41.4025 16.3601 41.0419 15.7291C40.6963 15.083 40.2156 14.5722 39.5996 14.1966C38.9986 13.806 38.3225 13.6106 37.5713 13.6106C36.805 13.6106 36.1139 13.806 35.4979 14.1966C34.8969 14.5722 34.4161 15.083 34.0556 15.7291C33.695 16.3601 33.5147 17.0888 33.5147 17.9151C33.5147 18.7264 33.695 19.4626 34.0556 20.1237C34.4161 20.7848 34.8969 21.3031 35.4979 21.6787C36.1139 22.0543 36.805 22.2421 37.5713 22.2421ZM46.5475 24V11.8528H48.5983V14.2191L48.2603 14.0163C48.5608 13.25 49.0416 12.6566 49.7026 12.2359C50.3787 11.8002 51.1675 11.5823 52.069 11.5823C52.9404 11.5823 53.7141 11.7777 54.3902 12.1683C55.0814 12.5589 55.6222 13.0998 56.0129 13.7909C56.4185 14.482 56.6214 15.2633 56.6214 16.1347V24H54.5029V16.8108C54.5029 16.1347 54.3827 15.5638 54.1423 15.098C53.902 14.6323 53.5564 14.2717 53.1057 14.0163C52.67 13.7459 52.1666 13.6106 51.5957 13.6106C51.0248 13.6106 50.514 13.7459 50.0632 14.0163C49.6275 14.2717 49.282 14.6398 49.0265 15.1206C48.7711 15.5863 48.6434 16.1498 48.6434 16.8108V24H46.5475ZM65.142 24.2704C64.0001 24.2704 62.9709 23.9925 62.0544 23.4366C61.153 22.8807 60.4393 22.122 59.9135 21.1604C59.3876 20.1988 59.1247 19.1246 59.1247 17.9377C59.1247 16.7207 59.3876 15.6389 59.9135 14.6924C60.4393 13.7308 61.153 12.9721 62.0544 12.4162C62.9709 11.8603 64.0001 11.5823 65.142 11.5823C66.1486 11.5823 67.0425 11.8002 67.8238 12.2359C68.6051 12.6566 69.2211 13.2275 69.6718 13.9487L69.3338 14.467V6.9398H71.4522V24H69.4014V21.4083L69.6718 21.7689C69.2511 22.5652 68.6351 23.1812 67.8238 23.6169C67.0275 24.0526 66.1336 24.2704 65.142 24.2704ZM65.3222 22.2421C66.0885 22.2421 66.7721 22.0543 67.3731 21.6787C67.9741 21.3031 68.4473 20.7923 68.7929 20.1462C69.1535 19.4852 69.3338 18.749 69.3338 17.9377C69.3338 17.1113 69.1535 16.3751 68.7929 15.7291C68.4473 15.068 67.9741 14.5497 67.3731 14.174C66.7721 13.7984 66.0885 13.6106 65.3222 13.6106C64.571 13.6106 63.8874 13.806 63.2714 14.1966C62.6704 14.5722 62.1972 15.083 61.8516 15.7291C61.5061 16.3601 61.3333 17.0963 61.3333 17.9377C61.3333 18.749 61.5061 19.4852 61.8516 20.1462C62.1972 20.7923 62.6704 21.3031 63.2714 21.6787C63.8724 22.0543 64.556 22.2421 65.3222 22.2421ZM80.2853 24.2704C79.1134 24.2704 78.0692 23.9925 77.1527 23.4366C76.2362 22.8807 75.5151 22.122 74.9892 21.1604C74.4634 20.1838 74.2004 19.0945 74.2004 17.8926C74.2004 16.6756 74.4558 15.5939 74.9667 14.6473C75.4925 13.7008 76.1987 12.9571 77.0851 12.4162C77.9866 11.8603 78.9932 11.5823 80.105 11.5823C81.0065 11.5823 81.8028 11.7476 82.4939 12.0781C83.2 12.3937 83.7935 12.8294 84.2743 13.3853C84.7701 13.9261 85.1457 14.5497 85.4011 15.2558C85.6716 15.9469 85.8068 16.6681 85.8068 17.4193C85.8068 17.5846 85.7917 17.7724 85.7617 17.9827C85.7467 18.178 85.7241 18.3659 85.6941 18.5461H75.7329V16.7432H84.4771L83.4855 17.5545C83.6207 16.7733 83.5456 16.0746 83.2601 15.4586C82.9747 14.8426 82.554 14.3543 81.9981 13.9938C81.4422 13.6332 80.8112 13.4529 80.105 13.4529C79.3989 13.4529 78.7528 13.6332 78.1669 13.9938C77.5809 14.3543 77.1227 14.8727 76.7921 15.5488C76.4766 16.2099 76.3489 16.9986 76.409 17.9151C76.3489 18.8016 76.4841 19.5828 76.8147 20.2589C77.1602 20.92 77.641 21.4383 78.257 21.814C78.888 22.1745 79.5716 22.3548 80.3078 22.3548C81.1192 22.3548 81.8028 22.167 82.3587 21.7914C82.9146 21.4158 83.3653 20.935 83.7109 20.3491L85.4687 21.2505C85.2283 21.8064 84.8527 22.3173 84.3419 22.783C83.8461 23.2338 83.2526 23.5943 82.5615 23.8648C81.8854 24.1352 81.1267 24.2704 80.2853 24.2704ZM88.4043 24V7.21024H91.0861L100.101 19.087L98.6584 19.4251V7.21024H102.152V24H99.4472L90.5903 12.0331L91.8975 11.695V24H88.4043ZM110.81 24.2704C109.503 24.2704 108.368 23.985 107.407 23.414C106.445 22.8281 105.702 22.0468 105.176 21.0702C104.65 20.0937 104.387 19.0119 104.387 17.825C104.387 16.593 104.657 15.4962 105.198 14.5346C105.754 13.5731 106.498 12.8143 107.429 12.2584C108.361 11.7025 109.413 11.4246 110.585 11.4246C111.561 11.4246 112.425 11.5823 113.176 11.8979C113.927 12.1983 114.558 12.6265 115.069 13.1824C115.595 13.7383 115.993 14.3844 116.264 15.1206C116.534 15.8418 116.669 16.6305 116.669 17.4869C116.669 17.7273 116.654 17.9677 116.624 18.2081C116.609 18.4335 116.572 18.6288 116.512 18.794H107.294V16.315H114.596L112.996 17.4869C113.146 16.8409 113.139 16.27 112.973 15.7741C112.808 15.2633 112.515 14.8652 112.094 14.5797C111.689 14.2792 111.185 14.129 110.585 14.129C109.999 14.129 109.495 14.2717 109.075 14.5572C108.654 14.8426 108.338 15.2633 108.128 15.8192C107.918 16.3751 107.835 17.0512 107.88 17.8475C107.82 18.5386 107.903 19.1471 108.128 19.673C108.353 20.1988 108.699 20.612 109.165 20.9125C109.63 21.198 110.194 21.3407 110.855 21.3407C111.456 21.3407 111.967 21.2205 112.387 20.9801C112.823 20.7397 113.161 20.4092 113.402 19.9885L116.106 21.2731C115.866 21.874 115.482 22.3999 114.957 22.8506C114.446 23.3014 113.837 23.6544 113.131 23.9099C112.425 24.1502 111.651 24.2704 110.81 24.2704ZM124.587 24.1352C123.1 24.1352 121.943 23.7371 121.116 22.9408C120.305 22.1295 119.9 21.0026 119.9 19.5603V14.6248H117.826V11.695H117.939C118.57 11.695 119.051 11.5373 119.381 11.2218C119.727 10.9062 119.9 10.433 119.9 9.80195V8.90049H123.28V11.695H126.165V14.6248H123.28V19.3349C123.28 19.7556 123.355 20.1087 123.505 20.3941C123.656 20.6646 123.888 20.8674 124.204 21.0026C124.52 21.1379 124.91 21.2055 125.376 21.2055C125.481 21.2055 125.601 21.198 125.736 21.1829C125.872 21.1679 126.014 21.1529 126.165 21.1379V24C125.939 24.03 125.684 24.0601 125.398 24.0901C125.113 24.1202 124.843 24.1352 124.587 24.1352Z" fill="white"/>
<circle cx="130.055" cy="22.0625" r="1.99543" fill="#22C55E"/>
</g>
<defs>
<clipPath id="clip0_316_799">
<rect width="148.96" height="28.5" fill="white"/>
</clipPath>
</defs>
</svg>
