<?xml version="1.0" encoding="UTF-8"?>
<svg fill="none" viewBox="0 0 322 209" xmlns="http://www.w3.org/2000/svg">
<path d="m220.49 208.06c50.823 0 92.023-2.782 92.023-6.214 0-3.431-41.2-6.213-92.023-6.213s-92.024 2.782-92.024 6.213c0 3.432 41.201 6.214 92.024 6.214z" fill="#EBEBEB"/>
<path d="m0.30273 160.7 40.192-0.122 40.192-0.045 80.384-0.081 80.384 0.081 40.193 0.045 40.192 0.122-40.192 0.126-40.193 0.045-80.384 0.081-80.384-0.081-40.192-0.045-40.192-0.126z" fill="#263238"/>
<path d="m258.08 32.397h-194.02v129.79h194.02v-129.79z" fill="#DBDBDB"/>
<path d="m256.67 33.983h-191.2v126.62h191.2v-126.62z" fill="#263238"/>
<path d="m283.35 171.91h-244.56v8.906h244.56v-8.906z" fill="#C7C7C7"/>
<path d="m38.793 171.91 25.269-9.729h194.02l25.27 9.729h-244.56z" fill="#DBDBDB"/>
<path d="m66.32 168.46 16.307-6.279h156.89l16.307 6.279h-189.5z" fill="#263238"/>
<path d="m246.01 43.556h-169.88v107.47h169.88v-107.47z" fill="#fff"/>
<path d="m246.01 43.556h-169.88v4.1374h169.88v-4.1374z" fill="#455A64"/>
<path d="m79.419 45.623c0 0.1998-0.0593 0.3951-0.1703 0.5613-0.111 0.1661-0.2688 0.2956-0.4535 0.3721-0.1846 0.0765-0.3877 0.0965-0.5837 0.0575s-0.376-0.1352-0.5173-0.2765-0.2376-0.3213-0.2765-0.5173c-0.039-0.196-0.019-0.3992 0.0574-0.5838 0.0765-0.1846 0.206-0.3424 0.3722-0.4534 0.1661-0.111 0.3615-0.1703 0.5613-0.1703 0.268 0 0.5249 0.1065 0.7144 0.2959 0.1895 0.1895 0.296 0.4465 0.296 0.7145z" fill="#0572E6"/>
<path d="m83.607 45.623c0 0.1998-0.0592 0.3951-0.1702 0.5613-0.111 0.1661-0.2688 0.2956-0.4535 0.3721-0.1846 0.0765-0.3877 0.0965-0.5837 0.0575s-0.376-0.1352-0.5173-0.2765-0.2376-0.3213-0.2766-0.5173c-0.0389-0.196-0.0189-0.3992 0.0575-0.5838 0.0765-0.1846 0.206-0.3424 0.3722-0.4534 0.1661-0.111 0.3615-0.1703 0.5613-0.1703 0.268 0 0.5249 0.1065 0.7144 0.2959 0.1895 0.1895 0.2959 0.4465 0.2959 0.7145z" fill="#EBEBEB"/>
<path d="m87.82 45.623c0 0.1998-0.0592 0.3951-0.1703 0.5613-0.111 0.1661-0.2688 0.2956-0.4534 0.3721s-0.3878 0.0965-0.5837 0.0575c-0.196-0.039-0.3761-0.1352-0.5174-0.2765s-0.2375-0.3213-0.2765-0.5173-0.019-0.3992 0.0575-0.5838 0.206-0.3424 0.3721-0.4534c0.1662-0.111 0.3615-0.1703 0.5614-0.1703 0.2679 0 0.5249 0.1065 0.7144 0.2959 0.1895 0.1895 0.2959 0.4465 0.2959 0.7145z" fill="#fff"/>
<path d="m157.37 117.79h30.952v-23.749h-30.952v23.749z" fill="#EBEBEB"/>
<path d="m160.44 99.242c-0.118 0.5921-0.043 1.2065 0.215 1.7525s0.684 0.995 1.217 1.28c0.532 0.285 1.142 0.391 1.74 0.303 0.597-0.089 1.15-0.367 1.577-0.794s0.706-0.98 0.794-1.578c0.088-0.5971-0.018-1.2071-0.303-1.7396-0.284-0.5324-0.733-0.9591-1.279-1.2169s-1.161-0.3331-1.753-0.2147c-0.545 0.1089-1.045 0.3767-1.438 0.7696s-0.661 0.8932-0.77 1.4381z" fill="#fff"/>
<path d="m167.58 112.68h20.737l-10.371-12.781-10.366 12.781z" fill="#C7C7C7"/>
<path d="m157.36 112.69h18.393l-9.194-8.325-9.199 8.325z" fill="#DBDBDB"/>
<path d="m188.32 112.68h-30.952v5.118h30.952v-5.118z" fill="#DBDBDB"/>
<path d="m107.77 94.049h-23.248v1.955h23.248v-1.955z" fill="#DBDBDB"/>
<path d="m151.8 98.586h-67.28v1.9553h67.28v-1.9553z" fill="#DBDBDB"/>
<path d="m151.8 102.89h-67.28v1.955h67.28v-1.955z" fill="#DBDBDB"/>
<path d="m151.8 107.19h-67.28v1.955h67.28v-1.955z" fill="#DBDBDB"/>
<path d="m151.8 111.5h-67.28v1.955h67.28v-1.955z" fill="#DBDBDB"/>
<path d="m151.8 115.8h-67.28v1.955h67.28v-1.955z" fill="#DBDBDB"/>
<path d="m163.8 55.65h-23.249v5.2337h23.249v-5.2337z" fill="#DBDBDB"/>
<path d="m188.32 64.491h-47.765v1.9551h47.765v-1.9551z" fill="#DBDBDB"/>
<path d="m188.32 68.795h-47.765v1.955h47.765v-1.955z" fill="#DBDBDB"/>
<path d="m188.32 73.099h-47.765v1.955h47.765v-1.955z" fill="#DBDBDB"/>
<path d="m188.32 77.404h-47.765v1.955h47.765v-1.955z" fill="#DBDBDB"/>
<path d="m188.32 83.127h-47.765v1.955h47.765v-1.955z" fill="#DBDBDB"/>
<path d="m188.32 87.431h-47.765v1.955h47.765v-1.955z" fill="#DBDBDB"/>
<path d="m237.62 55.65h-42.516v5.3246h42.516v-5.3246z" fill="#0572E6"/>
<path d="m237.5 61.02h-42.288v83.522h42.288v-83.522z" fill="#fff"/>
<path d="m237.62 144.68h-42.521v-83.794h42.521v83.794zm-42.289-0.273h42.051v-83.248h-42.051v83.248z" fill="#DBDBDB"/>
<path d="m195.33 144.59-0.223-0.101 42.289-83.521 0.217 0.101-42.283 83.521z" fill="#DBDBDB"/>
<path d="m237.39 144.59-42.289-83.521 0.223-0.101 42.283 83.521-0.217 0.101z" fill="#DBDBDB"/>
<path d="m135.28 55.742h-50.669v33.549h50.669v-33.549z" fill="#fff"/>
<path d="m84.532 89.386v-33.721h50.836v33.721h-50.836zm0.1617-33.554v33.382h50.518v-33.377l-50.518-0.0051z" fill="#DBDBDB"/>
<path d="m84.693 55.832c4.2586 2.7027 8.4971 5.4458 12.725 8.194l12.655 8.295 12.604 8.386 6.279 4.2233 6.249 4.2688-6.38-4.0717-6.345-4.1173-12.66-8.295-12.599-8.391c-4.1879-2.8088-8.391-5.6075-12.528-8.4921z" fill="#DBDBDB"/>
<path d="m135.2 55.832c-4.157 2.8643-8.34 5.6833-12.528 8.4921l-12.599 8.391-12.655 8.295-6.3501 4.1173-6.3753 4.0717 6.249-4.2688 6.2744-4.2233 12.599-8.386 12.66-8.295c4.243-2.7482 8.462-5.4913 12.725-8.194z" fill="#DBDBDB"/>
<path d="m84.693 121.02v23.592h103.38v-23.592h-103.38z" fill="#fff"/>
<path d="m188.25 120.96v23.744h-103.73v-23.744h103.73zm-0.343 23.592v-23.461h-103.06v23.461h103.06z" fill="#DBDBDB"/>
<path d="m188.14 144.55-0.126 0.121-103.39-23.592 0.1263-0.121 103.39 23.592z" fill="#DBDBDB"/>
<path d="m188.14 121.08-103.39 23.592-0.1263-0.121 103.39-23.592 0.126 0.121z" fill="#DBDBDB"/>
<path d="m43.081 35.174-10.793 11.445 1.1136 1.0502 10.793-11.445-1.1136-1.0501z" fill="#263238"/>
<path d="m43.9 46.86h-11.053v1.5306h11.053v-1.5306z" fill="#455A64"/>
<path d="m43.9 34.933h-11.053v1.5307h11.053v-1.5307z" fill="#455A64"/>
<path d="m33.403 35.17-1.1138 1.05 10.791 11.447 1.1138-1.05-10.791-11.447z" fill="#455A64"/>
<path d="m43.08 47.1-10.793 11.445 1.1136 1.0501 10.793-11.445-1.1137-1.0502z" fill="#263238"/>
<path d="m43.9 58.788h-11.053v1.5307h11.053v-1.5307z" fill="#455A64"/>
<path d="m43.9 46.86h-11.053v1.5306h11.053v-1.5306z" fill="#455A64"/>
<path d="m33.4 47.097-1.1138 1.05 10.791 11.447 1.1139-1.05-10.791-11.447z" fill="#455A64"/>
<path d="m43.078 59.027-10.793 11.445 1.1136 1.0501 10.793-11.445-1.1136-1.0502z" fill="#263238"/>
<path d="m43.9 70.715h-11.053v1.5307h11.053v-1.5307z" fill="#455A64"/>
<path d="m43.9 58.788h-11.053v1.5307h11.053v-1.5307z" fill="#455A64"/>
<path d="m33.403 59.024-1.1138 1.05 10.791 11.447 1.1138-1.05-10.791-11.447z" fill="#455A64"/>
<path d="m43.082 70.953-10.793 11.445 1.1136 1.0502 10.793-11.445-1.1136-1.0502z" fill="#263238"/>
<path d="M43.9 82.6423H32.8467V84.173H43.9V82.6423Z" fill="#455A64"/>
<path d="m43.9 70.715h-11.053v1.5307h11.053v-1.5307z" fill="#455A64"/>
<path d="m33.405 70.951-1.1138 1.05 10.791 11.447 1.1138-1.05-10.791-11.447z" fill="#455A64"/>
<path d="m43.08 82.884-10.793 11.445 1.1136 1.0502 10.793-11.445-1.1136-1.0502z" fill="#263238"/>
<path d="m43.9 94.57h-11.053v1.5307h11.053v-1.5307z" fill="#455A64"/>
<path d="M43.9 82.6423H32.8467V84.173H43.9V82.6423Z" fill="#455A64"/>
<path d="m33.405 82.875-1.1138 1.05 10.791 11.447 1.1138-1.0499-10.791-11.447z" fill="#455A64"/>
<path d="m43.084 94.811-10.793 11.445 1.1136 1.05 10.793-11.445-1.1137-1.0502z" fill="#263238"/>
<path d="m43.9 106.49h-11.053v1.531h11.053v-1.531z" fill="#455A64"/>
<path d="m43.9 94.57h-11.053v1.5307h11.053v-1.5307z" fill="#455A64"/>
<path d="m33.402 94.802-1.1138 1.05 10.791 11.447 1.1138-1.05-10.791-11.447z" fill="#455A64"/>
<path d="m43.078 106.73-10.793 11.445 1.1137 1.05 10.793-11.445-1.1136-1.05z" fill="#263238"/>
<path d="m43.9 118.42h-11.053v1.531h11.053v-1.531z" fill="#455A64"/>
<path d="m43.9 106.49h-11.053v1.531h11.053v-1.531z" fill="#455A64"/>
<path d="m33.405 106.72-1.1138 1.05 10.791 11.447 1.1138-1.05-10.791-11.447z" fill="#455A64"/>
<path d="m43.082 118.66-10.793 11.445 1.1136 1.05 10.793-11.445-1.1136-1.05z" fill="#263238"/>
<path d="m43.9 130.35h-11.053v1.531h11.053v-1.531z" fill="#455A64"/>
<path d="m43.9 118.42h-11.053v1.531h11.053v-1.531z" fill="#455A64"/>
<path d="m33.407 118.65-1.1138 1.05 10.791 11.447 1.1138-1.05-10.791-11.447z" fill="#455A64"/>
<path d="m43.086 130.58-10.793 11.445 1.1136 1.05 10.793-11.445-1.1136-1.05z" fill="#263238"/>
<path d="m43.9 142.27h-11.053v1.53h11.053v-1.53z" fill="#455A64"/>
<path d="m43.9 130.35h-11.053v1.531h11.053v-1.531z" fill="#455A64"/>
<path d="m33.405 130.58-1.1138 1.05 10.791 11.447 1.1138-1.05-10.791-11.447z" fill="#455A64"/>
<path d="m43.081 142.51-10.789 11.449 1.114 1.05 10.789-11.449-1.114-1.05z" fill="#263238"/>
<path d="m43.9 154.2h-11.053v1.531h11.053v-1.531z" fill="#455A64"/>
<path d="m43.9 142.27h-11.053v1.53h11.053v-1.53z" fill="#455A64"/>
<path d="m33.407 142.51-1.1138 1.05 10.791 11.447 1.1138-1.05-10.791-11.447z" fill="#455A64"/>
<path d="m43.077 154.44-10.789 11.449 1.114 1.05 10.789-11.449-1.114-1.05z" fill="#263238"/>
<path d="m43.9 166.13h-11.053v1.531h11.053v-1.531z" fill="#455A64"/>
<path d="m43.9 154.2h-11.053v1.531h11.053v-1.531z" fill="#455A64"/>
<path d="m33.407 154.43-1.1138 1.049 10.791 11.447 1.1138-1.05-10.791-11.446z" fill="#455A64"/>
<path d="m46.113 172.91v-6.946h-15.944v6.946h15.944z" fill="#455A64"/>
<path d="m34.16 166.4v-130.84h-3.996v130.84h3.996z" fill="#455A64"/>
<path d="m46.113 166.4v-130.84h-3.996v130.84h3.996z" fill="#455A64"/>
<path d="m151.14 34.625-11.943-11.771-100.8-18.783-30.634 18.874-0.80324-1.3084 31.139-19.182 101.84 18.98 12.281 12.094-1.076 1.0962z" fill="#455A64"/>
<path d="m50.544 24.506-12.276-17.065-11.75 17.04-2.5259-1.7429 14.221-20.621 14.822 20.596-2.4905 1.7934z" fill="#263238"/>
<path d="m127.95 24.223-1.05 1.1138 11.447 10.791 1.05-1.1138-11.447-10.791z" fill="#263238"/>
<path d="m140.11 24.506h-1.531v11.053h1.531v-11.053z" fill="#455A64"/>
<path d="m128.18 24.506h-1.531v11.053h1.531v-11.053z" fill="#455A64"/>
<path d="m138.35 24.221-11.447 10.791 1.05 1.1138 11.447-10.791-1.05-1.1138z" fill="#455A64"/>
<path d="m116.02 24.223-1.05 1.1138 11.447 10.791 1.05-1.1138-11.447-10.791z" fill="#263238"/>
<path d="m128.18 24.506h-1.531v11.053h1.531v-11.053z" fill="#455A64"/>
<path d="m116.26 24.506h-1.53v11.053h1.53v-11.053z" fill="#455A64"/>
<path d="m126.41 24.198-11.445 10.793 1.05 1.1136 11.445-10.793-1.05-1.1136z" fill="#455A64"/>
<path d="m104.09 24.223-1.05 1.1138 11.447 10.791 1.05-1.1138-11.447-10.791z" fill="#263238"/>
<path d="m116.26 24.506h-1.53v11.053h1.53v-11.053z" fill="#455A64"/>
<path d="m104.33 24.506h-1.531v11.053h1.531v-11.053z" fill="#455A64"/>
<path d="m114.48 24.197-11.445 10.793 1.05 1.1136 11.445-10.793-1.05-1.1136z" fill="#455A64"/>
<path d="m92.167 24.223-1.05 1.1138 11.447 10.791 1.05-1.1138-11.447-10.791z" fill="#263238"/>
<path d="m104.33 24.506h-1.531v11.053h1.531v-11.053z" fill="#455A64"/>
<path d="m92.402 24.506h-1.5307v11.053h1.5307v-11.053z" fill="#455A64"/>
<path d="m102.56 24.201-11.445 10.793 1.0501 1.1136 11.446-10.793-1.051-1.1137z" fill="#455A64"/>
<path d="m80.24 24.219-1.05 1.1139 11.447 10.791 1.0499-1.1138-11.447-10.791z" fill="#263238"/>
<path d="m92.402 24.506h-1.5307v11.053h1.5307v-11.053z" fill="#455A64"/>
<path d="m80.48 24.506h-1.5307v11.053h1.5307v-11.053z" fill="#455A64"/>
<path d="m90.63 24.205-11.445 10.793 1.0501 1.1136 11.445-10.793-1.0502-1.1136z" fill="#455A64"/>
<path d="m68.316 24.219-1.05 1.1139 11.447 10.791 1.05-1.1138-11.447-10.791z" fill="#263238"/>
<path d="m80.48 24.506h-1.5307v11.053h1.5307v-11.053z" fill="#455A64"/>
<path d="m68.553 24.506h-1.5307v11.053h1.5307v-11.053z" fill="#455A64"/>
<path d="m78.704 24.204-11.445 10.793 1.0502 1.1137 11.445-10.793-1.0502-1.1136z" fill="#455A64"/>
<path d="m56.386 24.219-1.05 1.1139 11.447 10.791 1.0499-1.1138-11.447-10.791z" fill="#263238"/>
<path d="m68.553 24.506h-1.5307v11.053h1.5307v-11.053z" fill="#455A64"/>
<path d="m56.625 24.506h-1.5307v11.053h1.5307v-11.053z" fill="#455A64"/>
<path d="m66.782 24.205-11.445 10.793 1.0502 1.1136 11.445-10.793-1.0501-1.1137z" fill="#455A64"/>
<path d="m44.461 24.219-1.05 1.1139 11.447 10.791 1.0499-1.1138-11.447-10.791z" fill="#263238"/>
<path d="m56.625 24.506h-1.5307v11.053h1.5307v-11.053z" fill="#455A64"/>
<path d="m44.699 24.506h-1.5307v11.053h1.5307v-11.053z" fill="#455A64"/>
<path d="m54.856 24.204-11.445 10.793 1.0502 1.1136 11.445-10.793-1.0502-1.1136z" fill="#455A64"/>
<path d="m32.531 24.219-1.0499 1.1138 11.447 10.791 1.05-1.1138-11.447-10.791z" fill="#263238"/>
<path d="m44.699 24.506h-1.5307v11.053h1.5307v-11.053z" fill="#455A64"/>
<path d="m32.771 24.506h-1.5307v11.053h1.5307v-11.053z" fill="#455A64"/>
<path d="m42.925 24.203-11.445 10.793 1.0501 1.1136 11.445-10.793-1.0502-1.1136z" fill="#455A64"/>
<path d="m20.606 24.219-1.0499 1.1138 11.447 10.791 1.05-1.1138-11.447-10.791z" fill="#263238"/>
<path d="m32.771 24.506h-1.5307v11.053h1.5307v-11.053z" fill="#455A64"/>
<path d="m20.844 24.506h-1.5307v11.053h1.5307v-11.053z" fill="#455A64"/>
<path d="m30.999 24.202-11.445 10.793 1.0502 1.1136 11.445-10.793-1.0502-1.1136z" fill="#455A64"/>
<path d="m8.9571 24.302-1.0562 1.1174 11.484 10.855 1.0562-1.1174-11.484-10.855z" fill="#263238"/>
<path d="m20.844 24.506h-1.5307v11.053h1.5307v-11.053z" fill="#455A64"/>
<path d="m8.9164 24.506h-1.5307v11.053h1.5307v-11.053z" fill="#455A64"/>
<path d="m19.074 24.206-11.445 10.793 1.0502 1.1136 11.445-10.793-1.0501-1.1136z" fill="#455A64"/>
<path d="M6.93612 21.6116H0V37.555H6.93612V21.6116Z" fill="#263238"/>
<path d="m13.882 21.612h-6.9463v15.943h6.9463v-15.943z" fill="#455A64"/>
<path d="m23.051 37.555h-13.317v7.9516h13.317v-7.9516z" fill="#455A64"/>
<path d="m152.21 33.559h-145.27v3.996h145.27v-3.996z" fill="#455A64"/>
<path d="m143.92 25.608h-136.98v-3.9959h133.08l3.905 3.9959z" fill="#455A64"/>
<path d="m142.72 24.506h-1.531v11.053h1.531v-11.053z" fill="#455A64"/>
<path d="m86.77 81.011 9.5985-1.5358 9.598-1.4852 19.217-2.8947 0.051-0.0051 0.05 0.0101 31.978 8.2951 15.984 4.1879 15.964 4.2435-16.029-3.9959-16.015-4.0566-32.008-8.189 0.101 0.0051-19.237 2.7734-9.6187 1.3488-9.6338 1.2984z" fill="#263238"/>
<path d="m119.35 39.187h-1.531v22.632h1.531v-22.632z" fill="#263238"/>
<path d="m132.32 39.692h-1.531v22.632h1.531v-22.632z" fill="#263238"/>
<path d="m135.28 37.555h-20.212v3.2584h20.212v-3.2584z" fill="#455A64"/>
<path d="m125.94 65.623-0.172 3.3999-0.505-0.586c0.546 0.1408 1.068 0.3657 1.545 0.6668 0.493 0.2962 0.908 0.7047 1.213 1.1922 0.293 0.4916 0.441 1.0561 0.427 1.6283-0.015 0.5721-0.191 1.1286-0.508 1.6049-0.297 0.4496-0.704 0.8158-1.182 1.0634-0.479 0.2476-1.013 0.3685-1.551 0.3511-0.509-0.0416-1.002-0.1999-1.44-0.4627-0.438-0.2629-0.81-0.6231-1.086-1.0529 0.3 0.382 0.684 0.69 1.122 0.9002s0.918 0.317 1.404 0.3123c0.462-0.0287 0.909-0.1745 1.298-0.4237 0.39-0.2493 0.71-0.5938 0.93-1.0009 0.205-0.3786 0.299-0.8071 0.272-1.2367s-0.173-0.843-0.424-1.1933c-0.573-0.6525-1.366-1.0715-2.228-1.177l-0.464-0.0809-0.026-0.5051-0.166-3.3999h1.541z" fill="#263238"/>
<path d="m135.28 58.651v5.5468l-10.109 2.3997-10.103-2.3997v-5.5468h20.212z" fill="#455A64"/>
<path d="m119.71 61.905c1e-3 0.233-0.067 0.4611-0.196 0.6553-0.128 0.1942-0.312 0.3459-0.527 0.4358-0.215 0.0898-0.452 0.1139-0.68 0.069-0.229-0.0448-0.439-0.1565-0.604-0.321-0.166-0.1644-0.278-0.3741-0.324-0.6026-0.046-0.2284-0.023-0.4653 0.066-0.6807s0.24-0.3995 0.434-0.5291c0.193-0.1296 0.421-0.1987 0.654-0.1987 0.154-7e-4 0.307 0.0291 0.45 0.0877s0.273 0.1449 0.382 0.2538 0.196 0.2383 0.255 0.3808c0.06 0.1425 0.09 0.2954 0.09 0.4497z" fill="#263238"/>
<path d="m132.99 61.905c0 0.2318-0.069 0.4584-0.198 0.6511-0.129 0.1928-0.312 0.343-0.526 0.4317s-0.45 0.1119-0.677 0.0667-0.436-0.1569-0.6-0.3208-0.276-0.3727-0.321-0.6001c-0.045-0.2273-0.022-0.463 0.067-0.6771 0.088-0.2142 0.239-0.3972 0.431-0.526 0.193-0.1288 0.42-0.1975 0.652-0.1975 0.31 0 0.609 0.1234 0.828 0.3432 0.22 0.2198 0.344 0.5179 0.344 0.8288z" fill="#263238"/>
<path d="m83.627 104.12 103.08 11.089 2.515-23.381-103.08-11.089-2.5153 23.381z" fill="#0572E6"/>
<path d="m139.98 105.09 47.265 5.088-22.269-15.257-24.996 10.169z" fill="#0572E6"/>
<path d="m139.98 105.09 47.265 5.088-22.269-15.257-24.996 10.169z" fill="#000" opacity=".2"/>
<path d="m116.7 102.6 41.914 4.511-20.065-10.533-21.849 6.0218z" fill="#0572E6"/>
<path d="m116.7 102.6 41.914 4.511-20.065-10.533-21.849 6.0218z" fill="#000" opacity=".1"/>
<path d="m187.23 110.18-103.08-11.089-0.542 5.0377 103.08 11.089 0.542-5.038z" fill="#0572E6"/>
<path d="m187.23 110.18-103.08-11.089-0.542 5.0377 103.08 11.089 0.542-5.038z" fill="#000" opacity=".1"/>
<path d="m98.843 89.861c-0.0706 0.628-0.3256 1.221-0.7329 1.7041-0.4072 0.4831-0.9485 0.8348-1.5555 1.0105-0.6069 0.1758-1.2523 0.1678-1.8548-0.023-0.6024-0.1907-1.1348-0.5557-1.5299-1.0487-0.3952-0.4931-0.6354-1.0922-0.6904-1.7217s0.0778-1.2612 0.3816-1.8153c0.3037-0.5541 0.7648-1.0058 1.325-1.2981 0.5603-0.2922 1.1946-0.412 1.8228-0.344 0.4189 0.0446 0.8248 0.1717 1.1944 0.3739 0.3695 0.2022 0.6954 0.4755 0.9588 0.8042 0.2635 0.3287 0.4593 0.7063 0.5761 1.111 0.1169 0.4048 0.1525 0.8286 0.1048 1.2471z" fill="#fff" opacity=".6"/>
<path d="m40.839 3.2633c0 0.51156-0.1517 1.0116-0.4359 1.437s-0.6882 0.75687-1.1608 0.95264c-0.4727 0.19577-0.9927 0.24699-1.4945 0.14719-0.5017-0.0998-0.9626-0.34614-1.3243-0.70787-0.3617-0.36174-0.6081-0.82261-0.7079-1.3244-0.0998-0.50173-0.0486-1.0218 0.1472-1.4944 0.1958-0.47263 0.5273-0.87659 0.9527-1.1608 0.4253-0.28421 0.9254-0.4359 1.437-0.4359 0.6859 0 1.3438 0.27251 1.8289 0.75757 0.4851 0.48507 0.7576 1.143 0.7576 1.829z" fill="#A6A6A6"/>
<path d="m39.449 3.2633c1e-3 0.24022-0.0694 0.47533-0.2023 0.67548-0.1328 0.20016-0.3221 0.35634-0.5438 0.44873-0.2218 0.0924-0.466 0.11683-0.7017 0.07021-0.2356-0.04662-0.4521-0.1622-0.622-0.33206-0.1698-0.16987-0.2854-0.38636-0.332-0.62202-0.0467-0.23566-0.0222-0.47986 0.0702-0.7016 0.0924-0.22175 0.2485-0.41106 0.4487-0.5439s0.4353-0.20322 0.6755-0.20222c0.3202 0 0.6273 0.12721 0.8537 0.35363 0.2265 0.22643 0.3537 0.53353 0.3537 0.85375z" fill="#455A64"/>
<path d="m49.301 172.91h-22.319v5.274h22.319v-5.274z" fill="#263238"/>
<path d="m54.14 178.19h-31.998v10.346h31.998v-10.346z" fill="#455A64"/>
<path d="m51.119 46.78h-23.885v-26.456h15.625c1.3204-4e-4 2.596 0.4788 3.5894 1.3487 0.9935 0.8698 1.637 2.0709 1.811 3.3798l2.8593 21.728z" fill="#0572E6"/>
<path d="m44.617 38.747h-11.195c-0.1218 0.0025-0.2432-0.0163-0.3586-0.0556-0.2597-0.0781-0.4873-0.2376-0.6492-0.455-0.1619-0.2175-0.2496-0.4813-0.25-0.7524v-14.13h7.9616c0.268-0.0031 0.5355 0.0223 0.7982 0.0757 0.598 0.1023 1.1678 0.3295 1.6721 0.6669 0.3501 0.2334 0.6634 0.5178 0.9296 0.8436 0.5463 0.6442 0.8969 1.4313 1.0103 2.2683l1.3438 10.104c0.0229 0.1794 0.0074 0.3616-0.0455 0.5345-0.053 0.1729-0.1422 0.3326-0.2617 0.4683s-0.2665 0.2445-0.4313 0.3189c-0.1648 0.0745-0.3436 0.113-0.5245 0.113z" fill="#263238"/>
<g fill="#fff" opacity=".4">
<path d="m43.415 31.377c6e-4 0.1645-0.0317 0.3275-0.095 0.4793-0.0633 0.1519-0.1564 0.2895-0.2738 0.4048l-6.4814 6.4865h-3.1423c-0.1218 0.0025-0.2432-0.0163-0.3586-0.0556l8.2091-8.2041c0.1762-0.1741 0.3998-0.2923 0.6429-0.3397 0.2431-0.0475 0.4947-0.0222 0.7235 0.0727 0.2287 0.095 0.4243 0.2553 0.5623 0.461 0.138 0.2056 0.2122 0.4474 0.2133 0.6951z"/>
<path d="m43.526 24.946-11.362 11.356v-1.7681l10.432-10.432c0.3501 0.2334 0.6634 0.5178 0.9296 0.8436z"/>
<path d="m40.924 23.435-6.4512 6.4512c-0.1321 0.1316-0.3002 0.2212-0.4831 0.2575-0.183 0.0363-0.3726 0.0175-0.5449-0.0538s-0.3197-0.192-0.4235-0.3469c-0.1039-0.155-0.1595-0.3372-0.16-0.5237 8e-4 -0.1223 0.0258-0.2433 0.0735-0.356 0.0476-0.1127 0.1171-0.2149 0.2044-0.3007l5.2033-5.2084h1.7833c0.2682-0.0014 0.5357 0.0257 0.7982 0.0808z"/>
</g>
<path d="m25.547 156.89-0.4799 3.435-0.5204 3.693-4.7487 33.65h-7.7595l4.7487-33.65 0.5203-3.693 0.4799-3.435h7.7596z" fill="#0572E6"/>
<path d="m24.425 156.89c-0.4092 3.41-0.8487 6.815-1.2933 10.214l-1.369 10.205-1.4347 10.184-0.7376 5.098-0.7729 5.082 0.6314-5.108 0.677-5.112 1.369-10.2 1.4347-10.189c0.4749-3.395 0.97-6.805 1.4954-10.174z" fill="#000" opacity=".1"/>
<path d="m25.067 160.32-0.5203 3.693h-7.7596l0.5203-3.693h7.7596z" fill="#000" opacity=".1"/>
<path d="m63.854 156.89 0.4799 3.435 0.5203 3.693 4.7437 33.65h7.7595l-4.7436-33.65-0.5203-3.693-0.4799-3.435h-7.7596z" fill="#0572E6"/>
<path d="m65.002 156.89c0.4092 3.41 0.8487 6.815 1.2932 10.214l1.3691 10.205 1.4347 10.184 0.7375 5.098 0.773 5.082-0.6315-5.108-0.6618-5.107-1.369-10.199-1.4347-10.19c-0.4901-3.4-0.9851-6.81-1.5105-10.179z" fill="#000" opacity=".1"/>
<path d="m64.335 160.32h7.7595l0.5204 3.693h-7.7596l-0.5203-3.693z" fill="#000" opacity=".1"/>
<path d="m25.264 149.83h-6.1531l0.7679-5.734h4.6224l0.7628 5.734z" fill="#0572E6"/>
<path d="m25.264 149.83h-6.1531l0.7679-5.734h4.6224l0.7628 5.734z" fill="#000" opacity=".1"/>
<path d="m27.921 140c0 1.134-0.3363 2.243-0.9663 3.186-0.6301 0.943-1.5256 1.678-2.5733 2.112s-2.2006 0.547-3.3128 0.326-2.1339-0.767-2.9358-1.569-1.348-1.824-1.5692-2.936-0.1077-2.265 0.3263-3.313c0.4339-1.048 1.1689-1.943 2.1118-2.573s2.0515-0.967 3.1855-0.967c0.753 0 1.4986 0.149 2.1942 0.437 0.6957 0.288 1.3278 0.71 1.8602 1.243 0.5324 0.532 0.9548 1.164 1.2429 1.86 0.2882 0.696 0.4365 1.441 0.4365 2.194z" fill="#0572E6"/>
<path d="m26.547 140c1e-3 0.863-0.2538 1.706-0.7322 2.424-0.4785 0.717-1.159 1.277-1.9556 1.608-0.7965 0.33-1.6733 0.418-2.5193 0.25s-1.6233-0.583-2.2335-1.192c-0.6103-0.61-1.026-1.386-1.1946-2.232-0.1687-0.846-0.0826-1.723 0.2472-2.52s0.8886-1.478 1.6057-1.957c0.7171-0.48 1.5602-0.735 2.4226-0.735 1.1554 0 2.2636 0.458 3.081 1.275 0.8175 0.816 1.2774 1.924 1.2787 3.079z" fill="#fff"/>
<path d="m25.83 139.74c-0.0394-0.52-0.1859-1.025-0.4302-1.485s-0.5812-0.864-0.9894-1.188c-0.4123-0.319-0.8848-0.551-1.3891-0.683-0.5044-0.132-1.0303-0.161-1.546-0.085-0.5127 0.079-1.0029 0.266-1.4383 0.548s-0.806 0.653-1.0876 1.089c-0.2966 0.461-0.4911 0.979-0.5704 1.522-0.0793 0.542-0.0416 1.094 0.1107 1.62 0.2591 0.917 0.8715 1.693 1.7025 2.158 0.8082 0.46 1.7582 0.606 2.6673 0.409 0.8812-0.186 1.6716-0.669 2.238-1.369 0.5581-0.691 0.8803-1.543 0.9194-2.43 0-0.041 0-0.076-0.0354-0.076-0.0353 0-0.0404 0.03-0.0404 0.076-0.0214 0.357-0.0893 0.711-0.2021 1.051-0.2397 0.671-0.6527 1.267-1.1972 1.727-0.2772 0.231-0.5807 0.428-0.9043 0.586-0.463 0.221-0.9674 0.342-1.4802 0.354s-1.0224-0.084-1.4953-0.283c-0.477-0.2-0.9047-0.502-1.2537-0.884-0.3489-0.382-0.6106-0.835-0.767-1.329-0.1564-0.503-0.203-1.034-0.1367-1.557 0.0662-0.523 0.2437-1.025 0.5206-1.474 0.2694-0.43 0.628-0.796 1.0517-1.075 0.4236-0.279 0.9022-0.464 1.4035-0.541 0.6752-0.109 1.3671-0.032 2.0023 0.221 0.6351 0.254 1.1897 0.675 1.6047 1.218 0.2076 0.278 0.3775 0.582 0.5051 0.905 0.1134 0.327 0.1897 0.666 0.2274 1.01 0.0053-4e-3 0.0092-0.01 0.011-0.016s0.0015-0.013-9e-4 -0.019z" fill="#0572E6"/>
<path d="m25.32 139.75c-0.0387-0.445-0.168-0.877-0.38-1.27-0.212-0.392-0.5022-0.737-0.8527-1.014-0.3552-0.273-0.7619-0.473-1.1958-0.587s-0.8862-0.139-1.3301-0.074c-0.4404 0.064-0.8621 0.222-1.2374 0.461s-0.6956 0.556-0.9399 0.928c-0.2613 0.397-0.4344 0.846-0.5076 1.315-0.0732 0.47-0.0448 0.95 0.0833 1.408 0.1096 0.396 0.2963 0.766 0.5495 1.089 0.2531 0.323 0.5677 0.594 0.9256 0.795 0.708 0.396 1.536 0.52 2.3289 0.349 0.7641-0.166 1.4476-0.591 1.9348-1.203 0.4823-0.6 0.7618-1.337 0.7982-2.106 0-0.036 0-0.066-0.0354-0.066-0.0353 0-0.0404 0.025-0.0404 0.066-0.0435 0.617-0.2509 1.212-0.6008 1.722-0.3498 0.511-0.8295 0.919-1.3896 1.182-0.3987 0.195-0.8342 0.302-1.2775 0.315-0.4434 0.013-0.8844-0.068-1.2939-0.239-0.4128-0.175-0.7826-0.438-1.0836-0.77s-0.526-0.726-0.6592-1.154c-0.1337-0.438-0.1718-0.899-0.1117-1.352 0.0602-0.453 0.2171-0.888 0.4602-1.275 0.2345-0.366 0.5448-0.677 0.91-0.913 0.3653-0.235 0.7768-0.389 1.2067-0.451 0.5752-0.088 1.1633-0.021 1.704 0.194 0.5406 0.215 1.0144 0.57 1.3726 1.028 0.1735 0.239 0.3161 0.499 0.4243 0.773 0.1004 0.28 0.1699 0.569 0.2072 0.864l0.0303-0.015z" fill="#0572E6"/>
<path d="m24.809 139.75c-0.0365-0.37-0.1481-0.728-0.3279-1.053s-0.4241-0.609-0.7178-0.837c-0.5905-0.454-1.3372-0.656-2.0763-0.56-0.3693 0.049-0.7241 0.175-1.041 0.371s-0.5888 0.457-0.7978 0.765c-0.2258 0.334-0.3773 0.713-0.4444 1.11s-0.0482 0.805 0.0554 1.194c0.0891 0.339 0.2461 0.657 0.4614 0.934s0.4846 0.507 0.7914 0.677c0.6025 0.341 1.3109 0.444 1.9854 0.288 0.6451-0.139 1.2228-0.496 1.6368-1.01 0.4034-0.51 0.6382-1.133 0.6719-1.783 0-0.031 0-0.056-0.0354-0.056s-0.0404 0-0.0404 0.056c-0.0419 0.518-0.2188 1.017-0.513 1.446s-0.6956 0.773-1.1642 0.999c-0.3357 0.167-0.7033 0.26-1.0779 0.273-0.3747 0.013-0.7479-0.054-1.0944-0.197-0.3504-0.149-0.6633-0.374-0.9159-0.659-0.2525-0.285-0.4384-0.622-0.5441-0.988-0.1097-0.369-0.1381-0.758-0.0832-1.139 0.055-0.381 0.192-0.746 0.4015-1.069 0.199-0.301 0.4602-0.556 0.7661-0.748s0.6493-0.315 1.0071-0.363c0.4747-0.056 0.9559 1e-3 1.4044 0.166 0.4503 0.17 0.8453 0.46 1.1417 0.839 0.1466 0.196 0.2672 0.41 0.3587 0.637 0.0882 0.231 0.1509 0.472 0.1869 0.717 0 0 0.0101 0 5e-3 -0.01z" fill="#0572E6"/>
<path d="m24.299 139.76c-0.0338-0.297-0.1272-0.585-0.2748-0.845-0.1476-0.261-0.3462-0.489-0.5841-0.671-0.4715-0.355-1.0596-0.519-1.6468-0.459-0.3016 0.033-0.5926 0.13-0.8539 0.284-0.2612 0.154-0.4868 0.362-0.6617 0.61-0.1905 0.27-0.3206 0.579-0.3816 0.904-0.0611 0.325-0.0515 0.659 0.028 0.98 0.0683 0.28 0.1932 0.544 0.3669 0.774 0.1738 0.23 0.3927 0.422 0.6435 0.565 0.4993 0.279 1.0861 0.359 1.6418 0.222 0.5327-0.124 1.0059-0.429 1.3387-0.864 0.3253-0.418 0.5156-0.925 0.5456-1.455 0-0.025 0-0.045-0.0354-0.045-0.0111 1e-3 -0.0214 7e-3 -0.0289 0.015-0.0074 8e-3 -0.0115 0.019-0.0115 0.03-0.0384 0.42-0.1841 0.822-0.4229 1.169-0.2389 0.347-0.563 0.626-0.9411 0.812-0.2707 0.142-0.5692 0.223-0.8745 0.238-0.3054 0.015-0.6104-0.037-0.8936-0.152-0.2781-0.121-0.5264-0.301-0.7272-0.528s-0.3492-0.495-0.4347-0.786c-0.0856-0.301-0.1046-0.616-0.0558-0.925 0.0489-0.309 0.1645-0.604 0.3387-0.863 0.1631-0.238 0.3758-0.437 0.6235-0.585 0.2477-0.147 0.5245-0.239 0.8112-0.269 0.3747-0.033 0.7521 0.015 1.1064 0.142 0.3567 0.13 0.6712 0.355 0.9093 0.651 0.1201 0.155 0.2202 0.325 0.298 0.505 0.0705 0.187 0.1246 0.38 0.1617 0.576 0 0 0.0202-0.025 0.0152-0.03z" fill="#0572E6"/>
<path d="m70.154 149.83h-6.1531l0.7678-5.734h4.6224l0.7629 5.734z" fill="#0572E6"/>
<path d="m70.154 149.83h-6.1531l0.7678-5.734h4.6224l0.7629 5.734z" fill="#000" opacity=".1"/>
<path d="m72.812 140c0 1.134-0.3363 2.243-0.9663 3.186s-1.5255 1.678-2.5732 2.112c-1.0478 0.434-2.2006 0.547-3.3129 0.326-1.1122-0.221-2.1339-0.767-2.9358-1.569s-1.3479-1.824-1.5692-2.936c-0.2212-1.112-0.1077-2.265 0.3263-3.313s1.1689-1.943 2.1118-2.573 2.0515-0.967 3.1855-0.967c0.753 0 1.4986 0.149 2.1943 0.437 0.6956 0.288 1.3277 0.71 1.8601 1.243 0.5325 0.532 0.9548 1.164 1.243 1.86 0.2881 0.696 0.4364 1.441 0.4364 2.194z" fill="#0572E6"/>
<path d="m71.438 140c1e-3 0.863-0.2539 1.706-0.7323 2.424-0.4785 0.717-1.159 1.277-1.9555 1.608-0.7966 0.33-1.6733 0.418-2.5194 0.25-0.846-0.168-1.6233-0.583-2.2335-1.192-0.6102-0.61-1.026-1.386-1.1946-2.232s-0.0826-1.723 0.2472-2.52c0.3299-0.797 0.8887-1.478 1.6057-1.957 0.7171-0.48 1.5602-0.735 2.4227-0.735 1.1554 0 2.2635 0.458 3.081 1.275 0.8174 0.816 1.2773 1.924 1.2787 3.079z" fill="#fff"/>
<path d="m70.72 139.74c-0.0394-0.52-0.1859-1.025-0.4302-1.485s-0.5811-0.864-0.9893-1.188c-0.4123-0.319-0.8848-0.551-1.3892-0.683s-1.0302-0.161-1.5459-0.085c-0.5128 0.079-1.003 0.266-1.4384 0.548-0.4353 0.282-0.806 0.653-1.0875 1.089-0.2967 0.461-0.4912 0.979-0.5705 1.522-0.0793 0.542-0.0415 1.094 0.1107 1.62 0.2592 0.917 0.8715 1.693 1.7025 2.158 0.8083 0.46 1.7582 0.606 2.6674 0.409 0.8812-0.186 1.6716-0.669 2.2379-1.369 0.5604-0.69 0.8829-1.542 0.9194-2.43 0-0.041 0-0.076-0.0353-0.076-0.0354 0-0.0405 0.03-0.0405 0.076-0.0188 0.358-0.0868 0.711-0.202 1.051-0.2397 0.671-0.6528 1.267-1.1973 1.727-0.2771 0.231-0.5807 0.428-0.9043 0.586-0.4629 0.221-0.9673 0.342-1.4802 0.354-0.5128 0.012-1.0224-0.084-1.4953-0.283-0.477-0.2-0.9047-0.502-1.2536-0.884s-0.6106-0.835-0.7671-1.329c-0.1563-0.503-0.2029-1.034-0.1367-1.557s0.2438-1.025 0.5206-1.474c0.2694-0.43 0.6281-0.796 1.0517-1.075s0.9023-0.464 1.4035-0.541c0.6752-0.109 1.3672-0.032 2.0023 0.221 0.6351 0.254 1.1897 0.675 1.6047 1.218 0.2076 0.278 0.3775 0.582 0.5052 0.905 0.1134 0.327 0.1896 0.666 0.2273 1.01 0.0073-0.01 0.0109-0.023 0.0101-0.035z" fill="#0572E6"/>
<path d="m70.21 139.75c-0.0387-0.445-0.168-0.877-0.38-1.27-0.212-0.392-0.5022-0.737-0.8526-1.014-0.3553-0.273-0.7619-0.473-1.1958-0.587s-0.8862-0.139-1.3301-0.074c-0.4405 0.064-0.8622 0.222-1.2375 0.461s-0.6956 0.556-0.9399 0.928c-0.2613 0.397-0.4344 0.846-0.5076 1.315-0.0732 0.47-0.0448 0.95 0.0833 1.408 0.1096 0.396 0.2964 0.766 0.5495 1.089 0.2532 0.323 0.5677 0.594 0.9256 0.795 0.7081 0.396 1.5361 0.52 2.3289 0.349 0.7642-0.166 1.4476-0.591 1.9348-1.203 0.4823-0.6 0.7618-1.337 0.7982-2.106 0-0.036 0-0.066-0.0353-0.066-0.0354 0-0.0405 0.025-0.0405 0.066-0.0435 0.617-0.2509 1.212-0.6007 1.722-0.3499 0.511-0.8296 0.919-1.3897 1.182-0.3987 0.195-0.8342 0.302-1.2775 0.315s-0.8844-0.068-1.2938-0.239c-0.4138-0.174-0.7846-0.437-1.0865-0.769-0.3019-0.333-0.5276-0.727-0.6614-1.155-0.1337-0.438-0.1718-0.899-0.1117-1.352 0.0602-0.453 0.2171-0.888 0.4602-1.275 0.2345-0.366 0.5448-0.677 0.91-0.913 0.3652-0.235 0.7768-0.389 1.2067-0.451 0.5752-0.088 1.1633-0.021 1.7039 0.194 0.5407 0.215 1.0145 0.57 1.3727 1.028 0.1735 0.239 0.3161 0.499 0.4243 0.773 0.1004 0.28 0.1699 0.569 0.2072 0.864 0 0 0.0404-5e-3 0.0353-0.015z" fill="#0572E6"/>
<path d="m69.7 139.75c-0.0366-0.37-0.1482-0.728-0.328-1.053s-0.424-0.609-0.7177-0.837c-0.5906-0.454-1.3373-0.656-2.0763-0.56-0.3694 0.049-0.7241 0.175-1.041 0.371-0.317 0.196-0.5889 0.457-0.7979 0.765-0.2257 0.334-0.3773 0.713-0.4444 1.11s-0.0482 0.805 0.0554 1.194c0.0891 0.339 0.2461 0.657 0.4615 0.934 0.2153 0.277 0.4845 0.507 0.7914 0.677 0.6025 0.341 1.3108 0.444 1.9853 0.288 0.6451-0.139 1.2229-0.496 1.6368-1.01 0.4055-0.509 0.6406-1.133 0.6719-1.783 0-0.031 0-0.056-0.0354-0.056-0.0353 0-0.0404 0-0.0404 0.056-0.0419 0.518-0.2187 1.017-0.513 1.446-0.2942 0.429-0.6956 0.773-1.1642 0.999-0.3357 0.167-0.7032 0.26-1.0779 0.273s-0.7478-0.054-1.0944-0.197c-0.3501-0.146-0.6636-0.367-0.9178-0.648-0.2543-0.282-0.4429-0.616-0.5522-0.979-0.1098-0.369-0.1382-0.758-0.0832-1.139 0.0549-0.381 0.1919-0.746 0.4014-1.069 0.199-0.301 0.4602-0.556 0.7661-0.748 0.3059-0.191 0.6493-0.315 1.0071-0.363 0.4747-0.056 0.956 1e-3 1.4044 0.167 0.3433 0.123 0.6561 0.319 0.9175 0.573 0.2614 0.255 0.4653 0.562 0.5981 0.902 0.0882 0.231 0.1509 0.472 0.1869 0.717 0 0 5e-3 -0.02 0-0.03z" fill="#0572E6"/>
<path d="m69.189 139.76c-0.0337-0.298-0.1271-0.585-0.2747-0.845-0.1476-0.261-0.3462-0.489-0.5841-0.671-0.4712-0.355-1.0595-0.519-1.6468-0.459-0.3016 0.033-0.5926 0.13-0.8539 0.284-0.2612 0.154-0.4868 0.362-0.6617 0.61-0.1896 0.271-0.3192 0.579-0.3802 0.904s-0.0519 0.659 0.0266 0.98c0.0683 0.28 0.1932 0.544 0.3669 0.774 0.1738 0.23 0.3927 0.422 0.6434 0.565 0.4994 0.279 1.0862 0.359 1.6419 0.222 0.5327-0.124 1.0059-0.43 1.3387-0.864 0.3253-0.418 0.5156-0.926 0.5456-1.455 0-0.025 0-0.045-0.0354-0.045-0.0111 1e-3 -0.0214 6e-3 -0.0289 0.015-0.0075 8e-3 -0.0115 0.019-0.0115 0.03-0.0384 0.42-0.1841 0.822-0.4229 1.169-0.2389 0.347-0.563 0.626-0.9411 0.812-0.2707 0.142-0.5692 0.223-0.8745 0.238-0.3054 0.015-0.6104-0.037-0.8936-0.152-0.2874-0.119-0.5444-0.301-0.7517-0.533s-0.3596-0.507-0.4456-0.806c-0.0856-0.301-0.1046-0.617-0.0557-0.926 0.0488-0.308 0.1644-0.603 0.3386-0.862 0.1631-0.238 0.3758-0.438 0.6236-0.585 0.2477-0.147 0.5244-0.239 0.8111-0.269 0.3747-0.034 0.7522 0.015 1.1064 0.141 0.3568 0.131 0.6712 0.356 0.9093 0.652 0.1201 0.155 0.2203 0.325 0.2981 0.505 0.0704 0.187 0.1245 0.38 0.1616 0.576 0 0 0.0556 0 0.0505-5e-3z" fill="#0572E6"/>
<path d="m83.355 146.91h-77.313v14.787h77.313v-14.787z" fill="#fff"/>
<path d="m83.486 161.82h-77.57v-15.039h77.57v15.039zm-77.293-0.252h77.04v-14.534h-77.065l0.02525 14.534z" fill="#263238"/>
<path d="m21.935 146.91-5.6125 14.792h-9.9824l5.6075-14.792h9.9874z" fill="#0572E6"/>
<path d="m42.4 146.91-5.6075 14.792h-9.9925l5.6126-14.792h9.9874z" fill="#0572E6"/>
<path d="m62.864 146.91-5.6125 14.792h-9.9824l5.6126-14.792h9.9823z" fill="#0572E6"/>
<path d="m83.334 146.91-5.6125 14.792h-9.9874l5.6075-14.792h9.9924z" fill="#0572E6"/>
<path d="m81.794 179.77h-74.186v9.361h74.186v-9.361z" fill="#fff"/>
<path d="m81.92 189.26h-74.423v-9.598h74.423v9.598zm-74.186-0.252h73.933v-9.093h-73.933v9.093z" fill="#263238"/>
<path d="m22.854 179.77-5.3852 9.361h-9.5782l5.3852-9.361h9.5782z" fill="#0572E6"/>
<path d="m42.496 179.77-5.3852 9.361h-9.5833l5.3853-9.361h9.5832z" fill="#0572E6"/>
<path d="m62.127 179.77-5.3802 9.361h-9.5832l5.3852-9.361h9.5782z" fill="#0572E6"/>
<path d="m81.768 179.77-5.3852 9.361h-9.5833l5.3852-9.361h9.5833z" fill="#0572E6"/>
<path d="m56.403 157.09c1.5424-6.464-2.4476-12.955-8.912-14.497-6.4644-1.543-12.955 2.447-14.498 8.912-1.5424 6.464 2.4476 12.955 8.912 14.497 6.4644 1.543 12.955-2.447 14.498-8.912z" fill="#fff"/>
<path d="m44.698 166.46c-2.4052 0-4.7564-0.714-6.7561-2.05-1.9998-1.336-3.5583-3.236-4.4785-5.458s-1.1607-4.667-0.6911-7.026 1.6282-4.526 3.3293-6.226c1.701-1.7 3.8681-2.858 6.2272-3.327 2.3591-0.468 4.8042-0.227 7.026 0.694s4.1205 2.481 5.456 4.481 2.0478 4.352 2.0468 6.757c-0.0026 3.224-1.2848 6.314-3.5647 8.593-2.28 2.279-5.3713 3.56-8.5949 3.562zm0-24.062c-2.355 0-4.6572 0.698-6.6153 2.007-1.9581 1.308-3.4842 3.168-4.3855 5.343-0.9012 2.176-1.137 4.57-0.6775 6.88 0.4594 2.31 1.5934 4.431 3.2587 6.097 1.6652 1.665 3.7868 2.799 6.0966 3.258 2.3097 0.46 4.7039 0.224 6.8796-0.677 2.1757-0.902 4.0354-2.428 5.3437-4.386 1.3084-1.958 2.0068-4.26 2.0068-6.615-0.0027-3.157-1.2581-6.184-3.4905-8.417-2.2324-2.232-5.2595-3.487-8.4166-3.49z" fill="#263238"/>
<path d="m54.624 156.67c1.3055-5.48-2.0784-10.981-7.5581-12.286-5.4798-1.305-10.98 2.078-12.286 7.558-1.3054 5.48 2.0785 10.98 7.5582 12.286 5.4797 1.305 10.98-2.079 12.286-7.558z" fill="#0572E6"/>
<path d="m51.094 153.12h-12.791v2.369h12.791v-2.369z" fill="#fff"/>
<path d="m213.04 198.9 2.557-17.59 0.742 0.333 1.182 0.536 5.133 2.324 4.592 2.071 3.031 1.369 4.602 2.081 2.526 1.137c0.437 0.237 0.79 0.602 1.012 1.046 0.223 0.444 0.304 0.945 0.233 1.437-0.071 0.491-0.291 0.949-0.63 1.312-0.339 0.362-0.781 0.612-1.266 0.716l-1.066 0.147-1.678 0.227-4.996 0.677-3.294 0.45-5.001 0.682-2.091 0.288-5.588 0.757z" fill="#0572E6"/>
<g opacity=".1" style="mix-blend-mode:multiply">
<path d="m216.47 181.8c-0.252 0.661-0.567 1.297-0.939 1.899-1.561 2.435-2.688 7.416-1.839 13.135 0.049 0.618 0.176 1.228 0.379 1.814l1.071-0.071s4.986-10.942 21.288-7.901l-1.515-0.697-4.598-2.071-3.031-1.369-4.597-2.082-6.219-2.657z" fill="#000"/>
</g>
<path d="m229.01 196.73 1.273-8.78 4.602 2.081-0.879 6.022-4.996 0.677z" fill="#EBEBEB"/>
<path d="m220.72 197.86 1.94-13.357 4.602 2.081-1.54 10.594-5.002 0.682z" fill="#EBEBEB"/>
<path d="m168.14 198.47h-17.125l0.212-0.758 0.348-1.202 1.516-5.214 1.344-4.672 0.884-3.077 1.343-4.673 0.738-2.561c0.164-0.45 0.462-0.838 0.855-1.112 0.392-0.275 0.859-0.422 1.338-0.422 0.478 0 0.945 0.147 1.337 0.422 0.393 0.274 0.691 0.662 0.855 1.112l0.288 1.01 0.45 1.561 1.343 4.673 0.884 3.077 1.344 4.673 0.561 1.955 1.485 5.208z" fill="#0572E6"/>
<path d="m168.78 202.91h-22.506l3.587-8.886h22.506l-3.587 8.886z" fill="#0572E6"/>
<path d="m163.88 183.55h-8.547l1.343-4.668h5.861l1.343 4.668z" fill="#EBEBEB"/>
<path d="m166.1 191.3h-13.003l1.344-4.673h10.316l1.343 4.673z" fill="#EBEBEB"/>
<path d="m150.8 197.28c1.387 0.622 2.847 1.065 4.345 1.318 1.482 0.258 2.986 0.373 4.491 0.344 0.753-0.051 1.516-0.056 2.253-0.172 0.374-0.051 0.753-0.076 1.122-0.142 0.368-0.065 0.742-0.141 1.116-0.202 0.187-0.035 0.374-0.065 0.561-0.106l0.55-0.136 1.107-0.268c0.732-0.197 1.455-0.444 2.202-0.636-0.692 0.328-1.389 0.656-2.101 0.939l-1.096 0.374-0.546 0.182c-0.187 0.055-0.374 0.096-0.561 0.146l-1.131 0.268c-0.374 0.086-0.763 0.126-1.142 0.192-0.769 0.111-1.543 0.182-2.319 0.212-1.552 0.027-3.102-0.142-4.612-0.505-1.512-0.337-2.949-0.95-4.239-1.808z" fill="#263238"/>
<g opacity=".1" style="mix-blend-mode:multiply">
<path d="m151.39 197.57c0.665 0.15 1.314 0.361 1.94 0.631 2.526 1.152 7.441 1.516 12.801-0.071 0.581-0.132 1.143-0.337 1.673-0.611l-0.218-1.01s-11.114-3.233-10.477-19.197l-0.45 1.561-1.344 4.673-0.884 3.076-1.343 4.673-1.698 6.275z" fill="#000"/>
</g>
<path d="m208.39 198.87 3.359-23.127 8.598 5.016-3.364 23.122-8.593-5.011z" fill="#0572E6"/>
<path d="m216.95 190.33c-0.48 4.274-2.021 7.608-3.456 7.447-1.434-0.162-2.197-3.754-1.717-8.028 0.48-4.273 2.02-7.603 3.46-7.441s2.193 3.754 1.713 8.022z" fill="#263238"/>
<path d="m255.48 202.88c1.011 0.313 29.548-0.298 30.619-1.01 0.409-0.268 0.561-4.436 0.606-9.467v-3.35c0-1.353 0-2.717-0.025-4.041-0.076-5.961-0.257-11.21-0.257-11.21l-18.581 0.344 0.217 11.209 0.076 4.042 0.162 3.344s-10.826 5.128-11.918 6.032c-1.091 0.904-1.904 3.799-0.899 4.107z" fill="#D3766A"/>
<path d="m255.48 202.88c1.011 0.313 29.548-0.298 30.619-1.01 0.409-0.268 0.561-4.436 0.606-9.467v-3.35c0-1.353 0-2.717-0.025-4.041l-18.621 0.343 0.076 4.042 0.162 3.344s-10.826 5.128-11.918 6.032c-1.091 0.904-1.904 3.799-0.899 4.107z" fill="#fff"/>
<path d="m255.4 202.93c0.652 0.202 12.812 0 21.663-0.329 2.02-0.08 3.92-0.171 5.43-0.267 2.082-0.132 3.476-0.273 3.698-0.42 0.505-0.333 0.627-6.441 0.617-12.887l-18.692 0.349 0.156 3.364s-10.881 5.148-11.982 6.062c-1.102 0.915-1.895 3.809-0.89 4.128z" fill="#0572E6"/>
<path d="m255.78 201.77c4.809-0.223 24.248-0.662 28.997-0.506 0.041 0 0.041 0 0 0-4.764 0.324-24.178 0.607-28.992 0.566-0.101 0.015-0.106-0.055-5e-3 -0.06z" fill="#263238"/>
<path d="m267.59 191.68c1.89-0.394 4.208-0.151 5.684 1.167 0.06 0.051 0 0.132-0.076 0.112-1.822-0.544-3.697-0.893-5.593-1.041-0.027-4e-3 -0.053-0.017-0.072-0.038-0.019-0.02-0.031-0.047-0.033-0.075-1e-3 -0.028 7e-3 -0.055 0.023-0.078s0.04-0.039 0.067-0.047z" fill="#263238"/>
<path d="m266.24 192.53c1.889-0.394 4.208-0.152 5.683 1.167 0.061 0.05 0 0.131-0.076 0.111-1.821-0.546-3.696-0.895-5.592-1.041-0.028-3e-3 -0.054-0.017-0.073-0.037-0.019-0.021-0.031-0.047-0.032-0.075-2e-3 -0.028 6e-3 -0.056 0.022-0.079 0.017-0.023 0.041-0.039 0.068-0.046z" fill="#263238"/>
<path d="m264.89 193.39c1.884-0.394 4.208-0.152 5.683 1.162 0.056 0.055 0 0.131-0.075 0.116-1.822-0.546-3.697-0.895-5.593-1.041-0.028-3e-3 -0.053-0.017-0.073-0.037-0.019-0.021-0.03-0.047-0.032-0.075s6e-3 -0.056 0.023-0.079c0.016-0.023 0.04-0.039 0.067-0.046z" fill="#263238"/>
<path d="m263.54 194.24c1.884-0.394 4.208-0.157 5.683 1.162 0.056 0.05 0 0.131-0.076 0.116-1.821-0.546-3.696-0.895-5.592-1.041-0.028-4e-3 -0.053-0.017-0.073-0.037-0.019-0.021-0.03-0.047-0.032-0.075s6e-3 -0.056 0.023-0.079c0.016-0.023 0.04-0.039 0.067-0.046z" fill="#263238"/>
<path d="m264.91 190.06c1.359 1.01 3.112 1.404 4.688 1.95 0.162 0.055 0.288-0.101 0.293-0.243 0.031 0 0.056-0.03 0.041-0.07-0.615-1.668-1.661-3.143-3.031-4.274-0.803-0.647-2.203-1.081-2.92-0.041-0.718 1.041 0.151 2.077 0.929 2.678zm-0.505-1.516c-0.379-2.071 1.874-1.01 2.45-0.505 0.362 0.329 0.7 0.684 1.011 1.061 0.672 0.773 1.222 1.627 1.813 2.46-0.758-0.318-1.515-0.566-2.303-0.854-0.915-0.363-2.774-1.025-2.981-2.162h0.01z" fill="#263238"/>
<path d="m276.19 188.67c-0.505-1.172-1.935-1.045-2.859-0.586-1.573 0.82-2.903 2.04-3.855 3.537-4e-3 6e-3 -7e-3 0.014-7e-3 0.022-1e-3 8e-3 0 0.016 3e-3 0.023 3e-3 8e-3 8e-3 0.014 0.014 0.019 6e-3 6e-3 0.013 9e-3 0.02 0.011-0.03 0.142 0.061 0.324 0.233 0.303 1.657-0.197 3.45-0.202 4.996-0.899 0.904-0.414 1.915-1.323 1.455-2.43zm-4.001 2.526c-0.813 0.116-1.627 0.192-2.435 0.339 0.729-0.713 1.495-1.387 2.293-2.021 0.393-0.302 0.804-0.577 1.233-0.823 0.667-0.364 3.092-0.905 2.278 1.04-0.444 1.066-2.404 1.314-3.344 1.45l-0.025 0.015z" fill="#263238"/>
<path d="m270 202.82c2.405-0.066 4.835-0.142 7.073-0.228 2.021-0.08 3.92-0.171 5.431-0.267 2.076-0.132 3.475-0.273 3.698-0.425 0.434-0.288 0.591-5.006 0.611-10.502-4.249 2.829-12.584 8.522-16.813 11.422z" fill="#000" opacity=".2"/>
<path d="m266.47 192.52h21.217s-1.162-47.735-0.934-48.846c0.545-2.657 12.629-44.739 12.629-44.739l-16.746 0.288-5.719 0.096s0.505 7.0117 0.293 7.7547c-2.799 10.209-8.26 27.643-9.376 34.104-1.965 11.221-1.364 51.342-1.364 51.342z" fill="#263238"/>
<path d="m267.16 188.97c3.304-0.086 15.024-0.435 19.435-0.101 0.03 0 0.03 0.055 0 0.06-1.516 0.248-16.126 0.177-19.435 0.132-0.012 0-0.023-5e-3 -0.032-0.014-8e-3 -8e-3 -0.013-0.02-0.013-0.032s5e-3 -0.024 0.013-0.032c9e-3 -9e-3 0.02-0.013 0.032-0.013z" fill="#37474F"/>
<path d="m285.08 142.64c0.631-2.581 5.355-18.656 6.8-23.743 1.444-5.087 2.798-10.174 4.041-15.302 0.157-0.652 0.318-1.298 0.505-1.945 0-0.055 0.096-0.03 0.086 0.025-0.475 2.582-1.106 5.138-1.712 7.694-0.607 2.556-1.258 5.098-1.935 7.634-1.371 5.098-2.865 10.16-4.481 15.185-0.808 2.501-2.142 7.644-2.854 10.175-0.713 2.531 0.449 44.102 0.378 44.779 0 0.04-0.016 0.078-0.044 0.107-0.028 0.028-0.067 0.044-0.107 0.044s-0.079-0.016-0.107-0.044c-0.029-0.029-0.045-0.067-0.045-0.107-0.101-4.89-1.151-41.95-0.525-44.502z" fill="#37474F"/>
<path d="m282.6 99.238s4.097 44.668 4.142 44.455c0.505-2.566 11.867-42.142 12.579-44.617l0.03-0.1162-16.751 0.2779z" fill="#37474F"/>
<path d="m277.48 205.32c1.011 0.313 29.548-0.298 30.624-1.01 0.404-0.268 0.561-4.431 0.601-9.467v-3.35c0-1.348 0-2.717-0.03-4.041-0.076-5.961-0.253-11.21-0.253-11.21l-18.585 0.344 0.217 11.21 0.081 4.041 0.157 3.349s-10.821 5.123-11.913 6.027c-1.091 0.904-1.899 3.799-0.899 4.107z" fill="#D3766A"/>
<path d="m277.48 205.32c1.011 0.313 29.548-0.298 30.624-1.01 0.404-0.268 0.561-4.431 0.601-9.467v-3.35c0-1.348 0-2.717-0.03-4.041l-18.621 0.344 0.081 4.041 0.157 3.349s-10.821 5.123-11.913 6.027c-1.091 0.904-1.899 3.799-0.899 4.107z" fill="#fff"/>
<path d="m277.39 205.37c0.657 0.202 12.817 0 21.662-0.329 2.051-0.081 3.92-0.172 5.431-0.262 2.081-0.137 3.476-0.278 3.703-0.425 0.505-0.333 0.621-6.441 0.616-12.887l-18.691 0.349 0.161 3.364s-10.881 5.153-11.983 6.062c-1.101 0.91-1.904 3.809-0.899 4.128z" fill="#0572E6"/>
<path d="m277.77 204.21c4.809-0.222 24.249-0.657 28.992-0.505 0.041 0 0.041 0.025 0 0.03-4.759 0.323-24.178 0.601-28.992 0.561-0.091 0-0.091-0.086 0-0.086z" fill="#263238"/>
<path d="m289.58 194.1c1.884-0.394 4.208-0.151 5.683 1.167 0.056 0.051 0 0.132-0.08 0.116-1.821-0.548-3.697-0.897-5.593-1.04-0.032 1e-3 -0.063-0.01-0.087-0.032s-0.038-0.052-0.039-0.084c-1e-3 -0.033 0.01-0.064 0.032-0.088 0.022-0.023 0.052-0.037 0.084-0.039z" fill="#263238"/>
<path d="m288.24 194.98c1.885-0.394 4.209-0.151 5.684 1.167 0.055 0.051 0 0.132-0.081 0.111-1.822-0.544-3.697-0.891-5.592-1.035-0.033 1e-3 -0.064-0.01-0.088-0.032-0.023-0.022-0.037-0.052-0.039-0.084-1e-3 -0.033 0.01-0.064 0.032-0.088 0.022-0.023 0.052-0.037 0.084-0.039z" fill="#263238"/>
<path d="m286.89 195.83c1.884-0.394 4.208-0.152 5.683 1.167 0.055 0.051 0 0.131-0.081 0.111-1.822-0.543-3.697-0.892-5.592-1.041-0.028-4e-3 -0.053-0.018-0.072-0.039-0.018-0.021-0.029-0.047-0.03-0.075-2e-3 -0.028 7e-3 -0.056 0.024-0.078 0.016-0.022 0.04-0.038 0.068-0.045z" fill="#263238"/>
<path d="m285.54 196.69c1.885-0.394 4.209-0.152 5.684 1.162 0.055 0.055 0 0.136-0.081 0.116-1.822-0.546-3.696-0.895-5.592-1.041-0.028-4e-3 -0.053-0.018-0.072-0.039s-0.029-0.048-0.031-0.075c-1e-3 -0.028 8e-3 -0.056 0.025-0.078 0.016-0.023 0.04-0.039 0.067-0.045z" fill="#263238"/>
<path d="m286.9 192.5c1.364 1.01 3.117 1.399 4.693 1.945 0.162 0.055 0.288-0.101 0.288-0.243 8e-3 0 0.016-2e-3 0.024-6e-3 7e-3 -4e-3 0.013-0.01 0.018-0.017 4e-3 -7e-3 7e-3 -0.015 7e-3 -0.023 1e-3 -8e-3 0-0.017-4e-3 -0.024-0.617-1.667-1.662-3.141-3.031-4.274-0.803-0.647-2.197-1.076-2.92-0.036-0.722 1.041 0.132 2.087 0.925 2.678zm-0.505-1.516c-0.379-2.071 1.874-1.01 2.445-0.505 0.359 0.332 0.697 0.686 1.01 1.061 0.645 0.788 1.249 1.61 1.809 2.46-0.758-0.318-1.516-0.566-2.304-0.848-0.899-0.364-2.758-1.026-2.965-2.168h5e-3z" fill="#263238"/>
<path d="m298.18 191.12c-0.505-1.167-1.94-1.046-2.864-0.586-1.571 0.82-2.899 2.04-3.85 3.536-6e-3 5e-3 -0.011 0.011-0.014 0.018-4e-3 7e-3 -6e-3 0.014-6e-3 0.022s2e-3 0.016 6e-3 0.023c3e-3 7e-3 8e-3 0.013 0.014 0.018 0 0.141 0.061 0.318 0.233 0.298 1.657-0.197 3.45-0.202 4.996-0.9 0.93-0.414 1.94-1.318 1.485-2.429zm-4.006 2.525c-0.813 0.117-1.621 0.192-2.43 0.339 0.73-0.712 1.495-1.387 2.294-2.021 0.39-0.3 0.8-0.574 1.227-0.818 0.672-0.369 3.097-0.904 2.284 1.035-0.45 1.066-2.405 1.314-3.375 1.45v0.015z" fill="#263238"/>
<path d="m289.05 194.68 20.575-0.379s-5.779-74.211-5.051-78.146c1.177-6.436 0.177-13.781-2.92-17.267l-20.051 0.3688s-0.298 5.6324 1.829 8.9724c0 0 1.904 1.151 2.824 1.662l2.794 84.789z" fill="#263238"/>
<path d="m289.62 191.02c3.122-0.137 2.222-0.142 5.344-0.248 1.516-0.051 11.564-0.379 12.999-0.172 0.03 0 0.03 0.056 0 0.061-1.42 0.273-11.463 0.424-12.988 0.444-3.128 0.046-2.228 0-5.35 0-9e-3 -2e-3 -0.018-7e-3 -0.024-0.015-5e-3 -7e-3 -9e-3 -0.016-9e-3 -0.026-1e-3 -9e-3 1e-3 -0.019 6e-3 -0.027s0.013-0.014 0.022-0.017z" fill="#37474F"/>
<path d="m282.16 107.33c1.988 0.915 3.894 1.996 5.698 3.234 0.016 8e-3 0.027 0.023 0.032 0.04s2e-3 0.035-6e-3 0.05c-9e-3 0.016-0.023 0.027-0.041 0.032-0.017 5e-3 -0.035 2e-3 -0.05-6e-3 -1.925-1.011-3.895-2.021-5.764-3.127-0.023-0.021-0.039-0.048-0.044-0.078-4e-3 -0.031 2e-3 -0.062 0.017-0.088 0.016-0.026 0.04-0.046 0.069-0.057 0.029-0.01 0.06-0.01 0.089 0z" fill="#37474F"/>
<path d="m284.71 106.99c0.127 0.387 0.227 0.782 0.298 1.182 0.086 0.311 0.111 0.635 0.076 0.955 0 0.061-0.096 0.055-0.126 0-0.16-0.299-0.271-0.621-0.328-0.955-0.102-0.364-0.213-0.727-0.304-1.096-8e-3 -0.05 3e-3 -0.101 0.031-0.143 0.029-0.041 0.072-0.071 0.121-0.082s0.1-2e-3 0.144 0.023c0.043 0.026 0.075 0.068 0.088 0.116z" fill="#37474F"/>
<path d="m284.84 105.06c-0.06-0.333-0.121-0.667-0.187-1.01-0.065-0.344-0.161-0.692-0.202-1.041 0-0.05-0.096-0.035-0.085 0 0.06 0.334 0.07 0.682 0.106 1.01 0.035 0.329 0.07 0.677 0.111 1.011 0.076 0.631 0.192 1.263 0.328 1.884-0.332-0.049-0.648-0.173-0.924-0.364-0.265-0.257-0.442-0.591-0.506-0.954-0.106-0.384-0.192-0.768-0.303-1.147-0.145-0.415-0.252-0.843-0.318-1.278 0-0.056-0.096-0.036-0.086 0 0.096 0.912 0.284 1.813 0.561 2.687 0.121 0.349 0.202 0.697 0.505 0.884 0.35 0.182 0.733 0.289 1.127 0.314 0.045 0.025 0.111 0 0.106-0.056-0.031-0.596-0.101-1.298-0.233-1.94z" fill="#37474F"/>
<path d="m301.3 115.95c0.116-1.475 0.329-2.94 0.465-4.415 0.246-2.957 0.011-5.935-0.697-8.816 0-0.055 0.07-0.076 0.081-0.025 0.616 2.532 0.928 5.128 0.929 7.734-0.076 2.602-0.505 5.173-0.505 7.78s0.263 5.269 0.505 7.896c0.243 2.627 0.44 5.289 0.662 7.931 0.879 10.609 1.707 21.253 2.551 31.882 0.238 2.966 0.46 5.936 0.687 8.901 0.227 2.966 0.581 10.468 0.748 13.494 0 0.262-0.374 0.247-0.404 0-0.551-5.325-1.011-15.11-1.43-20.45s-0.844-10.573-1.268-15.863c-0.424-5.289-0.834-10.573-1.248-15.857-0.207-2.642-0.404-5.289-0.606-7.931-0.202-2.643-0.445-5.269-0.505-7.907-0.069-1.451-0.058-2.904 0.035-4.354z" fill="#37474F"/>
<path d="m293.96 102.67c3e-3 -8e-3 8e-3 -0.015 0.015-0.019 7e-3 -5e-3 0.015-8e-3 0.023-8e-3s0.016 3e-3 0.023 8e-3c7e-3 4e-3 0.012 0.011 0.015 0.019 0.128 0.345 0.2 0.708 0.212 1.076 0.067 0.393 0.165 0.779 0.293 1.157 0.235 0.768 0.663 1.464 1.243 2.02 1.283 1.157 2.98 1.561 4.617 1.93 0.061 0 0.041 0.096 0 0.101-0.964 0.058-1.931-0.074-2.844-0.389-0.816-0.232-1.572-0.637-2.218-1.187-0.615-0.567-1.042-1.309-1.222-2.127-0.092-0.425-0.146-0.858-0.162-1.293v-0.627c-0.045-0.218-0.043-0.444 5e-3 -0.661z" fill="#37474F"/>
<path d="m286.08 71.877c-8.381 6.2188-22.021 6.7795-23.542 6.0622-3.218-1.4802-7.896-15.378-9.027-20.445-0.324-1.4651 10.28-1.1013 11.341 0.101 0.97 1.0962 3.304 10.7 4.279 10.841 4.875 0.1539 9.755 0.019 14.615-0.4042 7.032-0.7274 4.814 2.0056 2.334 3.8444z" fill="#D3766A"/>
<path d="m275.75 67.719 1.257 9.8156s7.462-2.92 10.71-5.9157c3.249-2.9957 1.395-4.097-1.849-4.2637-3.243-0.1667-10.118 0.3638-10.118 0.3638z" fill="#EBEBEB"/>
<path d="m277.36 68.028c0-0.0656 0.035-0.0909 0.045-0.0252 0.523 2.7203 0.878 5.4703 1.061 8.2344h-0.035c-0.344-1.3236-0.96-7.5019-1.071-8.2092z" fill="#263238"/>
<path d="m305.67 105.36c-0.071 0.081-29.755 0.712-30.028 0.414-0.389-0.424 4.4-30.194 9.093-36.691 1.172-1.6216 5.386-2.7381 7.139-1.0962 5.092 4.7537 6.163 8.7648 7.497 12.033 1.295 3.5354 2.383 7.1435 3.258 10.806 1.798 6.9917 3.279 14.251 3.041 14.534z" fill="#EBEBEB"/>
<path d="m292.42 68.053s-4.37 9.9723-5.087 12.518c-0.985 3.4857-2.425 26.461-2.425 26.461l21.218-1.242s-4.042-22.971-8.664-31.124c-3.627-6.4157-5.042-6.6128-5.042-6.6128z" fill="#0572E6"/>
<path d="m285.51 68.533s-2.466 9.0933-2.951 10.467c-0.485 1.3741-4.794 28.048-4.794 28.048l-2.617-0.975s2.946-18.47 5.557-27.876c2.612-9.4064 4.805-9.6641 4.805-9.6641z" fill="#0572E6"/>
<path d="m285.51 98.045 19.005-0.0404c-0.161-0.7123-0.328-1.46-0.505-2.2329l-18.323 0.0353c-0.071 0.7578-0.121 1.5055-0.177 2.238z" fill="#EBEBEB"/>
<path d="m276.52 98.06h2.718c0.116-0.7274 0.243-1.4751 0.369-2.2329h-2.682c-0.142 0.778-0.278 1.5156-0.405 2.2329z" fill="#EBEBEB"/>
<path d="m285.22 101.97 20.126-0.041c-0.141-0.677-0.298-1.424-0.47-2.2277l-19.495 0.0404c-0.04 0.7883-0.111 1.5353-0.161 2.2283z" fill="#EBEBEB"/>
<path d="m275.84 101.99h2.763c0.111-0.703 0.233-1.45 0.359-2.2333h-2.738c-0.137 0.8033-0.268 1.5513-0.384 2.2333z" fill="#EBEBEB"/>
<path d="m295.67 74.514c1.131 8.3253-0.46 19.909-2.354 21.258-5.406 3.8445-14.706 5.8902-18.662 6.3502-2.303 0.268-3.258-11.114-1.222-11.463 3.213-0.5355 10.902-2.1672 11.993-2.6572 1.091-0.4901 3.203-8.0829 5.193-13.594 2.162-5.9864 4.506-3.9253 5.052 0.1061z" fill="#D3766A"/>
<path d="m275.98 91.049c-1.762-1.1856-3.341-2.622-4.688-4.2637-1.516-2.0208-3.582-5.1731-4.698-4.39-2.284 1.6115 2.834 9.4973 2.834 9.4973s2.814 3.117 5.223 1.7177c0.436-0.2635 0.79-0.642 1.025-1.0939 0.234-0.4519 0.339-0.9596 0.304-1.4674z" fill="#D3766A"/>
<path d="m260.17 91.331c-0.102 0.3465-0.094 0.7156 0.02 1.0579 0.115 0.3423 0.332 0.6412 0.621 0.8567-0.472 0.3919-0.792 0.9372-0.904 1.5408-0.152 1.071 1.465 1.7732 1.465 1.7732-0.406 0.507-0.649 1.1252-0.697 1.7732-0.041 1.0406 1.485 1.9798 1.485 1.9798-0.114 0.674 0.019 1.366 0.374 1.95 1.01 1.516 3.789 1.445 5.557 1.42s6.764-1.763 7.749-2.021l-0.091-11.341s-7.971-2.1318-10.048-1.8035c-1.737 0.2779-5.107 1.5206-5.531 2.8139z" fill="#D3766A"/>
<path d="m260.88 93.069c1.788-0.7426 3.698-0.9093 5.597-1.1922 0.041 0 0.051 0.0606 0 0.0656-1.889 0.2577-3.708 0.8841-5.556 1.2175-0.012 0.0029-0.024 0.0016-0.035-0.0036s-0.019-0.014-0.024-0.0249c-5e-3 -0.0108-6e-3 -0.0231-2e-3 -0.0345 3e-3 -0.0114 0.01-0.0213 0.02-0.0279z" fill="#263238"/>
<path d="m261.4 96.408c0.422-0.1261 0.859-0.1975 1.299-0.2121 0.469-0.0455 0.934-0.0859 1.399-0.1112 0.935-0.0606 1.874-0.101 2.809-0.1111 0.04 0 0.05 0.0657 0 0.0657-0.935 0.0606-1.864 0.1364-2.794 0.2374-0.46 0.0505-0.924 0.101-1.389 0.1616-0.435 0.079-0.877 0.1129-1.319 0.1011-0.013-0.0047-0.025-0.0134-0.033-0.0248s-0.013-0.025-0.014-0.0392c0-0.0141 4e-3 -0.0281 0.011-0.0401s0.018-0.0215 0.031-0.0273z" fill="#263238"/>
<path d="m262.2 100.31c0.384-0.111 0.784-0.156 1.183-0.131l1.278-0.066c0.853-0.045 1.707-0.091 2.556-0.1663 0.04 0 0.05 0.0653 0 0.0653-0.864 0.081-1.728 0.177-2.592 0.248l-1.273 0.101c-0.384 0.068-0.777 0.068-1.162 0 0 0-5e-3 -0.046 0.01-0.051z" fill="#263238"/>
<path d="m287.49 82.369 9.598 2.5259s0.086-8.0121-1.475-12.124-3.273-2.8239-4.643 0.1213c-1.369 2.9452-3.48 9.4771-3.48 9.4771z" fill="#EBEBEB"/>
<path d="m288.38 80.996c-0.066 0-0.076-0.0606 0-0.0505 2.718 0.5352 5.4 1.237 8.032 2.1015v0.0354c-1.379-0.1768-7.34-1.9197-8.032-2.0864z" fill="#263238"/>
<path d="m306.96 52.271c2.148 0.0757 4.231 0.7495 6.016 1.9455s3.201 2.8667 4.088 4.8239l-9.447-0.3233-2.021 5.077 1.642 5.2034 9.452 0.3385c-0.981 1.8083-2.428 3.3215-4.19 4.3833-1.763 1.0617-3.777 1.6333-5.834 1.6557s-4.083-0.5052-5.868-1.5283c-1.785-1.0232-3.265-2.5046-4.285-4.2911-1.021-1.7865-1.546-3.8132-1.52-5.8705 0.025-2.0573 0.599-4.0705 1.664-5.8313 1.064-1.7609 2.579-3.2054 4.389-4.1843 1.81-0.9788 3.848-1.4564 5.904-1.3833l0.01-0.0152z" fill="#455A64"/>
<path d="m239.81 72.973c-2.148-0.0757-4.231-0.7494-6.016-1.9455-1.786-1.196-3.201-2.8667-4.088-4.8239l9.447 0.3385 2.021-5.0518-1.642-5.2084-9.452-0.3385c0.981-1.8085 2.428-3.3218 4.191-4.3835s3.777-1.6332 5.834-1.6554c2.058-0.0221 4.084 0.5059 5.869 1.5294s3.264 2.5054 4.285 4.2923c1.02 1.7869 1.544 3.8139 1.518 5.8714s-0.601 4.0707-1.666 5.8314-2.581 3.2048-4.391 4.1831c-1.81 0.9782-3.849 1.4551-5.905 1.3811l-5e-3 -0.0202z" fill="#455A64"/>
<path d="m246.8 56.518-0.368 10.279 56.125 2.0089 0.368-10.279-56.125-2.009z" fill="#455A64"/>
<path d="m263.24 60.143-0.153 4.2357 23.112 0.8313 0.153-4.2357-23.112-0.8313z" fill="#37474F"/>
<path d="m286.62 72.104c1.227 0.2424 4.147-1.6924 5.441-3.4959 0.085-0.1212 0.055-1.5458 0.096-3.2735 0.03-1.0458 0.085-2.2127 0.217-3.2736l-6.85 0.8032c0.215 1.3733 0.264 2.7675 0.146 4.1526-0.022 0.1457-0.056 0.2893-0.101 0.4294v0.0707c-0.253 0.7982-0.874 4.2132 1.051 4.5871z" fill="#D3766A"/>
<path d="m285.57 67.446c4e-3 0.0234 4e-3 0.0473 0 0.0707 0.224 0.0586 0.452 0.0991 0.682 0.1213 3.865 0.3839 5.405-4.2435 5.754-5.5267l-6.466 0.7527c0.218 1.373 0.269 2.7674 0.151 4.1526-0.031 0.1457-0.071 0.2891-0.121 0.4294z" fill="#263238"/>
<path d="m293.59 53.084c0.722 2.3794-0.535 9.2397-2.228 10.77-2.45 2.2177-6.461 2.4299-8.345-0.5052-1.829-2.8593-0.031-11.776 1.859-13.165 2.783-2.0763 7.643-0.6112 8.714 2.8998z" fill="#D3766A"/>
<path d="m287.87 57.313s0.03 0.0304 0 0.0455c-0.121 0.4547-0.177 1.0104 0.207 1.2428v0c-0.48-0.1567-0.399-0.8942-0.207-1.2883z" fill="#263238"/>
<path d="m288.38 56.924c0.747 0.1111 0.475 1.6014-0.218 1.5155-0.692-0.0858-0.409-1.6064 0.218-1.5155z" fill="#263238"/>
<path d="m284.98 56.747s-0.041 0-0.041 0.0303c-0.07 0.4648-0.232 1.0104-0.677 1.066 0.526 0.0454 0.728-0.6416 0.718-1.0963z" fill="#263238"/>
<path d="m284.65 56.191c-0.733-0.192-1.066 1.2882-0.384 1.465s1-1.3084 0.384-1.465z" fill="#263238"/>
<path d="m289.09 56.348c-0.186-0.0929-0.366-0.1958-0.541-0.3082-0.207-0.1213-0.383-0.197-0.505-0.4193-0.024-0.0669-0.026-0.1401-4e-3 -0.2079s0.066-0.1262 0.126-0.1659c0.127-0.0613 0.269-0.0876 0.41-0.076 0.141 0.0115 0.277 0.0604 0.393 0.1416 0.26 0.1279 0.463 0.3474 0.571 0.6163 0.018 0.0613 0.018 0.1263 2e-3 0.1879-0.017 0.0616-0.051 0.1173-0.097 0.1609-0.047 0.0435-0.105 0.0732-0.168 0.0857-0.062 0.0124-0.127 0.0072-0.187-0.0151z" fill="#263238"/>
<path d="m284.24 55.509c0.208-0.0026 0.415-0.0178 0.621-0.0455 0.222 0.0148 0.442-0.0438 0.627-0.1667 0.051-0.0498 0.083-0.1152 0.092-0.1857s-5e-3 -0.1421-0.042-0.2032c-0.088-0.1109-0.204-0.1961-0.337-0.2468-0.132-0.0506-0.276-0.0648-0.415-0.0412-0.291-2e-4 -0.571 0.1099-0.783 0.3082-0.046 0.0479-0.077 0.1082-0.09 0.1734-0.012 0.0652-5e-3 0.1326 0.02 0.1941s0.067 0.1144 0.122 0.1522c0.054 0.0379 0.119 0.0591 0.185 0.0612z" fill="#263238"/>
<path d="m287.11 61.667c-0.118 0.1169-0.274 0.1884-0.44 0.202-0.171-0.0338-0.333-0.1045-0.474-0.2071 0 0-0.031 0 0 0 0.051 0.1028 0.128 0.1902 0.224 0.2533 0.096 0.063 0.207 0.0994 0.321 0.1054 0.098-0.0087 0.192-0.0459 0.269-0.1069 0.077-0.0611 0.135-0.1433 0.166-0.2366-0.01-0.0051-0.046-0.0202-0.066-0.0101z" fill="#263238"/>
<path d="m286.86 60.197c-0.151 0.1606-0.333 0.2884-0.536 0.3754-0.202 0.0869-0.42 0.1311-0.641 0.1298-0.193 0.0021-0.385-0.0234-0.571-0.0758l-0.106-0.0303-0.101-0.0354c-0.023-0.0104-0.042-0.0276-0.054-0.0493-0.013-0.0218-0.019-0.0469-0.016-0.0719-3e-3 -0.0151-3e-3 -0.0304 0-0.0455v-0.0404c0.055-0.3536 0.191-0.8891 0.191-0.8891-0.146 0.0404-0.863 0.2172-0.818 0.0303 0.335-1.5974 0.833-3.1564 1.485-4.6527 6e-3 -0.0075 0.015-0.0128 0.024-0.0154 9e-3 -0.0025 0.019-2e-3 0.028 0.0013 9e-3 0.0034 0.016 0.0095 0.022 0.0174 5e-3 8e-3 8e-3 0.0174 7e-3 0.027-0.303 1.4751-0.859 2.8896-1.187 4.3698 0.256-0.0661 0.519-0.095 0.783-0.0859 0.051 0-0.273 1.0104-0.288 1.1922 0.286 0.0828 0.587 0.1071 0.882 0.0715 0.296-0.0356 0.582-0.1303 0.841-0.2786 0.055-0.0151 0.106 0.0202 0.055 0.0556z" fill="#263238"/>
<path d="m285.37 60.485c0.149 0.2904 0.37 0.5375 0.642 0.7174 0.151 0.0922 0.328 0.1346 0.505 0.1212 0.384 0 0.46-0.3637 0.444-0.6668-0.011-0.1609-0.04-0.3201-0.085-0.4749-0.458 0.2578-0.985 0.3639-1.506 0.3031z" fill="#263238"/>
<path d="m286.01 61.202c0.151 0.0923 0.328 0.1347 0.505 0.1213 0.384 0 0.46-0.3637 0.444-0.6669-0.196-0.029-0.397 0.0091-0.569 0.1081-0.172 0.0989-0.306 0.2531-0.38 0.4375z" fill="#FF9BBC"/>
<path d="m283.73 51.917c0.101-0.1971 0.379-0.677 0.647-0.6618 0.268 0.0151 0.505 0.6011 1.137 0.8285 0.869 0.3334 2.526-0.5052 3.728-0.0607 1.202 0.4446 1.829 1.6873 1.869 3.9s1.607 4.1375 2.228 2.7432c0-0.0506 0.055-0.1415 0.116-0.2728 0.374-2.0814 0.475-4.193 0.131-5.3095-1.071-3.511-5.935-4.9608-8.714-2.9098-0.517 0.4793-0.909 1.0776-1.142 1.7429z" fill="#263238"/>
<path d="m292.12 58.677s1.596-2.1874 2.592-1.6115c0.995 0.5759-0.238 3.7686-1.43 4.1829-0.149 0.0644-0.309 0.098-0.471 0.0986s-0.323-0.0317-0.472-0.095c-0.15-0.0633-0.284-0.1563-0.397-0.2733-0.112-0.1169-0.199-0.2555-0.256-0.4073l0.434-1.8944z" fill="#D3766A"/>
<path d="m294.34 57.974v0.0303c-0.385 0.1811-0.727 0.4411-1.005 0.7631-0.277 0.322-0.484 0.6989-0.607 1.106 0.05-0.0845 0.117-0.157 0.198-0.2123s0.173-0.092 0.269-0.1074c0.097-0.0155 0.196-0.0093 0.29 0.018s0.18 0.0752 0.254 0.1401v0.0454c-0.145-0.0492-0.301-0.0528-0.447-0.0103s-0.276 0.129-0.372 0.2478c-0.156 0.203-0.292 0.4213-0.404 0.6517-0.04 0.0757-0.177 0.0303-0.146-0.0505-0.021-1.0811 0.833-2.5411 1.97-2.6219z" fill="#263238"/>
<path d="m282.74 52.842s2.02-6.6027 7.936-4.8295c5.916 1.7731 3.971 8.4011 3.971 8.4011l-11.907-3.5716z" fill="#0572E6"/>
<path d="m295.22 56.091-12.794-3.8382-0.281 0.9387 12.793 3.8383 0.282-0.9388z" fill="#0572E6"/>
<path d="m288.74 54.13-2.663-0.7982 2.572-6.2996 2.662 0.7982-2.571 6.2996z" fill="#0572E6"/>
<path d="m288.74 54.13-2.663-0.7982 2.572-6.2996 2.662 0.7982-2.571 6.2996z" fill="#000" opacity=".1"/>
<path d="m253.06 63.814c1.288 0.8689 1.576-1.1518 1.576-1.1518s0.288 3.031 1.97 3.3897 1.879-2.0914 1.899-2.2632c0 0.1566 0.354 2.9149 2.082 3.1271s1.632-2.2935 1.621-2.4552c0.066 0.1465 0.93 2.051 2.279 1.9146 2.314-0.2424 0.303-5.8954 1.091-7.608l3.425-0.783c-0.877-0.2193-1.672-0.6878-2.288-1.3488-0.92-0.9296-1.516-1.5509-2.299-1.8086-0.345-0.1264-0.722-0.1381-1.074-0.0335-0.352 0.1047-0.661 0.3202-0.881 0.6145 0 0-0.439-1.5964-1.793-1.8035-0.698-0.1061-1.486 0.9144-1.486 0.9144-0.118-0.3536-0.331-0.6677-0.616-0.9075-0.286-0.2398-0.632-0.3961-1-0.4515-0.97-0.0909-1.612 0.9498-1.612 0.9498s-0.949-1.0104-1.97-0.8033c-2.061 0.4395-3.693 8.6386-0.924 10.508z" fill="#D3766A"/>
<path d="m266.33 58.464 2.596-0.4749 0.273-0.1212c3.031-1.4751 4.001-5.6883 1.611-5.3044-1.818 0.293-3.071 3.1574-4.976 3.1877l0.496 2.7128z" fill="#D3766A"/>
<path d="m255.82 54.241h-0.041c-1.243 2.6551-1.653 5.6245-1.177 8.5173 0 0.091 0.172 0.1061 0.172 0-0.064-2.8746 0.288-5.7435 1.046-8.5173z" fill="#263238"/>
<path d="m259.17 54.474c0-0.0303-0.045-0.0454-0.06 0-1.346 2.9501-1.597 6.2832-0.708 9.4014 0.036 0.1112 0.177 0.1718 0.147 0.0455-0.485-2.1723-0.132-6.8503 0.621-9.4469z" fill="#263238"/>
<path d="m262.35 64.658c-0.844-3.031-0.626-6.0621 0.046-9.1437 0-0.0404-0.046-0.0505-0.066 0-0.738 1.4145-0.96 3.415-1.011 4.9861-0.067 1.4585 0.248 2.9092 0.915 4.2082 0.035 0.0303 0.136 0.0151 0.116-0.0506z" fill="#263238"/>
</svg>
