<svg width="212" height="237" viewBox="0 0 212 237" fill="none" xmlns="http://www.w3.org/2000/svg">
<path d="M179.99 199.7C181.922 198.793 184.095 198.53 186.188 198.949C187.31 199.133 188.486 199.474 189.247 200.314C190.008 201.153 190.16 202.644 189.278 203.368C188.709 203.755 188.021 203.928 187.337 203.856C185.694 203.856 183.879 203.546 182.572 204.533C181.822 205.094 181.328 206.028 180.436 206.306C179.987 206.411 179.516 206.365 179.096 206.175C178.676 205.986 178.33 205.663 178.112 205.257C177.687 204.436 177.594 203.484 177.849 202.596C177.959 201.981 178.21 201.4 178.581 200.898C178.952 200.395 179.435 199.985 179.99 199.7Z" fill="#0572E6"/>
<path d="M175.645 191.367C176.8 193.009 179.04 192.469 180.079 191.461C181.118 190.454 181.554 189 181.953 187.615C182.866 184.44 183.789 181.113 183.113 177.881C182.944 176.909 182.514 176.002 181.869 175.257C181.54 174.887 181.12 174.61 180.65 174.453C180.18 174.297 179.678 174.266 179.193 174.365C178.059 174.664 177.361 175.771 176.852 176.821C175.356 179.932 174.572 183.338 174.559 186.791C174.559 188.397 174.743 190.076 175.645 191.403" fill="#0572E6"/>
<path d="M172.481 193.728C173.074 192.954 173.469 192.047 173.632 191.086C173.795 190.125 173.72 189.139 173.415 188.213C172.781 186.369 171.652 184.735 170.151 183.49C168.445 181.972 166.459 180.801 164.305 180.043C163.473 179.706 162.578 179.554 161.682 179.597C161.233 179.622 160.798 179.757 160.414 179.989C160.03 180.221 159.708 180.544 159.478 180.929C158.858 182.105 159.478 183.527 160.086 184.687C161.21 186.734 162.494 188.689 163.928 190.532C165.077 192.017 166.394 193.481 168.152 194.153C169.91 194.825 171.725 194.741 172.654 193.529" fill="#0572E6"/>
<path d="M175.572 216.193C175.629 215.948 175.663 215.699 175.671 215.448C175.729 214.923 175.792 214.22 175.871 213.406C175.972 212.4 176.126 211.4 176.333 210.41C176.599 209.206 176.962 208.025 177.419 206.878C177.867 205.733 178.475 204.658 179.224 203.683C179.834 202.888 180.614 202.239 181.507 201.783C182.111 201.483 182.759 201.281 183.427 201.185C183.679 201.176 183.928 201.141 184.172 201.08C183.919 201.053 183.664 201.053 183.411 201.08C182.719 201.136 182.043 201.313 181.412 201.605C180.472 202.046 179.648 202.7 179.004 203.515C178.224 204.505 177.594 205.605 177.135 206.779C176.67 207.941 176.308 209.142 176.054 210.368C175.861 211.37 175.728 212.383 175.656 213.401C175.587 214.267 175.566 214.975 175.556 215.453C175.532 215.699 175.537 215.948 175.572 216.193V216.193Z" fill="#263238"/>
<path d="M175.708 214.624C175.724 214.509 175.724 214.392 175.708 214.277V213.301C175.708 212.441 175.708 211.202 175.75 209.628C175.829 206.548 176.091 203.237 176.605 198.566C177.088 194.174 177.739 189.063 178.426 185.741C178.573 184.986 178.72 184.304 178.862 183.711C179.004 183.118 179.108 182.598 179.219 182.184C179.329 181.769 179.387 181.47 179.45 181.218C179.478 181.104 179.499 180.988 179.513 180.872C179.46 180.975 179.419 181.084 179.392 181.197C179.313 181.449 179.219 181.764 179.103 182.152C178.988 182.54 178.841 183.076 178.694 183.669C178.547 184.262 178.374 184.939 178.211 185.694C177.37 189.629 176.738 193.605 176.317 197.606C175.792 202.287 175.572 206.527 175.556 209.633C175.556 211.176 175.556 212.425 175.608 213.307C175.608 213.711 175.65 214.041 175.666 214.298C175.671 214.408 175.685 214.517 175.708 214.624Z" fill="#263238"/>
<path d="M175.729 206.406C175.758 206.057 175.758 205.706 175.729 205.357C175.67 204.416 175.563 203.479 175.409 202.549C175.184 201.168 174.879 199.802 174.496 198.456C174.052 196.8 173.48 195.18 172.785 193.613C171.598 190.723 169.897 188.072 167.764 185.789C167.392 185.398 166.996 185.032 166.578 184.692C166.399 184.534 166.237 184.382 166.053 184.262L165.596 183.947C165.321 183.736 165.028 183.55 164.72 183.391C165.728 184.178 166.683 185.03 167.58 185.941C169.649 188.24 171.306 190.878 172.481 193.739C173.161 195.297 173.736 196.899 174.202 198.535C174.597 199.867 174.921 201.219 175.173 202.586C175.388 203.756 175.514 204.685 175.588 205.367C175.609 205.716 175.657 206.064 175.729 206.406V206.406Z" fill="#263238"/>
<path d="M167.784 220.905L168.608 232.187H183.107L183.926 220.905H167.784Z" fill="#263238"/>
<path d="M185.663 216.455H166.389V220.905H185.663V216.455Z" fill="#263238"/>
<path d="M166.389 231.757V232.985H167.291H185.337V231.757H166.389Z" fill="#455A64"/>
<path d="M168.178 235.157L167.291 232.985H184.65L183.611 235.157H168.178Z" fill="#455A64"/>
<path d="M183.663 224.589C183.663 224.589 183.663 224.631 183.595 224.694L183.38 224.982L182.535 226.063L182.498 226.111L182.462 226.058L180.389 223.193H180.515L178.468 226.084L178.405 226.174L178.332 226.09L175.913 223.203H176.049L175.918 223.371L173.751 226.084L173.683 226.179L173.614 226.084C172.88 225.035 172.192 224.069 171.568 223.193H171.689L169.175 226.058L169.128 226.111L169.091 226.053C168.76 225.497 168.498 225.051 168.304 224.73L168.104 224.379C168.078 224.34 168.057 224.298 168.042 224.253C168.042 224.253 168.073 224.284 168.125 224.363L168.351 224.704L169.175 226H169.096L171.573 223.099L171.636 223.025L171.694 223.104L173.756 225.985H173.614L175.792 223.272L175.929 223.104L175.997 223.015L176.065 223.099L178.484 225.99H178.348L180.41 223.109L180.468 223.025L180.531 223.109C181.344 224.279 182.042 225.271 182.561 226.011H182.483L183.364 224.961L183.6 224.689L183.663 224.589Z" fill="#E0E0E0"/>
<path d="M184.131 220.826C184.131 220.879 180.499 220.921 176.018 220.921C171.537 220.921 167.905 220.879 167.905 220.826C167.905 220.774 171.537 220.737 176.018 220.737C180.499 220.737 184.131 220.779 184.131 220.826Z" fill="#455A64"/>
<path d="M184.865 233.111C184.865 233.158 180.914 233.2 176.049 233.2C171.185 233.2 167.233 233.158 167.233 233.111C167.233 233.064 171.18 233.016 176.049 233.016C180.919 233.016 184.865 233.058 184.865 233.111Z" fill="#263238"/>
<path d="M41.8753 197.113C41.8333 197.16 41.5027 196.961 41.1354 196.667C40.7681 196.373 40.5004 196.095 40.5424 196.042C40.5844 195.99 40.9098 196.194 41.2771 196.488C41.6444 196.782 41.912 197.06 41.8753 197.113Z" fill="#263238"/>
<path d="M51.9506 182.084C52.0935 180.684 51.9778 179.27 51.6095 177.912C51.1687 176.574 50.1402 175.351 48.7653 175.063C47.1911 174.737 45.5853 175.729 44.7037 177.072C43.8222 178.416 43.5231 180.043 43.2607 181.622C41.4704 192.536 40.8109 203.606 41.2929 214.655L47.7158 215.558C50.5128 204.029 51.4258 193.949 51.9506 182.084Z" fill="#455A64"/>
<path d="M47.8471 174.994L47.8156 175.099L47.7106 175.388L47.2803 176.5C47.1911 176.742 47.0704 177.025 46.976 177.303L46.6664 178.274L46.3043 179.392L45.9737 180.667C45.4345 182.773 45.0192 184.909 44.73 187.064C44.3837 189.478 44.158 192.154 43.9744 194.967C43.649 200.597 43.5966 205.708 43.4496 209.402C43.3814 211.255 43.3184 212.75 43.2502 213.779C43.2135 214.304 43.1872 214.676 43.1663 214.97C43.1663 215.091 43.1663 215.196 43.1663 215.274C43.1663 215.353 43.1663 215.379 43.1663 215.379C43.1663 215.379 43.1663 215.348 43.1663 215.274C43.1663 215.201 43.1663 215.091 43.1663 214.965C43.1663 214.676 43.1663 214.277 43.203 213.774C43.245 212.724 43.2817 211.25 43.3289 209.397C43.4339 205.724 43.4601 200.592 43.7907 194.956C43.9691 192.138 44.2053 189.457 44.5621 187.032C44.8631 184.884 45.2959 182.757 45.8582 180.662L46.2046 179.387C46.341 178.995 46.467 178.622 46.5824 178.269L46.9182 177.298C47.0179 177.004 47.1439 176.742 47.2383 176.5L47.7106 175.409C47.7596 175.294 47.8016 175.199 47.8366 175.126C47.8328 175.082 47.8363 175.037 47.8471 174.994V174.994Z" fill="#263238"/>
<path d="M48.44 175.021C48.7748 175.416 49.0408 175.865 49.2271 176.348C49.7182 177.676 49.9169 179.093 49.8096 180.504C49.6417 184.057 49.3216 188.948 48.9018 194.353C48.482 199.758 48.0045 204.638 47.6266 208.169C47.4325 209.932 47.2698 211.36 47.1491 212.367C47.0861 212.845 47.0389 213.223 47.0022 213.501L46.9602 213.795C46.9626 213.828 46.9626 213.861 46.9602 213.894C46.9602 213.894 46.9602 213.863 46.9602 213.795C46.9602 213.726 46.9602 213.616 46.9602 213.496C46.9602 213.217 47.0179 212.84 47.0599 212.357C47.1596 211.349 47.296 209.927 47.464 208.159C47.7998 204.622 48.2458 199.763 48.6709 194.337C49.0959 188.911 49.437 184.046 49.6469 180.504C49.7612 179.11 49.5824 177.707 49.1222 176.385C48.9356 175.911 48.7073 175.454 48.44 175.021V175.021Z" fill="#263238"/>
<path d="M52.8952 191.65C52.4737 191.619 52.0612 191.513 51.6778 191.335C51.2701 191.229 50.8846 191.051 50.5391 190.811C50.9611 190.838 51.3741 190.945 51.7565 191.125C52.1646 191.23 52.5503 191.408 52.8952 191.65V191.65Z" fill="#263238"/>
<path d="M53.6717 185.101C53.3237 185.379 52.9317 185.597 52.512 185.747C52.122 185.963 51.6977 186.11 51.2578 186.182C51.9936 185.685 52.8104 185.319 53.6717 185.101V185.101Z" fill="#263238"/>
<path d="M53.2678 179.754C52.6335 179.869 51.9807 179.823 51.3682 179.623C51.6786 179.534 52.0055 179.518 52.3232 179.576C52.6476 179.561 52.971 179.622 53.2678 179.754Z" fill="#263238"/>
<path d="M46.6347 176.333C46.5822 176.364 46.2989 176.012 46.0102 175.551C45.8002 175.284 45.6515 174.974 45.5747 174.643C45.6272 174.611 45.9105 174.958 46.2044 175.425C46.4983 175.892 46.7029 176.296 46.6347 176.333Z" fill="#263238"/>
<path d="M44.4466 179.565C44.1544 179.67 43.8411 179.703 43.5336 179.66C43.2243 179.689 42.9126 179.642 42.6257 179.523C42.9179 179.418 43.2313 179.386 43.5388 179.429C43.848 179.399 44.1598 179.446 44.4466 179.565V179.565Z" fill="#263238"/>
<path d="M42.8723 186.014C42.5364 186.001 42.208 185.911 41.912 185.752C41.588 185.66 41.2887 185.497 41.0356 185.274C41.3715 185.288 41.6999 185.378 41.9959 185.537C42.3199 185.629 42.6193 185.792 42.8723 186.014V186.014Z" fill="#263238"/>
<path d="M42.7045 191.466C42.7045 191.529 42.3529 191.661 41.8859 191.755C41.4188 191.85 41.0358 191.886 41.02 191.823C41.0043 191.76 41.3768 191.629 41.8386 191.535C42.1171 191.441 42.4147 191.417 42.7045 191.466Z" fill="#263238"/>
<path d="M41.9803 200.366C41.9803 200.429 41.6025 200.55 41.1092 200.639C40.8146 200.727 40.5029 200.741 40.2014 200.681C40.4661 200.523 40.7649 200.431 41.0725 200.413C41.3665 200.323 41.6785 200.306 41.9803 200.366Z" fill="#263238"/>
<path d="M41.4556 205.278C41.4871 205.33 41.1618 205.561 40.7315 205.803C40.3012 206.044 39.9286 206.17 39.9024 206.112C39.8761 206.055 40.1962 205.829 40.6265 205.588C41.0568 205.346 41.4556 205.22 41.4556 205.278Z" fill="#263238"/>
<path d="M45.4804 210.851C45.4279 210.882 45.1446 210.494 44.8507 209.98C44.6382 209.686 44.4914 209.349 44.4204 208.993C44.4729 208.962 44.7563 209.35 45.0501 209.864C45.2627 210.158 45.4094 210.495 45.4804 210.851V210.851Z" fill="#263238"/>
<path d="M46.64 201.589C46.682 201.631 46.3672 202.014 45.9369 202.439C45.5066 202.864 45.1183 203.168 45.071 203.121C45.0238 203.074 45.3439 202.696 45.7742 202.271C46.2045 201.846 46.5928 201.542 46.64 201.589Z" fill="#263238"/>
<path d="M46.3829 196.724C46.3357 196.772 46.0471 196.53 45.7322 196.2C45.4174 195.869 45.2075 195.549 45.2495 195.507C45.2915 195.465 45.5853 195.701 45.9002 196.032C46.215 196.362 46.4302 196.682 46.3829 196.724Z" fill="#263238"/>
<path d="M47.1806 190.517C47.2279 190.559 46.9655 190.931 46.5929 191.34C46.2203 191.75 45.8845 192.059 45.8373 192.017C45.7901 191.975 46.0524 191.603 46.4198 191.188C46.7871 190.774 47.1334 190.475 47.1806 190.517Z" fill="#263238"/>
<path d="M47.6266 186.014C47.5793 186.061 47.2173 185.773 46.8079 185.374C46.3986 184.975 46.11 184.613 46.152 184.566C46.194 184.519 46.5613 184.807 46.9706 185.211C47.3799 185.615 47.6685 185.967 47.6266 186.014Z" fill="#263238"/>
<path d="M48.5081 179.917C48.4387 180.248 48.2971 180.559 48.0936 180.83C47.8154 181.302 47.5426 181.659 47.4901 181.627C47.4376 181.596 47.616 181.187 47.8994 180.714C48.1828 180.242 48.4504 179.885 48.5081 179.917Z" fill="#263238"/>
<path d="M50.1612 174.27C50.219 174.302 50.0563 174.711 49.7991 175.183C49.542 175.656 49.2744 176.018 49.2324 175.991C49.2824 175.664 49.4062 175.351 49.5945 175.078C49.8516 174.601 50.1035 174.244 50.1612 174.27Z" fill="#263238"/>
<path d="M52.0398 176.836C52.0661 176.894 51.8089 177.072 51.4626 177.24C51.1163 177.408 50.8171 177.492 50.7909 177.435C50.7647 177.377 51.0218 177.198 51.3681 177.03C51.7145 176.863 52.0136 176.779 52.0398 176.836Z" fill="#263238"/>
<path d="M52.0817 197.113C51.2101 197.049 50.3846 196.696 49.7361 196.11C50.1447 196.234 50.5401 196.398 50.9168 196.599C51.3216 196.73 51.712 196.902 52.0817 197.113V197.113Z" fill="#263238"/>
<path d="M51.3157 201.405C51.3157 201.468 50.9431 201.594 50.4498 201.689C50.1566 201.783 49.8447 201.802 49.542 201.746C49.8045 201.585 50.101 201.488 50.4078 201.463C50.9011 201.369 51.3052 201.342 51.3157 201.405Z" fill="#263238"/>
<path d="M50.3764 208.768C50.3396 208.82 49.8516 208.479 49.4003 207.912C49.0998 207.589 48.8883 207.193 48.7864 206.763C49.0796 207.075 49.3448 207.412 49.5788 207.77C49.8747 208.078 50.1417 208.411 50.3764 208.768V208.768Z" fill="#263238"/>
<path d="M40.044 212.136C40.002 212.089 40.2644 211.795 40.6264 211.486C40.9885 211.176 41.3191 210.961 41.3611 211.013C41.4031 211.066 41.1407 211.349 40.7786 211.664C40.4165 211.979 40.0859 212.184 40.044 212.136Z" fill="#263238"/>
<path d="M37.0737 196.069C36.6539 194.762 35.872 193.24 34.5024 193.219C34.0943 193.241 33.6997 193.373 33.3599 193.6C33.0201 193.827 32.7478 194.141 32.5713 194.51C32.1944 195.238 32.0135 196.052 32.0466 196.871C32.2157 202.687 33.2068 208.45 34.9904 213.989H40.0123C39.9515 207.901 38.9605 201.857 37.0737 196.069V196.069Z" fill="#455A64"/>
<path d="M28.0008 187.846C27.7524 186.622 27.1001 185.517 26.1485 184.708C25.1969 183.899 24.0013 183.433 22.7533 183.385C20.5336 183.774 19.673 185.957 19.4106 188.192C19.1482 190.427 19.8409 192.652 20.5283 194.799C22.7253 201.683 24.9258 208.57 27.1297 215.458L33.3743 214.776C31.4222 205.551 30.2887 196.997 28.0008 187.846Z" fill="#455A64"/>
<path d="M34.5025 193.219C34.3402 193.442 34.198 193.679 34.0775 193.928C33.8186 194.637 33.7375 195.399 33.8413 196.147C33.9358 197.102 34.046 198.246 34.2087 199.506C34.3713 200.765 34.597 202.129 34.8803 203.588C35.4471 206.474 36.0873 209.056 36.4913 210.935C36.696 211.874 36.8534 212.64 36.9479 213.17C36.9898 213.417 37.0266 213.616 37.0528 213.784C37.079 213.952 37.0843 213.999 37.0528 213.999C37.0256 213.933 37.0045 213.865 36.9898 213.795L36.8429 213.191C36.7065 212.63 36.5281 211.879 36.3182 210.971C35.8721 209.093 35.2057 206.516 34.639 203.625C34.3556 202.177 34.1142 200.791 33.983 199.521C33.899 198.892 33.8466 198.283 33.7941 197.721C33.7416 197.16 33.6891 196.63 33.6629 196.147C33.5732 195.377 33.6816 194.597 33.9778 193.88C34.1027 193.624 34.2817 193.399 34.5025 193.219V193.219Z" fill="#263238"/>
<path d="M22.8688 183.207C22.5905 183.524 22.3379 183.863 22.1132 184.22C21.5384 185.217 21.2126 186.339 21.1634 187.489C21.1372 189.194 21.398 190.892 21.9347 192.511C22.4595 194.368 23.0839 196.41 23.7189 198.545C24.9626 202.827 26.0855 206.7 26.9094 209.528L27.8539 212.866C27.9589 213.244 28.0376 213.543 28.1006 213.774C28.1349 213.878 28.1578 213.985 28.1688 214.094C28.1207 213.996 28.082 213.894 28.0533 213.789C27.9851 213.559 27.8854 213.265 27.77 212.887C27.5233 212.084 27.177 210.956 26.7572 209.576L23.4985 198.608C22.8688 196.462 22.2758 194.41 21.7301 192.563C21.1955 190.921 20.9487 189.199 21.0007 187.473C21.0683 186.301 21.4292 185.164 22.0502 184.167C22.2682 183.804 22.5448 183.48 22.8688 183.207Z" fill="#263238"/>
<path d="M32.0361 214.11C31.9833 214.013 31.936 213.913 31.8944 213.81C31.8157 213.606 31.6845 213.317 31.5428 212.929C31.2437 212.163 30.8606 211.034 30.4933 209.618C30.126 208.201 29.7062 206.469 29.3284 204.58C28.9505 202.691 28.5727 200.576 28.1529 198.372C27.7331 196.168 27.2398 194.095 26.6784 192.243C26.1912 190.596 25.5826 188.988 24.8575 187.431C24.3645 186.384 23.8018 185.37 23.173 184.398C22.9579 184.052 22.7637 183.795 22.6483 183.616C22.5825 183.527 22.5246 183.432 22.4751 183.333C22.5521 183.411 22.6223 183.495 22.685 183.585C22.8162 183.763 23.0208 184.004 23.2465 184.351C23.9101 185.307 24.4979 186.315 25.0044 187.363C25.7571 188.916 26.3836 190.527 26.8778 192.18C27.4704 194.203 27.9574 196.256 28.3366 198.33C28.7511 200.529 29.1395 202.628 29.4963 204.543C29.8531 206.459 30.2309 208.154 30.6088 209.576C30.9866 210.998 31.3382 212.126 31.611 212.897C31.737 213.291 31.8577 213.585 31.9259 213.789C31.9745 213.892 32.0115 213.999 32.0361 214.11V214.11Z" fill="#263238"/>
<path d="M20.6647 193.77C20.6647 193.828 20.3394 193.964 19.9038 194.069C19.4683 194.174 19.1062 194.211 19.0957 194.148C19.0852 194.085 19.4158 193.954 19.8513 193.849C20.2869 193.744 20.649 193.707 20.6647 193.77Z" fill="#263238"/>
<path d="M20.0036 189.509C19.6624 189.605 19.3078 189.644 18.954 189.625C18.605 189.674 18.25 189.663 17.9045 189.593C18.2313 189.437 18.5929 189.369 18.954 189.394C19.308 189.342 19.6693 189.382 20.0036 189.509Z" fill="#263238"/>
<path d="M20.7067 185.615C20.6647 185.668 20.3236 185.448 19.951 185.127C19.5785 184.807 19.3003 184.508 19.3423 184.461C19.3843 184.414 19.7202 184.629 20.098 184.949C20.4758 185.269 20.7487 185.568 20.7067 185.615Z" fill="#263238"/>
<path d="M22.6118 182.016C22.6748 182.016 22.6538 182.336 22.6485 182.698C22.6433 183.06 22.6485 183.37 22.5698 183.38C22.4911 183.391 22.4071 183.086 22.4176 182.693C22.4281 182.299 22.5646 182 22.6118 182.016Z" fill="#263238"/>
<path d="M26.5001 183.711C26.5526 183.747 26.4004 184.057 26.1591 184.398C25.9177 184.739 25.6815 184.991 25.6343 184.954C25.5871 184.918 25.734 184.613 25.9701 184.267C26.2063 183.921 26.4477 183.674 26.5001 183.711Z" fill="#263238"/>
<path d="M29.0241 188.113C29.0241 188.176 28.725 188.36 28.3052 188.533C27.8854 188.706 27.5181 188.795 27.4971 188.738C27.4761 188.68 27.7962 188.491 28.216 188.323C28.6358 188.155 29.0031 188.04 29.0241 188.113Z" fill="#263238"/>
<path d="M30.5563 192.61C30.2786 192.851 29.9349 193.003 29.5698 193.046C29.22 193.159 28.8454 193.172 28.4888 193.083C28.8255 192.949 29.1784 192.861 29.5383 192.82C29.8678 192.709 30.2097 192.639 30.5563 192.61V192.61Z" fill="#263238"/>
<path d="M23.5247 191.33C23.4669 191.33 23.5247 190.999 23.6244 190.632C23.7241 190.265 23.8815 189.987 23.9392 190.008C23.9969 190.029 23.9392 190.338 23.8395 190.706C23.7398 191.073 23.6139 191.351 23.5247 191.33Z" fill="#263238"/>
<path d="M24.5061 196.997C24.5273 196.667 24.6243 196.345 24.7895 196.058C25.0046 195.565 25.225 195.187 25.2827 195.213C25.2615 195.544 25.1646 195.865 24.9994 196.152C24.7842 196.646 24.5638 197.034 24.5061 196.997Z" fill="#263238"/>
<path d="M22.0816 198.551C21.7724 198.543 21.4676 198.475 21.1843 198.351C20.7068 198.199 20.3185 198.063 20.3342 198C20.6465 197.96 20.9639 198.005 21.2525 198.131C21.7405 198.283 22.1079 198.493 22.0816 198.551Z" fill="#263238"/>
<path d="M23.4775 203.168C23.5142 203.221 23.2466 203.473 22.8845 203.735C22.5224 203.998 22.1866 204.165 22.1499 204.118C22.1131 204.071 22.3807 203.809 22.7481 203.546C23.1154 203.284 23.4407 203.116 23.4775 203.168Z" fill="#263238"/>
<path d="M24.6004 207.776C24.6004 207.833 24.2856 207.97 23.8605 208.07C23.4355 208.169 23.0839 208.206 23.0682 208.148C23.0524 208.091 23.383 207.954 23.8081 207.849C24.2331 207.744 24.5847 207.713 24.6004 207.776Z" fill="#263238"/>
<path d="M30.6825 196.462C30.7139 196.515 30.4306 196.74 30.0213 196.892C29.612 197.045 29.2446 197.066 29.2341 197.008C29.2236 196.95 29.549 196.829 29.9373 196.677C30.3256 196.525 30.651 196.404 30.6825 196.462Z" fill="#263238"/>
<path d="M31.5481 203.625C31.5219 203.683 31.186 203.583 30.7977 203.399C30.4094 203.216 30.1155 203.021 30.1418 202.964C30.168 202.906 30.5091 203.011 30.8974 203.189C31.2857 203.368 31.5796 203.567 31.5481 203.625Z" fill="#263238"/>
<path d="M33.0858 208.757C32.7383 208.739 32.3984 208.648 32.0888 208.489C31.564 208.285 31.16 208.07 31.181 208.007C31.5268 208.024 31.8649 208.116 32.1727 208.274C32.6975 208.479 33.1068 208.694 33.0858 208.757Z" fill="#263238"/>
<path d="M24.8472 212.777C24.8157 212.719 25.225 212.446 25.6973 212.073C26.1695 211.701 26.5369 211.365 26.5841 211.412C26.6313 211.46 26.3322 211.864 25.8389 212.252C25.5645 212.517 25.2207 212.699 24.8472 212.777V212.777Z" fill="#263238"/>
<path d="M28.8982 210.153C28.8352 210.153 28.746 209.817 28.5886 209.418C28.4312 209.019 28.2737 208.699 28.3262 208.663C28.3787 208.626 28.6411 208.899 28.8037 209.334C28.9664 209.77 28.9612 210.153 28.8982 210.153Z" fill="#263238"/>
<path d="M27.8119 203.998C27.7752 204.05 27.5128 203.924 27.2242 203.719C26.9356 203.515 26.7362 203.305 26.7729 203.252C26.8096 203.2 27.072 203.326 27.3606 203.53C27.6493 203.735 27.8644 203.945 27.8119 203.998Z" fill="#263238"/>
<path d="M37.2575 194.332C37.2942 194.384 37.0371 194.636 36.6855 194.893C36.3339 195.15 36.019 195.323 35.9823 195.271C35.9456 195.218 36.1975 194.972 36.549 194.709C36.9006 194.447 37.2575 194.279 37.2575 194.332Z" fill="#263238"/>
<path d="M38.7005 198.225C38.7005 198.288 38.307 198.372 37.8137 198.32C37.3204 198.267 36.9479 198.099 36.9636 198.042C36.9794 197.984 37.3677 198.042 37.84 198.089C38.3122 198.136 38.6953 198.162 38.7005 198.225Z" fill="#263238"/>
<path d="M32.5767 199.102C32.5767 199.159 32.2251 199.29 31.7424 199.322C31.2596 199.353 30.8818 199.275 30.887 199.212C30.8923 199.149 31.2701 199.128 31.7319 199.096C32.1937 199.065 32.5662 199.039 32.5767 199.102Z" fill="#263238"/>
<path d="M33.1066 195.418C33.1066 195.481 32.7287 195.491 32.3194 195.297C31.9101 195.103 31.674 194.825 31.716 194.772C31.758 194.72 32.0413 194.919 32.4139 195.087C32.7865 195.255 33.1118 195.355 33.1066 195.418Z" fill="#263238"/>
<path d="M39.2253 202.408C39.1938 202.46 38.8107 202.282 38.3699 202.003C37.9291 201.725 37.6038 201.479 37.6405 201.405C37.6773 201.332 38.0551 201.536 38.4959 201.809C38.9367 202.082 39.262 202.355 39.2253 202.408Z" fill="#263238"/>
<path d="M54.1651 213.333H21.4993V219.121H54.1651V213.333Z" fill="#0572E6"/>
<path d="M23.9392 217.977L27.9116 235.278H47.3799L51.7249 217.977H23.9392Z" fill="#0572E6"/>
<path d="M54.1493 219.131C54.1493 219.194 46.8028 219.247 37.6931 219.247C28.5834 219.247 21.2368 219.194 21.2368 219.131C21.2368 219.068 28.5834 219.016 37.6931 219.016C46.8028 219.016 54.1493 219.074 54.1493 219.131Z" fill="#263238"/>
<path d="M35.9823 199.228C35.9298 199.259 35.7042 199.002 35.4838 198.645C35.2634 198.288 35.127 197.973 35.1794 197.942C35.2319 197.91 35.4576 198.168 35.678 198.524C35.8984 198.881 36.0348 199.191 35.9823 199.228Z" fill="#263238"/>
<path d="M35.9929 203.882C35.9772 203.58 36.0367 203.279 36.1661 203.006C36.3183 202.539 36.4967 202.177 36.5544 202.198C36.5706 202.501 36.5111 202.804 36.3813 203.079C36.2081 203.541 36.0559 203.903 35.9929 203.882Z" fill="#263238"/>
<path d="M37.5881 208.773C37.5304 208.804 37.289 208.411 37.0634 207.902C36.8823 207.606 36.7677 207.275 36.7275 206.931C36.7853 206.899 37.0266 207.293 37.2523 207.802C37.4333 208.097 37.5479 208.429 37.5881 208.773V208.773Z" fill="#263238"/>
<path d="M34.1404 212.708C34.0931 212.666 34.2873 212.367 34.5759 212.031C34.8645 211.696 35.1322 211.465 35.1846 211.507C35.2371 211.549 35.0377 211.853 34.7491 212.184C34.4605 212.514 34.1876 212.777 34.1404 212.708Z" fill="#263238"/>
<path d="M33.4164 205.567C33.4164 205.63 33.091 205.624 32.7132 205.567C32.3354 205.509 32.0415 205.399 32.052 205.336C32.0625 205.273 32.3774 205.278 32.75 205.336C33.1225 205.393 33.4269 205.504 33.4164 205.567Z" fill="#263238"/>
<path d="M147.062 173.546H69.5979V235.32H147.062V173.546Z" fill="#E0E0E0"/>
<g opacity="0.3">
<path d="M75.239 173.672C84.3592 176.926 94.4187 177.623 104.205 177.807C106.236 177.844 108.288 177.839 110.25 178.332C112.213 178.825 114.107 179.943 115.115 181.701C116.212 183.616 116.096 186.014 115.472 188.129C114.847 190.244 113.772 192.201 112.995 194.263C111.62 197.912 111.199 201.851 111.772 205.708C111.949 207.351 112.502 208.931 113.389 210.326C113.838 211.019 114.443 211.597 115.155 212.014C115.868 212.432 116.668 212.677 117.492 212.729C120.436 212.771 122.451 209.88 123.91 207.319C129.897 196.824 136.373 184.912 140.203 173.457L75.239 173.672Z" fill="black"/>
</g>
<path d="M95.9931 234.989C95.9144 234.989 95.8567 221.299 95.8567 204.412C95.8567 187.526 95.9144 173.829 95.9931 173.829C96.0718 173.829 96.1296 187.52 96.1296 204.412C96.1296 221.304 96.0666 234.989 95.9931 234.989Z" fill="#455A64"/>
<path d="M127.735 127.893C127.505 126.35 122.897 121.26 122.897 121.26C122.897 121.26 120.599 112.019 119.906 109.295C119.676 108.508 119.338 107.756 118.904 107.06C117.275 104.346 114.958 102.11 112.187 100.579L105.811 96.9952L104.289 93.6053L88.9772 85.734L84.8264 93.0806C84.8264 93.0806 74.7459 96.2816 73.413 98.5537C72.0801 100.826 74.0742 131.508 74.0742 131.508C74.0742 131.508 69.8762 149.203 68.9684 152.866C68.0605 156.528 69.2517 160.894 69.2517 160.894L76.7609 151.475C79.0961 148.547 84.2177 147.198 87.8962 147.251L119.334 147.392L118.069 138.587L143.504 143.509C143.504 143.509 147.875 134.977 148.227 134.809C148.579 134.641 127.735 127.893 127.735 127.893Z" fill="#0572E6"/>
<path d="M88.3265 95.9405C88.1061 95.7148 90.1001 102.458 92.6085 109.327C93.9579 113.039 94.6452 116.959 94.6393 120.908V145.781L109.71 144.758L107.459 128.375C107.459 128.375 105.622 117.807 105.108 113.787C104.636 110.114 103.009 100.144 103.009 100.144C103.009 100.144 94.6393 102.369 88.3265 95.9405Z" fill="white"/>
<path d="M121.774 134.064C121.751 133.937 121.751 133.807 121.774 133.681C121.809 133.338 121.876 132.999 121.974 132.668C122.292 131.564 122.884 130.559 123.695 129.745C124.51 128.934 125.514 128.338 126.618 128.013C126.948 127.915 127.287 127.849 127.63 127.814C127.755 127.79 127.883 127.79 128.008 127.814C128.008 127.861 127.484 127.919 126.675 128.197C125.627 128.557 124.674 129.152 123.891 129.937C123.108 130.722 122.515 131.676 122.157 132.726C121.879 133.539 121.821 134.064 121.774 134.064Z" fill="#263238"/>
<path d="M122.551 128.103C123.251 127.691 124.043 127.462 124.854 127.436C125.658 127.325 126.477 127.422 127.232 127.719C127.232 127.803 126.182 127.599 124.875 127.719C123.569 127.84 122.582 128.181 122.551 128.103Z" fill="#263238"/>
<g opacity="0.3">
<path d="M72.5575 141.678L71.2456 143.158C72.6135 144.846 74.4674 146.074 76.5561 146.674C78.6613 147.12 80.8122 147.314 82.9633 147.251C83.8348 147.293 84.7077 147.21 85.5556 147.004C86.4109 146.758 87.2033 146.275 88.0902 146.222C88.6849 146.225 89.2765 146.31 89.8481 146.474C90.4233 146.637 91.0314 146.646 91.6112 146.5C91.8983 146.423 92.1528 146.255 92.3371 146.021C92.5214 145.788 92.6257 145.502 92.6345 145.204C86.0926 143.292 79.3594 142.11 72.5575 141.678V141.678Z" fill="black"/>
</g>
<path d="M115.587 143.577L111.914 139.652L104.279 137.737C104.279 137.737 97.3102 139.836 97.1423 139.836C96.9744 139.836 91.0762 138.22 91.0762 138.22L89.0139 145.787L99.6402 146.516L111.772 146.028C111.772 146.028 112.407 145.44 112.03 145.036C111.652 144.632 114.06 145.718 114.344 145.729C114.627 145.739 115.173 145.96 115.551 145.509C115.808 145.173 116.154 144.181 115.587 143.577Z" fill="#FFBE9D"/>
<path d="M112.029 145.01C111.617 144.932 111.213 144.816 110.823 144.664C110.088 144.433 109.065 144.139 107.926 143.824C106.787 143.509 105.738 143.299 104.977 143.168C104.561 143.114 104.151 143.017 103.754 142.88C104.174 142.861 104.595 142.893 105.008 142.974C106.012 143.114 107.007 143.31 107.989 143.562C108.972 143.811 109.939 144.12 110.886 144.485C111.288 144.611 111.672 144.787 112.029 145.01V145.01Z" fill="#EB996E"/>
<path d="M115.587 143.578C115.015 143.433 114.451 143.258 113.898 143.053C112.848 142.706 111.415 142.276 109.804 141.83C108.193 141.384 106.766 140.875 105.68 140.812C105.095 140.782 104.508 140.805 103.927 140.88C104.069 140.802 104.224 140.749 104.384 140.723C104.813 140.63 105.252 140.595 105.69 140.618C106.813 140.618 108.314 141.095 109.888 141.568C111.463 142.04 112.942 142.476 113.971 142.874C114.496 143.068 114.889 143.247 115.173 143.373C115.32 143.42 115.46 143.489 115.587 143.578V143.578Z" fill="#EB996E"/>
<path d="M73.4128 98.5537C73.4128 98.5537 67.9292 102.369 66.591 107.858C65.2529 113.347 59.4754 135.78 60.6613 139.133C61.8473 142.486 84.9049 145.781 84.9049 145.781L87.6389 134.237L75.9264 131.031C75.9264 131.031 76.0786 120.352 76.2255 115.928C76.3724 111.505 73.4128 98.5537 73.4128 98.5537Z" fill="#0572E6"/>
<path d="M87.492 135.974L91.265 136.903L88.9928 145.603L85.2881 145.01L87.492 135.974Z" fill="white"/>
<path d="M60.5774 137.947C60.5774 137.947 60.5774 138.141 60.6351 138.472C60.7627 138.979 61.0429 139.435 61.438 139.778C62.4403 140.712 64.3556 141.489 66.78 141.925C67.8872 142.292 69.1519 142.58 70.5005 142.885C71.8491 143.189 73.3079 143.499 74.8402 143.808C77.91 144.438 81.3051 145.099 84.905 145.771L84.7475 145.871C85.0047 144.821 85.2723 143.672 85.5609 142.523C86.2063 139.899 86.836 137.317 87.429 134.888L87.5235 135.045L77.1386 132.101C75.7048 131.497 74.1533 131.225 72.5995 131.304C71.4187 131.369 70.2587 131.643 69.1729 132.112C68.4828 132.41 67.8237 132.776 67.2051 133.203L66.7275 133.549C66.6753 133.592 66.6191 133.629 66.5596 133.66C66.5596 133.66 66.6068 133.607 66.7065 133.523C66.8062 133.439 66.9584 133.308 67.1683 133.151C67.7778 132.699 68.434 132.313 69.1256 132.001C70.2184 131.506 71.3918 131.213 72.589 131.136C74.17 131.035 75.7531 131.297 77.2173 131.902V131.902L87.6337 134.819L87.7596 134.851L87.7281 134.977C87.1351 137.406 86.5107 139.967 85.8705 142.617C85.5871 143.761 85.3143 144.895 85.0519 145.96L85.0204 146.086H84.8945C81.2947 145.409 77.9048 144.737 74.8349 144.097C73.3027 143.777 71.8491 143.457 70.4952 143.142C69.1414 142.827 67.8715 142.528 66.759 142.145C64.3032 141.678 62.3878 140.87 61.3751 139.888C60.9735 139.527 60.6977 139.048 60.5879 138.519C60.5501 138.33 60.5465 138.137 60.5774 137.947Z" fill="#263238"/>
<path d="M76.5666 131.813C76.5351 131.849 76.1415 131.487 75.4384 131.02C73.5968 129.787 71.4201 129.151 69.2043 129.199C68.3542 129.199 67.8347 129.315 67.8242 129.268C68.2639 129.108 68.7264 129.022 69.1938 129.01C71.4706 128.845 73.731 129.503 75.5643 130.863C75.9485 131.122 76.2872 131.443 76.5666 131.813Z" fill="#263238"/>
<path d="M78.1041 113.026C78.1234 113.26 78.1234 113.496 78.1041 113.73C78.1041 114.186 78.0569 114.837 77.9939 115.645C77.8627 117.256 77.6266 119.476 77.2015 121.91C76.8694 123.994 76.3835 126.049 75.748 128.061C75.622 128.444 75.4856 128.79 75.3754 129.11L75.0396 129.866C74.9412 130.081 74.8198 130.285 74.6775 130.474C74.7433 130.249 74.8312 130.031 74.9399 129.824C75.0291 129.598 75.1235 129.341 75.2337 129.058C75.3439 128.774 75.4489 128.407 75.5643 128.008C76.1378 125.989 76.5951 123.94 76.9339 121.869C77.3537 119.444 77.6214 117.235 77.7998 115.629C77.8785 114.868 77.9467 114.233 77.9992 113.73C78.006 113.492 78.0412 113.256 78.1041 113.026V113.026Z" fill="#263238"/>
<path d="M91.475 107.081C91.475 107.081 91.4226 106.939 91.2966 106.693C91.11 106.343 90.8373 106.047 90.5042 105.832C90.2579 105.663 89.9762 105.553 89.6807 105.509C89.3851 105.465 89.0835 105.49 88.7988 105.58C88.4379 105.704 88.1155 105.919 87.8634 106.205C87.6112 106.492 87.4381 106.839 87.361 107.212L87.2875 107.585L87.1248 107.238C86.511 105.921 85.9766 104.568 85.5243 103.187C84.7226 100.887 84.3215 98.4658 84.3384 96.0297C84.3384 95.5627 84.4014 95.1429 84.4276 94.7703C84.4538 94.3977 84.5378 94.0881 84.5955 93.8362C84.6509 93.5714 84.7281 93.3117 84.8264 93.0596C84.6474 94.04 84.5474 95.0333 84.5273 96.0297C84.5705 98.4389 84.9938 100.826 85.7815 103.103C86.2341 104.474 86.7596 105.819 87.3557 107.133L87.1196 107.165C87.2101 106.752 87.4076 106.371 87.6922 106.058C87.9768 105.746 88.3385 105.514 88.7411 105.386C89.0535 105.292 89.3835 105.272 89.7051 105.327C90.0267 105.383 90.3308 105.512 90.5935 105.706C90.9343 105.946 91.203 106.274 91.3701 106.656C91.4159 106.756 91.4494 106.862 91.4698 106.971C91.4803 107.039 91.4855 107.081 91.475 107.081Z" fill="#263238"/>
<path d="M104.268 108.262C104.212 108.057 104.172 107.848 104.148 107.637C104.033 107.059 103.996 106.468 104.038 105.879C104.156 104.974 104.606 104.145 105.302 103.555C105.733 103.201 106.272 103.006 106.829 103.004C107.133 103 107.434 103.063 107.711 103.187C107.988 103.311 108.235 103.494 108.435 103.723L108.204 103.859L107.706 102.605C106.724 100.133 105.853 97.8821 105.234 96.2606L104.515 94.3242C104.415 94.0931 104.34 93.8521 104.289 93.6053C104.419 93.8222 104.527 94.0506 104.615 94.2875C104.825 94.8122 105.092 95.4262 105.418 96.1924C106.084 97.8033 106.992 100.034 107.963 102.489L108.456 103.749L108.776 104.557L108.251 103.88C108.078 103.679 107.863 103.518 107.621 103.41C107.379 103.301 107.116 103.246 106.85 103.25C106.351 103.247 105.865 103.416 105.475 103.728C104.82 104.276 104.382 105.041 104.242 105.885C104.186 106.459 104.196 107.039 104.274 107.611C104.299 107.827 104.297 108.046 104.268 108.262Z" fill="#263238"/>
<path d="M114.002 109.563C114.076 109.563 115.262 117.529 116.652 127.378C118.043 137.228 119.103 145.22 119.029 145.22C118.956 145.22 117.77 137.254 116.38 127.378C114.989 117.503 113.929 109.574 114.002 109.563Z" fill="#263238"/>
<g opacity="0.3">
<path d="M85.6816 103.271C85.7455 105.312 86.1886 107.323 86.9883 109.201C87.5603 108.493 88.1952 107.747 89.0873 107.538C90.1683 107.28 91.265 107.947 92.0469 108.765C91.9114 107.947 91.5881 107.171 91.1023 106.498C90.8598 106.168 90.5442 105.898 90.1801 105.71C89.816 105.521 89.4132 105.419 89.0033 105.412C88.5948 105.422 88.2011 105.567 87.8846 105.826C87.5681 106.084 87.3469 106.441 87.2559 106.84L85.7499 103.308" fill="black"/>
</g>
<path d="M76.8186 109.038C76.7714 109.038 76.7871 108.487 76.6297 107.632C76.4141 106.517 75.9808 105.456 75.3546 104.51C75.002 103.997 74.5994 103.521 74.1529 103.088C73.7829 102.737 73.3805 102.423 72.9512 102.148C72.2113 101.681 71.6918 101.503 71.7128 101.456C71.8416 101.465 71.9677 101.497 72.0853 101.55C72.2322 101.59 72.3747 101.644 72.5104 101.713C72.6918 101.791 72.8672 101.882 73.0351 101.986C73.4916 102.244 73.919 102.55 74.3103 102.899C74.7809 103.337 75.2015 103.826 75.5645 104.358C76.2149 105.332 76.6381 106.44 76.8029 107.6C76.8551 107.948 76.8727 108.299 76.8553 108.65C76.8553 108.902 76.8396 109.038 76.8186 109.038Z" fill="#263238"/>
<path d="M107.281 71.6182C106.981 68.8083 105.634 66.2142 103.509 64.3522C101.383 62.4901 98.6343 61.4965 95.8094 61.5692H95.2269C88.9561 62.0939 85.9021 67.714 86.6052 73.9638L88.3264 95.951L89.0559 96.843C90.6934 98.8548 92.9504 100.268 95.4752 100.863C97.9999 101.459 100.651 101.202 103.014 100.133V100.133L102.531 93.0596C102.531 93.0596 108.545 91.9681 108.461 85.9334C108.424 83.0053 107.858 77.0126 107.281 71.6182Z" fill="#FFBE9D"/>
<path d="M102.579 93.0438C99.7788 93.1217 97.0156 92.3931 94.6182 90.9448C94.6182 90.9448 96.586 95.2425 102.594 94.5446L102.579 93.0438Z" fill="#EB996E"/>
<path d="M105.37 76.5824C105.376 76.8065 105.296 77.0243 105.145 77.1904C104.995 77.3566 104.786 77.4583 104.562 77.4744C104.453 77.4853 104.343 77.4742 104.237 77.442C104.132 77.4097 104.035 77.3569 103.95 77.2866C103.866 77.2163 103.796 77.1299 103.745 77.0324C103.695 76.9349 103.664 76.8283 103.655 76.7188C103.647 76.4943 103.727 76.2758 103.878 76.1094C104.029 75.9429 104.239 75.8416 104.463 75.8267C104.572 75.8152 104.683 75.8257 104.788 75.8577C104.894 75.8896 104.991 75.9424 105.076 76.0128C105.161 76.0833 105.23 76.17 105.281 76.2678C105.332 76.3656 105.362 76.4726 105.37 76.5824Z" fill="#263238"/>
<path d="M105.753 73.3027C105.685 73.4076 105.003 73.4811 104.179 73.9219C103.355 74.3627 102.872 74.9136 102.762 74.9031C102.652 74.8927 102.762 74.751 102.967 74.5043C103.281 74.1563 103.654 73.8667 104.069 73.649C104.465 73.4276 104.899 73.2834 105.349 73.2239C105.659 73.1925 105.79 73.2502 105.753 73.3027Z" fill="#263238"/>
<path d="M96.6595 77.0389C96.6695 77.2641 96.5903 77.4841 96.4389 77.6512C96.2876 77.8182 96.0765 77.9188 95.8514 77.931C95.7419 77.9425 95.6312 77.932 95.5258 77.9001C95.4204 77.8681 95.3225 77.8153 95.2379 77.7449C95.1533 77.6744 95.0836 77.5877 95.0331 77.4899C94.9825 77.3921 94.9521 77.2851 94.9436 77.1753C94.9363 76.9509 95.0165 76.7324 95.1673 76.5659C95.318 76.3995 95.5276 76.2981 95.7517 76.2833C95.8612 76.2717 95.9719 76.2822 96.0773 76.3142C96.1827 76.3462 96.2806 76.3989 96.3652 76.4694C96.4498 76.5398 96.5195 76.6265 96.57 76.7243C96.6206 76.8222 96.651 76.9291 96.6595 77.0389V77.0389Z" fill="#263238"/>
<path d="M96.5545 74.5673C96.4339 74.5673 95.8724 74.2157 94.9803 73.9953C94.0882 73.7749 93.3483 73.8222 93.2696 73.7487C93.1909 73.6752 93.3641 73.6438 93.6842 73.6175C94.1517 73.5879 94.621 73.6321 95.0747 73.7487C95.514 73.853 95.9327 74.0304 96.3132 74.2735C96.5231 74.4414 96.586 74.5568 96.5545 74.5673Z" fill="#263238"/>
<path d="M100.165 81.7722C100.651 81.6098 101.155 81.5059 101.666 81.4625C101.902 81.4625 102.122 81.3786 102.159 81.2159C102.174 80.9727 102.113 80.7309 101.986 80.5232L101.235 78.7338C100.186 76.194 99.4408 74.1003 99.5457 74.0635C99.6507 74.0268 100.595 76.0471 101.608 78.5869C101.86 79.2166 102.101 79.8148 102.327 80.3868C102.482 80.6682 102.534 80.9948 102.474 81.3104C102.441 81.395 102.39 81.4711 102.323 81.5329C102.257 81.5947 102.178 81.6407 102.091 81.6672C101.962 81.7077 101.827 81.7307 101.692 81.7354C101.187 81.8132 100.673 81.8255 100.165 81.7722Z" fill="#263238"/>
<path d="M96.5545 70.9885C96.4495 71.2351 95.5312 71.0725 94.4555 71.1459C93.3797 71.2194 92.4667 71.4818 92.3565 71.2456C92.2935 71.1354 92.4614 70.9045 92.8235 70.6789C93.3106 70.4017 93.8546 70.2396 94.414 70.205C94.9734 70.1704 95.5332 70.2643 96.0507 70.4795C96.3971 70.6631 96.586 70.8678 96.5545 70.9885Z" fill="#263238"/>
<path d="M105.732 71.1932C105.528 71.4083 104.73 71.1932 103.775 71.1932C102.82 71.1932 102.007 71.3558 101.818 71.1354C101.734 71.0305 101.86 70.8153 102.211 70.6107C102.696 70.3565 103.238 70.2318 103.786 70.2486C104.337 70.2448 104.88 70.3859 105.36 70.6579C105.706 70.8731 105.822 71.0935 105.732 71.1932Z" fill="#263238"/>
<path d="M109.038 66.2552C108.985 65.9798 108.833 65.7333 108.611 65.5622C108.389 65.3911 108.111 65.3073 107.831 65.3264C108.133 65.2404 108.415 65.096 108.661 64.9014C108.783 64.8028 108.875 64.6717 108.926 64.5232C108.977 64.3746 108.985 64.2147 108.949 64.0618C108.792 63.5947 108.193 63.495 107.721 63.3639C107.101 63.1837 106.552 62.8173 106.147 62.3144C105.575 61.5902 105.355 60.6456 104.856 59.8638C104.534 59.359 104.103 58.9329 103.595 58.6167C103.086 58.3006 102.513 58.1025 101.918 58.0371C101.323 57.9716 100.721 58.0405 100.156 58.2385C99.5909 58.4366 99.0775 58.7589 98.6535 59.1816C98.1905 58.7056 97.6206 58.3471 96.9911 58.1357C96.3617 57.9244 95.6908 57.8663 95.0344 57.9664C94.378 58.0665 93.755 58.3218 93.2171 58.7111C92.6792 59.1004 92.242 59.6125 91.9419 60.2048C91.1369 59.8691 90.2565 59.756 89.3928 59.8774C88.5291 59.9987 87.7139 60.35 87.0326 60.8945C86.3512 61.4391 85.8288 62.1568 85.5201 62.9725C85.2113 63.7882 85.1276 64.6719 85.2776 65.5311L89.0348 67.8347C89.0653 67.549 89.156 67.273 89.3011 67.0249C89.4462 66.7769 89.6423 66.5624 89.8764 66.3957C90.1105 66.2291 90.3773 66.114 90.6592 66.0581C90.9411 66.0023 91.2316 66.0068 91.5116 66.0716C92.6451 66.4022 93.3692 67.714 94.5447 67.8033C95.463 67.8715 96.2449 67.1631 97.1317 66.9269C98.2075 66.6383 99.3462 67.0686 100.317 67.6143C101.288 68.1601 102.217 68.8423 103.298 69.1151C104.589 69.374 105.929 69.214 107.123 68.6586C107.653 68.4726 108.137 68.1736 108.54 67.7823C108.739 67.5859 108.888 67.3449 108.974 67.0792C109.061 66.8136 109.083 66.5311 109.038 66.2552Z" fill="#263238"/>
<path d="M89.6698 66.0611L106.882 65.9666C106.261 64.8099 105.358 63.8281 104.258 63.112C101.972 61.4418 99.2174 60.5364 96.3866 60.5249C93.5792 60.5249 87.9643 64.13 85.986 66.1188C84.4117 67.6931 84.4537 69.0522 84.4537 69.0522C84.2543 71.2876 85.5714 73.7749 86.1329 75.9631C86.4163 77.0861 87.0093 80.4865 87.0093 80.4865C87.9538 80.4603 88.2844 79.6941 88.1165 78.7601L87.8384 75.0868C88.7671 74.312 89.4177 73.2553 89.6914 72.0772C89.9651 70.899 89.847 69.6638 89.3549 68.5589C89.1188 68.2335 88.552 66.717 89.6698 66.0611Z" fill="#263238"/>
<path d="M87.5918 74.8454C86.7155 71.8019 85.9074 68.5484 86.8414 65.5049H86.3167L86.1068 65.657C85.6216 65.494 85.097 65.4897 84.6092 65.645C84.1214 65.8002 83.6958 66.1068 83.394 66.5202C83.0922 66.9337 82.93 67.4326 82.9309 67.9445C82.9319 68.4563 83.0958 68.9546 83.3991 69.367C82.8874 69.3625 82.3916 69.5451 82.0051 69.8804C81.6186 70.2157 81.3678 70.6807 81.3 71.1879C81.3018 71.8947 81.4959 72.5876 81.8615 73.1925C82.228 73.7991 82.4523 74.4808 82.5175 75.1865C82.5395 75.5379 82.4369 75.8859 82.2276 76.169C82.0184 76.4522 81.7159 76.6525 81.3735 76.7346C81.5394 77.0926 81.8235 77.3825 82.1781 77.5555C82.5327 77.7285 82.9361 77.774 83.3203 77.6844C83.0752 78.2825 82.6659 78.7992 82.1397 79.1746C83.2626 79.9408 84.8002 79.6994 86.0176 79.0854C86.7728 78.7817 87.3894 78.2099 87.7493 77.4797C88.0851 76.6348 87.8332 75.706 87.5918 74.8454Z" fill="#263238"/>
<path d="M87.3082 78.398C87.2033 78.356 83.1102 77.2803 83.3673 81.3996C83.6245 85.5189 87.6965 84.4327 87.6965 84.312C87.6965 84.1913 87.3082 78.398 87.3082 78.398Z" fill="#FFBE9D"/>
<path d="M86.7101 82.8164C86.7101 82.8164 86.6419 82.8689 86.5212 82.9319C86.3582 83.0127 86.1703 83.0278 85.9965 82.9738C85.5504 82.8374 85.1464 82.171 85.0834 81.4258C85.0516 81.0698 85.1001 80.7112 85.2251 80.3763C85.2586 80.2439 85.3239 80.1216 85.4153 80.0201C85.5067 79.9186 85.6216 79.8409 85.7498 79.7938C85.8313 79.7685 85.919 79.7718 85.9983 79.8033C86.0775 79.8349 86.1436 79.8926 86.1854 79.967C86.2484 80.0772 86.2221 80.1612 86.2484 80.1717C86.2746 80.1822 86.3323 80.0929 86.2903 79.925C86.2565 79.827 86.1945 79.7412 86.1119 79.6784C86.0537 79.6378 85.9879 79.6095 85.9185 79.595C85.849 79.5806 85.7774 79.5804 85.7079 79.5944C85.5408 79.6383 85.3876 79.7239 85.2628 79.8432C85.138 79.9626 85.0455 80.1117 84.9942 80.2766C84.8428 80.6452 84.7799 81.0442 84.8105 81.4416C84.8892 82.2707 85.3353 83.0158 85.965 83.1627C86.0768 83.1873 86.1926 83.1869 86.3041 83.1615C86.4157 83.1361 86.5203 83.0863 86.6104 83.0158C86.7101 82.9161 86.7259 82.8217 86.7101 82.8164Z" fill="#EB996E"/>
<path d="M83.0317 74.9819C83.0317 74.9819 82.9163 74.8244 82.953 74.4991C82.9969 74.2784 83.0888 74.07 83.2221 73.8886C83.3554 73.7073 83.5269 73.5574 83.7244 73.4496C84.3156 73.1681 84.959 73.0126 85.6135 72.993C85.9797 72.9931 86.3408 72.9066 86.6673 72.7406C86.9937 72.5747 87.2764 72.3339 87.4921 72.038C87.8349 71.3707 87.9492 70.6093 87.8175 69.8708C87.7178 69.1781 87.5341 68.5536 87.4449 68.0131C87.2787 67.434 87.2879 66.8187 87.4711 66.2447C87.4748 66.8237 87.5398 67.4007 87.6653 67.9659C87.7807 68.4907 87.9854 69.1046 88.1113 69.834C88.2698 70.641 88.1476 71.4779 87.765 72.2059C87.5374 72.5822 87.1927 72.8734 86.7837 73.035C86.4175 73.1709 86.0343 73.2557 85.645 73.2869C85.0244 73.2905 84.4101 73.4116 83.8346 73.6437C83.6544 73.7364 83.4944 73.8639 83.3637 74.0188C83.2331 74.1737 83.1346 74.353 83.0737 74.5463C83.0502 74.6904 83.0361 74.8359 83.0317 74.9819V74.9819Z" fill="#455A64"/>
<path d="M82.0346 73.1925C82.0346 73.1925 81.9454 73.077 81.9086 72.8199C81.8662 72.4573 81.9377 72.0905 82.1133 71.7704C82.2337 71.5429 82.3999 71.3429 82.6013 71.1827C82.8368 71.006 83.1067 70.8809 83.3937 70.8153C83.672 70.7557 83.9371 70.6454 84.1756 70.49C84.281 70.3957 84.3637 70.2787 84.4173 70.1478C84.471 70.0169 84.4942 69.8755 84.4852 69.7343C84.4852 69.4247 84.4484 69.0941 84.4589 68.7635C84.4633 68.4478 84.4984 68.1332 84.5639 67.8242C84.6698 67.3023 84.8708 66.8042 85.1569 66.3549C85.2479 66.1901 85.3785 66.0505 85.537 65.9488C85.6955 65.8471 85.8769 65.7865 86.0647 65.7725C86.3375 65.7725 86.453 65.8984 86.4425 65.9089C86.432 65.9194 86.3061 65.8617 86.0752 65.9089C85.9174 65.9426 85.7695 66.0122 85.643 66.1123C85.5165 66.2124 85.4148 66.3403 85.3458 66.4861C85.1089 66.9263 84.9425 67.4008 84.8525 67.8925C84.8017 68.1836 84.7754 68.4785 84.7738 68.774C84.7738 69.0784 84.821 69.4038 84.8053 69.7606C84.8129 69.9474 84.7776 70.1334 84.7021 70.3045C84.6266 70.4755 84.5129 70.6269 84.3697 70.7471C84.0988 70.9285 83.7933 71.0517 83.4724 71.1092C83.2334 71.1501 83.0059 71.2414 82.805 71.3771C82.6042 71.5129 82.4345 71.6899 82.3075 71.8963C82.0919 72.2924 81.997 72.743 82.0346 73.1925V73.1925Z" fill="#455A64"/>
<path d="M106.152 62.3144C106.179 62.3144 105.843 62.54 105.302 62.2881C104.998 62.1231 104.732 61.896 104.52 61.6217C104.26 61.2804 103.936 60.9934 103.565 60.7768C103.083 60.5059 102.533 60.381 101.982 60.4174C101.43 60.4537 100.901 60.6497 100.459 60.9815C99.934 61.3488 99.4985 61.8683 98.8845 62.2986C98.5724 62.5302 98.2147 62.6929 97.835 62.7761C97.4421 62.845 97.038 62.8069 96.6648 62.6659C95.9197 62.3983 95.3319 61.9418 94.6917 61.7109C94.0739 61.4737 93.4172 61.3545 92.7554 61.3593C91.6155 61.3579 90.5076 61.7364 89.6069 62.435C89.0052 62.9051 88.5054 63.4924 88.1376 64.1615C87.8805 64.639 87.786 64.9329 87.7598 64.9224C87.7335 64.9119 87.7598 64.8437 87.8018 64.702C87.8612 64.4977 87.9348 64.2978 88.0221 64.1038C88.3611 63.3892 88.8539 62.7584 89.4652 62.2566C90.3862 61.5038 91.5345 61.084 92.7239 61.0654C93.4243 61.0472 94.1214 61.1667 94.7757 61.417C95.4684 61.6689 96.0666 62.1254 96.7435 62.3616C97.0642 62.4851 97.4124 62.5195 97.7511 62.4613C98.0796 62.386 98.3887 62.243 98.6589 62.0415C99.2099 61.6479 99.6716 61.1284 100.233 60.7401C100.752 60.3512 101.384 60.1429 102.033 60.1471C102.586 60.1512 103.129 60.2995 103.607 60.5774C103.99 60.8218 104.324 61.137 104.589 61.5062C104.772 61.7759 105.01 62.0045 105.287 62.1779C105.547 62.3328 105.857 62.3817 106.152 62.3144Z" fill="#455A64"/>
<path d="M97.877 82.8531C98.0082 82.8531 98.1551 83.7032 99.0157 84.2018C99.8763 84.7003 100.795 84.4484 100.826 84.5691C100.858 84.6898 100.642 84.779 100.249 84.8525C99.7346 84.948 99.2031 84.8588 98.7481 84.6006C98.3123 84.3484 97.9894 83.9391 97.8455 83.4566C97.7511 83.0945 97.814 82.8584 97.877 82.8531Z" fill="#263238"/>
<path d="M152.178 164.846C150.581 163.473 148.508 162.783 146.406 162.925L142.859 174.192C145.456 174.307 148.048 175.645 150.557 174.958C151.558 174.649 152.451 174.06 153.129 173.26C153.807 172.46 154.242 171.484 154.382 170.445C154.491 169.403 154.348 168.351 153.964 167.376C153.581 166.401 152.968 165.533 152.178 164.846V164.846Z" fill="#0572E6"/>
<path d="M146.448 162.668C146.448 162.579 146.831 162.505 147.498 162.511C148.489 162.529 149.47 162.715 150.399 163.062C151.819 163.615 153.048 164.568 153.936 165.806C154.479 166.54 154.88 167.37 155.117 168.251C155.374 169.216 155.403 170.228 155.201 171.206C155.006 172.197 154.563 173.123 153.915 173.898C153.295 174.604 152.509 175.144 151.627 175.472C150.196 175.978 148.652 176.078 147.167 175.761C146.211 175.573 145.279 175.283 144.386 174.895C143.761 174.627 143.431 174.428 143.462 174.338C143.494 174.249 143.872 174.276 144.512 174.386C145.152 174.496 146.123 174.701 147.277 174.806C148.586 174.951 149.911 174.77 151.134 174.281C151.805 173.997 152.398 173.558 152.866 173C153.356 172.39 153.691 171.67 153.842 170.901C153.986 170.14 153.975 169.357 153.81 168.6C153.645 167.842 153.329 167.126 152.882 166.493C152.158 165.398 151.164 164.509 149.995 163.912C149.167 163.521 148.3 163.218 147.408 163.009C146.805 162.873 146.438 162.762 146.448 162.668Z" fill="#F5F5F5"/>
<path d="M113.583 204.937L105.869 226.551L132.71 236.286C133.487 233.662 121.465 223.482 121.465 223.482L126.974 209.838L113.583 204.937Z" fill="#0572E6"/>
<g opacity="0.6">
<path d="M113.588 219.31C113.301 219.294 113.019 219.386 112.795 219.566C112.571 219.746 112.422 220.002 112.376 220.286C112.35 220.571 112.435 220.855 112.612 221.08C112.79 221.304 113.047 221.452 113.331 221.493C113.637 221.509 113.937 221.41 114.174 221.216C114.411 221.022 114.567 220.746 114.611 220.443C114.611 219.871 114.044 219.215 113.478 219.294" fill="white"/>
</g>
<path d="M105.869 226.551L106.651 224.374L132.143 234.543C132.143 234.543 133.151 235.493 132.71 236.286L105.869 226.551Z" fill="white"/>
<path d="M121.953 223.503C121.9 223.634 121.223 223.455 120.426 223.644C119.628 223.833 119.082 224.258 118.982 224.169C118.883 224.08 119.35 223.387 120.321 223.177C121.291 222.967 122.021 223.392 121.953 223.503Z" fill="#263238"/>
<path d="M124.366 225.691C124.366 225.827 123.7 225.843 123.054 226.216C122.409 226.588 122.068 227.15 121.937 227.097C121.806 227.045 121.994 226.273 122.808 225.796C123.621 225.318 124.366 225.565 124.366 225.691Z" fill="#263238"/>
<path d="M124.718 229.637C124.592 229.637 124.644 228.902 125.243 228.304C125.841 227.706 126.555 227.648 126.57 227.779C126.586 227.91 126.072 228.152 125.589 228.65C125.106 229.149 124.854 229.674 124.718 229.637Z" fill="#263238"/>
<path d="M122.86 220.254C122.761 220.354 122.225 219.955 121.47 219.73C120.714 219.504 120.048 219.535 120.021 219.399C119.995 219.263 120.714 218.995 121.596 219.268C122.477 219.541 122.965 220.176 122.86 220.254Z" fill="#263238"/>
<path d="M123.375 216.838C122.893 216.796 122.431 216.626 122.036 216.345C121.582 216.085 121.162 215.767 120.788 215.4C120.564 215.186 120.355 214.956 120.163 214.713C120.042 214.575 119.943 214.419 119.869 214.251C119.816 214.127 119.807 213.989 119.842 213.858C119.877 213.728 119.955 213.613 120.063 213.532C120.162 213.465 120.275 213.421 120.393 213.405C120.512 213.388 120.632 213.4 120.746 213.438C120.916 213.499 121.077 213.584 121.223 213.69C121.485 213.865 121.731 214.063 121.958 214.283C122.337 214.65 122.656 215.075 122.902 215.542C123.172 215.951 123.309 216.433 123.296 216.922C123.222 216.922 123.065 216.424 122.608 215.715C122.337 215.308 122.017 214.936 121.653 214.608C121.438 214.415 121.209 214.24 120.966 214.083C120.709 213.905 120.467 213.816 120.352 213.915C120.237 214.015 120.294 213.973 120.326 214.078C120.38 214.202 120.453 214.317 120.541 214.419C120.713 214.652 120.9 214.873 121.102 215.08C121.443 215.439 121.817 215.764 122.22 216.051C122.913 216.55 123.406 216.77 123.375 216.838Z" fill="#263238"/>
<path d="M123.138 216.975C123.025 216.499 123.065 215.999 123.254 215.547C123.413 215.041 123.656 214.566 123.973 214.141C124.163 213.891 124.375 213.659 124.608 213.448C124.746 213.298 124.92 213.186 125.114 213.121C125.308 213.057 125.514 213.043 125.715 213.081C125.834 213.128 125.936 213.208 126.012 213.311C126.087 213.414 126.131 213.536 126.14 213.663C126.15 213.839 126.136 214.016 126.098 214.188C126.015 214.614 125.848 215.019 125.607 215.38C125.365 215.74 125.054 216.049 124.692 216.287C123.915 216.812 123.312 216.749 123.317 216.702C123.322 216.655 123.842 216.534 124.492 216.009C124.862 215.708 125.163 215.33 125.374 214.902C125.496 214.653 125.583 214.388 125.631 214.115C125.694 213.816 125.668 213.543 125.552 213.538C125.434 213.533 125.316 213.555 125.208 213.601C125.099 213.647 125.001 213.717 124.923 213.805C124.705 213.989 124.505 214.193 124.324 214.414C124.017 214.79 123.766 215.209 123.579 215.658C123.254 216.45 123.217 216.975 123.138 216.975Z" fill="#263238"/>
<path d="M87.5814 147.214C83.5093 147.309 79.6471 147.88 76.8397 150.835C73.1192 154.755 68.5224 160.333 68.26 164.2C67.8717 169.973 71.3613 171.704 73.9064 173.121C75.0321 173.73 76.3007 174.025 77.5796 173.976L124.639 173.62L126.114 165.649L95.6783 158.145L96.943 146.689L87.5814 147.214Z" fill="#263238"/>
<path d="M96.9691 146.684L111.772 146.002C111.772 146.002 137.349 147.424 142.801 152.425C148.253 157.426 147.576 163.109 145.755 168.561C143.934 174.013 127.914 208.904 127.914 208.904C127.914 208.904 129.215 211.124 128.486 213.338C128.191 214.308 127.648 215.185 126.913 215.882C126.177 216.579 125.272 217.073 124.288 217.316L110.056 212.068C110.056 212.068 108.125 211.386 109.49 209.565C110.854 207.744 111.762 207.408 111.762 207.408V203.772C111.762 203.772 116.763 194.678 117.214 193.429C117.665 192.18 122.462 173.677 122.462 173.677L125.647 168.204C125.647 168.204 117.949 164.583 111.274 161.96L95.6887 158.118L96.9691 146.684Z" fill="#263238"/>
<path d="M120.982 211.428C120.551 211.178 120.134 210.904 119.733 210.609C117.722 209.307 115.458 208.446 113.089 208.085C112.593 208.037 112.099 207.964 111.61 207.865C112.109 207.807 112.614 207.816 113.11 207.891C115.538 208.151 117.857 209.033 119.843 210.452C120.264 210.726 120.647 211.054 120.982 211.428Z" fill="#455A64"/>
<path d="M128.092 208.93C127.782 208.676 127.505 208.383 127.268 208.059C126.785 207.498 126.145 206.7 125.479 205.787C124.812 204.874 124.235 204.029 123.842 203.405C123.607 203.078 123.41 202.726 123.254 202.355C123.536 202.64 123.786 202.955 123.999 203.294L125.699 205.624C126.334 206.485 126.917 207.261 127.42 207.938C127.68 208.244 127.905 208.576 128.092 208.93Z" fill="#455A64"/>
<path d="M133.287 163.229C133.287 163.271 132.762 163.387 131.939 163.66C129.781 164.372 127.827 165.592 126.24 167.218C125.93 167.575 125.603 167.916 125.259 168.241C125.48 167.817 125.763 167.428 126.098 167.086C126.861 166.224 127.745 165.477 128.722 164.867C129.698 164.252 130.759 163.784 131.87 163.476C132.328 163.323 132.805 163.24 133.287 163.229Z" fill="#455A64"/>
<path d="M118.751 187.935C118.758 187.83 118.777 187.726 118.809 187.625L119.03 186.759L119.88 183.585L122.792 173.137C123.385 171.096 123.889 169.154 124.461 167.391C125.065 165.859 125.977 164.467 127.142 163.303C127.911 162.514 128.763 161.811 129.682 161.204C130.013 160.994 130.27 160.837 130.453 160.742C130.542 160.686 130.635 160.639 130.732 160.6C130.732 160.6 130.375 160.842 129.745 161.288C128.856 161.923 128.03 162.641 127.279 163.434C126.155 164.594 125.277 165.968 124.697 167.475C124.172 169.212 123.647 171.18 123.054 173.21L120.069 183.632C119.68 184.939 119.36 186.004 119.129 186.78C119.019 187.127 118.935 187.41 118.862 187.63C118.839 187.736 118.802 187.839 118.751 187.935V187.935Z" fill="#455A64"/>
<path d="M105.659 161.283C105.58 161.283 105.271 158.522 104.961 155.101C104.652 151.68 104.436 148.899 104.541 148.893C104.646 148.888 104.924 151.653 105.234 155.075C105.544 158.496 105.732 161.277 105.659 161.283Z" fill="#455A64"/>
<path d="M81.0165 168.697C80.9745 168.697 80.7489 168.272 80.2819 167.616C79.679 166.763 78.9561 166.001 78.1356 165.355C77.3088 164.716 76.3953 164.199 75.4227 163.817C74.6723 163.523 74.1843 163.413 74.1947 163.366C74.6365 163.387 75.0721 163.477 75.4856 163.634C77.5378 164.31 79.2908 165.679 80.4446 167.506C80.6993 167.869 80.8925 168.272 81.0165 168.697V168.697Z" fill="#455A64"/>
<path d="M90.0844 158.622C90.0844 158.664 89.4337 158.265 88.3474 157.767C85.4974 156.472 82.3363 156.021 79.2377 156.465C78.057 156.633 77.3381 156.843 77.3276 156.796C77.4803 156.71 77.6447 156.646 77.8157 156.607C78.2717 156.466 78.7361 156.354 79.2063 156.271C82.3403 155.721 85.568 156.184 88.4209 157.594C88.8486 157.805 89.2623 158.043 89.6593 158.307C89.815 158.392 89.958 158.498 90.0844 158.622V158.622Z" fill="#455A64"/>
<path d="M125.537 165.633C125.41 165.627 125.285 165.605 125.164 165.57L124.115 165.344L120.284 164.499C117.046 163.775 112.565 162.799 107.595 161.818C102.626 160.837 98.1132 160.023 94.8439 159.462L90.966 158.795L89.9165 158.612C89.7926 158.597 89.671 158.567 89.5544 158.522C89.6791 158.526 89.8035 158.536 89.927 158.554L90.9765 158.69C91.8948 158.816 93.2225 159.016 94.8649 159.273C98.1446 159.798 102.668 160.564 107.643 161.55C112.617 162.537 117.088 163.539 120.321 164.31C121.932 164.699 123.238 165.024 124.136 165.26L125.185 165.533C125.305 165.556 125.423 165.589 125.537 165.633V165.633Z" fill="#455A64"/>
<path d="M95.7043 159.488C95.6519 159.488 95.5417 158.869 95.0536 157.987C94.7681 157.478 94.4151 157.011 94.0041 156.597C93.4859 156.086 92.9355 155.609 92.3564 155.169C91.2893 154.381 90.161 153.679 88.9823 153.07C88.4835 152.833 88.0029 152.56 87.5444 152.252C88.0725 152.419 88.5837 152.635 89.0715 152.897C90.2893 153.462 91.4462 154.149 92.5243 154.949C93.1113 155.397 93.6655 155.886 94.1825 156.413C94.604 156.849 94.9577 157.346 95.2321 157.888C95.4206 158.253 95.5634 158.641 95.6571 159.042C95.7003 159.186 95.7164 159.338 95.7043 159.488V159.488Z" fill="#455A64"/>
<path d="M148.122 166.598C148.18 166.661 147.393 167.454 146.779 168.666C146.165 169.878 145.965 170.97 145.886 170.954C145.885 170.106 146.109 169.272 146.537 168.54C146.885 167.764 147.432 167.095 148.122 166.598V166.598Z" fill="#263238"/>
<g opacity="0.3">
<path d="M114.438 112.832L117.807 136.562L117.975 136.939C118.765 128.736 117.551 120.463 114.438 112.832Z" fill="black"/>
</g>
<path d="M132.579 126.465L121.627 145.608L94.6393 146.196L94.571 147.419L120.704 147.225L121.533 147.193L149.124 147.251L154.702 137.632L161.829 127.42C161.932 127.269 161.991 127.092 162.002 126.909C162.012 126.726 161.972 126.544 161.886 126.382C161.8 126.22 161.672 126.084 161.514 125.99C161.357 125.896 161.177 125.846 160.994 125.846L133.45 125.951C133.272 125.952 133.098 126.001 132.945 126.091C132.792 126.181 132.666 126.31 132.579 126.465V126.465Z" fill="#E0E0E0"/>
<path d="M154.702 137.648C154.702 137.648 156.119 138.949 155.899 140.051C155.678 141.153 155.747 141.977 154.702 142.05C154.722 142.454 154.586 142.849 154.322 143.155C154.058 143.46 153.687 143.653 153.286 143.693C153.286 143.693 153.606 145.425 151.591 145.724C151.591 145.724 150.971 147.576 149.702 147.125C148.97 146.876 148.266 146.551 147.602 146.154L147.23 145.482C147.23 145.482 145.357 144.779 145.818 143.724C146.102 143.084 147.067 142.916 147.067 142.916C146.956 142.653 146.909 142.368 146.93 142.083C146.951 141.798 147.039 141.523 147.188 141.279C147.634 140.676 149.093 141.174 149.093 141.174C149.063 140.657 149.227 140.148 149.555 139.747C150.079 139.154 152.378 140.754 152.378 140.754L153.642 139.243L154.702 137.648Z" fill="#FFBE9D"/>
<path d="M151.591 145.724C150.772 145.375 149.992 144.945 149.261 144.438C148.482 144.008 147.75 143.498 147.078 142.916C147.895 143.268 148.676 143.701 149.408 144.207C150.184 144.638 150.916 145.146 151.591 145.724V145.724Z" fill="#EB996E"/>
<path d="M153.286 143.693C152.524 143.394 151.799 143.01 151.124 142.549C150.402 142.166 149.724 141.705 149.103 141.174C149.866 141.471 150.591 141.855 151.265 142.318C151.987 142.701 152.665 143.162 153.286 143.693V143.693Z" fill="#EB996E"/>
<path d="M150.977 139.894C151.019 139.815 151.884 140.272 152.892 140.912C153.516 141.272 154.118 141.672 154.692 142.108C154.655 142.197 153.753 141.788 152.745 141.143C152.113 140.79 151.52 140.371 150.977 139.894V139.894Z" fill="#EB996E"/>
<path d="M161.828 126.581C161.785 126.588 161.741 126.588 161.697 126.581H161.309H159.819L154.34 126.623L136.262 126.665H134.945C134.751 126.646 134.556 126.68 134.379 126.763C134.203 126.847 134.052 126.976 133.943 127.137C133.523 127.886 133.114 128.624 132.715 129.351L130.385 133.549L126.434 140.649C125.311 142.654 124.393 144.281 123.747 145.43C123.438 145.955 123.186 146.406 123.007 146.721L122.808 147.051L122.734 147.162C122.734 147.162 122.734 147.114 122.782 147.036L122.96 146.689L123.658 145.377L126.282 140.555L130.186 133.424C130.921 132.085 131.697 130.679 132.495 129.226L133.728 126.995C133.862 126.796 134.047 126.635 134.264 126.53C134.481 126.425 134.721 126.379 134.961 126.397H136.278L154.356 126.434L159.834 126.481L161.325 126.507H161.713C161.755 126.525 161.794 126.55 161.828 126.581Z" fill="#263238"/>
<path d="M142.413 136.21C142.285 136.394 142.214 136.612 142.207 136.836C142.2 137.06 142.258 137.281 142.373 137.473C142.489 137.665 142.657 137.819 142.858 137.918C143.06 138.017 143.285 138.055 143.508 138.029C143.73 138.003 143.94 137.913 144.113 137.77C144.286 137.627 144.414 137.438 144.482 137.224C144.549 137.011 144.554 136.782 144.495 136.566C144.436 136.35 144.316 136.155 144.15 136.005C143.892 135.804 143.564 135.712 143.239 135.751C142.914 135.789 142.617 135.954 142.413 136.21V136.21Z" fill="white"/>
<g opacity="0.3">
<path d="M65.7988 128.816C65.5679 128.911 65.3003 129.068 65.3003 129.341C65.3086 129.442 65.351 129.538 65.4206 129.612C65.4901 129.687 65.5827 129.735 65.6834 129.75C66.0683 129.696 66.4453 129.595 66.8063 129.451C69.6452 128.827 71.9804 129.425 74.6776 130.501L74.7668 130.411C73.6963 128.087 68.8529 127.573 65.7988 128.816Z" fill="black"/>
</g>
<path d="M212 235.341C212 235.414 164.536 235.477 106 235.477C47.4639 235.477 0 235.393 0 235.341C0 235.289 47.4534 235.205 106 235.205C164.547 235.205 212 235.241 212 235.341Z" fill="#263238"/>
<path d="M51.1213 68.0552C51.2105 68.1444 68.6376 62.157 68.6376 62.157L61.9207 46.7817L46.4248 52.7272L54.9573 57.6283L51.1213 68.0552Z" fill="#455A64"/>
<path d="M59.2971 51.41V30.4776C59.2971 30.4776 83.336 26.0802 100.658 26.3426C117.98 26.605 135.817 29.4439 135.817 29.4439V49.5419C135.817 49.5419 81.5256 44.6932 59.2971 51.41Z" fill="#455A64"/>
<path d="M59.1711 51.431L68.6167 62.2462V49.5419C68.6167 49.5419 60.7192 50.4865 59.1711 51.431Z" fill="#263238"/>
<path d="M59.2969 30.4724C59.3756 30.4724 59.4071 35.1952 59.3756 40.9674C59.3441 46.7397 59.2497 51.4625 59.1762 51.4625C59.1028 51.4625 59.066 46.7712 59.0975 40.9674C59.129 35.1637 59.2182 30.4724 59.2969 30.4724Z" fill="#263238"/>
<path d="M143.95 66.4494C143.861 66.5386 126.434 60.5512 126.434 60.5512L133.135 45.1707L148.647 51.1057L140.109 56.0069L143.95 66.4494Z" fill="#455A64"/>
<path d="M135.911 49.8253L126.465 60.6404V48.8545C129.632 48.9629 132.788 49.2872 135.911 49.8253V49.8253Z" fill="#263238"/>
<path d="M135.806 29.4439C135.879 29.4439 135.963 34.004 135.99 39.6346C136.016 45.2652 135.99 49.8253 135.9 49.8253C135.811 49.8253 135.743 45.2652 135.717 39.6346C135.69 34.004 135.727 29.4439 135.806 29.4439Z" fill="#263238"/>
<path d="M72.8514 39.6555C72.8019 39.0529 72.9311 38.449 73.2229 37.9195C73.5148 37.3899 73.9562 36.9581 74.4922 36.6781C75.0281 36.3981 75.6347 36.2823 76.2361 36.3452C76.8374 36.4081 77.4069 36.6469 77.8733 37.0318L77.1387 37.9134C76.9409 37.7329 76.7057 37.5983 76.4499 37.5194C76.194 37.4405 75.9239 37.4191 75.6589 37.4568C75.1885 37.5222 74.7633 37.7718 74.4769 38.1507C74.1906 38.5296 74.0664 39.0067 74.1318 39.4771C74.1972 39.9475 74.4468 40.3727 74.8257 40.6591C75.2046 40.9454 75.6817 41.0696 76.1521 41.0042C76.4189 40.9691 76.6744 40.8745 76.8996 40.7273C77.1249 40.5802 77.3142 40.3842 77.4535 40.1541L78.3771 40.7995C78.0349 41.2973 77.5535 41.6831 76.9931 41.9085C76.4327 42.134 75.8182 42.1891 75.2266 42.067C74.6351 41.9449 74.0927 41.6509 73.6674 41.222C73.2421 40.793 72.9528 40.2481 72.8357 39.6555H72.8514Z" fill="white"/>
<path d="M78.5764 38.8684C78.4787 38.2626 78.5652 37.6414 78.8246 37.0852C79.084 36.5291 79.5044 36.0636 80.0313 35.7491C80.5583 35.4346 81.1675 35.2855 81.7801 35.3212C82.3928 35.3569 82.9806 35.5757 83.4674 35.9493C83.9543 36.3229 84.3178 36.834 84.5109 37.4165C84.7039 37.999 84.7176 38.6261 84.5503 39.2165C84.3829 39.8069 84.0421 40.3334 83.5721 40.7279C83.102 41.1225 82.5243 41.3668 81.9139 41.4292C81.5251 41.4913 81.1277 41.4734 80.7461 41.3767C80.3645 41.28 80.0066 41.1065 79.6942 40.8669C79.3819 40.6272 79.1217 40.3264 78.9295 39.9828C78.7373 39.6392 78.6172 39.26 78.5764 38.8684V38.8684ZM83.3569 38.3752C83.3143 38.0347 83.1723 37.7143 82.9488 37.454C82.7252 37.1936 82.43 37.0049 82.0999 36.9113C81.7697 36.8176 81.4194 36.8233 81.0924 36.9275C80.7655 37.0317 80.4765 37.2298 80.2614 37.4972C80.0463 37.7646 79.9148 38.0894 79.8831 38.4311C79.8514 38.7727 79.921 39.1162 80.0833 39.4185C80.2455 39.7209 80.4932 39.9688 80.7954 40.1314C81.0976 40.2939 81.441 40.3638 81.7827 40.3325C82.0183 40.317 82.2481 40.2527 82.4576 40.1438C82.6671 40.0349 82.8517 39.8836 82.9997 39.6996C83.1477 39.5156 83.2558 39.3029 83.3173 39.0749C83.3788 38.8469 83.3923 38.6086 83.3569 38.3752V38.3752Z" fill="white"/>
<path d="M90.9449 40.6158L90.7192 37.2679L89.2552 40.1331L88.6779 40.1698L86.8675 37.588L87.0827 40.8625L85.8705 40.9412L85.5347 35.3631L86.5842 35.2949L88.8931 38.627L90.7245 35.0325L91.774 34.9643L92.1518 40.5371L90.9449 40.6158Z" fill="white"/>
<path d="M98.1706 36.7957C98.2021 38.0446 97.289 38.8422 95.7987 38.8947L94.6705 38.9262L94.7177 40.4689L93.4216 40.5057L93.2642 34.8856L95.6833 34.8174C97.1788 34.7964 98.1286 35.5468 98.1706 36.7957ZM96.8587 36.8324C96.8587 36.2184 96.4337 35.8721 95.6413 35.8931L94.5918 35.9246L94.6495 37.8662L95.699 37.8347C96.4861 37.8137 96.8745 37.4411 96.8587 36.8324Z" fill="white"/>
<path d="M99.1782 34.7649H100.469V39.2987H103.271V40.3482H99.1782V34.7649Z" fill="white"/>
<path d="M108.283 39.4614V40.5109L103.954 40.385L104.116 34.7964L108.314 34.9223L108.283 35.9718L105.344 35.8826L105.313 37.1L107.905 37.1735L107.874 38.181L105.281 38.1023L105.244 39.3984L108.283 39.4614Z" fill="white"/>
<path d="M110.676 36.0925L108.891 35.9876L108.954 34.938L113.814 35.2319L113.751 36.2814L111.966 36.1712L111.694 40.6998L110.403 40.6211L110.676 36.0925Z" fill="white"/>
<path d="M118.52 40.2275L118.426 41.277L114.113 40.8782L114.637 35.3159L118.835 35.7042L118.741 36.7537L115.813 36.4598L115.703 37.672L118.284 37.9081L118.195 38.9104L115.608 38.6743L115.493 39.9599L118.52 40.2275Z" fill="white"/>
<path d="M120.137 35.8249L122.65 36.1607C124.461 36.4021 125.558 37.6562 125.337 39.3092C125.117 40.9622 123.721 41.933 121.911 41.6706L119.397 41.3348L120.137 35.8249ZM121.989 40.6368C122.218 40.6735 122.451 40.664 122.676 40.609C122.9 40.5539 123.112 40.4544 123.297 40.3163C123.483 40.1782 123.639 40.0044 123.756 39.805C123.874 39.6056 123.95 39.3847 123.98 39.1554C124.011 38.9261 123.995 38.693 123.934 38.4699C123.873 38.2467 123.768 38.0381 123.625 37.8563C123.482 37.6745 123.304 37.5232 123.101 37.4113C122.899 37.2995 122.676 37.2293 122.446 37.205L121.276 37.0475L120.819 40.4794L121.989 40.6368Z" fill="white"/>
<path d="M146.558 31.3487L147.933 32.9597L151.806 31.3487L150.672 29.6537L146.558 31.3487Z" fill="#455A64"/>
<path d="M144.785 23.6821C144.785 24.0806 144.666 24.4702 144.445 24.8016C144.223 25.1329 143.909 25.3912 143.541 25.5437C143.172 25.6963 142.767 25.7362 142.376 25.6584C141.985 25.5807 141.626 25.3887 141.345 25.1069C141.063 24.8251 140.871 24.4661 140.793 24.0752C140.715 23.6843 140.755 23.2791 140.908 22.9109C141.06 22.5427 141.319 22.228 141.65 22.0066C141.981 21.7852 142.371 21.667 142.769 21.667C143.303 21.6684 143.815 21.8812 144.193 22.2588C144.57 22.6363 144.783 23.1481 144.785 23.6821V23.6821Z" fill="#0572E6"/>
<path d="M99.6452 53.7399C99.6441 53.9396 99.5837 54.1345 99.4717 54.2998C99.3596 54.4651 99.201 54.5934 99.0158 54.6684C98.8307 54.7433 98.6275 54.7616 98.432 54.7208C98.2365 54.6801 98.0575 54.5821 97.9178 54.4394C97.7781 54.2968 97.6839 54.1158 97.6472 53.9194C97.6106 53.7231 97.6331 53.5203 97.7119 53.3368C97.7908 53.1533 97.9223 52.9974 98.09 52.8889C98.2576 52.7803 98.4537 52.724 98.6534 52.7271C98.9188 52.7313 99.1718 52.84 99.3575 53.0296C99.5432 53.2192 99.6466 53.4745 99.6452 53.7399V53.7399Z" fill="#0572E6"/>
<path d="M52.7061 38.5956C52.7061 38.7475 52.6609 38.8961 52.5762 39.0223C52.4916 39.1485 52.3713 39.2467 52.2307 39.3043C52.0901 39.362 51.9355 39.3765 51.7866 39.3461C51.6377 39.3157 51.5012 39.2417 51.3945 39.1335C51.2878 39.0253 51.2157 38.8878 51.1873 38.7385C51.1589 38.5892 51.1756 38.4348 51.2352 38.295C51.2948 38.1552 51.3946 38.0363 51.522 37.9534C51.6494 37.8705 51.7985 37.8273 51.9505 37.8294C52.1518 37.8322 52.344 37.9141 52.4854 38.0575C52.6268 38.2009 52.7061 38.3942 52.7061 38.5956V38.5956Z" fill="#0572E6"/>
<path d="M49.8621 30.1628L52.1185 30.2992L53.189 25.8598L51.0795 25.949L49.8621 30.1628Z" fill="#455A64"/>
<path d="M120.389 65.5993L121.15 67.7298L125.652 66.9742L124.744 65.0693L120.389 65.5993Z" fill="#0572E6"/>
<path d="M74.8508 53.3044L73.4602 55.0885L76.509 58.4837L77.632 56.6943L74.8508 53.3044Z" fill="#455A64"/>
<path d="M69.4616 11.3924L74.7879 16.8236L82.2866 13.9899L82.5857 15.8528L79.3375 22.5014L82.3338 27.4655L82.0819 28.9506L74.8246 27.7279L70.5321 32.4349L69.5246 31.674L68.6378 25.6866L61.8684 22.1603L61.5693 20.7907L68.3859 18.9278L69.4616 11.3924Z" fill="#0572E6"/>
<g opacity="0.3">
<path d="M69.4616 11.3924L74.7879 16.8236L82.2866 13.9899L82.5857 15.8528L79.3375 22.5014L82.3338 27.4655L82.0819 28.9506L74.8246 27.7279L70.5321 32.4349L69.5246 31.674L68.6378 25.6866L61.8684 22.1603L61.5693 20.7907L68.3859 18.9278L69.4616 11.3924Z" fill="black"/>
</g>
<path d="M69.4616 9.86536L74.7879 15.3018L82.2866 13.9899L78.7655 20.7382L82.3338 27.4656L74.8246 26.2061L69.5246 31.6741L68.4069 24.1439L61.5693 20.7907L68.3859 17.4008L69.4616 9.86536Z" fill="#0572E6"/>
<path d="M124.692 11.3924L119.36 16.8236L111.862 13.9899L111.562 15.8528L114.811 22.5014L111.814 27.4655L112.066 28.9506L119.324 27.7279L123.616 32.4349L124.624 31.674L125.51 25.6866L132.28 22.1603L132.579 20.7907L125.762 18.9278L124.692 11.3924Z" fill="#0572E6"/>
<g opacity="0.3">
<path d="M124.692 11.3924L119.36 16.8236L111.862 13.9899L111.562 15.8528L114.811 22.5014L111.814 27.4655L112.066 28.9506L119.324 27.7279L123.616 32.4349L124.624 31.674L125.51 25.6866L132.28 22.1603L132.579 20.7907L125.762 18.9278L124.692 11.3924Z" fill="black"/>
</g>
<path d="M124.692 9.86536L119.36 15.3018L111.861 13.9899L115.383 20.7382L111.814 27.4656L119.323 26.2061L124.623 31.6741L125.741 24.1439L132.579 20.7907L125.762 17.4008L124.692 9.86536Z" fill="#0572E6"/>
<path d="M96.9008 1.85764L101.335 10.5213L111.562 9.91783L111.216 12.3002L104.72 19.1797L106.478 26.3741L105.612 28.09L97.2209 23.8343L90.1945 27.9483L89.2552 26.6312L90.4516 18.9856L83.5354 12.1061L83.6928 10.3271L92.7186 10.6472L96.9008 1.85764Z" fill="#0572E6"/>
<g opacity="0.3">
<path d="M96.9008 1.85764L101.335 10.5213L111.562 9.91783L111.216 12.3002L104.72 19.1797L106.478 26.3741L105.612 28.09L97.2209 23.8343L90.1945 27.9483L89.2552 26.6312L90.4516 18.9856L83.5354 12.1061L83.6928 10.3271L92.7186 10.6472L96.9008 1.85764Z" fill="black"/>
</g>
<path d="M97.4781 0L101.912 8.65842L111.562 9.91782L104.693 16.8131L106.478 26.3741L97.8035 21.9766L89.2552 26.6312L90.7613 17.0177L83.6929 10.3271L93.3011 8.78435L97.4781 0Z" fill="#0572E6"/>
<path d="M115.146 77.7211L122.556 78.5397C125.058 74.9983 128.793 72.5205 133.029 71.5933C137.264 70.6662 141.694 71.3567 145.446 73.5292C149.198 75.7017 152.002 79.199 153.307 83.3339C154.612 87.4688 154.323 91.9421 152.497 95.8749C150.671 99.8076 147.441 102.915 143.44 104.587C139.44 106.259 134.958 106.374 130.877 104.91C126.796 103.446 123.41 100.508 121.385 96.6741C119.36 92.8404 118.841 88.3877 119.932 84.1913V84.1913L115.146 77.7211Z" fill="#FAFAFA"/>
<path d="M115.146 77.7211C115.435 78.1094 116.936 80.093 120 84.1598H119.89C119.894 84.1512 119.9 84.1435 119.907 84.1373C119.914 84.1311 119.922 84.1266 119.931 84.1241C119.94 84.1216 119.95 84.1211 119.959 84.1228C119.968 84.1244 119.977 84.1281 119.985 84.1336C119.997 84.141 120.007 84.152 120.012 84.1652C120.018 84.1784 120.019 84.193 120.016 84.207C119.265 87.1509 119.305 90.241 120.132 93.1646C120.374 94.0418 120.696 94.8954 121.092 95.7149C121.302 96.1347 121.501 96.565 121.727 96.99L122.509 98.2337C125.006 101.853 128.783 104.39 133.077 105.334C135.455 105.856 137.916 105.867 140.298 105.365C142.809 104.819 145.168 103.726 147.209 102.164C149.346 100.541 151.064 98.4306 152.22 96.0087C153.417 93.5461 154.007 90.8328 153.941 88.0955C153.865 85.4769 153.201 82.9089 152 80.581C150.87 78.3742 149.268 76.443 147.309 74.9242C143.779 72.1959 139.337 70.9262 134.898 71.3768C133.023 71.6019 131.192 72.1078 129.467 72.8776C126.723 74.1459 124.358 76.1107 122.608 78.5764C122.603 78.5865 122.594 78.5945 122.584 78.5993C122.574 78.604 122.562 78.6052 122.551 78.6027L115.146 77.7211L122.566 78.4715L122.504 78.503C124.247 76.0038 126.623 74.012 129.388 72.7307C131.122 71.9319 132.968 71.4045 134.861 71.1669C139.361 70.6906 143.871 71.9646 147.455 74.7248C149.449 76.2616 151.078 78.2202 152.225 80.4603C153.452 82.8217 154.129 85.4302 154.204 88.0902C154.273 90.8706 153.676 93.6271 152.462 96.1294C151.285 98.5887 149.538 100.731 147.366 102.379C145.292 103.962 142.895 105.07 140.345 105.622C137.921 106.132 135.416 106.116 132.999 105.575C128.658 104.618 124.844 102.046 122.33 98.3806L121.543 97.1212C121.318 96.6909 121.118 96.2501 120.903 95.8251C120.508 94.9947 120.189 94.1306 119.948 93.2433C119.125 90.2885 119.103 87.1678 119.885 84.2018L120.011 84.249C120.001 84.2643 119.986 84.2754 119.969 84.2802C119.951 84.285 119.933 84.2833 119.916 84.2753L115.146 77.7211Z" fill="#263238"/>
<path d="M130.348 82.3442C130.354 82.4245 130.354 82.5052 130.348 82.5856C130.348 82.7587 130.348 82.9791 130.348 83.2572C130.348 83.8659 130.348 84.7108 130.38 85.7813C130.38 87.959 130.417 91.0288 130.443 94.7021L130.322 94.5814H142.67C142.701 94.5499 142.413 94.8385 142.533 94.7126V93.0334C142.533 92.4824 142.533 91.9314 142.533 91.3857V88.1899C142.533 86.1224 142.533 84.1651 142.533 82.3652L142.649 82.4859L133.728 82.4229L131.204 82.3966H130.532H130.291H130.506H131.157L133.649 82.3652L142.638 82.3074H142.759V82.4229C142.759 84.2228 142.759 86.1801 142.759 88.2476V94.7073C142.885 94.5866 142.596 94.8805 142.622 94.849H130.275H130.154V94.7073C130.154 91.0026 130.196 87.9118 130.212 85.7183C130.212 84.6688 130.212 83.8187 130.244 83.2205C130.244 82.9529 130.244 82.7377 130.244 82.5698C130.268 82.4902 130.304 82.4143 130.348 82.3442Z" fill="#263238"/>
<path d="M141.363 84.3855C141.541 84.5271 139.883 86.92 137.653 89.7327C137.212 90.2942 136.777 90.8294 136.373 91.3069L136.11 91.627L135.816 91.3594C133.885 89.6225 132.579 88.2896 132.694 88.1532C132.81 88.0167 134.326 89.1187 136.325 90.7769L135.764 90.8294C136.147 90.3047 136.567 89.7799 137.013 89.2237C139.238 86.411 141.19 84.249 141.363 84.3855Z" fill="#0572E6"/>
</svg>
