<svg width="25" height="25" viewBox="0 0 25 25" fill="none" xmlns="http://www.w3.org/2000/svg">
<path d="M12.1777 22.4439C17.7006 22.4439 22.1777 17.9667 22.1777 12.4439C22.1777 6.921 17.7006 2.44385 12.1777 2.44385C6.65489 2.44385 2.17773 6.921 2.17773 12.4439C2.17773 17.9667 6.65489 22.4439 12.1777 22.4439Z" stroke="#0572E6" stroke-width="2" stroke-linecap="round" stroke-linejoin="round"/>
<path d="M9.26758 9.44385C9.50268 8.77552 9.96673 8.21196 10.5775 7.85298C11.1883 7.49401 11.9065 7.36279 12.6048 7.48256C13.303 7.60234 13.9364 7.96538 14.3927 8.50738C14.8489 9.04938 15.0986 9.73537 15.0976 10.4439C15.0976 12.4439 12.0976 13.4439 12.0976 13.4439" stroke="#0572E6" stroke-width="2" stroke-linecap="round" stroke-linejoin="round"/>
<path d="M12.1777 17.4439H12.1877" stroke="#0572E6" stroke-width="2" stroke-linecap="round" stroke-linejoin="round"/>
</svg>
