<svg width="428" height="324" viewBox="0 0 428 324" fill="none" xmlns="http://www.w3.org/2000/svg">
<rect width="428" height="324" fill="#0572E6"/>
<mask id="mask0_16_417" style="mask-type:alpha" maskUnits="userSpaceOnUse" x="0" y="0" width="428" height="324">
<rect width="428" height="324" fill="#0572E6"/>
</mask>
<g mask="url(#mask0_16_417)">
<path d="M184 46.7436C261.219 3.25044 428 0.354126 428 0.354126L430.5 301.354H0V180.246C0 180.246 49.8691 170.539 77.5 158.291C140.438 130.391 125.887 79.4751 184 46.7436Z" fill="url(#paint0_linear_16_417)"/>
<path d="M288.187 155.928C383.793 138.673 537.596 184.447 537.596 184.447L517 294.272L365.675 459.725L-27 334.753L-16 226.758C-16 226.758 94.1956 229.909 126.488 226.758C200.042 219.58 216.237 168.914 288.187 155.928Z" fill="#0572E6"/>
</g>
<defs>
<linearGradient id="paint0_linear_16_417" x1="215.25" y1="0.354126" x2="215.25" y2="301.354" gradientUnits="userSpaceOnUse">
<stop stop-color="white" stop-opacity="0.13"/>
<stop offset="1" stop-color="white" stop-opacity="0"/>
</linearGradient>
</defs>
</svg>
