<svg xmlns="http://www.w3.org/2000/svg" xmlns:xlink="http://www.w3.org/1999/xlink" width="150" zoomAndPan="magnify" viewBox="0 0 300 74.999997" height="50" preserveAspectRatio="xMidYMid meet" version="1.0"><defs><g/></defs><g fill="#ffffff" fill-opacity="1"><g transform="translate(2.628614, 62.756844)"><g><path d="M 37.058594 -24.613281 C 36.921875 -23.664062 36.785156 -23.050781 36.171875 -20.398438 C 35.289062 -16.726562 33.179688 -4.554688 33.179688 -3.265625 C 33.179688 -2.242188 33.726562 -1.5625 34.882812 -1.089844 C 36.308594 -0.542969 38.214844 -0.203125 40.050781 -0.203125 C 41.886719 -0.203125 42.835938 -0.542969 43.585938 -1.496094 C 44.265625 -2.378906 44.265625 -2.378906 44.875 -7.75 L 48.074219 -36.851562 C 48.34375 -39.027344 48.414062 -40.117188 48.414062 -40.730469 C 48.414062 -41.886719 48.003906 -42.566406 46.710938 -43.3125 C 45.285156 -44.128906 42.15625 -44.945312 40.183594 -44.945312 C 38.214844 -44.945312 37.601562 -44.265625 34.675781 -39.367188 C 29.984375 -31.480469 28.355469 -28.355469 23.867188 -18.359375 C 24.410156 -21.691406 24.546875 -24.003906 24.546875 -27.945312 C 24.546875 -33.386719 24.34375 -39.234375 24.136719 -41.070312 C 24.003906 -42.429688 23.457031 -43.246094 22.371094 -43.722656 C 20.535156 -44.535156 17.203125 -45.214844 15.300781 -45.214844 C 13.257812 -45.214844 12.578125 -44.875 11.832031 -43.449219 C 10.402344 -40.863281 7.75 -33.113281 3.058594 -18.085938 C 0.816406 -10.878906 -0.679688 -5.101562 -0.679688 -3.605469 C -0.679688 -2.855469 -0.273438 -2.3125 0.613281 -1.835938 C 2.109375 -1.089844 4.691406 -0.476562 6.390625 -0.476562 C 8.226562 -0.476562 9.042969 -1.429688 9.792969 -4.351562 C 9.859375 -4.691406 10.0625 -5.441406 10.265625 -6.253906 L 15.570312 -25.292969 C 15.503906 -23.527344 15.503906 -23.527344 15.027344 -15.84375 C 14.890625 -13.667969 14.753906 -8.769531 14.753906 -6.1875 C 14.753906 -3.265625 14.824219 -2.789062 15.433594 -2.242188 C 16.589844 -1.222656 19.242188 -0.40625 21.28125 -0.40625 C 22.914062 -0.40625 23.867188 -0.746094 24.683594 -1.632812 C 25.226562 -2.242188 25.226562 -2.242188 27.605469 -6.800781 Z M 37.058594 -24.613281 "/></g></g></g><g fill="#ffffff" fill-opacity="1"><g transform="translate(53.078836, 62.756844)"><g><path d="M 11.96875 -25.5 C 14.484375 -25.429688 16.046875 -25.363281 16.660156 -25.363281 C 18.15625 -25.292969 19.242188 -25.292969 21.828125 -25.15625 C 22.640625 -25.089844 23.730469 -25.089844 24.070312 -25.089844 C 25.292969 -25.089844 25.769531 -25.363281 26.246094 -26.382812 C 26.992188 -27.808594 27.742188 -30.734375 27.742188 -32.027344 C 27.742188 -33.179688 27.199219 -33.453125 24.75 -33.523438 C 24.273438 -33.523438 23.253906 -33.589844 21.894531 -33.65625 C 18.15625 -33.863281 15.300781 -33.929688 13.328125 -33.929688 C 7.003906 -33.929688 6.121094 -33.863281 5.644531 -33.316406 C 5.03125 -32.636719 3.535156 -27.878906 3.535156 -26.722656 C 3.535156 -25.769531 4.214844 -25.5 6.324219 -25.5 L 4.894531 -20.398438 C 2.992188 -20.398438 2.71875 -20.261719 2.242188 -19.582031 C 1.5625 -18.425781 0.746094 -15.367188 0.746094 -13.597656 C 0.746094 -12.714844 1.089844 -12.375 2.449219 -12.238281 L 1.292969 -6.933594 C 1.019531 -5.847656 1.019531 -5.847656 1.019531 -5.441406 C 1.019531 -4.417969 1.769531 -3.128906 3.265625 -1.5625 C 4.417969 -0.339844 5.167969 -0.136719 8.839844 -0.136719 L 11.898438 -0.136719 C 13.054688 -0.136719 15.570312 -0.136719 17 -0.0664062 L 17.203125 -0.0664062 C 18.425781 -0.0664062 18.96875 -0.203125 19.445312 -0.746094 C 20.261719 -1.5625 21.214844 -4.417969 21.214844 -6.253906 C 21.214844 -7.75 20.941406 -7.820312 14.617188 -7.820312 L 10.675781 -7.886719 L 11.695312 -12.238281 C 13.191406 -12.238281 16.863281 -12.101562 19.105469 -11.96875 C 19.71875 -11.898438 20.332031 -11.898438 20.535156 -11.898438 C 21.554688 -11.898438 22.03125 -12.238281 22.574219 -13.257812 C 23.390625 -14.957031 24.136719 -17.609375 24.136719 -18.902344 C 24.136719 -20.125 24.136719 -20.125 14.617188 -20.332031 L 14.074219 -20.398438 C 14.414062 -21.078125 14.753906 -22.300781 14.753906 -22.640625 C 14.753906 -23.324219 14.414062 -23.59375 11.832031 -24.816406 C 11.628906 -24.886719 11.082031 -25.15625 10.472656 -25.5 Z M 11.96875 -25.5 "/></g></g></g><g fill="#ffffff" fill-opacity="1"><g transform="translate(79.79977, 62.756844)"><g><path d="M 2.921875 -14.550781 C 1.902344 -10.8125 1.292969 -8.023438 1.292969 -6.800781 C 1.292969 -5.574219 1.769531 -4.894531 4.214844 -2.449219 C 6.390625 -0.273438 6.664062 -0.136719 8.5 -0.136719 C 12.238281 -0.136719 15.980469 -1.222656 19.652344 -3.46875 C 25.703125 -7.140625 29.714844 -13.871094 29.714844 -20.398438 C 29.714844 -28.964844 23.324219 -34.40625 13.328125 -34.40625 C 10.472656 -34.40625 7.140625 -33.863281 5.304688 -33.113281 C 4.285156 -32.707031 3.875 -32.160156 3.46875 -30.460938 C 3.398438 -30.191406 3.128906 -29.238281 2.789062 -27.945312 C 2.3125 -26.246094 2.175781 -25.769531 2.175781 -25.429688 C 2.175781 -25.023438 2.449219 -24.683594 2.921875 -24.683594 C 3.265625 -24.683594 3.671875 -24.816406 4.417969 -25.089844 C 4.964844 -25.292969 5.304688 -25.429688 5.441406 -25.5 C 5.507812 -25.566406 5.78125 -25.632812 6.050781 -25.703125 Z M 14.277344 -20.804688 C 14.824219 -22.914062 14.824219 -22.914062 14.824219 -23.324219 C 14.824219 -24.816406 12.851562 -25.90625 9.246094 -26.585938 C 10.402344 -26.992188 10.945312 -27.0625 12.171875 -27.0625 C 17 -27.0625 20.261719 -24.136719 20.261719 -19.785156 C 20.261719 -14.550781 16.113281 -9.722656 11.289062 -9.246094 Z M 14.277344 -20.804688 "/></g></g></g><g fill="#ffffff" fill-opacity="1"><g transform="translate(111.144173, 62.756844)"><g><path d="M 10.132812 -33.996094 C 9.179688 -33.996094 8.703125 -33.929688 8.296875 -33.589844 C 7.75 -33.179688 7.75 -33.179688 5.78125 -27.265625 C 3.058594 -18.902344 -0.613281 -5.304688 -0.613281 -3.535156 C -0.613281 -2.652344 -0.203125 -2.109375 0.882812 -1.5625 C 2.039062 -0.953125 4.488281 -0.40625 6.050781 -0.40625 C 8.429688 -0.40625 8.90625 -0.679688 9.382812 -2.652344 C 9.519531 -2.992188 9.585938 -3.398438 9.722656 -3.808594 C 10.402344 -6.527344 11.015625 -9.113281 11.628906 -11.628906 C 12.441406 -14.753906 15.707031 -26.585938 16.113281 -27.878906 C 16.863281 -30.121094 17.066406 -30.9375 17.066406 -31.34375 C 17.066406 -32.976562 14.414062 -33.996094 10.132812 -33.996094 Z M 10.132812 -33.996094 "/></g></g></g><g fill="#ffffff" fill-opacity="1"><g transform="translate(128.07423, 62.756844)"><g><path d="M 9.859375 -8.296875 L 12.375 -8.296875 C 13.597656 -8.296875 14.414062 -9.382812 15.503906 -12.441406 L 15.027344 -4.285156 L 15.027344 -3.535156 C 15.027344 -0.816406 15.980469 -0.136719 19.71875 -0.136719 C 22.914062 -0.136719 23.730469 -0.816406 23.796875 -3.46875 C 23.796875 -3.945312 23.796875 -4.894531 23.867188 -6.324219 L 23.933594 -15.027344 C 23.933594 -20.738281 23.867188 -22.980469 23.390625 -28.964844 C 23.253906 -30.9375 22.980469 -32.027344 22.371094 -32.5 C 21.691406 -33.046875 17.542969 -33.929688 15.503906 -33.929688 C 14.347656 -33.929688 13.734375 -33.589844 12.917969 -32.433594 C 12.035156 -31.277344 8.5 -25.023438 7.070312 -22.167969 C 6.1875 -20.601562 5.371094 -18.96875 4.554688 -17.339844 C 4.488281 -17.132812 4.351562 -16.863281 4.214844 -16.726562 C 3.945312 -16.660156 3.808594 -16.660156 3.738281 -16.726562 L 2.855469 -16.726562 C 1.5625 -16.726562 0.953125 -16.386719 0.339844 -15.367188 C -0.40625 -14.074219 -1.222656 -10.8125 -1.222656 -9.316406 C -1.222656 -8.566406 -0.953125 -8.296875 0 -8.160156 L -0.953125 -6.1875 C -1.699219 -4.417969 -1.902344 -3.875 -1.902344 -3.398438 C -1.902344 -2.789062 -1.5625 -2.242188 -0.953125 -1.835938 C 0.476562 -0.953125 2.992188 -0.203125 4.417969 -0.203125 C 5.644531 -0.203125 6.050781 -0.613281 7.140625 -2.789062 Z M 15.707031 -16.589844 L 12.648438 -16.660156 C 13.054688 -17.746094 13.191406 -18.085938 14.210938 -20.398438 C 14.617188 -21.351562 15.027344 -22.234375 15.300781 -22.914062 C 15.570312 -23.59375 15.84375 -24.273438 16.183594 -24.953125 L 16.660156 -26.109375 C 16.589844 -25.5 16.589844 -25.023438 16.523438 -24.886719 L 16.453125 -24.070312 C 16.183594 -21.894531 16.183594 -21.554688 16.046875 -20.125 L 15.773438 -17.542969 Z M 15.707031 -16.589844 "/></g></g></g><g fill="#ffffff" fill-opacity="1"><g transform="translate(159.192093, 65.381843)"><g><path d="M 19.757812 -52.636719 C 9.28125 -53.035156 9.28125 -53.035156 8.480469 -53.035156 C 6.320312 -53.035156 5.679688 -52.796875 5.121094 -51.996094 C 4 -50.398438 2.640625 -45.4375 2.640625 -43.199219 C 2.640625 -40.878906 3.601562 -40.476562 9.121094 -40.398438 L 13.4375 -40.398438 C 13.519531 -40.398438 14 -40.398438 14.71875 -40.316406 L 14.398438 -39.359375 C 8.878906 -21.4375 4.238281 -5.28125 4.238281 -3.839844 C 4.238281 -2.71875 5.039062 -2.078125 7.199219 -1.359375 C 9.039062 -0.800781 11.519531 -0.398438 13.519531 -0.398438 C 16.320312 -0.398438 16.957031 -1.039062 17.839844 -4.878906 C 18.558594 -7.679688 20.796875 -16.078125 24.796875 -30.636719 C 26 -34.878906 26.160156 -35.519531 26.160156 -36.15625 C 26.160156 -37.359375 24.558594 -38.636719 21.917969 -39.515625 L 20.480469 -39.996094 C 20.398438 -39.996094 19.917969 -40.15625 19.4375 -40.316406 C 20.480469 -40.398438 21.039062 -40.398438 21.597656 -40.398438 C 23.117188 -40.398438 23.117188 -40.398438 27.4375 -40.15625 C 32.398438 -39.835938 32.398438 -39.835938 32.796875 -39.835938 C 34.476562 -39.835938 35.277344 -40.476562 35.996094 -42.398438 C 36.878906 -44.796875 37.835938 -48.476562 37.835938 -49.757812 C 37.835938 -50.796875 37.519531 -51.4375 36.796875 -51.675781 C 36.316406 -51.917969 36.316406 -51.917969 30 -52.238281 Z M 19.757812 -52.636719 "/></g></g></g><g fill="#ffffff" fill-opacity="1"><g transform="translate(191.428963, 65.381843)"><g><path d="M 14.078125 -30 C 17.039062 -29.917969 18.878906 -29.839844 19.597656 -29.839844 C 21.359375 -29.757812 22.636719 -29.757812 25.679688 -29.597656 C 26.636719 -29.519531 27.917969 -29.519531 28.316406 -29.519531 C 29.757812 -29.519531 30.316406 -29.839844 30.878906 -31.039062 C 31.757812 -32.71875 32.636719 -36.15625 32.636719 -37.675781 C 32.636719 -39.039062 31.996094 -39.359375 29.117188 -39.4375 C 28.558594 -39.4375 27.359375 -39.515625 25.757812 -39.597656 C 21.359375 -39.835938 18 -39.917969 15.679688 -39.917969 C 8.238281 -39.917969 7.199219 -39.835938 6.640625 -39.199219 C 5.917969 -38.398438 4.160156 -32.796875 4.160156 -31.4375 C 4.160156 -30.316406 4.960938 -30 7.441406 -30 L 5.757812 -24 C 3.519531 -24 3.199219 -23.839844 2.640625 -23.039062 C 1.839844 -21.679688 0.878906 -18.078125 0.878906 -16 C 0.878906 -14.960938 1.28125 -14.558594 2.878906 -14.398438 L 1.519531 -8.160156 C 1.199219 -6.878906 1.199219 -6.878906 1.199219 -6.398438 C 1.199219 -5.199219 2.078125 -3.679688 3.839844 -1.839844 C 5.199219 -0.398438 6.078125 -0.160156 10.398438 -0.160156 L 14 -0.160156 C 15.359375 -0.160156 18.320312 -0.160156 20 -0.078125 L 20.238281 -0.078125 C 21.679688 -0.078125 22.320312 -0.238281 22.878906 -0.878906 C 23.839844 -1.839844 24.957031 -5.199219 24.957031 -7.359375 C 24.957031 -9.121094 24.636719 -9.199219 17.199219 -9.199219 L 12.558594 -9.28125 L 13.757812 -14.398438 C 15.519531 -14.398438 19.839844 -14.238281 22.480469 -14.078125 C 23.199219 -14 23.917969 -14 24.160156 -14 C 25.359375 -14 25.917969 -14.398438 26.558594 -15.597656 C 27.519531 -17.597656 28.398438 -20.71875 28.398438 -22.238281 C 28.398438 -23.679688 28.398438 -23.679688 17.199219 -23.917969 L 16.558594 -24 C 16.957031 -24.796875 17.359375 -26.238281 17.359375 -26.636719 C 17.359375 -27.4375 16.957031 -27.757812 13.917969 -29.199219 C 13.679688 -29.277344 13.039062 -29.597656 12.320312 -30 Z M 14.078125 -30 "/></g></g></g><g fill="#ffffff" fill-opacity="1"><g transform="translate(222.865904, 65.381843)"><g><path d="M 18.878906 -30.796875 C 19.679688 -30.796875 20.238281 -30.316406 20.238281 -29.519531 C 20.238281 -29.199219 20.160156 -28.957031 19.917969 -28.078125 C 19.757812 -27.679688 19.679688 -27.277344 19.679688 -27.039062 C 19.679688 -25.839844 20.957031 -25.199219 23.277344 -25.199219 C 28.078125 -25.199219 30.15625 -27.117188 30.15625 -31.519531 C 30.15625 -37.277344 27.039062 -40.316406 21.117188 -40.316406 C 9.917969 -40.316406 0.800781 -28.238281 0.800781 -13.359375 C 0.800781 -5.199219 4.878906 0.238281 10.960938 0.238281 C 15.359375 0.238281 20.078125 -2 22.71875 -5.359375 C 24.636719 -7.839844 26.398438 -12.078125 26.398438 -14.398438 C 26.398438 -15.917969 24.796875 -16.800781 22 -16.800781 C 20.796875 -16.800781 19.039062 -16.398438 18.078125 -15.917969 C 17.039062 -15.4375 16.957031 -15.359375 15.757812 -12.71875 C 15.199219 -11.359375 14.480469 -10.71875 13.597656 -10.71875 C 12.320312 -10.71875 11.679688 -11.597656 11.679688 -13.359375 C 11.679688 -17.917969 13.199219 -23.359375 15.839844 -28.160156 C 16.800781 -29.839844 17.839844 -30.796875 18.878906 -30.796875 Z M 18.878906 -30.796875 "/></g></g></g><g fill="#ffffff" fill-opacity="1"><g transform="translate(252.223053, 65.381843)"><g><path d="M 23.519531 -24.238281 L 16.398438 -24.398438 L 16.640625 -25.359375 L 18 -29.757812 L 18.957031 -32.878906 C 19.917969 -35.757812 19.917969 -35.757812 19.917969 -36.398438 C 19.917969 -37.519531 19.277344 -38.316406 18.078125 -38.796875 C 16.640625 -39.359375 14.160156 -39.917969 12.878906 -39.917969 C 11.4375 -39.917969 10.480469 -39.277344 9.839844 -38.078125 C 9.359375 -37.039062 7.28125 -30.558594 6.238281 -26.71875 L 5.757812 -24.957031 L 5.601562 -24.398438 C 5.359375 -24.476562 5.121094 -24.476562 5.039062 -24.476562 C 3.757812 -24.476562 2.960938 -24.160156 2.480469 -23.4375 C 1.679688 -22.320312 0.398438 -18 0.398438 -16.480469 C 0.398438 -15.117188 0.960938 -14.558594 2.800781 -14.160156 L 2.640625 -13.4375 L 1.679688 -9.757812 C 0.320312 -4.71875 0.160156 -3.839844 0.160156 -3.121094 C 0.160156 -2.320312 0.558594 -1.917969 2.078125 -1.359375 C 3.519531 -0.800781 5.839844 -0.398438 7.519531 -0.398438 C 9.839844 -0.398438 10.320312 -1.039062 11.359375 -5.441406 C 11.679688 -6.878906 12 -8.078125 12.238281 -9.121094 C 13.199219 -12.878906 13.199219 -13.039062 13.4375 -14.160156 L 15.597656 -14.160156 C 18.398438 -14.078125 18.957031 -14.398438 21.277344 -17.917969 L 22.320312 -19.597656 C 22.398438 -19.679688 22.558594 -20 22.878906 -20.480469 C 22.398438 -18.878906 22.238281 -18.480469 21.839844 -17.117188 C 19.199219 -8.238281 17.917969 -3.839844 17.917969 -3.039062 C 17.917969 -1.359375 20.320312 -0.480469 24.878906 -0.480469 C 27.597656 -0.480469 27.917969 -0.71875 28.796875 -3.519531 C 31.277344 -11.679688 37.359375 -35.039062 37.359375 -36.476562 C 37.359375 -37.359375 36.796875 -38.15625 35.679688 -38.558594 C 34.316406 -39.199219 30.636719 -39.917969 29.199219 -39.917969 C 27.597656 -39.917969 27.597656 -39.917969 26 -33.679688 L 24.71875 -28.796875 C 24.398438 -27.597656 24.078125 -26.316406 23.757812 -25.039062 Z M 23.519531 -24.238281 "/></g></g></g><g fill="#ffffff" fill-opacity="1"><g transform="translate(289.819397, 65.381843)"><g><path d="M 4.558594 -12.078125 C 1.441406 -12.078125 -1.519531 -8.320312 -1.519531 -4.398438 C -1.519531 -1.761719 0.398438 0.160156 3.039062 0.160156 C 6.078125 0.160156 8.878906 -3.121094 8.878906 -6.800781 C 8.878906 -9.839844 7.039062 -12.078125 4.558594 -12.078125 Z M 4.558594 -12.078125 "/></g></g></g></svg>

