<svg width="30" height="30" viewBox="0 0 30 30" fill="none" xmlns="http://www.w3.org/2000/svg">
<path d="M7.8667 13.2666L10.1778 25.6736C10.1778 26.4764 12.2578 27.1333 14.8 27.1333C17.3423 27.1333 19.4223 26.4764 19.4223 25.6736L21.7334 13.2666" stroke="#CEE1F2" stroke-width="2.8" stroke-miterlimit="10" stroke-linecap="round" stroke-linejoin="round"/>
<path d="M14.8 14.1332C19.1078 14.1332 22.6 12.9692 22.6 11.5332C22.6 10.0973 19.1078 8.93323 14.8 8.93323C10.4922 8.93323 7 10.0973 7 11.5332C7 12.9692 10.4922 14.1332 14.8 14.1332Z" stroke="#0023C4" stroke-width="2" stroke-miterlimit="10" stroke-linecap="round" stroke-linejoin="round"/>
<path d="M7 11.5333L9.6 26.2667C9.6 27.22 11.94 28 14.8 28C17.66 28 20 27.22 20 26.2667L22.6 11.5333" stroke="#0023C4" stroke-width="2" stroke-miterlimit="10" stroke-linecap="round" stroke-linejoin="round"/>
<path d="M9.59998 2H12.0266C13.5866 2 14.8 3.21333 14.8 4.77333V10.6667" stroke="#FF5CF4" stroke-width="2" stroke-miterlimit="10" stroke-linecap="round" stroke-linejoin="round"/>
</svg>
