<svg width="30" height="30" viewBox="0 0 30 30" fill="none" xmlns="http://www.w3.org/2000/svg">
<rect x="4.9" y="3.9" width="9.2" height="9.2" rx="3.1" stroke="#FF5CF4" stroke-width="2.2"/>
<path d="M26.1 9.5V7.5C26.1 7.47072 26.1 7.44167 26.1001 7.41285C26.1004 7.03616 26.1007 6.69827 26.0404 6.39522C25.7958 5.16548 24.8345 4.20418 23.6048 3.95957C23.3017 3.89928 22.9638 3.8996 22.5871 3.89995C22.5583 3.89997 22.5293 3.9 22.5 3.9C22.4707 3.9 22.4417 3.89997 22.4129 3.89995C22.0362 3.8996 21.6983 3.89928 21.3952 3.95957C20.1655 4.20418 19.2042 5.16548 18.9596 6.39522C18.8993 6.69827 18.8996 7.03616 18.8999 7.41285C18.9 7.44167 18.9 7.47072 18.9 7.5V9.5C18.9 9.52928 18.9 9.55833 18.8999 9.58715C18.8996 9.96384 18.8993 10.3017 18.9596 10.6048C19.2042 11.8345 20.1655 12.7958 21.3952 13.0404C21.6983 13.1007 22.0362 13.1004 22.4129 13.1001C22.4417 13.1 22.4707 13.1 22.5 13.1C22.5293 13.1 22.5583 13.1 22.5871 13.1001C22.9638 13.1004 23.3017 13.1007 23.6048 13.0404C24.8345 12.7958 25.7958 11.8345 26.0404 10.6048C26.1007 10.3017 26.1004 9.96384 26.1001 9.58715C26.1 9.55833 26.1 9.52928 26.1 9.5Z" stroke="#CEE1F2" stroke-width="2.2"/>
<rect x="16.9" y="3.9" width="9.2" height="9.2" rx="3.1" stroke="#0023C4" stroke-width="2.2"/>
<rect x="4.9" y="15.9" width="9.2" height="9.2" rx="3.1" stroke="#0023C4" stroke-width="2.2"/>
<rect x="16.9" y="15.9" width="9.2" height="9.2" rx="3.1" stroke="#0023C4" stroke-width="2.2"/>
</svg>
