<svg width="30" height="30" viewBox="0 0 30 30" fill="none" xmlns="http://www.w3.org/2000/svg">
<path d="M7.09151 15C4.49151 12.4 3.9415 8.6 6.5415 6L14.5915 13" stroke="#CEE1F2" stroke-width="2" stroke-miterlimit="10" stroke-linecap="round" stroke-linejoin="round"/>
<path d="M5.54155 13.3C2.94155 10.7 2.94155 6.6 5.54155 4L16.6416 15.1L20.3416 18.8L26.0416 24.5C27.0416 25.5 27.0416 27 26.0416 28C25.0416 29 23.2416 29 22.3416 27.8L18.2416 22.7C17.2416 21.4 15.4416 21 13.8416 21.6L5.54155 13.3Z" stroke="#0023C4" stroke-width="2" stroke-miterlimit="10" stroke-linecap="round" stroke-linejoin="round"/>
<path d="M18.8915 11.1L24.2915 5.69995" stroke="#FF5CF4" stroke-width="2" stroke-miterlimit="10" stroke-linecap="round" stroke-linejoin="round"/>
<path d="M17.1915 14.7999C17.5915 14.6999 17.8915 14.6999 18.2915 14.5999C19.5915 14.4999 21.0915 13.7999 22.5915 12.2999L27.4915 7.3999" stroke="#0023C4" stroke-width="2" stroke-miterlimit="10" stroke-linecap="round" stroke-linejoin="round"/>
<path d="M9.89151 18.3L2.89151 24C1.79151 24.8 1.69151 26.4 2.69151 27.3C3.69151 28.3 5.19151 28.1 5.99151 27.1L11.6915 20" stroke="#0023C4" stroke-width="2" stroke-miterlimit="10" stroke-linecap="round" stroke-linejoin="round"/>
<path d="M22.0916 2L17.0916 6.9C15.5916 8.4 14.7916 9.9 14.7916 11.2C14.7916 11.6 14.6916 11.9 14.5916 12.3" stroke="#0023C4" stroke-width="2" stroke-miterlimit="10" stroke-linecap="round" stroke-linejoin="round"/>
</svg>
