<svg width="25" height="25" viewBox="0 0 25 25" fill="none" xmlns="http://www.w3.org/2000/svg">
<path d="M21.2848 16.2675C20.6486 17.7719 19.6536 19.0977 18.3867 20.1288C17.1198 21.1598 15.6196 21.8649 14.0172 22.1822C12.4149 22.4996 10.7592 22.4196 9.19495 21.9493C7.63067 21.4789 6.20543 20.6325 5.04382 19.4841C3.88222 18.3357 3.01962 16.9202 2.53144 15.3614C2.04326 13.8026 1.94437 12.1479 2.2434 10.5421C2.54244 8.93624 3.2303 7.42809 4.24685 6.14949C5.2634 4.87089 6.57769 3.86078 8.07481 3.20746" stroke="#0572E6" stroke-width="2" stroke-linecap="round" stroke-linejoin="round"/>
<path d="M22.0748 12.3775C22.0748 11.0643 21.8162 9.76389 21.3136 8.55064C20.8111 7.33738 20.0745 6.23499 19.1459 5.3064C18.2173 4.37782 17.1149 3.64122 15.9017 3.13868C14.6884 2.63613 13.388 2.37747 12.0748 2.37747V12.3775H22.0748Z" stroke="#0572E6" stroke-width="2" stroke-linecap="round" stroke-linejoin="round"/>
</svg>
